<svg version="1.1" xmlns="http://www.w3.org/2000/svg" xmlns:xlink="http://www.w3.org/1999/xlink" width="36.25" height="67.85694" viewBox="0,0,36.25,67.85694"><g transform="translate(-221.75113,-158.72668)"><g data-paper-data="{&quot;isPaintingLayer&quot;:true}" fill-rule="nonzero" stroke-linejoin="miter" stroke-miterlimit="10" stroke-dasharray="" stroke-dashoffset="0" style="mix-blend-mode: normal"><path d="M227.61577,221.8524h-3.50868v4.58452h-1.29589v-10.37934h5.39139v1.12473h-4.0955v3.55758h3.50868zM230.99828,226.43692h-1.25921v-7.71421h1.25921zM231.09609,216.68107c0,0.21191 -0.06113,0.39121 -0.18338,0.53791c-0.1141,0.13855 -0.28933,0.20783 -0.52569,0.20783c-0.24451,0 -0.42789,-0.06928 -0.55014,-0.20783c-0.1141,-0.1467 -0.17115,-0.32601 -0.17115,-0.53791c0,-0.21191 0.05705,-0.39121 0.17115,-0.53791c0.12225,-0.15485 0.30156,-0.23228 0.53792,-0.23228c0.24451,0 0.42381,0.07743 0.53792,0.23228c0.12225,0.1467 0.18338,0.32601 0.18338,0.53791zM235.20907,221.53454l1.32034,-2.81183h1.46704l-2.10276,3.81431l2.15167,3.8999h-1.4426l-1.36924,-2.88519l-1.36925,2.88519h-1.45481l2.15167,-3.8999l-2.09054,-3.81431h1.44259zM249.66623,222.15804c0,1.41814 -0.30156,2.51028 -0.90468,3.2764c-0.60312,0.76612 -1.46296,1.14918 -2.57955,1.14918c-1.06769,0 -1.91124,-0.37084 -2.53066,-1.11251c-0.61942,-0.74982 -0.94135,-1.80528 -0.9658,-3.16637v-1.94383c0,-1.39369 0.30563,-2.48175 0.9169,-3.26418c0.61127,-0.79057 1.46704,-1.18586 2.56733,-1.18586c1.09214,0 1.94383,0.37899 2.5551,1.13696c0.61127,0.74982 0.92506,1.82566 0.94136,3.2275zM248.35812,220.34868c0,-1.10028 -0.17931,-1.91531 -0.53792,-2.44507c-0.35861,-0.53791 -0.90875,-0.80688 -1.65042,-0.80688c-0.71722,0 -1.25922,0.27304 -1.62598,0.8191c-0.36676,0.53791 -0.55422,1.33257 -0.56237,2.38395v1.85825c0,1.05953 0.18338,1.87049 0.55014,2.43285c0.36676,0.55422 0.91691,0.83132 1.65043,0.83132c0.73352,0 1.27551,-0.25673 1.62597,-0.7702c0.35046,-0.51346 0.53384,-1.29997 0.55014,-2.3595zM257.1983,226.43692h-5.80705v-0.95358l2.95854,-3.91212c0.44826,-0.60312 0.75797,-1.0962 0.92912,-1.47927c0.1793,-0.39121 0.26896,-0.8028 0.26896,-1.23476c0,-0.55422 -0.1304,-1.00248 -0.39121,-1.34479c-0.25266,-0.34231 -0.5909,-0.51347 -1.01471,-0.51347c-0.52161,0 -0.92912,0.18338 -1.22253,0.55014c-0.28526,0.35861 -0.42789,0.88023 -0.42789,1.56485h-1.25921c0,-0.95358 0.26081,-1.72377 0.78242,-2.31059c0.52161,-0.59497 1.23068,-0.89245 2.12721,-0.89245c0.83132,0 1.48335,0.25673 1.95606,0.7702c0.47271,0.50531 0.70907,1.17771 0.70907,2.01719c0,1.02693 -0.53383,2.24132 -1.60152,3.64316l-2.3106,3.01967h4.30333z" fill="#7d0000" stroke="none" stroke-width="1" stroke-linecap="square"/><path d="M222.50114,200.72668v-41.25h25.5l9.25,9.5v31.75z" fill="#ffd8d8" stroke="#7d6363" stroke-width="1.5" stroke-linecap="butt"/><path d="M257.49888,169.4788l-12.57165,1.97223l2.29167,-12.17771" fill="#ffb8b8" stroke="none" stroke-width="0" stroke-linecap="butt"/><path d="M256.83223,168.81214h-8.96054v-8.99715" fill="#ffffff" stroke="#7d0000" stroke-width="1.5" stroke-linecap="butt"/><path d="M222.50114,200.72668v-41.25h25.5l9.25,9.5v31.75z" fill="none" stroke="#7d0000" stroke-width="1.5" stroke-linecap="butt"/><g fill="#96a5b3" stroke="none" stroke-width="0.5" stroke-linecap="butt"><path d="M245.20504,165.31214c0,0.5 -0.5,0.5 -0.5,0.5h-0.16667c-3.79183,0 -7.65339,0.32688 -11.4199,0.32688c-2.4423,0.815 -3.4543,-0.72545 -5.33334,-0.66667c-0.62052,0.01941 -1.10416,1.4282 -2.32685,1.16667c-0.95908,-0.20515 -0.9596,-0.69816 -1.22758,-1.50211c0,0 -0.15811,-0.47434 0.31623,-0.63245c0.47434,-0.15811 0.63245,0.31623 0.63245,0.31623c0.63278,1.89834 1.97607,-0.45505 3.52566,-0.34189c1.62016,0.11832 2.02164,1.41616 4.25324,0.67312c3.82055,0 7.73456,-0.33979 11.58009,-0.33979h0.16667c0,0 0.5,0 0.5,0.5z"/><path d="M251.03837,173.47881c0,0.5 -0.5,0.5 -0.5,0.5c-0.5,0 -1.16666,0 -1.66666,0c-1.87022,0 -5.79416,-0.8343 -7.47532,-0.03806c-1.53829,0.72857 -3.38163,1.4651 -5.22695,0.99532c-2.09682,-1.3837 -7.17216,-0.95726 -9.63106,-0.95726c0,0 -0.5,0 -0.5,-0.5c0,-0.5 0.5,-0.5 0.5,-0.5c2.57189,0 7.86218,-0.42197 10.03561,1.04274c1.58395,0.38483 3.13779,-0.48884 4.43972,-1.00468c2.02662,-0.80297 5.70672,-0.03806 7.85801,-0.03806c0.5,0 1,0 1.5,0h0.16666c0,0 0.5,0 0.5,0.5z"/><path d="M251.70504,180.64548c0,0.5 -0.5,0.5 -0.5,0.5l0.08269,-0.22265c-1.10098,1.53099 -2.87977,1.2235 -4.58974,1.22265c-3.36903,-0.00169 -6.68433,-0.49999 -10.15962,-0.49999c-1.96434,0 -3.65652,-0.39828 -5.56109,-0.67042c-1.64756,-0.23542 -3.59053,0.49966 -5.04959,-0.41356c0,0 -0.41603,-0.27735 -0.13868,-0.69338c0.27735,-0.41603 0.69338,-0.13868 0.69338,-0.13868c0.81576,0.60107 2.54824,0.24936 3.55598,0.24936c2.17516,0 4.27026,0.66667 6.5,0.66667c3.4692,0 6.79776,0.49976 10.15991,0.49999c1.18321,0.00008 3.07265,0.40108 3.7574,-0.77734l0.74936,-0.22265c0,0 0.5,0 0.5,0.5z"/><path d="M250.89192,189.1657c-0.35356,0.35356 -0.70711,0 -0.70711,0l0.02022,-0.18689c-2.31978,0 -4.42356,0.71996 -6.58658,0.99354c-3.06613,0.38781 -5.00935,-0.66021 -7.91342,-0.66021c-3.50986,0 -7.00186,-0.16666 -10.5,-0.16666c0,0 -0.5,0 -0.5,-0.5c0,-0.5 0.5,-0.5 0.5,-0.5c3.50232,0 6.98747,0.16666 10.5,0.16666c2.96768,0 4.70669,0.94873 7.75324,0.67313c2.18492,-0.19766 4.39822,-1.00646 6.74676,-1.00646l0.68688,0.47978c0,0 0.35356,0.35356 0,0.70711z"/><path d="M252.67938,196.97026c-0.15812,0.47434 -0.63245,0.31623 -0.63245,0.31623l-0.56156,-0.19185c-0.53231,-0.38049 -0.81016,-0.28249 -1.44699,-0.28249c-2.14112,0 -5.59662,-0.85747 -7.57211,-0.34235c-0.99277,0.25887 -1.74277,1.03643 -2.78111,1.00863c-1.51927,-0.04068 -2.56441,-0.99961 -3.9801,-0.99961c-2.40528,0 -4.61391,1.18482 -6.89443,0.82959c-1.63227,-0.25425 -2.33424,-1.16292 -4.10557,-1.16292c0,0 -0.5,0 -0.5,-0.5c0,-0.5 0.5,-0.5 0.5,-0.5c1.7396,0 2.69956,0.98073 4.22776,1.17041c1.4872,0.18459 1.98736,-0.54685 3.32403,-0.8237c1.03199,-0.21375 2.3826,-0.01338 3.44821,-0.01338c1.34937,0 3.05257,1.55902 4.36653,1.01815c3.24907,-1.33742 6.42625,-0.68481 9.9668,-0.68481c0.77544,0 1.21492,-0.03954 1.88635,0.38417l0.43844,0.14148c0,0 0.47434,0.15812 0.31623,0.63246z"/></g></g></g></svg>