<svg version="1.1" xmlns="http://www.w3.org/2000/svg" xmlns:xlink="http://www.w3.org/1999/xlink" width="38.49139" height="76.56625" viewBox="0,0,38.49139,76.56625"><g transform="translate(-220.26621,-158.72668)"><g data-paper-data="{&quot;isPaintingLayer&quot;:true}" fill-rule="nonzero" stroke-linejoin="miter" stroke-miterlimit="10" stroke-dasharray="" stroke-dashoffset="0" style="mix-blend-mode: normal"><g fill="#000000" stroke="none" stroke-width="1" stroke-linecap="square"><path d="M225.9187,214.75332v3.84269h-1.22914v-9.80725h3.12461c0.91,0 1.62591,0.27386 2.14777,0.82158c0.52185,0.54341 0.78277,1.26795 0.78277,2.17363c0,0.94449 -0.24799,1.6712 -0.74395,2.1801c-0.49597,0.5089 -1.19679,0.772 -2.10248,0.78923zM225.9187,213.69883h1.89546c0.54772,0 0.96606,-0.16389 1.25502,-0.49165c0.29327,-0.32777 0.4399,-0.79786 0.4399,-1.41028c0,-0.58654 -0.15096,-1.05663 -0.45284,-1.41028c-0.29759,-0.35797 -0.70946,-0.53693 -1.23561,-0.53693h-1.90193zM235.17677,212.42441c-0.1682,-0.03018 -0.34718,-0.04528 -0.53693,-0.04528c-0.61241,0 -1.03937,0.33424 -1.28089,1.00272v5.21414h-1.19679v-7.29075h1.16445l0.01941,0.74395c0.31914,-0.58654 0.76983,-0.8798 1.35205,-0.8798c0.18975,0 0.34718,0.03234 0.47225,0.09704zM237.64706,218.59598h-1.19033v-7.29075h1.19033zM237.74411,209.37097c0,0.20271 -0.05606,0.37305 -0.1682,0.51107c-0.11213,0.1337 -0.28249,0.20054 -0.51107,0.20054c-0.22427,0 -0.39246,-0.06685 -0.5046,-0.20054c-0.11213,-0.138 -0.1682,-0.30835 -0.1682,-0.51107c0,-0.20271 0.05606,-0.37305 0.1682,-0.51107c0.11213,-0.138 0.28033,-0.20701 0.5046,-0.20701c0.22427,0 0.39246,0.07116 0.5046,0.21348c0.11644,0.138 0.17467,0.30621 0.17467,0.5046zM240.64529,211.30525l0.03234,0.67279c0.44421,-0.53909 1.0286,-0.80865 1.75314,-0.80865c0.81512,0 1.38441,0.35365 1.70786,1.06094c0.45715,-0.70729 1.09545,-1.06094 1.91487,-1.06094c1.34127,0 2.027,0.83884 2.0572,2.5165v4.91009h-1.18386v-4.80012c0,-0.52616 -0.09488,-0.91863 -0.28464,-1.17739c-0.18545,-0.25876 -0.5046,-0.38815 -0.95744,-0.38815c-0.35797,0 -0.64908,0.14017 -0.87333,0.4205c-0.22427,0.27602 -0.35365,0.62967 -0.38815,1.06094v4.88421h-1.20327v-4.85187c-0.01294,-1.00919 -0.42266,-1.51378 -1.22914,-1.51378c-0.60378,0 -1.0286,0.29974 -1.27442,0.89921v5.46644h-1.18386v-7.29075zM252.51593,218.73184c-0.91,0 -1.60866,-0.26955 -2.09601,-0.80865c-0.48304,-0.54341 -0.72886,-1.33911 -0.73748,-2.38711v-0.8798c0,-1.08682 0.2372,-1.93858 0.71162,-2.55533c0.47441,-0.62104 1.13642,-0.93155 1.98604,-0.93155c0.85393,0 1.49007,0.2717 1.9084,0.81512c0.42266,0.54341 0.6383,1.39087 0.64691,2.54238v0.78277h-4.0691v0.1682c0,0.78061 0.14663,1.3499 0.4399,1.70786c0.29759,0.35365 0.72239,0.53046 1.27442,0.53046c0.34934,0 0.65769,-0.06685 0.92508,-0.20054c0.26739,-0.1337 0.51753,-0.34502 0.75043,-0.63398l0.62104,0.7569c-0.51753,0.72886 -1.30462,1.09329 -2.36124,1.09329zM252.38009,212.19799c-0.49597,0 -0.86256,0.17036 -1.09975,0.51107c-0.2372,0.3364 -0.37305,0.8604 -0.40756,1.57201h2.87231v-0.16173c-0.03018,-0.69005 -0.15526,-1.1817 -0.3752,-1.47497c-0.21564,-0.29759 -0.54556,-0.44637 -0.98977,-0.44637z"/><path d="M225.03399,232.67937c0,-0.49165 -0.1337,-0.86687 -0.40109,-1.12563c-0.26307,-0.26307 -0.7418,-0.51753 -1.43616,-0.76337c-0.69005,-0.24583 -1.21835,-0.5046 -1.58495,-0.7763c-0.36658,-0.2717 -0.64045,-0.58221 -0.82158,-0.93155c-0.18114,-0.34934 -0.2717,-0.74827 -0.2717,-1.19679c0,-0.7763 0.25876,-1.41459 0.7763,-1.91487c0.52185,-0.5046 1.20111,-0.7569 2.03779,-0.7569c0.57792,0 1.09114,0.12939 1.53966,0.38815c0.44853,0.25876 0.79355,0.61673 1.03507,1.07388c0.24583,0.45715 0.36875,0.95959 0.36875,1.50731h-1.24208c0,-0.6081 -0.14663,-1.07819 -0.4399,-1.41028c-0.28896,-0.33208 -0.70946,-0.49813 -1.26149,-0.49813c-0.49597,0 -0.88196,0.14017 -1.15799,0.4205c-0.2717,0.27602 -0.40756,0.66632 -0.40756,1.17092c0,0.41403 0.14663,0.76121 0.4399,1.04154c0.29759,0.27602 0.7569,0.524 1.37794,0.74395c0.96606,0.31914 1.65611,0.71376 2.07013,1.18386c0.41833,0.46578 0.62751,1.07604 0.62751,1.83078c0,0.79355 -0.25876,1.42969 -0.7763,1.9084c-0.51753,0.47871 -1.22051,0.71807 -2.10895,0.71807c-0.56929,0 -1.09545,-0.12507 -1.57848,-0.3752c-0.48304,-0.25013 -0.86256,-0.59947 -1.13857,-1.048c-0.27602,-0.45284 -0.41403,-0.97253 -0.41403,-1.55906h1.23561c0,0.6081 0.1682,1.08035 0.5046,1.41675c0.34071,0.3364 0.80433,0.5046 1.39087,0.5046c0.54341,0 0.95097,-0.138 1.22267,-0.41403c0.27602,-0.28033 0.41403,-0.65985 0.41403,-1.13857zM228.92219,228.61674c0.45284,-0.59084 1.03291,-0.88627 1.7402,-0.88627c1.2852,0 1.93858,0.8604 1.96015,2.58119v4.8454h-1.19033v-4.79365c0,-0.56929 -0.09488,-0.97253 -0.28464,-1.20974c-0.18975,-0.24152 -0.47657,-0.36228 -0.8604,-0.36228c-0.29327,0 -0.5585,0.09919 -0.79571,0.29759c-0.2372,0.19408 -0.42696,0.45068 -0.56929,0.76983v5.29824h-1.19679v-10.35065h1.19679zM235.6763,235.15706h-1.19033v-7.29075h1.19033zM235.77334,225.93203c0,0.20271 -0.05606,0.37305 -0.1682,0.51107c-0.11213,0.1337 -0.28249,0.20054 -0.51107,0.20054c-0.22427,0 -0.39246,-0.06685 -0.5046,-0.20054c-0.11213,-0.138 -0.1682,-0.30835 -0.1682,-0.51107c0,-0.20271 0.05606,-0.37305 0.1682,-0.51107c0.11213,-0.138 0.28033,-0.20701 0.5046,-0.20701c0.22427,0 0.39246,0.07116 0.5046,0.21348c0.11644,0.138 0.17467,0.30621 0.17467,0.5046zM240.16243,235.29291c-0.91,0 -1.60866,-0.26955 -2.09601,-0.80865c-0.48304,-0.54341 -0.72886,-1.33911 -0.73748,-2.38711v-0.8798c0,-1.08682 0.2372,-1.93858 0.71162,-2.55533c0.47441,-0.62104 1.13642,-0.93155 1.98604,-0.93155c0.85393,0 1.49007,0.2717 1.9084,0.81512c0.42266,0.54341 0.6383,1.39087 0.64691,2.54238v0.78277h-4.0691v0.1682c0,0.78061 0.14663,1.3499 0.4399,1.70786c0.29759,0.35365 0.72239,0.53046 1.27442,0.53046c0.34934,0 0.65769,-0.06685 0.92508,-0.20054c0.26739,-0.1337 0.51753,-0.34502 0.75043,-0.63398l0.62104,0.7569c-0.51753,0.72886 -1.30462,1.09329 -2.36124,1.09329zM240.02658,228.75905c-0.49597,0 -0.86256,0.17036 -1.09975,0.51107c-0.2372,0.3364 -0.37305,0.8604 -0.40756,1.57201h2.87231v-0.16173c-0.03018,-0.69005 -0.15526,-1.1817 -0.3752,-1.47497c-0.21564,-0.29759 -0.54556,-0.44637 -0.98977,-0.44637zM245.29768,235.15706h-1.19033v-10.35065h1.19033zM246.92445,231.18499c0,-1.12563 0.20917,-1.98172 0.62751,-2.56825c0.42266,-0.59084 1.02644,-0.88627 1.81136,-0.88627c0.69436,0 1.23777,0.28249 1.63023,0.84746v-3.77152h1.19033v10.35065h-1.08682l-0.06469,-0.78277c-0.38815,0.61241 -0.94665,0.91863 -1.67551,0.91863c-0.75474,0 -1.34774,-0.29327 -1.77903,-0.8798c-0.42696,-0.58654 -0.64475,-1.41459 -0.65338,-2.48416zM248.11477,231.86425c0,0.81512 0.12076,1.41459 0.36228,1.79843c0.24583,0.38383 0.64261,0.57576 1.19033,0.57576c0.59084,0 1.03291,-0.29759 1.32619,-0.89274v-3.68096c-0.30621,-0.58221 -0.74611,-0.87333 -1.31972,-0.87333c-0.54772,0 -0.94449,0.19192 -1.19033,0.57576c-0.24152,0.38383 -0.36444,0.97253 -0.36875,1.76608zM257.56084,233.29394c0,-0.25876 -0.09704,-0.47871 -0.29112,-0.65985c-0.18975,-0.18545 -0.56066,-0.40325 -1.1127,-0.65338c-0.64261,-0.26307 -1.09545,-0.48734 -1.35852,-0.67279c-0.26307,-0.18975 -0.46147,-0.4054 -0.59516,-0.64691c-0.12939,-0.24152 -0.19408,-0.52832 -0.19408,-0.8604c0,-0.59084 0.21564,-1.08251 0.64691,-1.47497c0.43559,-0.39677 0.99195,-0.59516 1.66904,-0.59516c0.70729,0 1.27658,0.20701 1.70786,0.62104c0.43129,0.41403 0.64691,0.94449 0.64691,1.59142h-1.18386c0,-0.32777 -0.10997,-0.60594 -0.32992,-0.83452c-0.21995,-0.23289 -0.50028,-0.34934 -0.84099,-0.34934c-0.35365,0 -0.62967,0.09058 -0.82805,0.2717c-0.19838,0.18114 -0.29759,0.42482 -0.29759,0.73101c0,0.24152 0.07116,0.43775 0.21348,0.5887c0.14663,0.14663 0.50028,0.34071 1.06094,0.58221c0.88412,0.34502 1.48574,0.68358 1.8049,1.01566c0.31914,0.32777 0.47871,0.74611 0.47871,1.25502c0,0.63398 -0.2178,1.14073 -0.65338,1.52025c-0.43559,0.37952 -1.01997,0.56929 -1.75314,0.56929c-0.75904,0 -1.37578,-0.2178 -1.85018,-0.65338c-0.4701,-0.43559 -0.70515,-0.98762 -0.70515,-1.65611h1.19679c0.01726,0.40109 0.14233,0.71807 0.3752,0.95097c0.23289,0.22858 0.56066,0.34287 0.98332,0.34287c0.39246,0 0.6922,-0.08842 0.89921,-0.26523c0.20701,-0.18114 0.31051,-0.4205 0.31051,-0.71807z"/></g><path d="M222.50112,200.72668v-41.25h25.5l9.25,9.5v31.75z" fill="#ffffff" stroke="#63747e" stroke-width="1.5" stroke-linecap="butt"/><path d="M257.49888,169.4788l-12.57165,1.97223l2.29167,-12.17771" fill="#d2d9dc" stroke="none" stroke-width="0" stroke-linecap="butt"/><path d="M256.83222,168.81214h-8.96054v-8.99715" fill="#ffffff" stroke="#63747e" stroke-width="1.5" stroke-linecap="butt"/><path d="M222.50112,200.72668v-41.25h25.5l9.25,9.5v31.75z" fill="none" stroke="#63747e" stroke-width="1.5" stroke-linecap="butt"/><g fill="#96a5b3" stroke="none" stroke-width="0.5" stroke-linecap="butt"><path d="M245.20502,165.31214c0,0.5 -0.5,0.5 -0.5,0.5h-0.16667c-3.79183,0 -7.65339,0.32688 -11.4199,0.32688c-2.4423,0.815 -3.4543,-0.72544 -5.33334,-0.66667c-0.62052,0.01941 -1.10416,1.4282 -2.32685,1.16667c-0.95908,-0.20515 -0.9596,-0.69816 -1.22758,-1.5021c0,0 -0.15811,-0.47434 0.31623,-0.63245c0.47434,-0.15811 0.63245,0.31623 0.63245,0.31623c0.63278,1.89834 1.97607,-0.45505 3.52566,-0.34189c1.62016,0.11832 2.02164,1.41616 4.25324,0.67312c3.82055,0 7.73456,-0.33979 11.58009,-0.33979h0.16667c0,0 0.5,0 0.5,0.5z"/><path d="M251.03835,173.47881c0,0.5 -0.5,0.5 -0.5,0.5c-0.5,0 -1.16666,0 -1.66666,0c-1.87022,0 -5.79416,-0.8343 -7.47532,-0.03806c-1.53829,0.72857 -3.38163,1.4651 -5.22695,0.99532c-2.09682,-1.3837 -7.17216,-0.95726 -9.63106,-0.95726c0,0 -0.5,0 -0.5,-0.5c0,-0.5 0.5,-0.5 0.5,-0.5c2.57189,0 7.86218,-0.42197 10.03561,1.04274c1.58395,0.38483 3.13779,-0.48884 4.43972,-1.00468c2.02662,-0.80297 5.70672,-0.03806 7.85801,-0.03806c0.5,0 1,0 1.5,0h0.16666c0,0 0.5,0 0.5,0.5z"/><path d="M251.70502,180.64548c0,0.5 -0.5,0.5 -0.5,0.5l0.08269,-0.22265c-1.10098,1.53099 -2.87977,1.2235 -4.58974,1.22265c-3.36903,-0.00169 -6.68433,-0.49999 -10.15962,-0.49999c-1.96434,0 -3.65652,-0.39828 -5.56109,-0.67042c-1.64756,-0.23542 -3.59053,0.49966 -5.04959,-0.41356c0,0 -0.41603,-0.27735 -0.13868,-0.69338c0.27735,-0.41603 0.69338,-0.13868 0.69338,-0.13868c0.81576,0.60107 2.54824,0.24936 3.55598,0.24936c2.17516,0 4.27026,0.66667 6.5,0.66667c3.4692,0 6.79776,0.49976 10.15991,0.49999c1.18321,0.00008 3.07265,0.40108 3.7574,-0.77734l0.74936,-0.22265c0,0 0.5,0 0.5,0.5z"/><path d="M250.8919,189.1657c-0.35356,0.35356 -0.70711,0 -0.70711,0l0.02022,-0.18689c-2.31978,0 -4.42356,0.71996 -6.58658,0.99354c-3.06613,0.38781 -5.00935,-0.66021 -7.91342,-0.66021c-3.50986,0 -7.00186,-0.16666 -10.5,-0.16666c0,0 -0.5,0 -0.5,-0.5c0,-0.5 0.5,-0.5 0.5,-0.5c3.50232,0 6.98747,0.16666 10.5,0.16666c2.96768,0 4.70669,0.94873 7.75324,0.67313c2.18492,-0.19766 4.39822,-1.00646 6.74676,-1.00646l0.68688,0.47978c0,0 0.35356,0.35356 0,0.70711z"/><path d="M252.67936,196.97026c-0.15812,0.47434 -0.63245,0.31623 -0.63245,0.31623l-0.56156,-0.19185c-0.53231,-0.38049 -0.81016,-0.28249 -1.44699,-0.28249c-2.14112,0 -5.59662,-0.85747 -7.57211,-0.34235c-0.99277,0.25887 -1.74277,1.03643 -2.78111,1.00863c-1.51927,-0.04068 -2.56441,-0.99961 -3.9801,-0.99961c-2.40528,0 -4.61391,1.18482 -6.89443,0.82959c-1.63227,-0.25425 -2.33424,-1.16292 -4.10557,-1.16292c0,0 -0.5,0 -0.5,-0.5c0,-0.5 0.5,-0.5 0.5,-0.5c1.7396,0 2.69956,0.98073 4.22776,1.17041c1.4872,0.18459 1.98736,-0.54685 3.32403,-0.8237c1.03199,-0.21375 2.3826,-0.01338 3.44821,-0.01338c1.34937,0 3.05257,1.55902 4.36653,1.01815c3.24907,-1.33742 6.42625,-0.68481 9.9668,-0.68481c0.77544,0 1.21492,-0.03953 1.88635,0.38418l0.43844,0.14148c0,0 0.47434,0.15812 0.31623,0.63246z"/></g></g></g></svg>