<svg version="1.1" xmlns="http://www.w3.org/2000/svg" xmlns:xlink="http://www.w3.org/1999/xlink" width="70.59675" height="64.22553" viewBox="0,0,70.59675,64.22553"><g transform="translate(-201.00808,-158.72668)"><g data-paper-data="{&quot;isPaintingLayer&quot;:true}" fill-rule="nonzero" stroke-linejoin="miter" stroke-miterlimit="10" stroke-dasharray="" stroke-dashoffset="0" style="mix-blend-mode: normal"><path d="M222.25112,200.72668v-41.25h25.5l9.25,9.5v31.75z" fill="#ffffff" stroke="#63747e" stroke-width="1.5" stroke-linecap="butt"/><path d="M257.24888,169.4788l-12.57165,1.97223l2.29167,-12.17771" fill="#d2d9dc" stroke="none" stroke-width="0" stroke-linecap="butt"/><path d="M256.58222,168.81214h-8.96054v-8.99715" fill="#ffffff" stroke="#63747e" stroke-width="1.5" stroke-linecap="butt"/><path d="M222.25112,200.72668v-41.25h25.5l9.25,9.5v31.75z" fill="none" stroke="#63747e" stroke-width="1.5" stroke-linecap="butt"/><g fill="#96a5b3" stroke="none" stroke-width="0.5" stroke-linecap="butt"><path d="M244.95502,165.31214c0,0.5 -0.5,0.5 -0.5,0.5h-0.16667c-3.79183,0 -7.65339,0.32688 -11.4199,0.32688c-2.4423,0.815 -3.4543,-0.72544 -5.33334,-0.66667c-0.62052,0.01941 -1.10416,1.4282 -2.32685,1.16667c-0.95908,-0.20515 -0.9596,-0.69816 -1.22758,-1.5021c0,0 -0.15811,-0.47434 0.31623,-0.63245c0.47434,-0.15811 0.63245,0.31623 0.63245,0.31623c0.63278,1.89834 1.97607,-0.45505 3.52566,-0.34189c1.62016,0.11832 2.02164,1.41616 4.25324,0.67312c3.82055,0 7.73456,-0.33979 11.58009,-0.33979h0.16667c0,0 0.5,0 0.5,0.5z"/><path d="M250.78835,173.47881c0,0.5 -0.5,0.5 -0.5,0.5c-0.5,0 -1.16666,0 -1.66666,0c-1.87022,0 -5.79416,-0.8343 -7.47532,-0.03806c-1.53829,0.72857 -3.38163,1.4651 -5.22695,0.99532c-2.09682,-1.3837 -7.17216,-0.95726 -9.63106,-0.95726c0,0 -0.5,0 -0.5,-0.5c0,-0.5 0.5,-0.5 0.5,-0.5c2.57189,0 7.86218,-0.42197 10.03561,1.04274c1.58395,0.38483 3.13779,-0.48884 4.43972,-1.00468c2.02662,-0.80297 5.70672,-0.03806 7.85801,-0.03806c0.5,0 1,0 1.5,0h0.16666c0,0 0.5,0 0.5,0.5z"/><path d="M251.45502,180.64548c0,0.5 -0.5,0.5 -0.5,0.5l0.08269,-0.22265c-1.10098,1.53099 -2.87977,1.2235 -4.58974,1.22265c-3.36903,-0.00169 -6.68433,-0.49999 -10.15962,-0.49999c-1.96434,0 -3.65652,-0.39828 -5.56109,-0.67042c-1.64756,-0.23542 -3.59053,0.49966 -5.04959,-0.41356c0,0 -0.41603,-0.27735 -0.13868,-0.69338c0.27735,-0.41603 0.69338,-0.13868 0.69338,-0.13868c0.81576,0.60107 2.54824,0.24936 3.55598,0.24936c2.17516,0 4.27026,0.66667 6.5,0.66667c3.4692,0 6.79776,0.49976 10.15991,0.49999c1.18321,0.00008 3.07265,0.40108 3.7574,-0.77734l0.74936,-0.22265c0,0 0.5,0 0.5,0.5z"/><path d="M250.6419,189.1657c-0.35356,0.35356 -0.70711,0 -0.70711,0l0.02022,-0.18689c-2.31978,0 -4.42356,0.71996 -6.58658,0.99354c-3.06613,0.38781 -5.00935,-0.66021 -7.91342,-0.66021c-3.50986,0 -7.00186,-0.16666 -10.5,-0.16666c0,0 -0.5,0 -0.5,-0.5c0,-0.5 0.5,-0.5 0.5,-0.5c3.50232,0 6.98747,0.16666 10.5,0.16666c2.96768,0 4.70669,0.94873 7.75324,0.67313c2.18492,-0.19766 4.39822,-1.00646 6.74676,-1.00646l0.68688,0.47978c0,0 0.35356,0.35356 0,0.70711z"/><path d="M252.42936,196.97026c-0.15812,0.47434 -0.63245,0.31623 -0.63245,0.31623l-0.56156,-0.19185c-0.53231,-0.38049 -0.81016,-0.28249 -1.44699,-0.28249c-2.14112,0 -5.59662,-0.85747 -7.57211,-0.34235c-0.99277,0.25887 -1.74277,1.03643 -2.78111,1.00863c-1.51927,-0.04068 -2.56441,-0.99961 -3.9801,-0.99961c-2.40528,0 -4.61391,1.18482 -6.89443,0.82959c-1.63227,-0.25425 -2.33424,-1.16292 -4.10557,-1.16292c0,0 -0.5,0 -0.5,-0.5c0,-0.5 0.5,-0.5 0.5,-0.5c1.7396,0 2.69956,0.98073 4.22776,1.17041c1.4872,0.18459 1.98736,-0.54685 3.32403,-0.8237c1.03199,-0.21375 2.3826,-0.01338 3.44821,-0.01338c1.34937,0 3.05257,1.55902 4.36653,1.01815c3.24907,-1.33742 6.42625,-0.68481 9.9668,-0.68481c0.77544,0 1.21492,-0.03953 1.88635,0.38418l0.43844,0.14148c0,0 0.47434,0.15812 0.31623,0.63246z"/></g><path d="M206.04492,220.17704c0,-0.51346 -0.13855,-0.90875 -0.41566,-1.18586c-0.27711,-0.27711 -0.78242,-0.54607 -1.51594,-0.80688c-0.73352,-0.26081 -1.2959,-0.53384 -1.68711,-0.8191c-0.38306,-0.28526 -0.67239,-0.61127 -0.868,-0.97803c-0.18745,-0.37491 -0.28118,-0.79873 -0.28118,-1.27144c0,-0.82317 0.27303,-1.49965 0.8191,-2.02941c0.54606,-0.53791 1.26329,-0.80687 2.15167,-0.80687c0.61127,0 1.15326,0.13856 1.62597,0.41566c0.48086,0.27711 0.84763,0.6561 1.10029,1.13696c0.26081,0.48086 0.39121,1.0147 0.39121,1.60152h-1.32034c0,-0.64387 -0.15485,-1.14103 -0.46456,-1.49149c-0.30156,-0.35046 -0.74574,-0.52569 -1.33256,-0.52569c-0.52161,0 -0.92913,0.1467 -1.22254,0.44011c-0.28526,0.29341 -0.42789,0.70499 -0.42789,1.23476c0,0.44011 0.15485,0.80688 0.46456,1.10029c0.31786,0.29341 0.8028,0.55829 1.45482,0.79465c1.01878,0.33416 1.74823,0.74982 2.18834,1.24698c0.44011,0.48901 0.66017,1.13289 0.66017,1.93161c0,0.83947 -0.27304,1.51594 -0.8191,2.02941c-0.54606,0.50531 -1.28774,0.75798 -2.22501,0.75798c-0.60312,0 -1.16141,-0.13041 -1.67488,-0.39122c-0.51346,-0.26896 -0.9169,-0.63979 -1.21031,-1.1125c-0.28526,-0.48086 -0.42789,-1.03101 -0.42789,-1.65042h1.30811c0,0.64387 0.1793,1.14511 0.53791,1.50372c0.35861,0.35046 0.84763,0.52569 1.46705,0.52569c0.57052,0 0.9984,-0.1467 1.28366,-0.44011c0.29341,-0.29341 0.44011,-0.69684 0.44011,-1.21031zM212.837,222.1331c-0.42381,0.54606 -1.03508,0.8191 -1.83381,0.8191c-0.70092,0 -1.23069,-0.24044 -1.5893,-0.7213c-0.35047,-0.48901 -0.52979,-1.19401 -0.53794,-2.11498v-5.02463h1.25923v4.93905c0,1.19808 0.35861,1.79713 1.07583,1.79713c0.76612,0 1.29589,-0.34231 1.5893,-1.02693v-5.70925h1.25921v7.71421h-1.19808zM221.54361,219.32127c0,1.19808 -0.21598,2.10276 -0.64794,2.71403c-0.43196,0.61127 -1.05953,0.91691 -1.88271,0.91691c-0.81502,0 -1.42629,-0.35454 -1.8338,-1.06361l-0.07336,0.91691h-1.13696v-10.95393h1.24699v4.09549c0.41566,-0.66017 1.01063,-0.99025 1.7849,-0.99025c0.84762,0 1.47927,0.29749 1.89493,0.89245c0.42381,0.59497 0.63979,1.49964 0.64794,2.71403zM220.2844,218.59997c0,-0.91282 -0.12633,-1.56077 -0.37899,-1.94383c-0.25266,-0.39121 -0.66424,-0.58682 -1.23476,-0.58682c-0.65202,0 -1.13696,0.35047 -1.45482,1.05139v3.67983c0.31786,0.69277 0.80687,1.03915 1.46704,1.03915c0.57052,0 0.97803,-0.19968 1.22253,-0.59904c0.25266,-0.39936 0.37899,-1.01878 0.37899,-1.85826zM224.34126,215.09129l0.03668,0.70908c0.46456,-0.56236 1.08398,-0.84356 1.85825,-0.84356c0.85577,0 1.45482,0.37084 1.79713,1.11251c0.48901,-0.74167 1.16548,-1.11251 2.02941,-1.11251c1.41815,0 2.14352,0.88431 2.17612,2.65291v5.19579h-1.24698v-5.07353c0,-0.56236 -0.10188,-0.97803 -0.30563,-1.24698c-0.19561,-0.27711 -0.53384,-0.41567 -1.01471,-0.41567c-0.37491,0 -0.68462,0.14671 -0.92913,0.44012c-0.23636,0.29341 -0.37083,0.66832 -0.40344,1.12473v5.17133h-1.27144v-5.13466c-0.0163,-1.06769 -0.45234,-1.60153 -1.30811,-1.60153c-0.63572,0 -1.08398,0.31786 -1.34479,0.95358v5.7826h-1.24699v-7.71421zM235.49586,222.8055h-1.25921v-7.71421h1.25921zM235.59366,213.04965c0,0.21191 -0.06113,0.39121 -0.18338,0.53791c-0.1141,0.13855 -0.28933,0.20783 -0.52569,0.20783c-0.24451,0 -0.42789,-0.06928 -0.55014,-0.20783c-0.1141,-0.1467 -0.17116,-0.32601 -0.17116,-0.53791c0,-0.21191 0.05706,-0.39121 0.17116,-0.53792c0.12225,-0.15485 0.30156,-0.23228 0.53791,-0.23228c0.24451,0 0.42381,0.07743 0.53791,0.23228c0.12225,0.1467 0.18338,0.32601 0.18338,0.53792zM239.13205,213.22081v1.87048h1.16141v1.02693h-1.16141v4.78012c0,0.30156 0.0489,0.53384 0.1467,0.69685c0.10595,0.15485 0.27711,0.23228 0.51346,0.23228c0.17115,0 0.34231,-0.02853 0.51346,-0.08558l-0.01223,1.06361c-0.28526,0.0978 -0.57867,0.1467 -0.88022,0.1467c-0.49716,0 -0.87615,-0.17931 -1.13696,-0.53792c-0.26081,-0.35861 -0.39121,-0.86392 -0.39121,-1.51594v-4.78012h-1.18586v-1.02693h1.18586v-1.87048zM249.84333,220.17704c0,-0.51346 -0.13855,-0.90875 -0.41566,-1.18586c-0.27711,-0.27711 -0.78243,-0.54607 -1.51595,-0.80688c-0.73352,-0.26081 -1.2959,-0.53384 -1.68711,-0.8191c-0.38306,-0.28526 -0.67239,-0.61127 -0.868,-0.97803c-0.18745,-0.37491 -0.28118,-0.79873 -0.28118,-1.27144c0,-0.82317 0.27303,-1.49965 0.8191,-2.02941c0.54606,-0.53791 1.26329,-0.80687 2.15167,-0.80687c0.61127,0 1.15326,0.13856 1.62598,0.41566c0.48086,0.27711 0.84763,0.6561 1.10028,1.13696c0.26081,0.48086 0.39121,1.0147 0.39121,1.60152h-1.32034c0,-0.64387 -0.15486,-1.14103 -0.46457,-1.49149c-0.30156,-0.35046 -0.74574,-0.52569 -1.33256,-0.52569c-0.52161,0 -0.92912,0.1467 -1.22253,0.44011c-0.28526,0.29341 -0.42789,0.70499 -0.42789,1.23476c0,0.44011 0.15486,0.80688 0.46457,1.10029c0.31786,0.29341 0.8028,0.55829 1.45482,0.79465c1.01878,0.33416 1.74823,0.74982 2.18834,1.24698c0.44011,0.48901 0.66017,1.13289 0.66017,1.93161c0,0.83947 -0.27303,1.51594 -0.8191,2.02941c-0.54606,0.50531 -1.28774,0.75798 -2.22502,0.75798c-0.60312,0 -1.16141,-0.13041 -1.67487,-0.39122c-0.51346,-0.26896 -0.91691,-0.63979 -1.21032,-1.1125c-0.28526,-0.48086 -0.42789,-1.03101 -0.42789,-1.65042h1.30812c0,0.64387 0.1793,1.14511 0.53791,1.50372c0.35861,0.35046 0.84763,0.52569 1.46704,0.52569c0.57052,0 0.99841,-0.1467 1.28367,-0.44011c0.29341,-0.29341 0.44011,-0.69684 0.44011,-1.21031zM255.37617,221.87637c0.41566,0 0.74982,-0.1304 1.00248,-0.39121c0.25266,-0.26081 0.39121,-0.63164 0.41566,-1.11251h1.19809c-0.0326,0.74167 -0.29748,1.35701 -0.79465,1.84603c-0.49716,0.48901 -1.10436,0.73353 -1.82158,0.73353c-0.95358,0 -1.68303,-0.30156 -2.18834,-0.90468c-0.49716,-0.60312 -0.74575,-1.49964 -0.74575,-2.68958v-0.84355c0,-1.16548 0.24858,-2.04979 0.74575,-2.65291c0.49716,-0.60312 1.22661,-0.90468 2.18834,-0.90468c0.78242,0 1.40591,0.24858 1.87048,0.74575c0.46456,0.49716 0.71315,1.17771 0.74575,2.04164h-1.19809c-0.02445,-0.57052 -0.15893,-0.9984 -0.40344,-1.28366c-0.24451,-0.28526 -0.58274,-0.42789 -1.0147,-0.42789c-0.56236,0 -0.98211,0.18745 -1.25922,0.56236c-0.26896,0.36676 -0.40751,0.96988 -0.41566,1.80936v0.97803c0,0.91282 0.13448,1.5567 0.40344,1.93161c0.26896,0.37491 0.69277,0.56236 1.27144,0.56236zM263.41466,222.8055c-0.0815,-0.163 -0.13855,-0.44419 -0.17115,-0.84355c-0.44826,0.66017 -1.01878,0.99026 -1.71155,0.99026c-0.69277,0 -1.23884,-0.19561 -1.6382,-0.58682c-0.39121,-0.39936 -0.58682,-0.95358 -0.58682,-1.66265c0,-0.78242 0.26488,-1.40184 0.79465,-1.85826c0.53791,-0.46456 1.27143,-0.70092 2.20056,-0.70907h0.92913v-0.8191c0,-0.46456 -0.10595,-0.79465 -0.31786,-0.99025c-0.20376,-0.19561 -0.51346,-0.29341 -0.92913,-0.29341c-0.38306,0 -0.69277,0.11411 -0.92912,0.34231c-0.23636,0.22821 -0.35453,0.51346 -0.35453,0.85577h-1.25921c0,-0.39121 0.1141,-0.76613 0.34231,-1.12474c0.23636,-0.35861 0.55014,-0.63979 0.94135,-0.84355c0.39936,-0.20376 0.83947,-0.30563 1.32034,-0.30563c0.79057,0 1.38962,0.19561 1.79713,0.58682c0.41566,0.39121 0.62757,0.96173 0.63572,1.71155v3.88767c0.00815,0.59497 0.08965,1.11251 0.24451,1.55262v0.11003zM261.72756,221.80302c0.30971,0 0.60312,-0.08558 0.88022,-0.25673c0.28526,-0.17115 0.49309,-0.38714 0.6235,-0.64794v-1.83381h-0.7213c-0.59497,0.00815 -1.06768,0.14263 -1.41814,0.40344c-0.34231,0.26081 -0.51346,0.62349 -0.51346,1.08805c0,0.43196 0.08558,0.74982 0.25673,0.95358c0.1793,0.19561 0.47679,0.29341 0.89245,0.29341zM267.61936,215.09129l0.03668,0.83132c0.48901,-0.64387 1.11658,-0.9658 1.8827,-0.9658c1.36109,0 2.04979,0.90875 2.06609,2.72626v5.12243h-1.24699v-5.07353c0,-0.60312 -0.10188,-1.03101 -0.30563,-1.28367c-0.20376,-0.25266 -0.50532,-0.37899 -0.90468,-0.37899c-0.31786,0 -0.60312,0.10595 -0.85577,0.31786c-0.24451,0.20376 -0.44419,0.47679 -0.59904,0.8191v5.59922h-1.25921v-7.71421z" fill="#000000" stroke="#000000" stroke-width="0" stroke-linecap="square"/></g></g></svg>