<svg version="1.1" viewBox="0.0 0.0 960.0 720.0" fill="none" stroke="none" stroke-linecap="square" stroke-miterlimit="10" xmlns:xlink="http://www.w3.org/1999/xlink" xmlns="http://www.w3.org/2000/svg"><clipPath id="p.0"><path d="m0 0l960.0 0l0 720.0l-960.0 0l0 -720.0z" clip-rule="nonzero"/></clipPath><g clip-path="url(#p.0)"><path fill="#000000" fill-opacity="0.0" d="m0 0l960.0 0l0 720.0l-960.0 0z" fill-rule="evenodd"/><path fill="#000000" fill-opacity="0.0" d="m155.36745 313.02362l948.1575 0l0 92.09448l-948.1575 0z" fill-rule="evenodd"/><path fill="#000000" fill-opacity="0.0" d="m166.87665 257.85828l528.34644 0l0 64.62991l-528.34644 0z" fill-rule="evenodd"/><path fill="#000000" fill-opacity="0.0" d="m155.36745 181.34383l582.36224 0l0 313.51184l-582.36224 0z" fill-rule="evenodd"/><path fill="#000000" d="m390.08762 218.99196q2.203125 0 3.421875 0.90625q1.21875 0.890625 1.21875 2.953125q0 2.0625 -1.234375 2.984375q-1.21875 0.921875 -3.453125 0.921875l-0.828125 0l0 3.90625l-2.296875 0l0 -11.40625q0.34375 -0.0625 0.765625 -0.109375q0.421875 -0.0625 0.84375 -0.09375q0.4375 -0.03125 0.84375 -0.046875q0.40625 -0.015625 0.71875 -0.015625zm0.265625 1.984375q-0.203125 0 -0.578125 0.015625q-0.359375 0.015625 -0.5625 0.046875l0 3.734375l0.9375 0q1.09375 0 1.65625 -0.4375q0.5625 -0.4375 0.5625 -1.5q0 -1.015625 -0.546875 -1.4375q-0.546875 -0.421875 -1.46875 -0.421875zm13.46875 9.6875l-7.25 0l0 -11.546875l2.3125 0l0 9.640625l4.9375 0l0 1.90625zm1.921875 0l0 -11.546875l7.0 0l0 1.90625l-4.703125 0l0 2.59375l4.09375 0l0 1.890625l-4.09375 0l0 3.25l5.109375 0l0 1.90625l-7.40625 0zm14.859375 0l-0.546875 -2.671875l-3.078125 0l-0.515625 2.671875l-2.390625 0q0.8125 -3.421875 1.65625 -6.21875q0.84375 -2.8125 1.625 -5.328125l2.5 0q0.8125 2.53125 1.625 5.375q0.8125 2.84375 1.578125 6.171875l-2.453125 0zm-2.0625 -9.3125q-0.1875 0.65625 -0.34375 1.25q-0.15625 0.578125 -0.296875 1.15625q-0.140625 0.5625 -0.265625 1.140625q-0.109375 0.578125 -0.234375 1.1875l2.265625 0q-0.109375 -0.609375 -0.234375 -1.1875q-0.109375 -0.578125 -0.25 -1.140625q-0.125 -0.578125 -0.296875 -1.15625q-0.15625 -0.59375 -0.34375 -1.25zm9.015625 7.640625q0.578125 0 0.953125 -0.125q0.390625 -0.125 0.609375 -0.328125q0.234375 -0.21875 0.3125 -0.484375q0.078125 -0.28125 0.078125 -0.5625q0 -0.359375 -0.203125 -0.625q-0.203125 -0.28125 -0.515625 -0.5q-0.3125 -0.21875 -0.71875 -0.390625q-0.390625 -0.1875 -0.78125 -0.328125q-0.515625 -0.1875 -1.078125 -0.421875q-0.5625 -0.25 -1.015625 -0.625q-0.453125 -0.375 -0.75 -0.921875q-0.296875 -0.546875 -0.296875 -1.375q0 -1.625 1.046875 -2.53125q1.046875 -0.921875 2.90625 -0.921875q1.0625 0 1.84375 0.25q0.796875 0.234375 1.34375 0.53125l-0.671875 1.78125q-0.46875 -0.265625 -1.046875 -0.453125q-0.5625 -0.1875 -1.3125 -0.1875q-1.828125 0 -1.828125 1.328125q0 0.328125 0.1875 0.59375q0.1875 0.25 0.46875 0.453125q0.296875 0.1875 0.65625 0.34375q0.375 0.140625 0.734375 0.265625q0.53125 0.203125 1.109375 0.46875q0.59375 0.25 1.09375 0.671875q0.5 0.40625 0.8125 1.03125q0.3125 0.625 0.3125 1.578125q0 1.625 -1.0625 2.515625q-1.046875 0.890625 -3.1875 0.890625q-1.4375 0 -2.296875 -0.3125q-0.859375 -0.3125 -1.28125 -0.578125l0.671875 -1.859375q0.5 0.296875 1.203125 0.5625q0.703125 0.265625 1.703125 0.265625zm6.171875 1.671875l0 -11.546875l7.0 0l0 1.90625l-4.703125 0l0 2.59375l4.09375 0l0 1.890625l-4.09375 0l0 3.25l5.109375 0l0 1.90625l-7.40625 0zm23.0 -7.46875q0.078125 0.359375 0.21875 0.890625q0.15625 0.515625 0.328125 1.15625q0.1875 0.625 0.390625 1.359375q0.21875 0.71875 0.4375 1.484375q0 -0.96875 -0.03125 -2.078125q-0.015625 -1.109375 -0.03125 -2.265625q-0.015625 -1.15625 -0.046875 -2.34375q-0.015625 -1.1875 -0.015625 -2.28125l2.140625 0q-0.0625 1.421875 -0.125 2.921875q-0.046875 1.5 -0.125 2.984375q-0.078125 1.484375 -0.1875 2.921875q-0.09375 1.4375 -0.21875 2.71875l-1.90625 0q-0.40625 -1.171875 -0.828125 -2.515625q-0.40625 -1.359375 -0.8125 -2.59375q-0.40625 1.171875 -0.859375 2.5625q-0.453125 1.375 -0.828125 2.546875l-1.890625 0q-0.15625 -1.28125 -0.265625 -2.71875q-0.109375 -1.453125 -0.203125 -2.9375q-0.078125 -1.484375 -0.140625 -2.984375q-0.046875 -1.515625 -0.09375 -2.90625l2.140625 0q-0.03125 1.09375 -0.046875 2.28125q-0.015625 1.171875 -0.03125 2.34375q-0.015625 1.15625 -0.046875 2.265625q-0.015625 1.109375 -0.015625 2.078125q0.171875 -0.59375 0.375 -1.296875q0.21875 -0.71875 0.421875 -1.40625q0.203125 -0.6875 0.359375 -1.265625q0.171875 -0.578125 0.265625 -0.921875l1.671875 0zm10.515625 7.46875l-0.546875 -2.671875l-3.078125 0l-0.515625 2.671875l-2.390625 0q0.8125 -3.421875 1.65625 -6.21875q0.84375 -2.8125 1.625 -5.328125l2.5 0q0.8125 2.53125 1.625 5.375q0.8125 2.84375 1.578125 6.171875l-2.453125 0zm-2.0625 -9.3125q-0.1875 0.65625 -0.34375 1.25q-0.15625 0.578125 -0.296875 1.15625q-0.140625 0.5625 -0.265625 1.140625q-0.109375 0.578125 -0.234375 1.1875l2.265625 0q-0.109375 -0.609375 -0.234375 -1.1875q-0.109375 -0.578125 -0.25 -1.140625q-0.125 -0.578125 -0.296875 -1.15625q-0.15625 -0.59375 -0.34375 -1.25zm5.6875 9.3125l0 -1.90625l2.53125 0l0 -7.734375l-2.53125 0l0 -1.90625l7.34375 0l0 1.90625l-2.5 0l0 7.734375l2.5 0l0 1.90625l-7.34375 0zm17.1875 -11.546875l0 1.90625l-3.03125 0l0 9.640625l-2.328125 0l0 -9.640625l-3.03125 0l0 -1.90625l8.390625 0zm17.578125 11.765625q-0.53125 0 -0.8125 -0.375q-0.265625 -0.390625 -0.265625 -0.84375q0 -0.46875 0.265625 -0.84375q0.28125 -0.375 0.8125 -0.375q0.515625 0 0.796875 0.390625q0.28125 0.375 0.28125 0.828125q0 0.453125 -0.265625 0.84375q-0.265625 0.375 -0.8125 0.375zm-3.078125 0q-0.546875 0 -0.8125 -0.375q-0.265625 -0.390625 -0.265625 -0.84375q0 -0.46875 0.265625 -0.84375q0.265625 -0.375 0.8125 -0.375q0.5 0 0.78125 0.390625q0.296875 0.375 0.296875 0.828125q0 0.453125 -0.28125 0.84375q-0.28125 0.375 -0.796875 0.375zm-3.09375 0q-0.546875 0 -0.828125 -0.375q-0.265625 -0.390625 -0.265625 -0.84375q0 -0.46875 0.265625 -0.84375q0.28125 -0.375 0.828125 -0.375q0.5 0 0.78125 0.390625q0.296875 0.375 0.296875 0.828125q0 0.453125 -0.28125 0.84375q-0.28125 0.375 -0.796875 0.375z" fill-rule="nonzero"/><path fill="#000000" d="m375.19537 253.06383l0 -12.15625l4.296875 0q1.328125 0 2.390625 0.359375q1.078125 0.359375 1.71875 1.21875q0.65625 0.859375 0.65625 2.328125q0 1.421875 -0.65625 2.34375q-0.65625 0.90625 -1.734375 1.34375q-1.078125 0.4375 -2.375 0.4375l-1.5625 0l0 4.125l-2.734375 0zm2.734375 -6.3125l1.40625 0q1.125 0 1.671875 -0.5q0.5625 -0.5 0.5625 -1.4375q0 -0.96875 -0.578125 -1.34375q-0.5625 -0.390625 -1.65625 -0.390625l-1.40625 0l0 3.671875zm9.053131 6.3125l0 -12.15625l2.734375 0l0 9.84375l5.421875 0l0 2.3125l-8.15625 0zm10.912506 0l0 -12.15625l8.0625 0l0 2.3125l-5.296875 0l0 2.4375l4.484375 0l0 2.296875l-4.484375 0l0 2.796875l5.484375 0l0 2.3125l-8.25 0zm9.646881 0l3.78125 -12.15625l3.28125 0l3.796875 12.15625l-2.921875 0l-1.5625 -6.15625q-0.21875 -0.921875 -0.484375 -1.9375q-0.265625 -1.03125 -0.484375 -1.984375l-0.078125 0q-0.21875 0.953125 -0.46875 1.984375q-0.234375 1.015625 -0.484375 1.9375l-1.578125 6.15625l-2.796875 0zm2.5 -2.890625l0 -2.140625l5.8125 0l0 2.140625l-5.8125 0zm14.084412 3.109375q-1.234375 0 -2.4375 -0.4375q-1.203125 -0.453125 -2.1875 -1.3125l1.578125 -1.890625q0.6875 0.5625 1.515625 0.921875q0.84375 0.359375 1.71875 0.359375q0.875 0 1.296875 -0.296875q0.421875 -0.3125 0.421875 -0.765625q0 -0.4375 -0.234375 -0.6875q-0.21875 -0.25 -0.65625 -0.4375q-0.421875 -0.203125 -1.0 -0.453125l-1.5625 -0.671875q-0.671875 -0.25 -1.28125 -0.6875q-0.59375 -0.4375 -0.953125 -1.078125q-0.359375 -0.65625 -0.359375 -1.546875q0 -1.015625 0.5625 -1.828125q0.578125 -0.8125 1.5625 -1.296875q1.0 -0.5 2.328125 -0.5q1.109375 0 2.171875 0.421875q1.0625 0.40625 1.875 1.1875l-1.390625 1.734375q-0.640625 -0.46875 -1.28125 -0.71875q-0.625 -0.25 -1.515625 -0.25q-0.671875 0 -1.109375 0.28125q-0.421875 0.28125 -0.421875 0.8125q0 0.359375 0.25 0.609375q0.265625 0.234375 0.703125 0.421875q0.453125 0.1875 1.03125 0.40625l1.484375 0.640625q0.8125 0.296875 1.390625 0.734375q0.578125 0.4375 0.890625 1.078125q0.328125 0.625 0.328125 1.484375q0 1.015625 -0.5625 1.875q-0.546875 0.84375 -1.59375 1.375q-1.046875 0.515625 -2.5625 0.515625zm7.3499756 -0.21875l0 -12.15625l8.0625 0l0 2.3125l-5.296875 0l0 2.4375l4.484375 0l0 2.296875l-4.484375 0l0 2.796875l5.484375 0l0 2.3125l-8.25 0zm22.371887 0l-1.625 -12.15625l2.84375 0l0.375 6.46875q0 0.515625 0.015625 1.015625q0.03125 0.5 0.03125 1.0q0.015625 0.484375 0.015625 1.046875l0.078125 0q0.0625 -0.5625 0.171875 -1.046875q0.109375 -0.5 0.21875 -1.0q0.109375 -0.515625 0.203125 -1.015625l0.8125 -3.390625l1.765625 0l0.765625 3.390625q0.109375 0.5 0.203125 0.984375q0.09375 0.484375 0.203125 1.0q0.109375 0.515625 0.1875 1.078125l0.078125 0q0.015625 -0.5625 0.015625 -1.078125q0.015625 -0.515625 0.015625 -1.0q0.015625 -0.484375 0.03125 -0.984375l0.34375 -6.46875l2.671875 0l-1.5 12.15625l-2.953125 0l-0.703125 -3.765625q-0.109375 -0.578125 -0.203125 -1.171875q-0.09375 -0.609375 -0.125 -1.140625l-0.0625 0q-0.0625 0.53125 -0.140625 1.140625q-0.0625 0.59375 -0.171875 1.171875l-0.71875 3.765625l-2.84375 0zm9.662537 0l3.78125 -12.15625l3.28125 0l3.796875 12.15625l-2.921875 0l-1.5625 -6.15625q-0.21875 -0.921875 -0.484375 -1.9375q-0.265625 -1.03125 -0.484375 -1.984375l-0.078125 0q-0.21875 0.953125 -0.46875 1.984375q-0.234375 1.015625 -0.484375 1.9375l-1.578125 6.15625l-2.796875 0zm2.5 -2.890625l0 -2.140625l5.8125 0l0 2.140625l-5.8125 0zm9.896851 2.890625l0 -2.3125l2.84375 0l0 -7.53125l-2.84375 0l0 -2.3125l8.4375 0l0 2.3125l-2.828125 0l0 7.53125l2.828125 0l0 2.3125l-8.4375 0zm14.037537 0l0 -9.84375l-3.640625 0l0 -2.3125l10.03125 0l0 2.3125l-3.625 0l0 9.84375l-2.765625 0zm19.871887 0.21875q-0.765625 0 -1.25 -0.515625q-0.46875 -0.53125 -0.46875 -1.265625q0 -0.75 0.46875 -1.265625q0.484375 -0.53125 1.25 -0.53125q0.78125 0 1.25 0.53125q0.46875 0.515625 0.46875 1.265625q0 0.734375 -0.46875 1.265625q-0.46875 0.515625 -1.25 0.515625zm3.8905945 0q-0.765625 0 -1.25 -0.515625q-0.46871948 -0.53125 -0.46871948 -1.265625q0 -0.75 0.46871948 -1.265625q0.484375 -0.53125 1.25 -0.53125q0.78125 0 1.25 0.53125q0.46875 0.515625 0.46875 1.265625q0 0.734375 -0.46875 1.265625q-0.46875 0.515625 -1.25 0.515625zm3.90625 0q-0.765625 0 -1.25 -0.515625q-0.46875 -0.53125 -0.46875 -1.265625q0 -0.75 0.46875 -1.265625q0.484375 -0.53125 1.25 -0.53125q0.78125 0 1.25 0.53125q0.46875 0.515625 0.46875 1.265625q0 0.734375 -0.46875 1.265625q-0.46875 0.515625 -1.25 0.515625z" fill-rule="nonzero"/><path fill="#000000" fill-opacity="0.0" d="m63.267715 80.98425l674.4567 0l0 42.015747l-674.4567 0z" fill-rule="evenodd"/></g></svg>