<svg version="1.1" xmlns="http://www.w3.org/2000/svg" xmlns:xlink="http://www.w3.org/1999/xlink" width="52.73476" height="76.79711" viewBox="0,0,52.73476,76.79711"><g transform="translate(-213.63262,-158.72668)"><g data-paper-data="{&quot;isPaintingLayer&quot;:true}" fill-rule="nonzero" stroke-linejoin="miter" stroke-miterlimit="10" stroke-dasharray="" stroke-dashoffset="0" style="mix-blend-mode: normal"><path d="M222.50112,200.72668v-41.25h25.5l9.25,9.5v31.75z" fill="#ffffff" stroke="#63747e" stroke-width="1.5" stroke-linecap="butt"/><path d="M257.49888,169.4788l-12.57165,1.97223l2.29167,-12.17771" fill="#d2d9dc" stroke="none" stroke-width="0" stroke-linecap="butt"/><path d="M256.83222,168.81214h-8.96054v-8.99715" fill="#ffffff" stroke="#63747e" stroke-width="1.5" stroke-linecap="butt"/><path d="M222.50112,200.72668v-41.25h25.5l9.25,9.5v31.75z" fill="none" stroke="#63747e" stroke-width="1.5" stroke-linecap="butt"/><g fill="#96a5b3" stroke="none" stroke-width="0.5" stroke-linecap="butt"><path d="M245.20502,165.31214c0,0.5 -0.5,0.5 -0.5,0.5h-0.16667c-3.79183,0 -7.65339,0.32688 -11.4199,0.32688c-2.4423,0.815 -3.4543,-0.72544 -5.33334,-0.66667c-0.62052,0.01941 -1.10416,1.4282 -2.32685,1.16667c-0.95908,-0.20515 -0.9596,-0.69816 -1.22758,-1.5021c0,0 -0.15811,-0.47434 0.31623,-0.63245c0.47434,-0.15811 0.63245,0.31623 0.63245,0.31623c0.63278,1.89834 1.97607,-0.45505 3.52566,-0.34189c1.62016,0.11832 2.02164,1.41616 4.25324,0.67312c3.82055,0 7.73456,-0.33979 11.58009,-0.33979h0.16667c0,0 0.5,0 0.5,0.5z"/><path d="M251.03835,173.47881c0,0.5 -0.5,0.5 -0.5,0.5c-0.5,0 -1.16666,0 -1.66666,0c-1.87022,0 -5.79416,-0.8343 -7.47532,-0.03806c-1.53829,0.72857 -3.38163,1.4651 -5.22695,0.99532c-2.09682,-1.3837 -7.17216,-0.95726 -9.63106,-0.95726c0,0 -0.5,0 -0.5,-0.5c0,-0.5 0.5,-0.5 0.5,-0.5c2.57189,0 7.86218,-0.42197 10.03561,1.04274c1.58395,0.38483 3.13779,-0.48884 4.43972,-1.00468c2.02662,-0.80297 5.70672,-0.03806 7.85801,-0.03806c0.5,0 1,0 1.5,0h0.16666c0,0 0.5,0 0.5,0.5z"/><path d="M251.70502,180.64548c0,0.5 -0.5,0.5 -0.5,0.5l0.08269,-0.22265c-1.10098,1.53099 -2.87977,1.2235 -4.58974,1.22265c-3.36903,-0.00169 -6.68433,-0.49999 -10.15962,-0.49999c-1.96434,0 -3.65652,-0.39828 -5.56109,-0.67042c-1.64756,-0.23542 -3.59053,0.49966 -5.04959,-0.41356c0,0 -0.41603,-0.27735 -0.13868,-0.69338c0.27735,-0.41603 0.69338,-0.13868 0.69338,-0.13868c0.81576,0.60107 2.54824,0.24936 3.55598,0.24936c2.17516,0 4.27026,0.66667 6.5,0.66667c3.4692,0 6.79776,0.49976 10.15991,0.49999c1.18321,0.00008 3.07265,0.40108 3.7574,-0.77734l0.74936,-0.22265c0,0 0.5,0 0.5,0.5z"/><path d="M250.8919,189.1657c-0.35356,0.35356 -0.70711,0 -0.70711,0l0.02022,-0.18689c-2.31978,0 -4.42356,0.71996 -6.58658,0.99354c-3.06613,0.38781 -5.00935,-0.66021 -7.91342,-0.66021c-3.50986,0 -7.00186,-0.16666 -10.5,-0.16666c0,0 -0.5,0 -0.5,-0.5c0,-0.5 0.5,-0.5 0.5,-0.5c3.50232,0 6.98747,0.16666 10.5,0.16666c2.96768,0 4.70669,0.94873 7.75324,0.67313c2.18492,-0.19766 4.39822,-1.00646 6.74676,-1.00646l0.68688,0.47978c0,0 0.35356,0.35356 0,0.70711z"/><path d="M252.67936,196.97026c-0.15812,0.47434 -0.63245,0.31623 -0.63245,0.31623l-0.56156,-0.19185c-0.53231,-0.38049 -0.81016,-0.28249 -1.44699,-0.28249c-2.14112,0 -5.59662,-0.85747 -7.57211,-0.34235c-0.99277,0.25887 -1.74277,1.03643 -2.78111,1.00863c-1.51927,-0.04068 -2.56441,-0.99961 -3.9801,-0.99961c-2.40528,0 -4.61391,1.18482 -6.89443,0.82959c-1.63227,-0.25425 -2.33424,-1.16292 -4.10557,-1.16292c0,0 -0.5,0 -0.5,-0.5c0,-0.5 0.5,-0.5 0.5,-0.5c1.7396,0 2.69956,0.98073 4.22776,1.17041c1.4872,0.18459 1.98736,-0.54685 3.32403,-0.8237c1.03199,-0.21375 2.3826,-0.01338 3.44821,-0.01338c1.34937,0 3.05257,1.55902 4.36653,1.01815c3.24907,-1.33742 6.42625,-0.68481 9.9668,-0.68481c0.77544,0 1.21492,-0.03953 1.88635,0.38418l0.43844,0.14148c0,0 0.47434,0.15812 0.31623,0.63246z"/></g><path d="M228.1555,209.01961v6.97377c-0.01293,0.92724 -0.28464,1.65395 -0.81512,2.1801c-0.52615,0.52616 -1.26364,0.78923 -2.21245,0.78923c-0.97038,0 -1.71218,-0.25661 -2.22539,-0.76984c-0.51322,-0.51753 -0.77414,-1.25071 -0.78277,-2.19952v-6.97377h1.22914v6.922c0,0.65985 0.14017,1.15367 0.4205,1.48144c0.28033,0.32345 0.73317,0.48518 1.35852,0.48518c0.62967,0 1.08465,-0.16173 1.36499,-0.48518c0.28033,-0.32777 0.4205,-0.82159 0.4205,-1.48144v-6.922zM231.00665,211.53612l0.03881,0.78922c0.46147,-0.61673 1.05231,-0.92508 1.77254,-0.92508c1.2852,0 1.93858,0.86039 1.96015,2.58119v4.8454h-1.19033v-4.79364c0,-0.56929 -0.09488,-0.97252 -0.28464,-1.20973c-0.18975,-0.24152 -0.47657,-0.36228 -0.8604,-0.36228c-0.29327,0 -0.5585,0.09919 -0.79571,0.29759c-0.2372,0.19407 -0.42696,0.45068 -0.56929,0.76984v5.29824h-1.19679v-7.29075zM237.84542,218.82686h-1.19033v-10.35065h1.19033zM239.47219,214.84186c0,-1.05662 0.2566,-1.8933 0.76983,-2.51004c0.51322,-0.62104 1.19249,-0.93156 2.03779,-0.93156c0.84531,0 1.52457,0.30189 2.03779,0.9057c0.51753,0.59947 0.78277,1.41889 0.7957,2.45828v0.76983c0,1.05231 -0.2566,1.88684 -0.76983,2.50357c-0.51322,0.61673 -1.19679,0.92508 -2.05073,0.92508c-0.84099,0 -1.5181,-0.29759 -2.03132,-0.89274c-0.50889,-0.59948 -0.77199,-1.41028 -0.78922,-2.4324zM240.6625,215.53406c0,0.75043 0.14663,1.34127 0.4399,1.77254c0.29759,0.42696 0.69436,0.64044 1.19033,0.64044c1.05231,0 1.59357,-0.75905 1.62376,-2.27715v-0.82806c0,-0.7418 -0.14879,-1.32833 -0.44637,-1.7596c-0.29327,-0.4356 -0.69005,-0.65339 -1.19033,-0.65339c-0.48735,0 -0.8798,0.2178 -1.17739,0.65339c-0.29327,0.43129 -0.4399,1.01566 -0.4399,1.75313zM249.18023,217.94706c0.39677,0 0.71376,-0.12291 0.95097,-0.36875c0.2372,-0.24582 0.36659,-0.59516 0.38816,-1.048h1.12563c-0.02588,0.69868 -0.27387,1.27873 -0.74395,1.7402c-0.4701,0.46147 -1.04369,0.6922 -1.72079,0.6922c-0.90137,0 -1.58926,-0.28464 -2.06367,-0.85393c-0.4744,-0.56929 -0.71161,-1.41458 -0.71161,-2.5359v-0.80218c0,-1.09976 0.23505,-1.93644 0.70515,-2.51004c0.4744,-0.5736 1.1623,-0.86039 2.06366,-0.86039c0.74611,0 1.33695,0.23719 1.77255,0.71161c0.4399,0.4701 0.67279,1.11486 0.69868,1.93429h-1.12563c-0.02588,-0.5391 -0.15526,-0.94235 -0.38815,-1.20974c-0.22858,-0.2717 -0.54772,-0.40756 -0.95744,-0.40756c-0.53046,0 -0.92508,0.17467 -1.18386,0.52399c-0.25446,0.34502 -0.38599,0.91431 -0.39462,1.70786v0.93156c0,0.85823 0.12722,1.46633 0.38168,1.8243c0.25446,0.35364 0.65554,0.53046 1.20327,0.53046zM254.8554,215.48878l-0.63397,0.73101v2.60708h-1.19035v-10.35065h1.19035v6.19098l2.27067,-3.13108h1.42968l-2.32242,3.04697l2.62647,4.24377h-1.39088z" fill="#000000" stroke="none" stroke-width="1" stroke-linecap="square"/><path d="M215.21758,225.58066l2.56179,8.00236l2.56178,-8.00236h1.59142v9.80725h-1.23561v-3.82327l0.11643,-3.82327l-2.56825,7.64655h-0.94449l-2.55533,-7.62066l0.11644,3.79739v3.82327h-1.22914v-9.80725zM227.63972,235.38793c-0.07332,-0.15526 -0.12507,-0.42049 -0.15527,-0.79571c-0.42265,0.62104 -0.96175,0.93156 -1.61729,0.93156c-0.65985,0 -1.17523,-0.18545 -1.54612,-0.55635c-0.3709,-0.3709 -0.55635,-0.89274 -0.55635,-1.56553c0,-0.7418 0.25014,-1.33048 0.75043,-1.76608c0.5046,-0.4356 1.19464,-0.65769 2.07013,-0.66632h0.8798v-0.77631c0,-0.4356 -0.09705,-0.74394 -0.29112,-0.92508c-0.19407,-0.18544 -0.4895,-0.27817 -0.88627,-0.27817c-0.35797,0 -0.64908,0.10782 -0.87333,0.32345c-0.22427,0.21132 -0.3364,0.48087 -0.3364,0.80864h-1.19679c0,-0.3752 0.10997,-0.73101 0.32992,-1.06741c0.22427,-0.34071 0.52185,-0.6081 0.89274,-0.80218c0.3709,-0.19407 0.78708,-0.29112 1.24855,-0.29112c0.74611,0 1.31324,0.18545 1.70139,0.55635c0.38815,0.3709 0.58653,0.91216 0.59516,1.62376v3.67449c0.00431,0.56498 0.07979,1.05231 0.22642,1.46203v0.10997zM226.0483,234.43696c0.28896,0 0.56499,-0.07979 0.82806,-0.23936c0.26739,-0.16389 0.46362,-0.36658 0.5887,-0.6081v-1.7402h-0.67926c-0.56498,0.00863 -1.01134,0.13585 -1.33911,0.38168c-0.32777,0.24582 -0.49165,0.5887 -0.49165,1.0286c0,0.41403 0.08194,0.71377 0.24582,0.89921c0.1682,0.18544 0.45068,0.27817 0.84746,0.27817zM231.61642,228.09718l0.03881,0.78923c0.46147,-0.61673 1.05231,-0.92509 1.77254,-0.92509c1.2852,0 1.93859,0.8604 1.96016,2.5812v4.84539h-1.19033v-4.79364c0,-0.56929 -0.09489,-0.97253 -0.28464,-1.20974c-0.18975,-0.24152 -0.47657,-0.36227 -0.8604,-0.36227c-0.29327,0 -0.5585,0.09919 -0.79571,0.29759c-0.2372,0.19407 -0.42696,0.45068 -0.56929,0.76984v5.29824h-1.19679v-7.29074zM238.45516,235.38793h-1.19033v-7.29074h1.19033zM238.5522,226.16289c0,0.2027 -0.05605,0.37305 -0.1682,0.51107c-0.11213,0.13369 -0.28249,0.20054 -0.51107,0.20054c-0.22427,0 -0.39246,-0.06685 -0.5046,-0.20054c-0.11213,-0.13801 -0.1682,-0.30835 -0.1682,-0.51107c0,-0.2027 0.05605,-0.37305 0.1682,-0.51107c0.11213,-0.138 0.28034,-0.20701 0.5046,-0.20701c0.22427,0 0.39246,0.07115 0.5046,0.21348c0.11643,0.138 0.17467,0.30621 0.17467,0.5046zM240.85824,235.38793v-6.32683h-0.95097v-0.96391h0.95097v-0.84099c0.01293,-0.7418 0.20054,-1.31972 0.56282,-1.73374c0.36228,-0.41834 0.87334,-0.62751 1.53321,-0.62751c0.2372,0 0.47656,0.03881 0.71807,0.11643l-0.05822,1.0092c-0.17251,-0.03881 -0.35581,-0.05822 -0.54988,-0.05822c-0.67711,0 -1.01566,0.48303 -1.01566,1.44909v0.68572h1.24855v0.96391h-1.24855v6.32683zM244.44794,231.40291c0,-1.05663 0.25661,-1.8933 0.76984,-2.51004c0.51322,-0.62104 1.19249,-0.93156 2.03779,-0.93156c0.84531,0 1.52456,0.30189 2.03778,0.9057c0.51753,0.59948 0.78278,1.41889 0.79571,2.45828v0.76984c0,1.05231 -0.25661,1.88684 -0.76984,2.50357c-0.51322,0.61673 -1.19679,0.92508 -2.05072,0.92508c-0.84099,0 -1.5181,-0.2976 -2.03132,-0.89274c-0.50889,-0.59948 -0.772,-1.41028 -0.78923,-2.4324zM245.63827,232.09512c0,0.75043 0.14663,1.34127 0.4399,1.77255c0.29759,0.42696 0.69436,0.64044 1.19033,0.64044c1.05231,0 1.59358,-0.75905 1.62376,-2.27715v-0.82805c0,-0.7418 -0.1488,-1.32834 -0.44637,-1.75961c-0.29327,-0.43559 -0.69005,-0.65338 -1.19033,-0.65338c-0.48735,0 -0.87981,0.2178 -1.1774,0.65338c-0.29327,0.43129 -0.4399,1.01566 -0.4399,1.75314zM252.90744,235.38793h-1.19033v-10.35065h1.19033zM254.53422,231.41585c0,-1.12563 0.20917,-1.98172 0.62751,-2.56825c0.42265,-0.59085 1.02643,-0.88628 1.81136,-0.88628c0.69435,0 1.23777,0.28249 1.63023,0.84746v-3.77152h1.19033v10.35065h-1.08682l-0.06469,-0.78277c-0.38815,0.61241 -0.94665,0.91863 -1.67552,0.91863c-0.75473,0 -1.34774,-0.29327 -1.77902,-0.87981c-0.42696,-0.58653 -0.64475,-1.41459 -0.65338,-2.48416zM255.72455,232.09512c0,0.81511 0.12076,1.41458 0.36228,1.79843c0.24582,0.38383 0.64261,0.57576 1.19033,0.57576c0.59084,0 1.0329,-0.29759 1.32618,-0.89274v-3.68096c-0.3062,-0.58221 -0.7461,-0.87333 -1.31971,-0.87333c-0.54773,0 -0.94449,0.19192 -1.19033,0.57576c-0.24152,0.38383 -0.36444,0.97252 -0.36875,1.76608zM265.17061,233.5248c0,-0.25877 -0.09705,-0.47871 -0.29112,-0.65985c-0.18975,-0.18544 -0.56065,-0.40325 -1.1127,-0.65339c-0.64261,-0.26307 -1.09545,-0.48735 -1.35852,-0.67279c-0.26307,-0.18975 -0.46147,-0.40539 -0.59516,-0.64692c-0.12939,-0.24152 -0.19407,-0.52831 -0.19407,-0.8604c0,-0.59085 0.21564,-1.08251 0.64691,-1.47497c0.4356,-0.39677 0.99195,-0.59517 1.66905,-0.59517c0.70729,0 1.27658,0.20702 1.70785,0.62104c0.43129,0.41403 0.64691,0.94449 0.64691,1.59142h-1.18386c0,-0.32777 -0.10997,-0.60594 -0.32992,-0.83452c-0.21995,-0.23289 -0.50028,-0.34934 -0.84099,-0.34934c-0.35365,0 -0.62967,0.09058 -0.82806,0.2717c-0.19839,0.18114 -0.29759,0.42482 -0.29759,0.73101c0,0.24152 0.07116,0.43776 0.21348,0.5887c0.14664,0.14664 0.50028,0.34071 1.06094,0.58221c0.88412,0.34502 1.48574,0.68358 1.8049,1.01566c0.31914,0.32777 0.47871,0.74611 0.47871,1.25502c0,0.63397 -0.2178,1.14073 -0.65338,1.52025c-0.4356,0.37952 -1.01997,0.56929 -1.75314,0.56929c-0.75905,0 -1.37578,-0.21781 -1.85019,-0.65339c-0.4701,-0.4356 -0.70515,-0.98763 -0.70515,-1.6561h1.19679c0.01726,0.40109 0.14232,0.71807 0.3752,0.95097c0.23289,0.22858 0.56066,0.34287 0.98332,0.34287c0.39246,0 0.69219,-0.08842 0.89921,-0.26524c0.20702,-0.18114 0.31052,-0.42049 0.31052,-0.71807z" fill="#000000" stroke="none" stroke-width="1" stroke-linecap="square"/></g></g></svg>