<svg version="1.1" xmlns="http://www.w3.org/2000/svg" xmlns:xlink="http://www.w3.org/1999/xlink" width="67.35156" height="63.33333" viewBox="0,0,67.35156,63.33333"><g transform="translate(-206.82422,-148.33333)"><g data-paper-data="{&quot;isPaintingLayer&quot;:true}" fill-rule="nonzero" stroke-linejoin="miter" stroke-miterlimit="10" stroke-dasharray="" stroke-dashoffset="0" style="mix-blend-mode: normal"><path d="M209.32422,180c0,-16.10831 13.05836,-29.16667 29.16667,-29.16667c16.10831,0 29.16667,13.05836 29.16667,29.16667c0,16.10831 -13.05836,29.16667 -29.16667,29.16667c-16.10831,0 -29.16667,-13.05836 -29.16667,-29.16667z" fill="#acdbb3" stroke="#000000" stroke-width="5" stroke-linecap="butt"/><path d="M220.67578,176.78877c0,0 4.45809,2.18232 11.68193,8.6018c3.57092,3.1733 5.83411,6.2559 7.00559,8.0736c0.66599,1.03337 1.14957,0.95089 1.60554,-0.2984c1.14675,-3.14197 4.09953,-9.71381 10.68925,-17.09412c11.21009,-12.55499 19.01769,-16.94956 19.01769,-16.94956" fill="none" stroke="#11861d" stroke-width="7" stroke-linecap="round"/></g></g></svg>