<svg version="1.1" xmlns="http://www.w3.org/2000/svg" xmlns:xlink="http://www.w3.org/1999/xlink" width="559.5" height="162.5952" viewBox="0,0,559.5,162.5952"><g transform="translate(32.62919,-102.19045)"><g data-paper-data="{&quot;isPaintingLayer&quot;:true}" fill="none" fill-rule="nonzero" stroke="#40d475" stroke-linejoin="miter" stroke-miterlimit="10" stroke-dasharray="" stroke-dashoffset="0" style="mix-blend-mode: normal"><path d="M493.47021,115.94045c13.45052,14.34093 19.6506,29.66506 19.6506,44.0952c0,50.25791 -119.09226,91 -266,91c-146.90774,0 -266,-40.74209 -266,-91c0,-16.16988 11.39804,-32.10635 31.91844,-46.4769" stroke-width="27.5" stroke-linecap="butt"/><g stroke-width="18.5" stroke-linecap="round"><path d="M12.12082,198.03564h462"/><g><path d="M483.12082,124.03565h-480"/><path d="M151.12079,125.22795l-50,104.80769"/><path d="M182.12083,250.03565l31,-122"/><path d="M260.12082,126.03565l-2,122"/><path d="M323.12082,237.03565l-15,-113"/><path d="M359.12082,125.03565l37,103"/><path d="M471.12082,197.49398l-59,-70.45833"/><path d="M80.12081,129.03565l-61.89474,72"/><path d="M-6.87918,160.03564h504"/></g></g></g></g></svg>