<svg version="1.1" xmlns="http://www.w3.org/2000/svg" xmlns:xlink="http://www.w3.org/1999/xlink" width="282.1952" height="178.21748" viewBox="0,0,282.1952,178.21748"><g transform="translate(-97.34727,-45.73448)"><g data-paper-data="{&quot;isPaintingLayer&quot;:true}" fill-rule="nonzero" stroke-linejoin="miter" stroke-miterlimit="10" stroke-dasharray="" stroke-dashoffset="0" style="mix-blend-mode: normal"><path d="M220.60763,77.45195c0,0 13.48988,-27.5762 27.99275,-27.71766c16.88002,-0.16464 26.00725,27.21766 26.00725,27.21766" fill="#5c8e97" stroke="#000000" stroke-width="8" stroke-linecap="round"/><path d="M376.10764,138.20194c0,6.53579 -0.06629,20.40076 -5.19594,25.76842c-4.25617,4.45366 -12.93285,0.40915 -19.45713,5.53682c-26.01554,20.44653 -26.38104,28.90242 -61.29726,31.01555c-1.13086,0.06844 -23.79847,16.79065 -40.56377,19.07581c-12.23855,1.66816 -29.37193,-11.05231 -33.45157,-11.35672c-46.78506,-3.49091 -72.53434,-26.53661 -72.53434,-58.53987c0,-34.79394 44.43574,-63 99.25,-63c54.81426,0 133.25,16.70606 133.25,51.5z" fill="#5d8f97" stroke="none" stroke-width="0" stroke-linecap="butt"/><path d="M349.60763,118.45195c0,1.4386 -0.14467,2.86118 -0.42748,4.26462c-4.52156,22.43777 -44.3536,39.98538 -92.82252,39.98538c-11.10324,0 -23.0311,-0.9519 -34.47066,-2.7637c-15.66613,-2.4812 -30.41652,-6.5751 -40.87916,-12.04536c-17.33395,-9.06284 -22.40017,-21.98667 -22.40017,-33.94093c0,-24.4386 46.24945,-39.75 97.75,-39.75c29.7473,0 54.24129,8.10977 71.31554,18.40315c12.48585,7.52722 21.93446,15.52426 21.93446,25.84685z" fill="#a9c6cb" stroke="none" stroke-width="0" stroke-linecap="butt"/><path d="M361.60763,121.20195c0,11.87412 -6.26065,22.5 -12.75,22.5c-6.48935,0 -15.75,-10.62588 -15.75,-22.5c0,-6.02609 2.8549,-12.97314 5.0377,-16.87682c2.11829,-3.78833 7.51629,-3.62318 10.7123,-3.62318c6.48935,0 12.75,8.62588 12.75,20.5z" fill="#97b0b5" stroke="none" stroke-width="0" stroke-linecap="butt"/><path d="M375.54168,156.71741c0.03965,6.58483 -1.3915,12.54875 -8.96435,12.72628c-4.36431,0.10231 -14.93637,-2.68539 -14.93637,-2.68539c0,0 -1.44335,7.08302 -24.56087,20.88978c-18.57129,11.09156 -44.31943,14.60043 -44.31943,14.60043c0,0 0.00391,13.71178 -36.40303,17.70345c-20.21079,2.21591 -29.86266,-12.70981 -29.86266,-12.70981c0,0 -61.8953,1.75269 -77.38734,-60.04019c-4.84359,-19.31956 2.70573,-39.42159 22.9247,-50.6524c17.64514,-12.79941 56.55344,-20.39061 90.3253,-20.0976c57.63009,0.5 83.32134,23.13341 83.32134,23.13341c0,0 32.45776,-3.26104 38.92866,45.11659c0,0 0.90603,7.36247 0.93405,12.01545z" fill="none" stroke="#000000" stroke-width="8" stroke-linecap="butt"/><path d="M336.60763,139.45195c0,0 -10.23417,10.61653 -27.87417,16.26107c-18.23824,5.83597 -32.62583,7.23893 -32.62583,7.23893" fill="none" stroke="#000000" stroke-width="8" stroke-linecap="round"/><path d="M351.10763,169.95195c0,0 -2.46074,-10.07236 -6.26164,-18.11268c-3.93109,-8.31573 -9.22604,-17.70171 -10.43248,-23.51084c-3.96681,-19.10067 4.69412,-28.37648 4.69412,-28.37648" fill="none" stroke="#000000" stroke-width="8" stroke-linecap="round"/><path d="M226.10763,161.95195c0,0 -49.38118,-3.36328 -61.93692,-25.14133c-26.86406,-46.59597 45.93692,-56.85866 45.93692,-56.85866" fill="none" stroke="#000000" stroke-width="8" stroke-linecap="round"/><path d="M153.85762,102.20195l4.11436,24.38352c0,0 -5.06091,5.00625 -9.746,12.98506c-7.65937,13.04406 -10.1908,20.00248 -10.89344,20.32713c-3.7338,1.72518 -9.64561,3.70805 -15.91761,2.87358c-3.65447,-0.48621 -18.28249,-5.61208 -20.06766,-15.29072c-3.16527,-17.16117 10.46312,-44.34795 29.01042,-54.77849c14.02111,-7.88512 23.99993,8.99991 23.99993,8.99991" fill="#61949d" stroke="none" stroke-width="0" stroke-linecap="round"/><path d="M153.85762,102.20195l2.61436,12.38352c0,0 -4.93821,15.52265 -21.61106,21.26356c-14.44138,4.97255 -30.81685,-10.77572 -28.07208,-16.44634c5.29927,-10.94816 13.74392,-21.17536 23.56885,-26.70065c14.02111,-7.88512 23.99993,8.99991 23.99993,8.99991" fill="#adcacf" stroke="none" stroke-width="0" stroke-linecap="round"/><path d="M153.85762,102.20195l4.11436,24.38352c0,0 -5.06091,5.00625 -9.746,12.98506c-7.65936,13.04406 -10.1908,20.00248 -10.89344,20.32713c-3.7338,1.72518 -9.64561,3.70805 -15.91761,2.87358c-3.65447,-0.48621 -18.28249,-5.61208 -20.06766,-15.29072c-3.16527,-17.16117 10.46312,-44.34795 29.01042,-54.77849c14.02111,-7.88512 23.99993,8.99991 23.99993,8.99991" fill="none" stroke="none" stroke-width="0" stroke-linecap="round"/><path d="M157.85762,100.70195c0,0 -2.04952,2.28603 -1.93702,12.25414c0.12614,11.17637 2.05138,13.62938 2.05138,13.62938c0,0 -5.06091,5.00625 -9.746,12.98506c-7.65937,13.04406 -10.1908,20.00248 -10.89344,20.32713c-3.7338,1.72518 -9.64561,3.70805 -15.91761,2.87358c-3.65447,-0.48621 -18.28249,-5.61208 -20.06766,-15.29072c-3.16527,-17.16117 10.46312,-44.34795 29.01042,-54.77849c14.02111,-7.88512 28.99993,10.99991 28.99993,10.99991" fill="none" stroke="#000000" stroke-width="8" stroke-linecap="round"/><g stroke-linecap="butt"><path d="M322.19848,117.71598c0,15.87819 -32.34743,28.75 -72.25,28.75c-39.90257,0 -72.25,-12.87181 -72.25,-28.75c0,-15.87819 32.34743,-28.75 72.25,-28.75c39.90257,0 72.25,12.87181 72.25,28.75z" fill="#81ca9f" stroke="#2e3938" stroke-width="3.5"/><path d="M188.69848,116.21598c0,-5.10863 9.96166,-9.25 22.25,-9.25c12.28834,0 22.25,4.14137 22.25,9.25c0,5.10863 -9.96166,9.25 -22.25,9.25c-12.28834,0 -22.25,-4.14137 -22.25,-9.25z" fill="#439a67" stroke="none" stroke-width="0"/><path d="M214.69847,150.46598z" fill="#439a67" stroke="none" stroke-width="0"/><path d="M268.19847,116.21598c0,-2.44801 2.28744,-4.67392 6.02222,-6.32846c4.05913,-1.79823 9.82791,-2.92154 16.22778,-2.92154c12.28834,0 22.25,4.14137 22.25,9.25c0,5.10863 -9.96166,9.25 -22.25,9.25c-12.28834,0 -22.25,-4.14137 -22.25,-9.25z" fill="#439a67" stroke="none" stroke-width="0"/><path d="M262.69847,99.21598c0,5.10863 -7.27538,9.25 -16.25,9.25c-4.45784,0 -6.49642,-2.02178 -9.43239,-3.67636c-2.9748,-1.67646 -6.81761,-3.00255 -6.81761,-5.57364c0,-5.10863 7.27538,-9.25 16.25,-9.25c8.97462,0 16.25,4.14137 16.25,9.25z" fill="#439a67" stroke="none" stroke-width="0"/><path d="M223.19847,135.71598c0,-4.83249 16.84237,-11.75 27.75,-11.75c10.90763,0 19.75,3.91751 19.75,8.75c0,4.83249 -8.84238,8.75 -19.75,8.75c-10.90763,0 -27.75,-0.91751 -27.75,-5.75z" fill="#439a67" stroke="none" stroke-width="0"/><path d="M322.19847,117.71598c0,15.87819 -32.34743,28.75 -72.25,28.75c-39.90257,0 -72.25,-12.87181 -72.25,-28.75c0,-15.87819 32.34743,-28.75 72.25,-28.75c39.90257,0 72.25,12.87181 72.25,28.75z" fill="none" stroke="#2e3938" stroke-width="3.5"/><path d="M288.69846,98.96598c0,1.13547 -10.75852,6.64799 -20.0559,11.41604c-6.53022,3.34894 -12.33961,6.58396 -13.1941,6.58396c-2.07107,0 -3.75,-1.567 -3.75,-3.5c0,-0.97854 9.48187,-5.67758 18.84564,-9.33498c9.13336,-3.5674 18.15436,-6.11948 18.15436,-5.16502z" fill="#cae3d6" stroke="none" stroke-width="0"/><path d="M212.24907,129.33081c0,-0.76118 9.58072,-4.45654 17.86026,-7.65285c5.81531,-2.245 10.98872,-4.41362 11.74967,-4.41362c1.84434,0 3.33947,1.05046 3.33947,2.34626c0,0.65597 -8.44384,3.80602 -16.78249,6.25779c-8.13348,2.39144 -16.16689,4.10225 -16.16689,3.46242z" data-paper-data="{&quot;index&quot;:null}" fill="#cae3d6" stroke="none" stroke-width="0"/><path d="M275.04409,126.51582c-9.36377,-2.3513 -18.84564,-5.37227 -18.84564,-6.00136c0,-1.2427 1.67893,-2.25011 3.75,-2.25011c0.85449,0 6.66388,2.07976 13.1941,4.23276c9.29738,3.06533 20.0559,6.60927 20.0559,7.33925c0,0.61361 -9.021,-1.02709 -18.15436,-3.32054z" data-paper-data="{&quot;index&quot;:null}" fill="#cae3d6" stroke="none" stroke-width="0"/><path d="M229.35281,103.131c9.36377,3.6574 18.84564,8.35644 18.84564,9.33498c0,1.933 -1.67893,3.5 -3.75,3.5c-0.85449,0 -6.66388,-3.23502 -13.1941,-6.58396c-9.29738,-4.76805 -24.5559,-9.28057 -24.5559,-10.41604c0,-0.95446 13.521,0.59762 22.65436,4.16502z" data-paper-data="{&quot;index&quot;:null}" fill="#cae3d6" stroke="none" stroke-width="0"/></g><path d="M247.85763,186.20195c-9.50761,0.60618 -21.25,-10.72309 -21.25,-20.25c0,-9.52691 8.22309,-24.75 17.75,-24.75c7.84632,0 21.46908,7.23864 23.56149,14.40911c0.44817,1.53583 3.46542,29.09089 -20.06149,30.59089z" fill="#a1bdc1" stroke="none" stroke-width="0" stroke-linecap="butt"/><path d="M216.10763,205.70195c0,0 3.8683,-64.48678 32.58058,-63.83454c30.33434,0.68909 32.41942,62.83454 32.41942,62.83454" fill="none" stroke="#000000" stroke-width="8" stroke-linecap="round"/><path d="M249.60761,72.15194c-8.83656,0 -16,-4.92487 -16,-11c0,-6.07513 7.16344,-11 16,-11c8.83656,0 16,4.92487 16,11c0,6.07513 -7.16344,11 -16,11z" fill="#a5c1c6" stroke="none" stroke-width="0" stroke-linecap="butt"/><path d="M220.60763,77.45195c0,0 13.48988,-27.5762 27.99275,-27.71766c16.88002,-0.16464 26.00725,27.21766 26.00725,27.21766" fill="none" stroke="#000000" stroke-width="8" stroke-linecap="round"/></g></g></svg>