<svg version="1.1" xmlns="http://www.w3.org/2000/svg" xmlns:xlink="http://www.w3.org/1999/xlink" width="150.6358" height="15.16771" viewBox="0,0,150.6358,15.16771"><g transform="translate(-106.54801,-32.95144)"><g data-paper-data="{&quot;isPaintingLayer&quot;:true}" fill="#000000" fill-rule="nonzero" stroke="none" stroke-width="1" stroke-linecap="square" stroke-linejoin="miter" stroke-miterlimit="10" stroke-dasharray="" stroke-dashoffset="0" style="mix-blend-mode: normal"><path d="M110.53641,33.12826c1.84685,0 3.2811,0.37985 4.30276,1.13954c1.02166,0.7466 1.53249,1.98438 1.53249,3.71334c0,1.72896 -0.51738,2.97984 -1.55214,3.75263c-1.02166,0.7728 -2.46901,1.15919 -4.34205,1.15919h-1.04131v4.91182h-2.88815v-14.34252c0.28816,-0.05239 0.60907,-0.09824 0.96272,-0.13753c0.35365,-0.05239 0.7073,-0.09169 1.06095,-0.11788c0.36675,-0.0262 0.7204,-0.04585 1.06095,-0.05894c0.34056,-0.0131 0.64181,-0.01965 0.90378,-0.01965zM110.87042,35.62347c-0.17027,0 -0.41259,0.00655 -0.72695,0.01965c-0.30126,0.0131 -0.53703,0.03274 -0.7073,0.05894v4.6957h1.17884c0.91687,0 1.61108,-0.18338 2.08261,-0.55012c0.47154,-0.36675 0.7073,-0.99546 0.7073,-1.88614c0,-0.85138 -0.22922,-1.4539 -0.68766,-1.80755c-0.45844,-0.35365 -1.07405,-0.53048 -1.84685,-0.53048zM127.80638,47.80479h-9.11634v-14.51935h2.9078v12.12238h6.20854zM130.223,47.80479v-14.51935h8.80199v2.39697h-5.91384v3.26145h5.14759v2.37732h-5.14759v4.08664h6.42466v2.39697zM148.90757,47.80479l-0.68766,-3.35969h-3.87052l-0.64836,3.35969h-3.00604c0.6811,-2.8685 1.37531,-5.47504 2.08261,-7.81962c0.7073,-2.35768 1.38841,-4.59092 2.04332,-6.69973h3.14357c0.6811,2.12191 1.36221,4.3748 2.04332,6.75867c0.6811,2.38387 1.34257,4.97077 1.98438,7.76068zM146.31413,36.095c-0.15718,0.55012 -0.30126,1.07405 -0.43224,1.57178c-0.13098,0.48463 -0.25541,0.96927 -0.3733,1.4539c-0.11788,0.47154 -0.22922,0.94962 -0.334,1.43425c-0.09169,0.48463 -0.18992,0.98236 -0.29471,1.49319h2.84886c-0.09169,-0.51083 -0.18992,-1.00856 -0.29471,-1.49319c-0.09169,-0.48463 -0.19647,-0.96272 -0.31436,-1.43425c-0.10479,-0.48463 -0.22922,-0.96927 -0.3733,-1.4539c-0.13098,-0.49773 -0.27506,-1.02166 -0.43224,-1.57178zM157.65062,45.70253c0.48463,0 0.88413,-0.05239 1.19848,-0.15718c0.32745,-0.10479 0.58287,-0.24232 0.76624,-0.41259c0.19647,-0.18338 0.32745,-0.38639 0.39295,-0.60907c0.06549,-0.23577 0.09824,-0.47154 0.09824,-0.7073c0,-0.30126 -0.08514,-0.56322 -0.25541,-0.78589c-0.17027,-0.23577 -0.38639,-0.44534 -0.64836,-0.62871c-0.26197,-0.18338 -0.56322,-0.3471 -0.90378,-0.49118c-0.32745,-0.15718 -0.65491,-0.29471 -0.98236,-0.41259c-0.43224,-0.15718 -0.88413,-0.334 -1.35566,-0.53048c-0.47154,-0.20957 -0.89722,-0.47154 -1.27707,-0.78589c-0.37985,-0.31436 -0.69421,-0.70075 -0.94307,-1.15919c-0.24886,-0.45844 -0.3733,-1.03476 -0.3733,-1.72896c0,-1.36221 0.43879,-2.42317 1.31637,-3.18286c0.87758,-0.7728 2.09571,-1.15919 3.6544,-1.15919c0.89068,0 1.66347,0.10479 2.31838,0.31436c0.66801,0.19647 1.23123,0.41914 1.68967,0.66801l-0.84483,2.23979c-0.39295,-0.22267 -0.83174,-0.41259 -1.31637,-0.56977c-0.47154,-0.15718 -1.02166,-0.23577 -1.65037,-0.23577c-1.53249,0 -2.29873,0.55668 -2.29873,1.67002c0,0.27506 0.07859,0.52393 0.23577,0.7466c0.15718,0.20957 0.35365,0.3995 0.58942,0.56977c0.24886,0.15718 0.52393,0.30126 0.82519,0.43224c0.31436,0.11788 0.62216,0.22922 0.92342,0.334c0.44534,0.17027 0.91033,0.36675 1.39496,0.58942c0.49773,0.20957 0.95617,0.49118 1.37531,0.84483c0.41914,0.34056 0.75969,0.7728 1.02166,1.29672c0.26197,0.52393 0.39295,1.18539 0.39295,1.98438c0,1.36221 -0.44534,2.41662 -1.33602,3.16321c-0.87758,0.7466 -2.21359,1.1199 -4.00805,1.1199c-1.20504,0 -2.16775,-0.13098 -2.88815,-0.39295c-0.7204,-0.26197 -1.25743,-0.50428 -1.61108,-0.72695l0.84483,-2.33803c0.41914,0.24886 0.92342,0.48463 1.51284,0.7073c0.58942,0.22267 1.30327,0.334 2.14155,0.334zM165.4113,47.80479v-14.51935h8.80199v2.39697h-5.91384v3.26145h5.14759v2.37732h-5.14759v4.08664h6.42466v2.39697zM194.33212,38.41338c0.06549,0.30126 0.15718,0.67456 0.27506,1.1199c0.13098,0.43224 0.26851,0.91687 0.41259,1.4539c0.15718,0.52393 0.32091,1.0937 0.49118,1.70931c0.18338,0.60251 0.36675,1.22468 0.55012,1.86649c0,-0.81209 -0.0131,-1.68312 -0.03929,-2.61309c-0.0131,-0.92997 -0.0262,-1.87959 -0.03929,-2.84886c-0.0131,-0.96927 -0.03274,-1.95163 -0.05894,-2.94709c-0.0131,-0.99546 -0.01965,-1.95163 -0.01965,-2.8685h2.69168c-0.05239,1.19193 -0.10479,2.41662 -0.15718,3.67404c-0.03929,1.25743 -0.09169,2.5083 -0.15718,3.75263c-0.06549,1.24433 -0.14408,2.46901 -0.23577,3.67404c-0.07859,1.20504 -0.17027,2.34458 -0.27506,3.41863h-2.39697c-0.34056,-0.98236 -0.68766,-2.03677 -1.04131,-3.16321c-0.34056,-1.13954 -0.6811,-2.2267 -1.02166,-3.26145c-0.34056,0.98236 -0.70075,2.05641 -1.0806,3.22216c-0.37985,1.15264 -0.72695,2.22014 -1.04131,3.20251h-2.37732c-0.13098,-1.07405 -0.24232,-2.21359 -0.334,-3.41863c-0.09169,-1.21813 -0.17683,-2.44936 -0.25541,-3.69369c-0.06549,-1.24433 -0.12443,-2.49521 -0.17683,-3.75263c-0.03929,-1.27052 -0.07859,-2.48866 -0.11788,-3.6544h2.69168c-0.0262,0.91687 -0.04585,1.87304 -0.05894,2.8685c-0.0131,0.98236 -0.0262,1.96473 -0.03929,2.94709c-0.0131,0.96927 -0.03274,1.91888 -0.05894,2.84886c-0.0131,0.92997 -0.01965,1.801 -0.01965,2.61309c0.14408,-0.49773 0.30126,-1.04131 0.47154,-1.63073c0.18338,-0.60251 0.3602,-1.19193 0.53048,-1.76826c0.17027,-0.57632 0.32091,-1.1068 0.45189,-1.59143c0.14408,-0.48463 0.25541,-0.87103 0.334,-1.15919zM207.55474,47.80479l-0.68766,-3.35969h-3.87052l-0.64836,3.35969h-3.00604c0.6811,-2.8685 1.37531,-5.47504 2.08261,-7.81962c0.7073,-2.35768 1.38841,-4.59092 2.04332,-6.69973h3.14357c0.6811,2.12191 1.36221,4.3748 2.04332,6.75867c0.6811,2.38387 1.34257,4.97077 1.98438,7.76068zM204.9613,36.095c-0.15718,0.55012 -0.30126,1.07405 -0.43224,1.57178c-0.13098,0.48463 -0.25541,0.96927 -0.3733,1.4539c-0.11788,0.47154 -0.22922,0.94962 -0.334,1.43425c-0.09169,0.48463 -0.18992,0.98236 -0.29471,1.49319h2.84886c-0.09169,-0.51083 -0.18992,-1.00856 -0.29471,-1.49319c-0.09169,-0.48463 -0.19647,-0.96272 -0.31436,-1.43425c-0.10479,-0.48463 -0.22922,-0.96927 -0.3733,-1.4539c-0.13098,-0.49773 -0.27506,-1.02166 -0.43224,-1.57178zM212.11292,47.80479v-2.39697h3.18286v-9.72541h-3.18286v-2.39697h9.23423v2.39697h-3.14357v9.72541h3.14357v2.39697zM233.72494,33.28544v2.39697h-3.81157v12.12238h-2.92745v-12.12238h-3.81157v-2.39697zM255.82814,48.07985c-0.44534,0 -0.78589,-0.15718 -1.02166,-0.47154c-0.22267,-0.32745 -0.334,-0.6811 -0.334,-1.06095c0,-0.39295 0.11133,-0.7466 0.334,-1.06095c0.23577,-0.31436 0.57632,-0.47154 1.02166,-0.47154c0.43224,0 0.76624,0.16373 1.00201,0.49118c0.23577,0.31436 0.35365,0.66146 0.35365,1.04131c0,0.37985 -0.11133,0.7335 -0.334,1.06095c-0.22267,0.31436 -0.56322,0.47154 -1.02166,0.47154zM251.95763,48.07985c-0.45844,0 -0.79899,-0.15718 -1.02166,-0.47154c-0.22267,-0.32745 -0.334,-0.6811 -0.334,-1.06095c0,-0.39295 0.11133,-0.7466 0.334,-1.06095c0.22267,-0.31436 0.56322,-0.47154 1.02166,-0.47154c0.41914,0 0.7466,0.16373 0.98236,0.49118c0.24886,0.31436 0.3733,0.66146 0.3733,1.04131c0,0.37985 -0.11788,0.7335 -0.35365,1.06095c-0.23577,0.31436 -0.56977,0.47154 -1.00201,0.47154zM248.06746,48.07985c-0.45844,0 -0.80554,-0.15718 -1.04131,-0.47154c-0.22267,-0.32745 -0.334,-0.6811 -0.334,-1.06095c0,-0.39295 0.11133,-0.7466 0.334,-1.06095c0.23577,-0.31436 0.58287,-0.47154 1.04131,-0.47154c0.41914,0 0.7466,0.16373 0.98236,0.49118c0.24886,0.31436 0.3733,0.66146 0.3733,1.04131c0,0.37985 -0.11788,0.7335 -0.35365,1.06095c-0.23577,0.31436 -0.56977,0.47154 -1.00201,0.47154z"/></g></g></svg>