<svg version="1.1" xmlns="http://www.w3.org/2000/svg" xmlns:xlink="http://www.w3.org/1999/xlink" width="252.10063" height="59.60067" viewBox="0,0,252.10063,59.60067"><g transform="translate(-113.9497,-150.19967)"><g data-paper-data="{&quot;isPaintingLayer&quot;:true}" fill-rule="nonzero" stroke-linejoin="miter" stroke-miterlimit="10" stroke-dasharray="" stroke-dashoffset="0" style="mix-blend-mode: normal"><path d="M114.94971,195.81741c0,-10.86825 0,-25.56628 0,-31.76811c0,-5.57764 6.12421,-12.84963 13.28474,-12.84963c25.13249,0 172.13595,0 221.01772,0c9.91935,0 15.79817,5.73663 15.79817,13.27449c0,11.29419 0,26.63211 0,32.77609c0,5.13059 -5.17482,11.55009 -14.00713,11.55009c-47.06164,0 -197.96407,0 -223.16398,0c-6.98807,0 -12.92951,-5.61026 -12.92951,-12.98292z" fill="#ffffff" stroke="#000000" stroke-width="2" stroke-linecap="butt"/><path d="M230.88188,173.62274c0,1.07783 -0.48043,1.61674 -1.44128,1.61674h-0.90237c-0.27572,0 -0.49296,-0.10026 -0.65171,-0.30079c-0.15039,-0.20888 -0.23812,-0.49296 -0.26319,-0.85223c-0.01671,-0.35927 -0.12533,-0.68931 -0.32585,-0.9901c-0.20053,-0.30079 -0.45536,-0.54309 -0.7645,-0.72691c-0.58487,-0.34257 -1.3619,-0.51385 -2.33111,-0.51385c-0.96085,0 -1.80055,0.2047 -2.5191,0.61411c-0.71019,0.40105 -1.28253,0.93996 -1.717,1.61674c-0.83552,1.27 -1.25329,2.97029 -1.25329,5.10087c0,3.81834 1.24493,6.21629 3.73479,7.19386c0.76033,0.30079 1.50812,0.45118 2.24338,0.45118c1.32013,0 2.48568,-0.23812 3.49667,-0.71437l0.72691,-0.33839c0.23395,-0.10862 0.44283,-0.16293 0.62664,-0.16293c0.18381,0 0.33003,0.04595 0.43865,0.13786c0.11697,0.08355 0.25901,0.28826 0.42612,0.61411c0.17546,0.32585 0.26319,0.60993 0.26319,0.85223c0,0.23395 -0.08355,0.46789 -0.25066,0.70184c-0.16711,0.22559 -0.37181,0.42612 -0.61411,0.60158c-0.42612,0.28408 -0.93996,0.51385 -1.54154,0.68931c-1.09454,0.33421 -2.37706,0.50131 -3.84759,0.50131c-1.46217,0 -2.76976,-0.26319 -3.92278,-0.78957c-1.15302,-0.53473 -2.12223,-1.27417 -2.90762,-2.21832c-1.60421,-1.91335 -2.40631,-4.41992 -2.40631,-7.51971c0,-3.06637 0.81046,-5.51446 2.43137,-7.34425c1.66269,-1.87993 3.95203,-2.81989 6.86801,-2.81989c1.60421,0 3.0246,0.35927 4.26117,1.07783c1.42875,0.81881 2.14312,1.99272 2.14312,3.52173zM233.0692,181.96962c0,-1.12795 0.18799,-2.164 0.56398,-3.10814c0.38434,-0.94414 0.90654,-1.75042 1.56661,-2.41884c1.37861,-1.40368 3.12068,-2.10552 5.2262,-2.10552c2.36453,0 4.19433,0.70184 5.48939,2.10552c1.25329,1.34519 1.87993,3.20005 1.87993,5.56458c0,2.27263 -0.71019,4.13166 -2.13059,5.57712c-1.38697,1.42039 -3.13321,2.13059 -5.23873,2.13059c-2.21414,0 -3.99798,-0.72691 -5.35153,-2.18072c-1.33684,-1.42039 -2.00526,-3.27525 -2.00526,-5.56459zM237.26771,178.66095c-0.32585,0.47625 -0.56398,1.02352 -0.71437,1.6418c-0.15039,0.60993 -0.22559,1.2324 -0.22559,1.86739c0,0.62664 0.08355,1.2324 0.25066,1.81726c0.17546,0.57651 0.43447,1.09036 0.77704,1.54154c0.74362,0.98592 1.78802,1.47888 3.13321,1.47888c1.3619,0 2.39378,-0.4846 3.09562,-1.45381c0.62664,-0.85223 0.93996,-2.01361 0.93996,-3.48413c0,-2.20578 -0.71855,-3.72643 -2.15565,-4.56196c-0.53473,-0.30079 -1.17809,-0.45118 -1.93006,-0.45118c-0.75197,0 -1.38697,0.14622 -1.90499,0.43865c-0.51803,0.29243 -0.93996,0.68095 -1.26582,1.16556zM251.73935,175.60293c0,-0.62664 0.30079,-0.93996 0.90237,-0.93996h0.71437c0.4846,0 0.81464,0.18381 0.9901,0.55145c0.2423,0.51803 0.45118,1.20315 0.62664,2.05539c0.78539,-1.42039 1.95095,-2.33111 3.49667,-2.73216c0.4846,-0.13368 1.09036,-0.20053 1.81726,-0.20053c0.72691,0 1.3995,0.15457 2.01779,0.46372c0.61829,0.30914 1.10707,0.73526 1.46634,1.27835c0.66006,0.97756 0.9901,2.42302 0.9901,4.33637v8.10876c0,0.2423 -0.07938,0.447 -0.23812,0.61411c-0.15039,0.16711 -0.38016,0.25066 -0.68931,0.25066h-1.27835c-0.33421,0 -0.58069,-0.08355 -0.73944,-0.25066c-0.15039,-0.16711 -0.22559,-0.37181 -0.22559,-0.61411v-8.12129c0,-2.22249 -0.81881,-3.33374 -2.45644,-3.33374c-0.9525,0 -1.82562,0.40105 -2.61937,1.20315c-0.84388,0.86059 -1.26582,1.85904 -1.26582,2.99535v7.25652c0,0.2423 -0.0752,0.447 -0.22559,0.61411c-0.15039,0.16711 -0.37599,0.25066 -0.67677,0.25066h-1.34102c-0.30914,0 -0.54309,-0.08355 -0.70184,-0.25066c-0.15039,-0.16711 -0.22559,-0.37181 -0.22559,-0.61411v-8.00849c0,-1.7546 -0.05849,-2.97447 -0.17546,-3.65959c-0.10862,-0.69349 -0.16293,-1.11125 -0.16293,-1.25329zM277.51456,176.64316c0,0.49296 -0.27572,0.73944 -0.82717,0.73944h-3.67213v8.19649c0,0.88565 0.43865,1.32848 1.31595,1.32848c0.5598,0 1.28671,-0.2799 2.18072,-0.8397c0.17546,-0.10862 0.36345,-0.16293 0.56398,-0.16293c0.20888,0 0.37181,0.14204 0.48878,0.42612l0.30079,0.67677c0.11697,0.26737 0.17546,0.49296 0.17546,0.67677c0,0.17546 -0.13786,0.38434 -0.41358,0.62664c-0.27572,0.2423 -0.62664,0.45954 -1.05276,0.65171c-0.96921,0.43447 -1.84651,0.65171 -2.6319,0.65171c-0.77704,0 -1.39533,-0.07938 -1.85486,-0.23812c-0.45118,-0.16711 -0.8397,-0.40941 -1.16556,-0.72691c-0.69349,-0.68513 -1.04023,-1.66687 -1.04023,-2.94522v-8.32181h-1.10289c-0.54309,0 -0.81464,-0.25066 -0.81464,-0.75197v-0.73944c0,-0.20053 0.05013,-0.3551 0.15039,-0.46372c0.10862,-0.11697 0.31332,-0.2047 0.61411,-0.26319l1.30342,-0.37599l0.50131,-3.07055c0.09191,-0.57651 0.32585,-0.86477 0.70184,-0.86477h1.07783c0.20053,0 0.36763,0.08355 0.50131,0.25066c0.13368,0.15875 0.20053,0.36345 0.20053,0.61411v2.94522h3.67213c0.55145,0 0.82717,0.23812 0.82717,0.71437zM282.24346,172.14386c-0.59322,0 -1.09871,-0.2047 -1.51648,-0.61411c-0.41776,-0.40105 -0.62664,-0.90654 -0.62664,-1.51648c0,-0.58487 0.20888,-1.08618 0.62664,-1.50394c0.40105,-0.40105 0.90654,-0.60158 1.51648,-0.60158c0.92743,0 1.57914,0.42612 1.95513,1.27835c0.10862,0.25066 0.16293,0.52638 0.16293,0.82717c0,0.60993 -0.20888,1.11542 -0.62664,1.51648c-0.41776,0.40941 -0.9149,0.61411 -1.49141,0.61411zM283.77247,185.80467c0,0.61829 0.2047,0.92743 0.61411,0.92743c0.13368,0 0.28826,-0.04178 0.46372,-0.12533c0.34257,-0.15039 0.57233,-0.22559 0.68931,-0.22559c0.18381,0 0.33421,0.12951 0.45118,0.38852l0.40105,0.9149c0.06684,0.14204 0.10026,0.2799 0.10026,0.41358c0,0.37599 -0.32168,0.72273 -0.96503,1.04023c-0.60993,0.3175 -1.21151,0.47625 -1.80473,0.47625c-0.59322,0 -1.06947,-0.06684 -1.42875,-0.20053c-0.35927,-0.13368 -0.66424,-0.35092 -0.9149,-0.65171c-0.50131,-0.62664 -0.75197,-1.64598 -0.75197,-3.05802v-10.17668c0,-0.2423 0.06684,-0.447 0.20053,-0.61411c0.14204,-0.16711 0.30914,-0.25066 0.50131,-0.25066h1.74207c0.20053,0 0.36763,0.08355 0.50131,0.25066c0.13368,0.16711 0.20053,0.37181 0.20053,0.61411zM289.56701,175.60293c0,-0.62664 0.30079,-0.93996 0.90237,-0.93996h0.71437c0.4846,0 0.81464,0.18381 0.9901,0.55145c0.2423,0.51803 0.45118,1.20315 0.62664,2.05539c0.78539,-1.42039 1.95095,-2.33111 3.49667,-2.73216c0.4846,-0.13368 1.09036,-0.20053 1.81726,-0.20053c0.72691,0 1.3995,0.15457 2.01779,0.46372c0.61829,0.30914 1.10707,0.73526 1.46634,1.27835c0.66006,0.97756 0.9901,2.42302 0.9901,4.33637v8.10876c0,0.2423 -0.07938,0.447 -0.23812,0.61411c-0.15039,0.16711 -0.38016,0.25066 -0.68931,0.25066h-1.27835c-0.33421,0 -0.58069,-0.08355 -0.73944,-0.25066c-0.15039,-0.16711 -0.22559,-0.37181 -0.22559,-0.61411v-8.12129c0,-2.22249 -0.81881,-3.33374 -2.45644,-3.33374c-0.9525,0 -1.82562,0.40105 -2.61937,1.20315c-0.84388,0.86059 -1.26582,1.85904 -1.26582,2.99535v7.25652c0,0.2423 -0.0752,0.447 -0.22559,0.61411c-0.15039,0.16711 -0.37599,0.25066 -0.67677,0.25066h-1.34102c-0.30914,0 -0.54309,-0.08355 -0.70184,-0.25066c-0.15039,-0.16711 -0.22559,-0.37181 -0.22559,-0.61411v-8.00849c0,-1.7546 -0.05849,-2.97447 -0.17546,-3.65959c-0.10862,-0.69349 -0.16293,-1.11125 -0.16293,-1.25329zM320.56845,188.49924c0,0.59322 -0.27154,0.88983 -0.81464,0.88983h-0.58904c-0.51803,0 -0.86059,-0.20888 -1.02769,-0.62664c-0.18381,-0.47625 -0.38016,-1.14049 -0.58904,-1.99272c-0.36763,0.91072 -0.9901,1.62927 -1.8674,2.15565c-0.86895,0.52638 -1.95513,0.78957 -3.25854,0.78957c-1.70447,0 -2.96193,-0.53056 -3.77239,-1.59167c-0.81046,-1.06947 -1.21569,-2.64443 -1.21569,-4.72489v-7.87063c0,-0.2423 0.0752,-0.447 0.22559,-0.61411c0.15039,-0.16711 0.36763,-0.25066 0.65171,-0.25066h1.42875c0.57651,0 0.86477,0.28826 0.86477,0.86477v7.72024c0,2.08045 0.4846,3.28361 1.45381,3.60946c0.30914,0.10026 0.67677,0.15039 1.10289,0.15039c0.43447,0 0.8773,-0.09608 1.32848,-0.28826c0.45954,-0.20053 0.87312,-0.46789 1.24075,-0.8021c0.81881,-0.76033 1.22822,-1.62509 1.22822,-2.5943v-7.79543c0,-0.2423 0.0752,-0.447 0.22559,-0.61411c0.15039,-0.16711 0.38434,-0.25066 0.70184,-0.25066h1.36608c0.30914,0 0.53056,0.08355 0.66424,0.25066c0.14204,0.16711 0.21306,0.37181 0.21306,0.61411v8.15889c0,1.83815 0.12951,3.31703 0.38852,4.43663c0.03342,0.09191 0.05013,0.21724 0.05013,0.37599zM327.3689,182.74665l-0.01253,0.25066c0,1.18644 0.37599,2.14312 1.12796,2.87002c0.79375,0.76033 1.8674,1.14049 3.22094,1.14049c1.23657,0 2.38542,-0.36763 3.44654,-1.10289c0.20053,-0.14204 0.38016,-0.21306 0.53891,-0.21306c0.32585,0 0.56816,0.16293 0.72691,0.48878l0.36345,0.72691c0.0752,0.17546 0.1128,0.36345 0.1128,0.56398c0,0.20053 -0.09191,0.40941 -0.27572,0.62664c-0.17546,0.20888 -0.40941,0.40105 -0.70184,0.57651c-0.28408,0.17546 -0.61411,0.33003 -0.9901,0.46372c-0.37599,0.12533 -0.7645,0.22977 -1.16556,0.31332c-0.8021,0.17546 -1.63763,0.26319 -2.50657,0.26319c-0.86895,0 -1.74625,-0.16293 -2.6319,-0.48878c-0.88565,-0.33421 -1.65016,-0.81881 -2.29351,-1.45381c-1.37861,-1.35355 -2.06792,-3.17917 -2.06792,-5.47686c0,-4.02722 1.41621,-6.52962 4.24864,-7.50718c0.88565,-0.30914 1.79638,-0.46372 2.73216,-0.46372c0.93579,0 1.73371,0.10026 2.39378,0.30079c0.66006,0.20053 1.22822,0.49714 1.70447,0.88983c1.01098,0.82717 1.51648,1.98019 1.51648,3.45907c0,1.45381 -0.59322,2.56088 -1.77967,3.3212c-1.03605,0.67677 -2.40213,1.01516 -4.09824,1.01516c-1.04441,0 -2.24756,-0.18799 -3.60946,-0.56398zM333.78572,178.93667c0,-1.24493 -0.83552,-1.8674 -2.50657,-1.8674c-1.59585,0 -2.71128,0.58069 -3.34627,1.74207c-0.22559,0.40941 -0.37181,0.9149 -0.43865,1.51648c0.75197,0.37598 1.70447,0.56397 2.85749,0.56397c2.28933,0 3.434,-0.65171 3.434,-1.95512z" fill="#353535" stroke="#353535" stroke-width="0.5" stroke-linecap="square"/><path d="M145.28705,166.4892l47.71429,14.49342l-36.47782,-0.48854z" data-paper-data="{&quot;index&quot;:null}" fill="#a8aebb" stroke="none" stroke-width="0" stroke-linecap="butt"/><path d="M145.4499,194.49895v-27.84691l11.39932,14.00488z" fill="#b7c5c5" stroke="none" stroke-width="0" stroke-linecap="butt"/><path d="M156.68638,180.49408l36.47782,-0.48854l-47.71429,14.49342z" fill="#abbbbb" stroke="none" stroke-width="0" stroke-linecap="butt"/><path d="M190.07009,178.53991l3.58264,1.8256l-46.90006,14.29629z" fill="#7d1d10" stroke="none" stroke-width="0" stroke-linecap="butt"/><path d="M145.61275,165.02356l46.90006,14.29629l-3.58264,1.8256z" data-paper-data="{&quot;index&quot;:null}" fill="#7d1d10" stroke="none" stroke-width="0" stroke-linecap="butt"/><path d="M144.33045,193.68472c0,-4.64481 0,-18.22095 0,-27.52122c0,-0.63448 0.47819,-0.99739 1.13607,-0.80129c3.94302,1.17533 41.5476,12.38438 48.55206,14.47225c0.72326,0.21558 0.67489,0.46668 -0.13166,0.70709c-7.28564,2.17168 -44.04279,13.12814 -48.22627,14.37514c-0.76189,0.2271 -1.33021,-0.19527 -1.33021,-1.23197z" fill="none" stroke="#000000" stroke-width="6.5" stroke-linecap="butt"/><path d="M144.33045,193.68472c0,-4.64481 0,-18.22095 0,-27.52122c0,-0.63448 0.47819,-0.99739 1.13607,-0.80129c3.94302,1.17533 41.5476,12.38438 48.55206,14.47225c0.72326,0.21558 0.67489,0.46668 -0.13166,0.70709c-7.28564,2.17168 -44.04279,13.12814 -48.22626,14.37514c-0.76189,0.2271 -1.33021,-0.19527 -1.33021,-1.23197z" fill="none" stroke="#dfdfdf" stroke-width="3.5" stroke-linecap="butt"/></g></g></svg>