<svg version="1.1" xmlns="http://www.w3.org/2000/svg" xmlns:xlink="http://www.w3.org/1999/xlink" width="53.76633" height="69.79473" viewBox="0,0,53.76633,69.79473"><g transform="translate(-212.55724,-158.72668)"><g data-paper-data="{&quot;isPaintingLayer&quot;:true}" fill-rule="nonzero" stroke-linejoin="miter" stroke-miterlimit="10" stroke-dasharray="" stroke-dashoffset="0" style="mix-blend-mode: normal"><path d="M222.50112,200.72668v-41.25h25.5l9.25,9.5v31.75z" fill="#ffd8d8" stroke="#7d6363" stroke-width="1.5" stroke-linecap="butt"/><path d="M257.49888,169.4788l-12.57165,1.97223l2.29167,-12.17771" fill="#ffb8b8" stroke="none" stroke-width="0" stroke-linecap="butt"/><path d="M256.83222,168.81214h-8.96054v-8.99715" fill="#ffffff" stroke="#7d0000" stroke-width="1.5" stroke-linecap="butt"/><path d="M222.50112,200.72668v-41.25h25.5l9.25,9.5v31.75z" fill="none" stroke="#7d0000" stroke-width="1.5" stroke-linecap="butt"/><g fill="#96a5b3" stroke="none" stroke-width="0.5" stroke-linecap="butt"><path d="M245.20502,165.31214c0,0.5 -0.5,0.5 -0.5,0.5h-0.16667c-3.79183,0 -7.65339,0.32688 -11.4199,0.32688c-2.4423,0.815 -3.4543,-0.72545 -5.33334,-0.66667c-0.62052,0.01941 -1.10416,1.4282 -2.32685,1.16667c-0.95908,-0.20515 -0.9596,-0.69816 -1.22758,-1.50211c0,0 -0.15811,-0.47434 0.31623,-0.63245c0.47434,-0.15811 0.63245,0.31623 0.63245,0.31623c0.63278,1.89834 1.97607,-0.45505 3.52566,-0.34189c1.62016,0.11832 2.02164,1.41616 4.25324,0.67312c3.82055,0 7.73456,-0.33979 11.58009,-0.33979h0.16667c0,0 0.5,0 0.5,0.5z"/><path d="M251.03835,173.47881c0,0.5 -0.5,0.5 -0.5,0.5c-0.5,0 -1.16666,0 -1.66666,0c-1.87022,0 -5.79416,-0.8343 -7.47532,-0.03806c-1.53829,0.72857 -3.38163,1.4651 -5.22695,0.99532c-2.09682,-1.3837 -7.17216,-0.95726 -9.63106,-0.95726c0,0 -0.5,0 -0.5,-0.5c0,-0.5 0.5,-0.5 0.5,-0.5c2.57189,0 7.86218,-0.42197 10.03561,1.04274c1.58395,0.38483 3.13779,-0.48884 4.43972,-1.00468c2.02662,-0.80297 5.70672,-0.03806 7.85801,-0.03806c0.5,0 1,0 1.5,0h0.16666c0,0 0.5,0 0.5,0.5z"/><path d="M251.70502,180.64548c0,0.5 -0.5,0.5 -0.5,0.5l0.08269,-0.22265c-1.10098,1.53099 -2.87977,1.2235 -4.58974,1.22265c-3.36903,-0.00169 -6.68433,-0.49999 -10.15962,-0.49999c-1.96434,0 -3.65652,-0.39828 -5.56109,-0.67042c-1.64756,-0.23542 -3.59053,0.49966 -5.04959,-0.41356c0,0 -0.41603,-0.27735 -0.13868,-0.69338c0.27735,-0.41603 0.69338,-0.13868 0.69338,-0.13868c0.81576,0.60107 2.54824,0.24936 3.55598,0.24936c2.17516,0 4.27026,0.66667 6.5,0.66667c3.4692,0 6.79776,0.49976 10.15991,0.49999c1.18321,0.00008 3.07265,0.40108 3.7574,-0.77734l0.74936,-0.22265c0,0 0.5,0 0.5,0.5z"/><path d="M250.8919,189.1657c-0.35356,0.35356 -0.70711,0 -0.70711,0l0.02022,-0.18689c-2.31978,0 -4.42356,0.71996 -6.58658,0.99354c-3.06613,0.38781 -5.00935,-0.66021 -7.91342,-0.66021c-3.50986,0 -7.00186,-0.16666 -10.5,-0.16666c0,0 -0.5,0 -0.5,-0.5c0,-0.5 0.5,-0.5 0.5,-0.5c3.50232,0 6.98747,0.16666 10.5,0.16666c2.96768,0 4.70669,0.94873 7.75324,0.67313c2.18492,-0.19766 4.39822,-1.00646 6.74676,-1.00646l0.68688,0.47978c0,0 0.35356,0.35356 0,0.70711z"/><path d="M252.67936,196.97026c-0.15812,0.47434 -0.63245,0.31623 -0.63245,0.31623l-0.56156,-0.19185c-0.53231,-0.38049 -0.81016,-0.28249 -1.44699,-0.28249c-2.14112,0 -5.59662,-0.85747 -7.57211,-0.34235c-0.99277,0.25887 -1.74277,1.03643 -2.78111,1.00863c-1.51927,-0.04068 -2.56441,-0.99961 -3.9801,-0.99961c-2.40528,0 -4.61391,1.18482 -6.89443,0.82959c-1.63227,-0.25425 -2.33424,-1.16292 -4.10557,-1.16292c0,0 -0.5,0 -0.5,-0.5c0,-0.5 0.5,-0.5 0.5,-0.5c1.7396,0 2.69956,0.98073 4.22776,1.17041c1.4872,0.18459 1.98736,-0.54685 3.32403,-0.8237c1.03199,-0.21375 2.3826,-0.01338 3.44821,-0.01338c1.34937,0 3.05257,1.55902 4.36653,1.01815c3.24907,-1.33742 6.42625,-0.68481 9.9668,-0.68481c0.77544,0 1.21492,-0.03954 1.88635,0.38417l0.43844,0.14148c0,0 0.47434,0.15812 0.31623,0.63246z"/></g><path d="M217.36181,220.905h-3.50868v4.58451h-1.29589v-10.37934h5.39139v1.12473h-4.0955v3.55759h3.50868zM220.74432,225.48951h-1.25921v-7.7142h1.25921zM220.84213,215.73366c0,0.21191 -0.06113,0.39121 -0.18338,0.53792c-0.1141,0.13855 -0.28933,0.20783 -0.52569,0.20783c-0.24451,0 -0.42789,-0.06928 -0.55015,-0.20783c-0.1141,-0.1467 -0.17115,-0.32601 -0.17115,-0.53792c0,-0.21191 0.05705,-0.39121 0.17115,-0.53791c0.12225,-0.15485 0.30156,-0.23228 0.53791,-0.23228c0.24451,0 0.42382,0.07743 0.53792,0.23228c0.12225,0.1467 0.18338,0.32601 0.18338,0.53791zM224.95513,220.58714l1.32034,-2.81183h1.46705l-2.10277,3.81431l2.15167,3.89989h-1.4426l-1.36924,-2.88519l-1.36924,2.88519h-1.45482l2.15166,-3.89989l-2.09053,-3.81431h1.44259zM233.972,224.36477h4.07105v1.12473h-5.37916v-10.37934h1.30812zM240.77256,225.48951h-1.25922v-7.7142h1.25922zM240.87036,215.73366c0,0.21191 -0.06113,0.39121 -0.18338,0.53792c-0.1141,0.13855 -0.28933,0.20783 -0.52569,0.20783c-0.24451,0 -0.42789,-0.06928 -0.55014,-0.20783c-0.1141,-0.1467 -0.17115,-0.32601 -0.17115,-0.53792c0,-0.21191 0.05705,-0.39121 0.17115,-0.53791c0.12225,-0.15485 0.30156,-0.23228 0.53791,-0.23228c0.24451,0 0.42381,0.07743 0.53791,0.23228c0.12225,0.1467 0.18338,0.32601 0.18338,0.53791zM242.51381,221.28398c0,-1.19808 0.21598,-2.10276 0.64794,-2.71403c0.44011,-0.61942 1.07991,-0.92912 1.91939,-0.92912c0.78242,0 1.37739,0.33416 1.7849,1.00248l0.07335,-0.868h1.13696v7.78756c0,0.95358 -0.24451,1.68302 -0.73353,2.18834c-0.48901,0.51346 -1.16955,0.7702 -2.04163,0.7702c-0.38306,0 -0.81095,-0.09373 -1.28367,-0.28118c-0.47271,-0.18745 -0.82725,-0.41974 -1.0636,-0.69684l0.51346,-0.868c0.52161,0.51346 1.09621,0.7702 1.72378,0.7702c1.05138,0 1.59337,-0.57052 1.62597,-1.71155v-1.00248c-0.40751,0.60312 -0.99026,0.90467 -1.74823,0.90467c-0.79872,0 -1.42222,-0.30156 -1.87048,-0.90467c-0.44011,-0.60312 -0.66832,-1.46705 -0.68462,-2.59178zM243.77303,222.00528c0,0.86392 0.12633,1.49965 0.37899,1.90716c0.25266,0.40751 0.66832,0.61127 1.24699,0.61127c0.62757,0 1.10028,-0.32193 1.41814,-0.9658v-3.851c-0.33416,-0.63572 -0.8028,-0.95358 -1.40591,-0.95358c-0.57867,0 -0.99841,0.20375 -1.25922,0.61127c-0.25266,0.40751 -0.37899,1.03101 -0.37899,1.87048zM251.20918,218.56995c0.48086,-0.61942 1.09621,-0.92912 1.84604,-0.92912c1.36109,0 2.04979,0.90875 2.06609,2.72625v5.12243h-1.24699v-5.07353c0,-0.60312 -0.10187,-1.03101 -0.30563,-1.28366c-0.20376,-0.25266 -0.50532,-0.37899 -0.90468,-0.37899c-0.31786,0 -0.60312,0.10595 -0.85577,0.31786c-0.24451,0.20376 -0.44419,0.47679 -0.59905,0.8191v5.59922h-1.25921v-10.95393h1.25921zM258.64948,215.90482v1.87049h1.16141v1.02693h-1.16141v4.78012c0,0.30156 0.0489,0.53384 0.1467,0.69684c0.10595,0.15485 0.27711,0.23228 0.51346,0.23228c0.17115,0 0.34231,-0.02853 0.51346,-0.08558l-0.01223,1.0636c-0.28526,0.0978 -0.57867,0.1467 -0.88022,0.1467c-0.49716,0 -0.87615,-0.1793 -1.13696,-0.53791c-0.26081,-0.35861 -0.39121,-0.86392 -0.39121,-1.51594v-4.78012h-1.18586v-1.02693h1.18586v-1.87049zM265.06436,223.52122c0,-0.27711 -0.10595,-0.51347 -0.31786,-0.70907c-0.20376,-0.19561 -0.59497,-0.42381 -1.17364,-0.68462c-0.68462,-0.27711 -1.16548,-0.51346 -1.44259,-0.70907c-0.27711,-0.20376 -0.48494,-0.43196 -0.62349,-0.68462c-0.13855,-0.25266 -0.20783,-0.55422 -0.20783,-0.90468c0,-0.62757 0.22821,-1.14918 0.68462,-1.56484c0.46456,-0.41566 1.05138,-0.62349 1.76045,-0.62349c0.74982,0 1.35294,0.22006 1.80936,0.66017c0.45641,0.43196 0.68462,0.99025 0.68462,1.67487h-1.24698c0,-0.35046 -0.11818,-0.64794 -0.35453,-0.89245c-0.22821,-0.24451 -0.5257,-0.36676 -0.89246,-0.36676c-0.36676,0 -0.65609,0.0978 -0.868,0.29341c-0.21191,0.18745 -0.31786,0.44419 -0.31786,0.7702c0,0.25266 0.07743,0.46049 0.23228,0.62349c0.15485,0.15485 0.52569,0.35861 1.1125,0.61127c0.93727,0.36676 1.573,0.72537 1.90716,1.07583c0.34231,0.35046 0.51346,0.79465 0.51346,1.33257c0,0.66832 -0.23228,1.20623 -0.69684,1.61374c-0.45641,0.39936 -1.07175,0.59904 -1.84603,0.59904c-0.80687,0 -1.4589,-0.22821 -1.95606,-0.68462c-0.49716,-0.46456 -0.74575,-1.05139 -0.74575,-1.76046h1.25921c0.0163,0.42381 0.1467,0.75798 0.39121,1.00248c0.25266,0.24451 0.60313,0.36676 1.05139,0.36676c0.41566,0 0.73352,-0.09373 0.95358,-0.28118c0.22006,-0.18745 0.33008,-0.44011 0.33008,-0.75797z" fill="#7d0000" stroke="none" stroke-width="1" stroke-linecap="square"/></g></g></svg>