<svg version="1.1" xmlns="http://www.w3.org/2000/svg" xmlns:xlink="http://www.w3.org/1999/xlink" width="61.19521" height="66.52794" viewBox="0,0,61.19521,66.52794"><g transform="translate(-208.18357,-298.72668)"><g data-paper-data="{&quot;isPaintingLayer&quot;:true}" fill-rule="nonzero" stroke-linejoin="miter" stroke-miterlimit="10" stroke-dasharray="" stroke-dashoffset="0" style="mix-blend-mode: normal"><path d="M222.50112,340.72668v-41.25h25.5l9.25,9.5v31.75z" fill="#ffffff" stroke="#63747e" stroke-width="1.5" stroke-linecap="butt"/><path d="M257.49888,309.4788l-12.57165,1.97223l2.29167,-12.17771" fill="#d2d9dc" stroke="none" stroke-width="0" stroke-linecap="butt"/><path d="M256.83222,308.81214h-8.96054v-8.99715" fill="#ffffff" stroke="#63747e" stroke-width="1.5" stroke-linecap="butt"/><path d="M222.50112,340.72668v-41.25h25.5l9.25,9.5v31.75z" fill="none" stroke="#63747e" stroke-width="1.5" stroke-linecap="butt"/><g fill="#96a5b3" stroke="none" stroke-width="0.5" stroke-linecap="butt"><path d="M245.20502,305.31214c0,0.5 -0.5,0.5 -0.5,0.5h-0.16667c-3.79183,0 -7.65339,0.32688 -11.4199,0.32688c-2.4423,0.815 -3.4543,-0.72544 -5.33334,-0.66667c-0.62052,0.01941 -1.10416,1.4282 -2.32685,1.16667c-0.95908,-0.20515 -0.9596,-0.69816 -1.22758,-1.5021c0,0 -0.15811,-0.47434 0.31623,-0.63245c0.47434,-0.15811 0.63245,0.31623 0.63245,0.31623c0.63278,1.89834 1.97607,-0.45505 3.52566,-0.34189c1.62016,0.11832 2.02164,1.41616 4.25324,0.67312c3.82055,0 7.73456,-0.33979 11.58009,-0.33979h0.16667c0,0 0.5,0 0.5,0.5z"/><path d="M251.03835,313.47881c0,0.5 -0.5,0.5 -0.5,0.5c-0.5,0 -1.16666,0 -1.66666,0c-1.87022,0 -5.79416,-0.8343 -7.47532,-0.03806c-1.53829,0.72857 -3.38163,1.4651 -5.22695,0.99532c-2.09682,-1.3837 -7.17216,-0.95726 -9.63106,-0.95726c0,0 -0.5,0 -0.5,-0.5c0,-0.5 0.5,-0.5 0.5,-0.5c2.57189,0 7.86218,-0.42197 10.03561,1.04274c1.58395,0.38483 3.13779,-0.48884 4.43972,-1.00468c2.02662,-0.80297 5.70672,-0.03806 7.85801,-0.03806c0.5,0 1,0 1.5,0h0.16666c0,0 0.5,0 0.5,0.5z"/><path d="M251.70502,320.64548c0,0.5 -0.5,0.5 -0.5,0.5l0.08269,-0.22265c-1.10098,1.53099 -2.87977,1.2235 -4.58974,1.22265c-3.36903,-0.00169 -6.68433,-0.49999 -10.15962,-0.49999c-1.96434,0 -3.65652,-0.39828 -5.56109,-0.67042c-1.64756,-0.23542 -3.59053,0.49966 -5.04959,-0.41356c0,0 -0.41603,-0.27735 -0.13868,-0.69338c0.27735,-0.41603 0.69338,-0.13868 0.69338,-0.13868c0.81576,0.60107 2.54824,0.24936 3.55598,0.24936c2.17516,0 4.27026,0.66667 6.5,0.66667c3.4692,0 6.79776,0.49976 10.15991,0.49999c1.18321,0.00008 3.07265,0.40108 3.7574,-0.77734l0.74936,-0.22265c0,0 0.5,0 0.5,0.5z"/><path d="M250.8919,329.1657c-0.35356,0.35356 -0.70711,0 -0.70711,0l0.02022,-0.18689c-2.31978,0 -4.42356,0.71996 -6.58658,0.99354c-3.06613,0.38781 -5.00935,-0.66021 -7.91342,-0.66021c-3.50986,0 -7.00186,-0.16666 -10.5,-0.16666c0,0 -0.5,0 -0.5,-0.5c0,-0.5 0.5,-0.5 0.5,-0.5c3.50232,0 6.98747,0.16666 10.5,0.16666c2.96768,0 4.70669,0.94873 7.75324,0.67313c2.18492,-0.19766 4.39822,-1.00646 6.74676,-1.00646l0.68688,0.47978c0,0 0.35356,0.35356 0,0.70711z"/><path d="M252.67936,336.97026c-0.15812,0.47434 -0.63245,0.31623 -0.63245,0.31623l-0.56156,-0.19185c-0.53231,-0.38049 -0.81016,-0.28249 -1.44699,-0.28249c-2.14112,0 -5.59662,-0.85747 -7.57211,-0.34235c-0.99277,0.25887 -1.74277,1.03643 -2.78111,1.00863c-1.51927,-0.04068 -2.56441,-0.99961 -3.9801,-0.99961c-2.40528,0 -4.61391,1.18482 -6.89443,0.82959c-1.63227,-0.25425 -2.33424,-1.16292 -4.10557,-1.16292c0,0 -0.5,0 -0.5,-0.5c0,-0.5 0.5,-0.5 0.5,-0.5c1.7396,0 2.69956,0.98073 4.22776,1.17041c1.4872,0.18459 1.98736,-0.54685 3.32403,-0.8237c1.03199,-0.21375 2.3826,-0.01338 3.44821,-0.01338c1.34937,0 3.05257,1.55902 4.36653,1.01815c3.24907,-1.33742 6.42625,-0.68481 9.9668,-0.68481c0.77544,0 1.21492,-0.03953 1.88635,0.38418l0.43844,0.14148c0,0 0.47434,0.15812 0.31623,0.63246z"/></g><path d="M213.07793,359.81377c0,-0.49894 -0.13464,-0.88305 -0.40391,-1.15232c-0.26927,-0.26927 -0.76029,-0.53063 -1.47306,-0.78406c-0.71277,-0.25343 -1.25924,-0.51874 -1.63938,-0.79593c-0.37223,-0.27719 -0.65338,-0.59398 -0.84345,-0.95037c-0.18215,-0.36431 -0.27323,-0.77613 -0.27323,-1.23547c0,-0.7999 0.26531,-1.45723 0.79593,-1.97201c0.53062,-0.5227 1.22756,-0.78405 2.09081,-0.78405c0.59398,0 1.12064,0.13464 1.57999,0.40391c0.46727,0.26927 0.82365,0.63753 1.06916,1.1048c0.25343,0.46727 0.38015,0.98601 0.38015,1.55623h-1.283c0,-0.62566 -0.15047,-1.10876 -0.45142,-1.44931c-0.29303,-0.34055 -0.72465,-0.51083 -1.29487,-0.51083c-0.50686,0 -0.90285,0.14256 -1.18796,0.42767c-0.27719,0.28511 -0.41578,0.68506 -0.41578,1.19984c0,0.42767 0.15047,0.78406 0.45142,1.06916c0.30887,0.28511 0.78009,0.5425 1.41367,0.77217c0.98997,0.32471 1.69878,0.72862 2.12645,1.21172c0.42767,0.47518 0.6415,1.10084 0.6415,1.87698c0,0.81573 -0.26531,1.47306 -0.79593,1.97201c-0.53062,0.49103 -1.25132,0.73654 -2.16208,0.73654c-0.58606,0 -1.12856,-0.12672 -1.62751,-0.38015c-0.49894,-0.26135 -0.89097,-0.6217 -1.17608,-1.08104c-0.27719,-0.46727 -0.41578,-1.00185 -0.41578,-1.60375h1.27112c0,0.62566 0.17423,1.11272 0.5227,1.46119c0.34847,0.34055 0.82366,0.51083 1.42555,0.51083c0.55438,0 0.97017,-0.14256 1.24736,-0.42767c0.28511,-0.28511 0.42766,-0.67714 0.42766,-1.17608zM221.43607,360.21767l1.14044,-5.34582h1.21172l-1.82945,7.49602h-0.98601l-1.46119,-5.3577l-1.42555,5.3577h-0.98601l-1.81758,-7.49602h1.21172l1.1642,5.21514l1.38991,-5.21514h0.96225zM226.38966,362.36788h-1.2236v-7.49602h1.2236zM226.48469,352.88797c0,0.20591 -0.05939,0.38015 -0.17819,0.5227c-0.11088,0.13464 -0.28115,0.20195 -0.51082,0.20195c-0.23759,0 -0.41578,-0.06732 -0.53458,-0.20195c-0.11088,-0.14255 -0.16631,-0.31679 -0.16631,-0.5227c0,-0.20591 0.05544,-0.38015 0.16631,-0.5227c0.1188,-0.15048 0.29302,-0.22571 0.5227,-0.22571c0.23759,0 0.41183,0.07523 0.5227,0.22571c0.1188,0.14255 0.17819,0.31679 0.17819,0.5227zM233.73636,358.98219c0,1.18796 -0.21383,2.07497 -0.6415,2.66103c-0.42767,0.57814 -1.03353,0.86721 -1.81758,0.86721c-0.75237,0 -1.33052,-0.28511 -1.73442,-0.85533v3.59952h-1.21172v-10.38276h1.1048l0.0594,0.83157c0.41182,-0.6415 1.00185,-0.96225 1.77006,-0.96225c0.82365,0 1.43743,0.28511 1.84133,0.85533c0.40391,0.57022 0.61378,1.42555 0.62962,2.56599zM232.51277,358.2813c0,-0.83949 -0.13068,-1.45723 -0.39203,-1.85322c-0.25343,-0.40391 -0.66526,-0.60586 -1.23548,-0.60586c-0.58606,0 -1.03353,0.29303 -1.34239,0.87909v3.89651c0.30095,0.57814 0.75238,0.86721 1.35428,0.86721c0.55438,0 0.96224,-0.19799 1.2236,-0.59398c0.26135,-0.40391 0.39203,-1.01768 0.39203,-1.84133zM237.99921,362.51043c-0.93453,0 -1.65126,-0.27719 -2.15021,-0.83157c-0.49894,-0.5623 -0.75237,-1.38199 -0.76029,-2.45907v-0.90285c0,-1.11668 0.24155,-1.99181 0.72465,-2.62539c0.49103,-0.63358 1.17212,-0.95037 2.04329,-0.95037c0.87909,0 1.53246,0.28115 1.96013,0.84345c0.43558,0.55438 0.65734,1.42159 0.66526,2.60163v0.79593h-4.18161v0.17819c0,0.80781 0.15047,1.39388 0.45142,1.75818c0.30887,0.36431 0.74445,0.54646 1.30676,0.54646c0.36431,0 0.6811,-0.06732 0.95037,-0.20195c0.27719,-0.14255 0.53855,-0.36035 0.78406,-0.65338l0.62961,0.77217c-0.53062,0.75237 -1.33843,1.12856 -2.42344,1.12856zM237.85666,355.78659c-0.50686,0 -0.88306,0.17424 -1.12856,0.5227c-0.24551,0.34847 -0.38411,0.89097 -0.41578,1.6275h2.94614v-0.16631c-0.03168,-0.71277 -0.1584,-1.21963 -0.38015,-1.52059c-0.22175,-0.30887 -0.5623,-0.46331 -1.02164,-0.46331zM251.70273,359.17227c-0.05544,1.07708 -0.36035,1.9047 -0.91473,2.48284c-0.55438,0.57022 -1.33448,0.85533 -2.34028,0.85533c-1.0058,0 -1.80965,-0.38411 -2.41155,-1.15232c-0.59398,-0.76821 -0.89097,-1.81362 -0.89097,-3.13621v-1.82946c0,-1.30676 0.30491,-2.34028 0.91473,-3.10057c0.61774,-0.76821 1.45328,-1.15232 2.5066,-1.15232c0.97413,0 1.7265,0.29303 2.25712,0.87909c0.53854,0.58606 0.83157,1.42159 0.87909,2.50659h-1.28299c-0.05544,-0.82365 -0.22967,-1.40971 -0.5227,-1.75818c-0.28511,-0.34847 -0.72862,-0.5227 -1.33052,-0.5227c-0.68901,0 -1.21963,0.26927 -1.59186,0.80781c-0.36431,0.53062 -0.54647,1.31864 -0.54647,2.36404v1.84134c0,1.02164 0.17028,1.8057 0.51083,2.35216c0.34847,0.54646 0.85137,0.81969 1.5087,0.81969c0.66526,0 1.14045,-0.16235 1.42555,-0.48707c0.29303,-0.33263 0.47518,-0.92264 0.54646,-1.77006zM257.10643,362.36788c-0.07919,-0.1584 -0.13464,-0.43163 -0.16631,-0.81969c-0.43558,0.6415 -0.98997,0.96225 -1.66314,0.96225c-0.67317,0 -1.2038,-0.19008 -1.59187,-0.57022c-0.38015,-0.38807 -0.57022,-0.92661 -0.57022,-1.61562c0,-0.7603 0.25739,-1.36219 0.77217,-1.8057c0.5227,-0.45142 1.23548,-0.6811 2.13833,-0.68901h0.90285v-0.79593c0,-0.45142 -0.10295,-0.77217 -0.30887,-0.96224c-0.19799,-0.19008 -0.49894,-0.28511 -0.90285,-0.28511c-0.37223,0 -0.67317,0.11088 -0.90285,0.33263c-0.22967,0.22175 -0.34451,0.49894 -0.34451,0.83157h-1.2236c0,-0.38015 0.11088,-0.74446 0.33263,-1.09292c0.22967,-0.34847 0.53458,-0.6217 0.91473,-0.81969c0.38807,-0.19799 0.81573,-0.29699 1.283,-0.29699c0.76821,0 1.35031,0.19008 1.74629,0.57022c0.40391,0.38015 0.60983,0.93452 0.61774,1.66314v3.77771c0.00792,0.57814 0.08712,1.08104 0.23759,1.50871v0.10692zM255.46704,361.39375c0.30095,0 0.58606,-0.08316 0.85533,-0.24947c0.27719,-0.16631 0.47914,-0.37618 0.60586,-0.62961v-1.78194h-0.7009c-0.57814,0.00792 -1.03749,0.13859 -1.37803,0.39202c-0.33263,0.25343 -0.49894,0.60586 -0.49894,1.05729c0,0.41974 0.08316,0.72861 0.24947,0.92661c0.17423,0.19008 0.4633,0.28511 0.86721,0.28511zM263.14044,356.02418c-0.17423,-0.03168 -0.36035,-0.04752 -0.55834,-0.04752c-0.62566,0 -1.06521,0.34451 -1.31864,1.03352v5.3577h-1.2236v-7.49602h1.18796l0.02376,0.76029c0.32471,-0.59398 0.78801,-0.89097 1.38991,-0.89097c0.19799,0 0.36035,0.03168 0.48707,0.09504zM263.96168,358.2813c0,-1.15628 0.21383,-2.03537 0.6415,-2.63727c0.43558,-0.6019 1.05729,-0.90285 1.8651,-0.90285c0.7207,0 1.28299,0.28907 1.6869,0.86721v-3.88463h1.2236v10.64411h-1.12856l-0.0594,-0.80781c-0.40391,0.63358 -0.97809,0.95037 -1.72254,0.95037c-0.77613,0 -1.38595,-0.30095 -1.82946,-0.90285c-0.43558,-0.60982 -0.6613,-1.46119 -0.67714,-2.55411zM265.19716,358.98219c0,0.83949 0.12276,1.45723 0.36827,1.85322c0.25343,0.39599 0.66129,0.59398 1.2236,0.59398c0.60982,0 1.0652,-0.30887 1.36615,-0.92661v-3.77771c-0.31679,-0.6019 -0.77217,-0.90285 -1.36615,-0.90285c-0.5623,0 -0.97017,0.19799 -1.2236,0.59398c-0.24551,0.39599 -0.36827,1.00185 -0.36827,1.81758z" fill="#ffffff" stroke="none" stroke-width="1" stroke-linecap="square"/></g></g></svg>