<svg version="1.1" xmlns="http://www.w3.org/2000/svg" xmlns:xlink="http://www.w3.org/1999/xlink" width="51.56409" height="68.18057" viewBox="0,0,51.56409,68.18057"><g transform="translate(-214.52543,-158.72668)"><g data-paper-data="{&quot;isPaintingLayer&quot;:true}" fill-rule="nonzero" stroke-linejoin="miter" stroke-miterlimit="10" stroke-dasharray="" stroke-dashoffset="0" style="mix-blend-mode: normal"><path d="M222.50112,200.72668v-41.25h25.5l9.25,9.5v31.75z" fill="#ffffff" stroke="#63747e" stroke-width="1.5" stroke-linecap="butt"/><path d="M257.49888,169.4788l-12.57165,1.97223l2.29167,-12.17771" fill="#d2d9dc" stroke="none" stroke-width="0" stroke-linecap="butt"/><path d="M256.83222,168.81214h-8.96054v-8.99715" fill="#ffffff" stroke="#63747e" stroke-width="1.5" stroke-linecap="butt"/><path d="M222.50112,200.72668v-41.25h25.5l9.25,9.5v31.75z" fill="none" stroke="#63747e" stroke-width="1.5" stroke-linecap="butt"/><g fill="#96a5b3" stroke="none" stroke-width="0.5" stroke-linecap="butt"><path d="M245.20502,165.31214c0,0.5 -0.5,0.5 -0.5,0.5h-0.16667c-3.79183,0 -7.65339,0.32688 -11.4199,0.32688c-2.4423,0.815 -3.4543,-0.72544 -5.33334,-0.66667c-0.62052,0.01941 -1.10416,1.4282 -2.32685,1.16667c-0.95908,-0.20515 -0.9596,-0.69816 -1.22758,-1.5021c0,0 -0.15811,-0.47434 0.31623,-0.63245c0.47434,-0.15811 0.63245,0.31623 0.63245,0.31623c0.63278,1.89834 1.97607,-0.45505 3.52566,-0.34189c1.62016,0.11832 2.02164,1.41616 4.25324,0.67312c3.82055,0 7.73456,-0.33979 11.58009,-0.33979h0.16667c0,0 0.5,0 0.5,0.5z"/><path d="M251.03835,173.47881c0,0.5 -0.5,0.5 -0.5,0.5c-0.5,0 -1.16666,0 -1.66666,0c-1.87022,0 -5.79416,-0.8343 -7.47532,-0.03806c-1.53829,0.72857 -3.38163,1.4651 -5.22695,0.99532c-2.09682,-1.3837 -7.17216,-0.95726 -9.63106,-0.95726c0,0 -0.5,0 -0.5,-0.5c0,-0.5 0.5,-0.5 0.5,-0.5c2.57189,0 7.86218,-0.42197 10.03561,1.04274c1.58395,0.38483 3.13779,-0.48884 4.43972,-1.00468c2.02662,-0.80297 5.70672,-0.03806 7.85801,-0.03806c0.5,0 1,0 1.5,0h0.16666c0,0 0.5,0 0.5,0.5z"/><path d="M251.70502,180.64548c0,0.5 -0.5,0.5 -0.5,0.5l0.08269,-0.22265c-1.10098,1.53099 -2.87977,1.2235 -4.58974,1.22265c-3.36903,-0.00169 -6.68433,-0.49999 -10.15962,-0.49999c-1.96434,0 -3.65652,-0.39828 -5.56109,-0.67042c-1.64756,-0.23542 -3.59053,0.49966 -5.04959,-0.41356c0,0 -0.41603,-0.27735 -0.13868,-0.69338c0.27735,-0.41603 0.69338,-0.13868 0.69338,-0.13868c0.81576,0.60107 2.54824,0.24936 3.55598,0.24936c2.17516,0 4.27026,0.66667 6.5,0.66667c3.4692,0 6.79776,0.49976 10.15991,0.49999c1.18321,0.00008 3.07265,0.40108 3.7574,-0.77734l0.74936,-0.22265c0,0 0.5,0 0.5,0.5z"/><path d="M250.8919,189.1657c-0.35356,0.35356 -0.70711,0 -0.70711,0l0.02022,-0.18689c-2.31978,0 -4.42356,0.71996 -6.58658,0.99354c-3.06613,0.38781 -5.00935,-0.66021 -7.91342,-0.66021c-3.50986,0 -7.00186,-0.16666 -10.5,-0.16666c0,0 -0.5,0 -0.5,-0.5c0,-0.5 0.5,-0.5 0.5,-0.5c3.50232,0 6.98747,0.16666 10.5,0.16666c2.96768,0 4.70669,0.94873 7.75324,0.67313c2.18492,-0.19766 4.39822,-1.00646 6.74676,-1.00646l0.68688,0.47978c0,0 0.35356,0.35356 0,0.70711z"/><path d="M252.67936,196.97026c-0.15812,0.47434 -0.63245,0.31623 -0.63245,0.31623l-0.56156,-0.19185c-0.53231,-0.38049 -0.81016,-0.28249 -1.44699,-0.28249c-2.14112,0 -5.59662,-0.85747 -7.57211,-0.34235c-0.99277,0.25887 -1.74277,1.03643 -2.78111,1.00863c-1.51927,-0.04068 -2.56441,-0.99961 -3.9801,-0.99961c-2.40528,0 -4.61391,1.18482 -6.89443,0.82959c-1.63227,-0.25425 -2.33424,-1.16292 -4.10557,-1.16292c0,0 -0.5,0 -0.5,-0.5c0,-0.5 0.5,-0.5 0.5,-0.5c1.7396,0 2.69956,0.98073 4.22776,1.17041c1.4872,0.18459 1.98736,-0.54685 3.32403,-0.8237c1.03199,-0.21375 2.3826,-0.01338 3.44821,-0.01338c1.34937,0 3.05257,1.55902 4.36653,1.01815c3.24907,-1.33742 6.42625,-0.68481 9.9668,-0.68481c0.77544,0 1.21492,-0.03953 1.88635,0.38418l0.43844,0.14148c0,0 0.47434,0.15812 0.31623,0.63246z"/></g><path d="M219.07325,219.7006h-3.31868v4.33433h-1.22914v-9.80725h5.10416v1.06094h-3.87502v3.35749h3.31868zM222.26799,224.03493h-1.19033v-7.29075h1.19033zM222.36503,214.80992c0,0.20271 -0.05606,0.37305 -0.1682,0.51107c-0.11213,0.1337 -0.28249,0.20054 -0.51107,0.20054c-0.22427,0 -0.39246,-0.06685 -0.5046,-0.20054c-0.11213,-0.138 -0.1682,-0.30835 -0.1682,-0.51107c0,-0.20271 0.05606,-0.37305 0.1682,-0.51107c0.11213,-0.138 0.28033,-0.20701 0.5046,-0.20701c0.22427,0 0.39246,0.07116 0.5046,0.21348c0.11644,0.138 0.17467,0.30621 0.17467,0.5046zM226.24952,219.40301l1.24855,-2.65883h1.38441l-1.98604,3.60332l2.03132,3.68743h-1.365l-1.28736,-2.72999l-1.29383,2.72999h-1.37794l2.03132,-3.68743l-1.97956,-3.60332h1.37147zM235.40196,220.94268l0.12939,1.09975l0.19408,-0.97038l1.57201,-6.84438h1.0286l1.52025,6.84438l0.20054,0.99625l0.14233,-1.1321l1.19679,-6.70852h1.23561l-1.96015,9.80725h-1.10622l-1.6367,-7.14842l-0.1035,-0.58221l-0.1035,0.58221l-1.69492,7.14842h-1.11917l-1.94721,-9.80725h1.23561zM245.15581,224.03493h-1.19033v-7.29075h1.19033zM245.25286,214.80992c0,0.20271 -0.05606,0.37305 -0.1682,0.51107c-0.11213,0.1337 -0.28249,0.20054 -0.51107,0.20054c-0.22427,0 -0.39246,-0.06685 -0.5046,-0.20054c-0.11213,-0.138 -0.1682,-0.30835 -0.1682,-0.51107c0,-0.20271 0.05606,-0.37305 0.1682,-0.51107c0.11213,-0.138 0.28033,-0.20701 0.5046,-0.20701c0.22427,0 0.39246,0.07116 0.5046,0.21348c0.11644,0.138 0.17467,0.30621 0.17467,0.5046zM250.04306,217.86336c-0.1682,-0.03018 -0.34718,-0.04528 -0.53693,-0.04528c-0.61241,0 -1.03937,0.33424 -1.28089,1.00272v5.21414h-1.19679v-7.29075h1.16445l0.01941,0.74395c0.31914,-0.58654 0.76983,-0.8798 1.35205,-0.8798c0.18975,0 0.34718,0.03234 0.47225,0.09704zM252.51334,224.03493h-1.19033v-7.29075h1.19033zM252.61037,214.80992c0,0.20271 -0.05606,0.37305 -0.1682,0.51107c-0.11213,0.1337 -0.28249,0.20054 -0.51107,0.20054c-0.22427,0 -0.39246,-0.06685 -0.5046,-0.20054c-0.11213,-0.138 -0.1682,-0.30835 -0.1682,-0.51107c0,-0.20271 0.05606,-0.37305 0.1682,-0.51107c0.11213,-0.138 0.28033,-0.20701 0.5046,-0.20701c0.22427,0 0.39246,0.07116 0.5046,0.21348c0.11644,0.138 0.17467,0.30621 0.17467,0.5046zM255.51158,216.74418l0.03881,0.78923c0.46147,-0.61673 1.05231,-0.92508 1.77254,-0.92508c1.2852,0 1.93858,0.8604 1.96015,2.58119v4.8454h-1.19033v-4.79365c0,-0.56929 -0.09488,-0.97253 -0.28464,-1.20974c-0.18975,-0.24152 -0.47657,-0.36228 -0.8604,-0.36228c-0.29327,0 -0.5585,0.09919 -0.79571,0.29759c-0.2372,0.19408 -0.42696,0.45068 -0.56929,0.76983v5.29824h-1.19679v-7.29075zM260.8301,220.06288c0,-1.13857 0.20701,-1.99898 0.62104,-2.58119c0.41403,-0.58221 1.01781,-0.87333 1.81136,-0.87333c0.7418,0 1.30462,0.31698 1.68845,0.95097l0.06469,-0.81512h1.07388v7.35543c0,0.90569 -0.23074,1.60005 -0.6922,2.08307c-0.46147,0.48304 -1.10622,0.72454 -1.93429,0.72454c-0.35797,0 -0.76121,-0.09058 -1.20974,-0.2717c-0.44421,-0.17682 -0.77846,-0.39462 -1.00272,-0.65338l0.48518,-0.82158c0.49165,0.48304 1.03723,0.72454 1.6367,0.72454c0.99195,0 1.50084,-0.54125 1.52673,-1.62376v-0.94449c-0.38383,0.56929 -0.93155,0.85393 -1.64317,0.85393c-0.75474,0 -1.34343,-0.28464 -1.76608,-0.85393c-0.42266,-0.56929 -0.64261,-1.38657 -0.65985,-2.45182zM262.02043,220.74214c0,0.81512 0.12076,1.41459 0.36228,1.79843c0.24152,0.38383 0.63614,0.57576 1.18386,0.57576c0.59084,0 1.03507,-0.30188 1.33264,-0.90569v-3.6486c-0.31051,-0.59516 -0.75043,-0.89274 -1.31972,-0.89274c-0.54772,0 -0.94449,0.19192 -1.19033,0.57576c-0.24152,0.38383 -0.36444,0.97253 -0.36875,1.76608z" fill="#000000" stroke="none" stroke-width="1" stroke-linecap="square"/></g></g></svg>