<svg version="1.1" xmlns="http://www.w3.org/2000/svg" xmlns:xlink="http://www.w3.org/1999/xlink" width="720" height="540" viewBox="0,0,720,540"><defs><clipPath id="clip-1"><rect x="-240" y="-180" transform="scale(0.5,0.5)" width="1440" height="1080" fill="none" fill-rule="nonzero" stroke-width="0.5" stroke-linecap="butt"/></clipPath></defs><g transform="translate(120,90)"><g clip-path="url(#clip-1)" data-paper-data="{&quot;isPaintingLayer&quot;:true}" stroke="none" stroke-linejoin="miter" stroke-miterlimit="10" stroke-dasharray="" stroke-dashoffset="0" style="mix-blend-mode: normal"><path d="M-164,-68h960v720h-960z" fill-opacity="0" fill="#000000" fill-rule="evenodd" stroke-width="1" stroke-linecap="square"/><path d="M-156.4252,-34.19685h944.85034v59.77953h-944.85034z" fill-opacity="0" fill="#000000" fill-rule="evenodd" stroke-width="1" stroke-linecap="square"/><path d="M259.69278,-12.8531c0,1.34375 -0.59896,2.01563 -1.79687,2.01563h-1.125c-0.34375,0 -0.61458,-0.125 -0.8125,-0.375c-0.1875,-0.26042 -0.29687,-0.61458 -0.32812,-1.0625c-0.02083,-0.44792 -0.15625,-0.85937 -0.40625,-1.23437c-0.25,-0.375 -0.56771,-0.67708 -0.95312,-0.90625c-0.72917,-0.42708 -1.69792,-0.64062 -2.90625,-0.64062c-1.19792,0 -2.24479,0.25521 -3.14062,0.76563c-0.88542,0.5 -1.59896,1.17188 -2.14062,2.01563c-1.04167,1.58333 -1.5625,3.70313 -1.5625,6.35938c0,4.76041 1.55208,7.75 4.65625,8.96875c0.94792,0.375 1.88021,0.5625 2.79688,0.5625c1.64583,0 3.09896,-0.29687 4.35937,-0.89062l0.90625,-0.42187c0.29167,-0.13542 0.55208,-0.20312 0.78125,-0.20312c0.22917,0 0.41146,0.05729 0.54688,0.17188c0.14583,0.10417 0.32292,0.35938 0.53125,0.76563c0.21875,0.40625 0.32813,0.76042 0.32813,1.0625c0,0.29167 -0.10417,0.58333 -0.3125,0.875c-0.20833,0.28125 -0.46354,0.53125 -0.76562,0.75c-0.53125,0.35417 -1.17187,0.64063 -1.92187,0.85938c-1.36458,0.41667 -2.96354,0.625 -4.79687,0.625c-1.82292,0 -3.45312,-0.32812 -4.89062,-0.98437c-1.4375,-0.66667 -2.64583,-1.58854 -3.625,-2.76562c-2,-2.38542 -3,-5.51042 -3,-9.375c0,-3.82292 1.01042,-6.875 3.03125,-9.15625c2.07292,-2.34375 4.92708,-3.51562 8.5625,-3.51562c2,0 3.77083,0.44792 5.3125,1.34375c1.78125,1.02083 2.67188,2.48437 2.67188,4.39062zM262.41977,-2.44685c0,-1.40625 0.23438,-2.69791 0.70313,-3.875c0.47917,-1.17708 1.13021,-2.18229 1.95313,-3.01562c1.71875,-1.75 3.89063,-2.625 6.51563,-2.625c2.94792,0 5.22917,0.875 6.84375,2.625c1.5625,1.67708 2.34375,3.98958 2.34375,6.9375c0,2.83333 -0.88542,5.15104 -2.65625,6.95313c-1.72917,1.77083 -3.90625,2.65625 -6.53125,2.65625c-2.76042,0 -4.98437,-0.90625 -6.67187,-2.71875c-1.66667,-1.77083 -2.5,-4.08333 -2.5,-6.9375zM267.65414,-6.57185c-0.40625,0.59375 -0.70312,1.27604 -0.89062,2.04688c-0.1875,0.76041 -0.28125,1.53645 -0.28125,2.32812c0,0.78125 0.10417,1.53646 0.3125,2.26563c0.21875,0.71875 0.54167,1.35938 0.96875,1.92188c0.92708,1.22917 2.22917,1.84375 3.90625,1.84375c1.69792,0 2.98438,-0.60417 3.85938,-1.8125c0.78125,-1.0625 1.17188,-2.51042 1.17188,-4.34375c0,-2.75 -0.89583,-4.64583 -2.6875,-5.6875c-0.66667,-0.375 -1.46875,-0.5625 -2.40625,-0.5625c-0.9375,0 -1.72917,0.18229 -2.375,0.54688c-0.64583,0.36458 -1.17187,0.84896 -1.57812,1.45313zM285.69626,-10.38435c0,-0.78125 0.375,-1.17187 1.125,-1.17187h0.89063c0.60417,0 1.01563,0.22917 1.23438,0.6875c0.30208,0.64583 0.5625,1.5 0.78125,2.5625c0.97917,-1.77083 2.43229,-2.90625 4.35938,-3.40625c0.60417,-0.16667 1.35938,-0.25 2.26563,-0.25c0.90625,0 1.74479,0.19271 2.51563,0.57813c0.77083,0.38542 1.38021,0.91667 1.82813,1.59375c0.82292,1.21875 1.23438,3.02083 1.23438,5.40625v10.10937c0,0.30208 -0.09896,0.55729 -0.29687,0.76563c-0.1875,0.20833 -0.47396,0.3125 -0.85937,0.3125h-1.59375c-0.41667,0 -0.72396,-0.10417 -0.92187,-0.3125c-0.1875,-0.20833 -0.28125,-0.46354 -0.28125,-0.76562v-10.125c0,-2.77083 -1.02083,-4.15625 -3.0625,-4.15625c-1.1875,0 -2.27604,0.5 -3.26562,1.5c-1.05208,1.07292 -1.57812,2.31771 -1.57812,3.73437v9.04688c0,0.30208 -0.09375,0.55729 -0.28125,0.76563c-0.1875,0.20833 -0.46875,0.3125 -0.84375,0.3125h-1.67187c-0.38542,0 -0.67708,-0.10417 -0.875,-0.3125c-0.1875,-0.20833 -0.28125,-0.46354 -0.28125,-0.76562v-9.98437c0,-2.1875 -0.07292,-3.70833 -0.21875,-4.5625c-0.13542,-0.86458 -0.20312,-1.38542 -0.20312,-1.5625zM317.83081,-9.08748c0,0.61458 -0.34375,0.92188 -1.03125,0.92188h-4.57812v10.21875c0,1.10417 0.54688,1.65625 1.64063,1.65625c0.69792,0 1.60417,-0.34896 2.71875,-1.04687c0.21875,-0.13542 0.45313,-0.20312 0.70313,-0.20312c0.26042,0 0.46354,0.17708 0.60938,0.53125l0.375,0.84375c0.14583,0.33333 0.21875,0.61458 0.21875,0.84375c0,0.21875 -0.17187,0.47917 -0.51562,0.78125c-0.34375,0.30208 -0.78125,0.57292 -1.3125,0.8125c-1.20833,0.54167 -2.30208,0.8125 -3.28125,0.8125c-0.96875,0 -1.73958,-0.09896 -2.3125,-0.29687c-0.5625,-0.20833 -1.04687,-0.51042 -1.45312,-0.90625c-0.86458,-0.85417 -1.29687,-2.07812 -1.29687,-3.67187v-10.375h-1.375c-0.67708,0 -1.01562,-0.3125 -1.01562,-0.9375v-0.92187c0,-0.25 0.0625,-0.44271 0.1875,-0.57812c0.13542,-0.14583 0.39063,-0.25521 0.76563,-0.32812l1.625,-0.46875l0.625,-3.82812c0.11458,-0.71875 0.40625,-1.07812 0.875,-1.07812h1.34375c0.25,0 0.45833,0.10417 0.625,0.3125c0.16667,0.19792 0.25,0.45313 0.25,0.76563v3.67188h4.57813c0.6875,0 1.03125,0.29688 1.03125,0.89063zM323.72644,-14.69685c-0.73958,0 -1.36979,-0.25521 -1.89062,-0.76562c-0.52083,-0.5 -0.78125,-1.13021 -0.78125,-1.89062c0,-0.72917 0.26042,-1.35417 0.78125,-1.875c0.5,-0.5 1.13021,-0.75 1.89063,-0.75c1.15625,0 1.96875,0.53125 2.4375,1.59375c0.13542,0.3125 0.20313,0.65625 0.20313,1.03125c0,0.76042 -0.26042,1.39063 -0.78125,1.89063c-0.52083,0.51042 -1.14062,0.76563 -1.85937,0.76563zM325.63269,2.3344c0,0.77083 0.25521,1.15625 0.76563,1.15625c0.16667,0 0.35938,-0.05208 0.57813,-0.15625c0.42708,-0.1875 0.71354,-0.28125 0.85938,-0.28125c0.22917,0 0.41667,0.16146 0.5625,0.48438l0.5,1.14063c0.08333,0.17708 0.125,0.34896 0.125,0.51563c0,0.46875 -0.40104,0.90104 -1.20312,1.29688c-0.76042,0.39583 -1.51042,0.59375 -2.25,0.59375c-0.73958,0 -1.33333,-0.08333 -1.78125,-0.25c-0.44792,-0.16667 -0.82812,-0.4375 -1.14062,-0.8125c-0.625,-0.78125 -0.9375,-2.05208 -0.9375,-3.8125v-12.6875c0,-0.30208 0.08333,-0.55729 0.25,-0.76562c0.17708,-0.20833 0.38542,-0.3125 0.625,-0.3125h2.17188c0.25,0 0.45833,0.10417 0.625,0.3125c0.16667,0.20833 0.25,0.46354 0.25,0.76563zM332.85687,-10.38435c0,-0.78125 0.375,-1.17187 1.125,-1.17187h0.89063c0.60417,0 1.01563,0.22917 1.23438,0.6875c0.30208,0.64583 0.5625,1.5 0.78125,2.5625c0.97917,-1.77083 2.43229,-2.90625 4.35938,-3.40625c0.60417,-0.16667 1.35938,-0.25 2.26563,-0.25c0.90625,0 1.74479,0.19271 2.51563,0.57813c0.77083,0.38542 1.38021,0.91667 1.82813,1.59375c0.82292,1.21875 1.23438,3.02083 1.23438,5.40625v10.10937c0,0.30208 -0.09896,0.55729 -0.29687,0.76563c-0.1875,0.20833 -0.47396,0.3125 -0.85937,0.3125h-1.59375c-0.41667,0 -0.72396,-0.10417 -0.92187,-0.3125c-0.1875,-0.20833 -0.28125,-0.46354 -0.28125,-0.76562v-10.125c0,-2.77083 -1.02083,-4.15625 -3.0625,-4.15625c-1.1875,0 -2.27604,0.5 -3.26562,1.5c-1.05208,1.07292 -1.57812,2.31771 -1.57812,3.73437v9.04688c0,0.30208 -0.09375,0.55729 -0.28125,0.76563c-0.1875,0.20833 -0.46875,0.3125 -0.84375,0.3125h-1.67187c-0.38542,0 -0.67708,-0.10417 -0.875,-0.3125c-0.1875,-0.20833 -0.28125,-0.46354 -0.28125,-0.76562v-9.98437c0,-2.1875 -0.07292,-3.70833 -0.21875,-4.5625c-0.13542,-0.86458 -0.20312,-1.38542 -0.20312,-1.5625zM371.50708,5.69377c0,0.73958 -0.33854,1.10938 -1.01562,1.10938h-0.73437c-0.64583,0 -1.07292,-0.26042 -1.28125,-0.78125c-0.22917,-0.59375 -0.47396,-1.42187 -0.73437,-2.48437c-0.45833,1.13542 -1.23437,2.03125 -2.32812,2.6875c-1.08333,0.65625 -2.4375,0.98438 -4.0625,0.98438c-2.125,0 -3.69271,-0.66146 -4.70312,-1.98437c-1.01042,-1.33333 -1.51562,-3.29687 -1.51562,-5.89062v-9.8125c0,-0.30208 0.09375,-0.55729 0.28125,-0.76562c0.1875,-0.20833 0.45833,-0.3125 0.8125,-0.3125h1.78125c0.71875,0 1.07813,0.35938 1.07813,1.07813v9.625c0,2.59375 0.60417,4.09375 1.8125,4.5c0.38542,0.125 0.84375,0.1875 1.375,0.1875c0.54167,0 1.09375,-0.11979 1.65625,-0.35937c0.57292,-0.25 1.08854,-0.58333 1.54688,-1c1.02083,-0.94792 1.53125,-2.02604 1.53125,-3.23437v-9.71875c0,-0.30208 0.09375,-0.55729 0.28125,-0.76562c0.1875,-0.20833 0.47917,-0.3125 0.875,-0.3125h1.70313c0.38542,0 0.66146,0.10417 0.82813,0.3125c0.17708,0.20833 0.26563,0.46354 0.26563,0.76563v10.17187c0,2.29167 0.16146,4.13542 0.48438,5.53125c0.04167,0.11458 0.0625,0.27083 0.0625,0.46875zM379.98535,-1.4781l-0.01562,0.3125c0,1.47917 0.46875,2.67188 1.40625,3.57813c0.98958,0.94792 2.32813,1.42188 4.01563,1.42188c1.54167,0 2.97396,-0.45833 4.29688,-1.375c0.25,-0.17708 0.47396,-0.26562 0.67188,-0.26562c0.40625,0 0.70833,0.20313 0.90625,0.60938l0.45313,0.90625c0.09375,0.21875 0.14063,0.45313 0.14063,0.70313c0,0.25 -0.11458,0.51042 -0.34375,0.78125c-0.21875,0.26042 -0.51042,0.5 -0.875,0.71875c-0.35417,0.21875 -0.76562,0.41146 -1.23437,0.57813c-0.46875,0.15625 -0.95312,0.28646 -1.45312,0.39063c-1,0.21875 -2.04167,0.32813 -3.125,0.32813c-1.08333,0 -2.17708,-0.20312 -3.28125,-0.60937c-1.10417,-0.41667 -2.05729,-1.02083 -2.85937,-1.8125c-1.71875,-1.6875 -2.57812,-3.96354 -2.57812,-6.82812c0,-5.02083 1.76563,-8.14062 5.29688,-9.35937c1.10417,-0.38542 2.23958,-0.57812 3.40625,-0.57812c1.16667,0 2.16146,0.125 2.98438,0.375c0.82292,0.25 1.53125,0.61979 2.125,1.10938c1.26042,1.03125 1.89063,2.46875 1.89063,4.3125c0,1.8125 -0.73958,3.1927 -2.21875,4.14062c-1.29167,0.84375 -2.99479,1.26563 -5.10937,1.26563c-1.30208,0 -2.80208,-0.23437 -4.5,-0.70312zM387.98535,-6.2281c0,-1.55208 -1.04167,-2.32812 -3.125,-2.32812c-1.98958,0 -3.38021,0.72396 -4.17187,2.17188c-0.28125,0.51042 -0.46354,1.14063 -0.54687,1.89063c0.9375,0.46875 2.125,0.70312 3.5625,0.70312c2.85417,0 4.28125,-0.8125 4.28125,-2.4375z" fill="#000000" fill-rule="nonzero" stroke-width="1" stroke-linecap="square"/></g></g></svg>