<svg version="1.1" xmlns="http://www.w3.org/2000/svg" xmlns:xlink="http://www.w3.org/1999/xlink" width="458.95345" height="347.84234" viewBox="0,0,458.95345,347.84234"><defs><linearGradient x1="240.77664" y1="13.8161" x2="240.77664" y2="58.3161" gradientUnits="userSpaceOnUse" id="color-1"><stop offset="0" stop-color="#29312a"/><stop offset="1" stop-color="#29312a" stop-opacity="0"/></linearGradient></defs><g transform="translate(-10.52327,-6.07883)"><g data-paper-data="{&quot;isPaintingLayer&quot;:true}" fill-rule="nonzero" stroke-linejoin="miter" stroke-miterlimit="10" stroke-dasharray="" stroke-dashoffset="0" style="mix-blend-mode: normal"><path d="M13.27328,351.17117v-342.34234h453.45345v342.34234z" fill="#badfbe" stroke="#273737" stroke-width="5.5" stroke-linecap="butt"/><path d="M16.02661,58.3161v-44.5h449.5v44.5z" fill="url(#color-1)" stroke="none" stroke-width="0" stroke-linecap="butt"/><path d="M14.75002,45.5v-35h450.5v35z" fill="#ffffff" stroke="#273737" stroke-width="2" stroke-linecap="butt"/><path d="M14.75002,45.5v-35h37v35z" fill="#ececec" stroke="#273737" stroke-width="2" stroke-linecap="butt"/><path d="M51.75001,45.5v-35h37v35z" fill="#ececec" stroke="#273737" stroke-width="2" stroke-linecap="butt"/><path d="M23.85769,28.95321l16.1,-9.85224v19.22388z" fill="#696969" stroke="#292929" stroke-width="1.6" stroke-linecap="butt"/><path d="M61.96686,38.40818v-12.36428h17.64566v12.36428z" fill="#5c5c5c" stroke="#292929" stroke-width="1.3" stroke-linecap="butt"/><path d="M61.40151,25.81607c1.25561,-1.13409 9.46345,-8.54764 9.46345,-8.54764c0,0 7.53415,6.9166 8.97807,8.24217c0.45908,0.42145 0.53031,0.83317 0.06723,0.83317c-1.86624,0 -14.22524,0 -18,0c-0.68985,0 -0.82073,-0.24592 -0.50876,-0.5277z" fill="#696969" stroke="#292929" stroke-width="1.6" stroke-linecap="butt"/><path d="M109.13695,36.42429h-2.01535l-6.37145,-12.27056v12.27056h-2.00486v-15.91288h2.00486l6.39245,12.31254v-12.31254h1.99436zM118.42255,36.42429c-0.11896,-0.25192 -0.20294,-0.68228 -0.25192,-1.29108c-0.68578,1.00768 -1.5605,1.51151 -2.62416,1.51151c-1.07066,0 -1.90689,-0.3009 -2.50869,-0.90271c-0.60181,-0.60181 -0.90271,-1.44853 -0.90271,-2.54018c0,-1.20361 0.40587,-2.1588 1.21761,-2.86558c0.81874,-0.70677 1.93838,-1.06716 3.35892,-1.08115h1.42754v-1.2596c0,-0.70677 -0.15745,-1.20711 -0.47235,-1.50102c-0.3149,-0.3009 -0.79424,-0.45135 -1.43804,-0.45135c-0.58081,0 -1.05316,0.17494 -1.41704,0.52483c-0.36388,0.34289 -0.54582,0.78025 -0.54582,1.31208h-1.94188c0,-0.6088 0.17844,-1.18612 0.53533,-1.73194c0.36388,-0.55282 0.84673,-0.98668 1.44853,-1.30158c0.60181,-0.3149 1.27709,-0.47235 2.02585,-0.47235c1.21061,0 2.13082,0.3009 2.76061,0.90271c0.6298,0.60181 0.95169,1.48002 0.96569,2.63465v5.96208c0.007,0.91671 0.12946,1.70745 0.36738,2.37224v0.17844zM115.84038,34.88129c0.46885,0 0.91671,-0.12946 1.34357,-0.38838c0.43386,-0.26592 0.75226,-0.59481 0.95519,-0.98668v-2.82359h-1.10215c-0.91671,0.014 -1.64097,0.22043 -2.1728,0.6193c-0.53183,0.39887 -0.79774,0.95519 -0.79774,1.66896c0,0.67178 0.13296,1.15813 0.39887,1.45903c0.27291,0.3009 0.73126,0.45135 1.37506,0.45135zM126.24349,33.48524l2.24628,-8.89064h1.96287l-3.50587,11.8297h-1.44853l-3.54786,-11.8297h1.96287l2.33025,8.89064zM131.57951,20.51141h1.82641l5.57371,17.27745h-1.81592z" fill="#000000" stroke="none" stroke-width="1" stroke-linecap="square"/><path d="M132.30163,75.13913h-4.79584c-0.22959,0 -0.42517,-0.07228 -0.58673,-0.21683c-0.16156,-0.14455 -0.24235,-0.32313 -0.24235,-0.53571v-1.39028c0,-0.20408 0.08079,-0.3784 0.24235,-0.52295c0.16156,-0.15306 0.35713,-0.22959 0.58673,-0.22959h13.12479c0.23809,0 0.41666,0.07653 0.53571,0.22959c0.11904,0.14455 0.17857,0.32313 0.17857,0.53571v1.39028c0,0.20408 -0.06377,0.3784 -0.19133,0.52296c-0.12755,0.14455 -0.30611,0.21683 -0.5357,0.21683h-4.96165v16.61963c0,0.22959 -0.07228,0.42942 -0.21683,0.59948c-0.14455,0.17006 -0.31887,0.2551 -0.52295,0.2551h-1.87497c-0.20408,0 -0.3784,-0.08503 -0.52295,-0.2551c-0.14455,-0.17006 -0.21684,-0.36989 -0.21684,-0.59948v-16.61963zM156.4144,91.91181c0,0.46768 -0.22959,0.70152 -0.68876,0.70152h-1.28824c-0.34864,0 -0.55696,-0.06803 -0.62499,-0.20408c-0.06803,-0.13605 -0.1063,-0.25935 -0.1148,-0.36989c-0.0085,-0.11054 -0.02551,-0.2466 -0.05102,-0.40816c-0.05952,-0.43367 -0.13605,-0.90134 -0.22959,-1.40304c-0.68876,1.25848 -1.77293,2.09181 -3.2525,2.49996c-0.52721,0.14455 -1.10542,0.21683 -1.73466,0.21683c-0.62924,0 -1.25848,-0.10629 -1.88773,-0.31887c-0.62924,-0.20408 -1.1862,-0.5102 -1.67089,-0.91835c-1.09692,-0.91835 -1.64538,-2.12582 -1.64538,-3.62239c0,-1.64113 0.60374,-2.89536 1.81119,-3.7627c0.98638,-0.69727 2.25762,-1.0459 3.81371,-1.0459c1.5646,0 2.88686,0.45492 3.96677,1.36477c0.02551,-0.29761 0.03827,-0.67175 0.03827,-1.12243c0,-0.45918 -0.08929,-0.9141 -0.26786,-1.36477c-0.17857,-0.45068 -0.42941,-0.82482 -0.75254,-1.12243c-0.67175,-0.59522 -1.61137,-0.89284 -2.81883,-0.89284c-1.07991,0 -2.17683,0.29762 -3.29076,0.89284c-0.21258,0.11054 -0.39965,0.16581 -0.56122,0.16581c-0.23809,0 -0.46768,-0.23384 -0.68877,-0.70152c-0.23809,-0.47619 -0.35714,-0.82056 -0.35714,-1.03314c0,-0.39115 0.29336,-0.76955 0.88009,-1.13519c1.11393,-0.68877 2.60625,-1.03315 4.47697,-1.03315c1.70066,0 3.10794,0.46767 4.22187,1.40304c1.318,1.11393 1.97701,2.68703 1.97701,4.71931c0,0.90985 -0.14455,2.04929 -0.43366,3.41831c0.74829,2.14282 1.13944,3.83497 1.17345,5.07645zM147.51149,86.27415c-0.35713,0.2636 -0.61649,0.53145 -0.77805,0.80355c-0.15306,0.2636 -0.22959,0.57398 -0.22959,0.93111c0,0.35713 0.06377,0.67601 0.19133,0.95661c0.13605,0.28061 0.31887,0.51445 0.54846,0.70152c0.48469,0.38264 1.02889,0.57397 1.63262,0.57397c0.61223,0 1.10968,-0.07228 1.49232,-0.21683c0.39115,-0.14455 0.73128,-0.32738 1.02039,-0.54847c0.60374,-0.47619 0.9056,-0.98212 0.9056,-1.51783c-0.05102,-0.66326 -0.41666,-1.18195 -1.09692,-1.55609c-0.61223,-0.35713 -1.33501,-0.53571 -2.16833,-0.53571c-0.64624,0 -1.15219,0.13606 -1.51783,0.40816zM164.40659,90.22817c1.70066,0 2.55097,-0.57397 2.55097,-1.72191c0,-0.62924 -0.48468,-1.16069 -1.45405,-1.59436c-0.40815,-0.18707 -0.85458,-0.35713 -1.33927,-0.51019c-0.47618,-0.16156 -0.93961,-0.35289 -1.39029,-0.57398c-0.44217,-0.22109 -0.85458,-0.46343 -1.23722,-0.72702c-0.38264,-0.2636 -0.71427,-0.56122 -0.99488,-0.89285c-0.58673,-0.71428 -0.88009,-1.61561 -0.88009,-2.70403c0,-1.32651 0.55271,-2.38092 1.65814,-3.16322c0.98638,-0.69727 2.19384,-1.0459 3.62239,-1.0459c1.5476,0 2.83584,0.30186 3.86473,0.9056c0.35713,0.21258 0.53571,0.45493 0.53571,0.72703c0,0.39115 -0.10629,0.82057 -0.31887,1.28825c-0.20408,0.45918 -0.44642,0.68877 -0.72703,0.68877c-0.27211,0 -0.52294,-0.05528 -0.75253,-0.16582c-0.22959,-0.11904 -0.43366,-0.21683 -0.61223,-0.29336c-0.17857,-0.08503 -0.3699,-0.15731 -0.57398,-0.21683c-0.44217,-0.12755 -0.85457,-0.19133 -1.23722,-0.19133c-0.37414,0 -0.67601,0.02551 -0.9056,0.07653c-0.22959,0.05102 -0.43792,0.13605 -0.62499,0.2551c-0.45067,0.2721 -0.67601,0.60798 -0.67601,1.00764c0,0.39965 0.08928,0.70577 0.26785,0.91835c0.18707,0.21258 0.43792,0.40816 0.75253,0.58673c0.32313,0.17006 0.70578,0.34439 1.14795,0.52296l1.42854,0.59948c1.16495,0.50169 1.9515,0.95661 2.35966,1.36477c0.79081,0.81632 1.18621,1.76018 1.18621,2.83159c0,1.35202 -0.45917,2.46169 -1.37752,3.32903c-1.02039,0.94386 -2.4702,1.41579 -4.34942,1.41579c-1.90473,0 -3.33328,-0.36564 -4.28565,-1.09692c-0.46768,-0.35713 -0.70152,-0.67601 -0.70152,-0.95662c0,-0.28911 0.05102,-0.54421 0.15306,-0.76529c0.10204,-0.22959 0.23384,-0.49744 0.3954,-0.80356c0.16156,-0.30612 0.38264,-0.45918 0.66325,-0.45918c0.28061,0 0.57823,0.12755 0.89284,0.38265c0.31462,0.2551 0.74403,0.48468 1.28824,0.68877c0.55272,0.19558 1.10968,0.29336 1.6709,0.29336zM185.02488,89.9093l1.10968,-0.21684c0.30612,0 0.5017,0.20833 0.58673,0.62499l0.17856,0.95661c0.0085,0.04252 0.01275,0.13606 0.01275,0.28061c0,0.14455 -0.05527,0.30187 -0.16581,0.47193c-0.11054,0.17006 -0.2551,0.31462 -0.43367,0.43366c-0.40815,0.2551 -0.92685,0.38265 -1.55609,0.38265c-1.24998,0 -2.29163,-0.60798 -3.12495,-1.82395c-0.15306,-0.20408 -0.32312,-0.46768 -0.51019,-0.7908l-1.82395,-3.2525l-0.80356,1.09692c-1.08842,1.53059 -1.74317,2.75506 -1.96425,3.67341c-0.05952,0.23809 -0.14456,0.44217 -0.2551,0.61223c-0.11054,0.17006 -0.30612,0.2551 -0.58673,0.2551h-1.05866c-0.19557,0 -0.36139,-0.08078 -0.49744,-0.24234c-0.13605,-0.17006 -0.20407,-0.3784 -0.20407,-0.62499v-21.84913c0,-0.23809 0.06802,-0.43792 0.20407,-0.59948c0.13605,-0.16156 0.30187,-0.24235 0.49744,-0.24235h1.8367c0.20408,0 0.36989,0.08079 0.49744,0.24235c0.13605,0.16156 0.20407,0.36139 0.20407,0.59948l0.03826,11.19879c0,0.97787 -0.07652,2.10882 -0.22958,3.39281c-0.15306,1.28399 -0.2551,2.12157 -0.30612,2.51272v0.06377c0,0.06803 0.02125,0.10204 0.06377,0.10204c0.07653,0 0.18282,-0.11479 0.31887,-0.34438c1.76018,-3.19723 3.96677,-6.2499 6.61979,-9.15801c0.2636,-0.2721 0.50594,-0.40816 0.72703,-0.40816c0.33163,0 0.62924,0.1403 0.89284,0.42091l0.59948,0.66325c0.29762,0.35713 0.44642,0.62074 0.44642,0.79081c0.01701,0.29761 -0.09778,0.56121 -0.34438,0.7908l-2.39792,2.35965c-0.81632,0.83332 -1.59011,1.7049 -2.32139,2.61476l0.99488,1.70915c1.25848,2.20234 2.17683,3.30352 2.75505,3.30352zM200.31711,75.13913h-4.79584c-0.22959,0 -0.42516,-0.07228 -0.58672,-0.21683c-0.16156,-0.14455 -0.24235,-0.32313 -0.24235,-0.53571v-1.39028c0,-0.20408 0.08078,-0.3784 0.24235,-0.52295c0.16156,-0.15306 0.35713,-0.22959 0.58672,-0.22959h13.12479c0.23809,0 0.41666,0.07653 0.53571,0.22959c0.11904,0.14455 0.17857,0.32313 0.17857,0.53571v1.39028c0,0.20408 -0.06377,0.3784 -0.19133,0.52296c-0.12755,0.14455 -0.30612,0.21683 -0.53571,0.21683h-4.96165v16.61963c0,0.22959 -0.07228,0.42942 -0.21683,0.59948c-0.14455,0.17006 -0.31887,0.2551 -0.52295,0.2551h-1.87497c-0.20408,0 -0.3784,-0.08503 -0.52295,-0.2551c-0.14455,-0.17006 -0.21683,-0.36989 -0.21683,-0.59948zM214.62139,85.85324l-0.01275,0.2551c0,1.20746 0.38264,2.18109 1.14794,2.92087c0.80781,0.7738 1.90047,1.16069 3.278,1.16069c1.25848,0 2.42768,-0.37414 3.5076,-1.12243c0.20408,-0.14455 0.3869,-0.21684 0.54846,-0.21684c0.33163,0 0.57822,0.16582 0.73978,0.49744l0.3699,0.73978c0.07653,0.17857 0.11479,0.36989 0.11479,0.57397c0,0.20408 -0.09354,0.41666 -0.28061,0.63775c-0.17857,0.21258 -0.41666,0.40816 -0.71427,0.58673c-0.28911,0.17857 -0.62499,0.33588 -1.00763,0.47193c-0.38264,0.12755 -0.77805,0.23384 -1.18621,0.31887c-0.81632,0.17857 -1.66664,0.26785 -2.55098,0.26785c-0.88434,0 -1.77719,-0.16581 -2.67853,-0.49744c-0.90134,-0.34013 -1.67939,-0.83333 -2.33415,-1.47957c-1.40304,-1.37753 -2.10456,-3.23549 -2.10456,-5.57389c0,-4.09857 1.4413,-6.6453 4.32391,-7.64018c0.90134,-0.31462 1.8282,-0.47193 2.78056,-0.47193c0.95236,0 1.76443,0.10204 2.43618,0.30612c0.67175,0.20408 1.24998,0.50594 1.73467,0.9056c1.0289,0.84183 1.54334,2.01527 1.54334,3.52035c0,1.47957 -0.60374,2.60625 -1.81119,3.38004c-1.05441,0.68877 -2.44469,1.03315 -4.17085,1.03315c-1.06291,0 -2.28737,-0.19133 -3.67341,-0.57398zM221.15189,81.97575c0,-1.26699 -0.85032,-1.90048 -2.55098,-1.90048c-1.62412,0 -2.75931,0.59098 -3.40555,1.77293c-0.22959,0.41666 -0.3784,0.93111 -0.44643,1.54334c0.7653,0.38264 1.73467,0.57397 2.90812,0.57397c2.32989,0 3.49484,-0.66325 3.49484,-1.98976zM232.42208,90.22817c1.70066,0 2.55098,-0.57397 2.55098,-1.72191c0,-0.62924 -0.48469,-1.16069 -1.45406,-1.59436c-0.40815,-0.18707 -0.85457,-0.35713 -1.33926,-0.51019c-0.47618,-0.16156 -0.93961,-0.35289 -1.39029,-0.57398c-0.44217,-0.22109 -0.85458,-0.46343 -1.23722,-0.72702c-0.38264,-0.2636 -0.71427,-0.56122 -0.99488,-0.89285c-0.58673,-0.71428 -0.88009,-1.61561 -0.88009,-2.70403c0,-1.32651 0.55271,-2.38092 1.65814,-3.16322c0.98638,-0.69727 2.19384,-1.0459 3.62239,-1.0459c1.5476,0 2.83584,0.30186 3.86473,0.9056c0.35713,0.21258 0.53571,0.45493 0.53571,0.72703c0,0.39115 -0.10629,0.82057 -0.31887,1.28825c-0.20408,0.45918 -0.44642,0.68877 -0.72703,0.68877c-0.27211,0 -0.52295,-0.05528 -0.75254,-0.16582c-0.22959,-0.11904 -0.43366,-0.21683 -0.61223,-0.29336c-0.17857,-0.08503 -0.36989,-0.15731 -0.57397,-0.21683c-0.44217,-0.12755 -0.85458,-0.19133 -1.23722,-0.19133c-0.37414,0 -0.67601,0.02551 -0.9056,0.07653c-0.22959,0.05102 -0.43792,0.13605 -0.62499,0.2551c-0.45067,0.2721 -0.67601,0.60798 -0.67601,1.00764c0,0.39965 0.08928,0.70577 0.26785,0.91835c0.18707,0.21258 0.43792,0.40816 0.75254,0.58673c0.32313,0.17006 0.70577,0.34439 1.14794,0.52296l1.42855,0.59948c1.16495,0.50169 1.9515,0.95661 2.35966,1.36477c0.79081,0.81632 1.18621,1.76018 1.18621,2.83159c0,1.35202 -0.45918,2.46169 -1.37753,3.32903c-1.02039,0.94386 -2.4702,1.41579 -4.34942,1.41579c-1.90473,0 -3.33328,-0.36564 -4.28565,-1.09692c-0.46768,-0.35713 -0.70151,-0.67601 -0.70151,-0.95662c0,-0.28911 0.05102,-0.54421 0.15305,-0.76529c0.10204,-0.22959 0.23384,-0.49744 0.3954,-0.80356c0.16156,-0.30612 0.38265,-0.45918 0.66326,-0.45918c0.28061,0 0.57822,0.12755 0.89284,0.38265c0.31462,0.2551 0.74404,0.48468 1.28825,0.68877c0.55272,0.19558 1.10967,0.29336 1.67089,0.29336zM249.9792,79.64161c0,0.50169 -0.28061,0.75254 -0.84182,0.75254h-3.73718v8.3417c0,0.90135 0.44642,1.35202 1.33926,1.35202c0.56972,0 1.30951,-0.28486 2.21936,-0.85458c0.17857,-0.11054 0.36989,-0.16581 0.57397,-0.16581c0.21258,0 0.3784,0.14456 0.49744,0.43367l0.30612,0.68876c0.11904,0.2721 0.17857,0.50169 0.17857,0.68877c0,0.17857 -0.1403,0.39115 -0.42091,0.63774c-0.28061,0.24659 -0.63774,0.46768 -1.07141,0.66326c-0.98638,0.44217 -1.87922,0.66326 -2.67853,0.66326c-0.79081,0 -1.42005,-0.08079 -1.88773,-0.24235c-0.45917,-0.17006 -0.85458,-0.41666 -1.18621,-0.73979c-0.70577,-0.69727 -1.05865,-1.6964 -1.05865,-2.9974v-8.46925h-1.12243c-0.55272,0 -0.82907,-0.2551 -0.82907,-0.76529v-0.75254c0,-0.20408 0.05102,-0.36139 0.15306,-0.47193c0.11054,-0.11904 0.31887,-0.20833 0.62499,-0.26785l1.32651,-0.38265l0.5102,-3.12495c0.09354,-0.58673 0.33163,-0.88008 0.71428,-0.88008h1.09692c0.20408,0 0.37414,0.08503 0.5102,0.25509c0.13605,0.16156 0.20408,0.36989 0.20408,0.62499v2.9974h3.73718c0.56122,0 0.84183,0.24235 0.84183,0.72703zM255.40411,85.85324l-0.01275,0.2551c0,1.20746 0.38264,2.18109 1.14794,2.92087c0.80781,0.7738 1.90048,1.16069 3.27801,1.16069c1.25848,0 2.42768,-0.37414 3.5076,-1.12243c0.20408,-0.14455 0.3869,-0.21684 0.54846,-0.21684c0.33162,0 0.57822,0.16582 0.73978,0.49744l0.36989,0.73978c0.07653,0.17857 0.1148,0.36989 0.1148,0.57397c0,0.20408 -0.09354,0.41666 -0.28061,0.63775c-0.17857,0.21258 -0.41665,0.40816 -0.71427,0.58673c-0.28911,0.17857 -0.625,0.33588 -1.00764,0.47193c-0.38265,0.12755 -0.77805,0.23384 -1.1862,0.31887c-0.81631,0.17857 -1.66663,0.26785 -2.55097,0.26785c-0.88434,0 -1.77719,-0.16581 -2.67853,-0.49744c-0.90134,-0.34013 -1.67939,-0.83333 -2.33415,-1.47957c-1.40304,-1.37753 -2.10456,-3.23549 -2.10456,-5.57389c0,-4.09857 1.4413,-6.6453 4.32391,-7.64018c0.90134,-0.31462 1.82821,-0.47193 2.78057,-0.47193c0.95236,0 1.76443,0.10204 2.43618,0.30612c0.67176,0.20408 1.24998,0.50594 1.73467,0.9056c1.02889,0.84183 1.54334,2.01527 1.54334,3.52035c0,1.47957 -0.60373,2.60625 -1.81119,3.38004c-1.0544,0.68877 -2.44469,1.03315 -4.17085,1.03315c-1.06291,0 -2.28738,-0.19133 -3.67341,-0.57398zM261.93462,81.97575c0,-1.26699 -0.85032,-1.90048 -2.55098,-1.90048c-1.62412,0 -2.75931,0.59098 -3.40556,1.77293c-0.22959,0.41666 -0.3784,0.93111 -0.44642,1.54334c0.76529,0.38264 1.73467,0.57397 2.90812,0.57397c2.3299,0 3.49484,-0.66325 3.49484,-1.98976zM268.71509,78.58295c0,-0.63774 0.27636,-0.95662 0.82907,-0.95662h0.71427c0.49319,0 0.84183,0.21258 1.04591,0.63775c0.28911,0.62073 0.50169,1.47531 0.63774,2.56373c0,0.01701 0.00426,0.02551 0.01276,0.02551c0.01701,0 0.04676,-0.14881 0.08928,-0.44642c0.04252,-0.30612 0.17007,-0.67601 0.38265,-1.10968c0.21258,-0.44217 0.47618,-0.81206 0.7908,-1.10967c0.62925,-0.59522 1.39879,-0.89284 2.30864,-0.89284c1.02039,0 1.73041,0.17007 2.13007,0.5102c0.17857,0.14455 0.25085,0.35289 0.21684,0.62499l-0.20408,1.67089c-0.05952,0.45068 -0.29336,0.67601 -0.70152,0.67601c-0.18707,0 -0.42516,-0.03826 -0.71427,-0.1148c-0.5442,-0.14455 -0.97787,-0.21684 -1.301,-0.21684c-0.31462,0 -0.6505,0.1403 -1.00764,0.42091c-0.35714,0.28061 -0.66325,0.62924 -0.91835,1.0459c-0.5187,0.86733 -0.77805,1.78993 -0.77805,2.76781v7.05346c0,0.24659 -0.07227,0.45493 -0.21683,0.62499c-0.14456,0.17006 -0.34864,0.2551 -0.61223,0.2551h-1.54334c-0.28061,0 -0.49319,-0.08503 -0.63774,-0.2551c-0.14456,-0.17006 -0.21683,-0.37839 -0.21683,-0.62499v-9.14526c0,-1.5646 -0.05102,-2.5935 -0.15306,-3.08669c-0.10204,-0.50169 -0.15306,-0.80781 -0.15306,-0.91835zM286.64457,90.89142c0,-0.44217 0.02976,-0.72278 0.08928,-0.84182c0.08503,-0.18707 0.29762,-0.36564 0.63774,-0.5357c0.34864,-0.17857 0.79506,-0.42941 1.33927,-0.75254c0.5442,-0.32313 1.10118,-0.68452 1.67089,-1.08417c0.57822,-0.39965 1.14794,-0.83756 1.70916,-1.31375c0.56122,-0.48468 1.06291,-0.98638 1.50508,-1.50508c0.97787,-1.14794 1.46681,-2.22786 1.46681,-3.23974c0,-0.86733 -0.31462,-1.52633 -0.94386,-1.97701c-0.50169,-0.34013 -1.00338,-0.51019 -1.50508,-0.51019c-0.50169,0 -0.9141,0.04251 -1.23723,0.12754c-0.31462,0.07653 -0.61223,0.19133 -0.89284,0.34439c-0.63774,0.35713 -1.07567,0.84607 -1.31376,1.46681c-0.20408,0.56122 -0.53571,0.84183 -0.99488,0.84183c-0.10204,0 -0.20833,-0.0085 -0.31887,-0.02551c-0.10204,-0.02551 -0.28486,-0.05952 -0.54846,-0.10204c-0.57822,-0.09354 -0.86733,-0.40816 -0.86733,-0.94386c0,-0.54421 0.08503,-1.01614 0.2551,-1.4158c0.17857,-0.40815 0.41666,-0.77379 0.71427,-1.09692c0.30611,-0.32313 0.65475,-0.60798 1.0459,-0.85458c0.39965,-0.24659 0.82482,-0.45493 1.27549,-0.62499c0.88434,-0.34013 1.66239,-0.51019 2.33414,-0.51019c0.68026,0 1.24573,0.03401 1.6964,0.10204c0.45067,0.06803 0.89284,0.17857 1.32651,0.33163c0.43367,0.15306 0.85032,0.35713 1.24998,0.61223c0.39965,0.2551 0.75254,0.56547 1.05865,0.93111c0.65476,0.80781 0.98213,1.81545 0.98213,3.02291c0,1.84521 -0.83332,3.55011 -2.49996,5.11471c-0.86734,0.83332 -1.70065,1.49658 -2.49996,1.98977l-2.37241,1.46681l7.10447,-0.16581c0.34013,-0.0085 0.55697,0.07653 0.6505,0.2551c0.09353,0.17006 0.14031,0.39114 0.14031,0.66325v1.18621c0,0.29761 -0.07653,0.49744 -0.22959,0.59948c-0.15306,0.10204 -0.38265,0.15306 -0.68876,0.15306h-10.42075c-0.28911,0 -0.51445,-0.05527 -0.67601,-0.16581c-0.16156,-0.11904 -0.24235,-0.33588 -0.24235,-0.6505zM302.21263,84.62877c0,-1.22447 0.16156,-2.3469 0.48469,-3.36729c0.33162,-1.02039 0.81205,-1.89623 1.4413,-2.62751c1.32651,-1.53059 3.16322,-2.29588 5.51012,-2.29588c2.3554,0 4.19211,0.76529 5.51011,2.29588c1.30099,1.47957 1.95148,3.48634 1.95148,6.02031c0,2.48295 -0.68876,4.48547 -2.06628,6.00755c-1.36903,1.52209 -3.19297,2.28313 -5.47185,2.28313c-2.22785,0 -4.02205,-0.77805 -5.38257,-2.33414c-1.31801,-1.52209 -1.97701,-3.5161 -1.97701,-5.98205zM307.72276,89.71797c0.5187,0.34864 1.1607,0.52295 1.92599,0.52295c0.76529,0 1.40304,-0.15306 1.91323,-0.45918c0.5187,-0.31462 0.93536,-0.73128 1.24998,-1.24998c0.60373,-0.96937 0.9056,-2.25337 0.9056,-3.85198c0,-2.57649 -0.73128,-4.3069 -2.19384,-5.19124c-0.5187,-0.30612 -1.15219,-0.45918 -1.90048,-0.45918c-0.74829,0 -1.37753,0.15731 -1.88773,0.47193c-0.5102,0.30612 -0.9226,0.71852 -1.23722,1.23722c-0.58673,0.96937 -0.88009,2.27462 -0.88009,3.91575c0,2.45744 0.70152,4.14534 2.10456,5.06369zM320.3191,84.62877c0,-1.22447 0.16156,-2.3469 0.48469,-3.36729c0.33162,-1.02039 0.81205,-1.89623 1.4413,-2.62751c1.32651,-1.53059 3.16321,-2.29588 5.51011,-2.29588c2.3554,0 4.19211,0.76529 5.51011,2.29588c1.301,1.47957 1.9515,3.48634 1.9515,6.02031c0,2.48295 -0.68877,4.48547 -2.0663,6.00755c-1.36903,1.52209 -3.19297,2.28313 -5.47185,2.28313c-2.22785,0 -4.02204,-0.77805 -5.38256,-2.33414c-1.31801,-1.52209 -1.97701,-3.5161 -1.97701,-5.98205zM325.82921,89.71797c0.5187,0.34864 1.1607,0.52295 1.92599,0.52295c0.76529,0 1.40304,-0.15306 1.91323,-0.45918c0.5187,-0.31462 0.93536,-0.73128 1.24998,-1.24998c0.60373,-0.96937 0.9056,-2.25337 0.9056,-3.85198c0,-2.57649 -0.73128,-4.3069 -2.19384,-5.19124c-0.5187,-0.30612 -1.1522,-0.45918 -1.90048,-0.45918c-0.74829,0 -1.37753,0.15731 -1.88772,0.47193c-0.5102,0.30612 -0.92261,0.71852 -1.23723,1.23722c-0.58673,0.96937 -0.88009,2.27462 -0.88009,3.91575c0,2.45744 0.70152,4.14534 2.10456,5.06369zM338.42557,84.62877c0,-1.22447 0.16156,-2.3469 0.48469,-3.36729c0.33162,-1.02039 0.81206,-1.89623 1.4413,-2.62751c1.32651,-1.53059 3.16321,-2.29588 5.51011,-2.29588c2.3554,0 4.19211,0.76529 5.51011,2.29588c1.301,1.47957 1.9515,3.48634 1.9515,6.02031c0,2.48295 -0.68877,4.48547 -2.0663,6.00755c-1.36903,1.52209 -3.19297,2.28313 -5.47185,2.28313c-2.22785,0 -4.02204,-0.77805 -5.38256,-2.33414c-1.31801,-1.52209 -1.97701,-3.5161 -1.97701,-5.98205zM343.93568,89.71797c0.5187,0.34864 1.1607,0.52295 1.92599,0.52295c0.76529,0 1.40304,-0.15306 1.91323,-0.45918c0.5187,-0.31462 0.93536,-0.73128 1.24998,-1.24998c0.60373,-0.96937 0.9056,-2.25337 0.9056,-3.85198c0,-2.57649 -0.73128,-4.3069 -2.19384,-5.19124c-0.5187,-0.30612 -1.1522,-0.45918 -1.90048,-0.45918c-0.74829,0 -1.37753,0.15731 -1.88772,0.47193c-0.5102,0.30612 -0.92261,0.71852 -1.23723,1.23722c-0.58673,0.96937 -0.88009,2.27462 -0.88009,3.91575c0,2.45744 0.70152,4.14534 2.10456,5.06369z" fill="#ffffff" stroke="#e0ffe3" stroke-width="5" stroke-linecap="square"/><path d="M132.30163,75.13913h-4.79584c-0.22959,0 -0.42516,-0.07228 -0.58673,-0.21683c-0.16156,-0.14456 -0.24234,-0.32313 -0.24234,-0.53571v-1.39028c0,-0.20408 0.08078,-0.37839 0.24234,-0.52295c0.16156,-0.15306 0.35714,-0.22959 0.58673,-0.22959h13.12479c0.23809,0 0.41666,0.07653 0.53571,0.22959c0.11905,0.14456 0.17857,0.32313 0.17857,0.53571v1.39028c0,0.20408 -0.06377,0.37839 -0.19132,0.52295c-0.12755,0.14456 -0.30612,0.21683 -0.53571,0.21683h-4.96165v16.61963c0,0.22959 -0.07228,0.42941 -0.21683,0.59948c-0.14456,0.17007 -0.31887,0.2551 -0.52295,0.2551h-1.87497c-0.20408,0 -0.37839,-0.08503 -0.52295,-0.2551c-0.14456,-0.17007 -0.21683,-0.36989 -0.21683,-0.59948v-16.61963zM156.4144,91.91181c0,0.46768 -0.22959,0.70152 -0.68876,0.70152h-1.28824c-0.34864,0 -0.55696,-0.06803 -0.62499,-0.20408c-0.06803,-0.13605 -0.10629,-0.25935 -0.11479,-0.36989c-0.0085,-0.11054 -0.02551,-0.2466 -0.05102,-0.40816c-0.05952,-0.43367 -0.13605,-0.90134 -0.22959,-1.40304c-0.68876,1.25848 -1.77293,2.0918 -3.2525,2.49996c-0.5272,0.14456 -1.10542,0.21683 -1.73467,0.21683c-0.62924,0 -1.25848,-0.10629 -1.88772,-0.31887c-0.62924,-0.20408 -1.18621,-0.5102 -1.67089,-0.91835c-1.09692,-0.91835 -1.64538,-2.12581 -1.64538,-3.62239c0,-1.64113 0.60373,-2.89536 1.81119,-3.76269c0.98638,-0.69727 2.25762,-1.0459 3.81371,-1.0459c1.5646,0 2.88686,0.45492 3.96677,1.36477c0.02551,-0.29762 0.03826,-0.67176 0.03826,-1.12243c0,-0.45918 -0.08928,-0.9141 -0.26785,-1.36477c-0.17857,-0.45067 -0.42941,-0.82482 -0.75254,-1.12243c-0.67176,-0.59523 -1.61137,-0.89284 -2.81883,-0.89284c-1.07991,0 -2.17683,0.29762 -3.29076,0.89284c-0.21258,0.11054 -0.39965,0.16581 -0.56122,0.16581c-0.23809,0 -0.46768,-0.23384 -0.68876,-0.70152c-0.23809,-0.47618 -0.35714,-0.82057 -0.35714,-1.03315c0,-0.39115 0.29336,-0.76955 0.88009,-1.13519c1.11393,-0.68876 2.60625,-1.03315 4.47697,-1.03315c1.70065,0 3.10794,0.46768 4.22187,1.40304c1.31801,1.11393 1.97701,2.68703 1.97701,4.71931c0,0.90985 -0.14456,2.04928 -0.43367,3.41831c0.74829,2.14282 1.13944,3.83497 1.17345,5.07645zM147.5115,86.27415c-0.35714,0.2636 -0.61649,0.53145 -0.77805,0.80356c-0.15306,0.2636 -0.22959,0.57397 -0.22959,0.93111c0,0.35714 0.06377,0.67601 0.19132,0.95662c0.13605,0.28061 0.31887,0.51445 0.54846,0.70152c0.48469,0.38265 1.02889,0.57397 1.63263,0.57397c0.61223,0 1.10968,-0.07228 1.49232,-0.21683c0.39115,-0.14456 0.73128,-0.32737 1.02039,-0.54846c0.60373,-0.47618 0.9056,-0.98213 0.9056,-1.51783c-0.05102,-0.66325 -0.41666,-1.18195 -1.09692,-1.5561c-0.61223,-0.35714 -1.33501,-0.53571 -2.16833,-0.53571c-0.64625,0 -1.15219,0.13605 -1.51783,0.40816zM164.40659,90.22817c1.70065,0 2.55098,-0.57397 2.55098,-1.72191c0,-0.62924 -0.48469,-1.1607 -1.45406,-1.59436c-0.40816,-0.18707 -0.85458,-0.35714 -1.33926,-0.5102c-0.47618,-0.16156 -0.93961,-0.35288 -1.39028,-0.57397c-0.44217,-0.22109 -0.85458,-0.46343 -1.23722,-0.72703c-0.38265,-0.2636 -0.71427,-0.56122 -0.99488,-0.89284c-0.58673,-0.71427 -0.88009,-1.61562 -0.88009,-2.70404c0,-1.32651 0.55271,-2.38091 1.65814,-3.16321c0.98638,-0.69727 2.19384,-1.0459 3.62239,-1.0459c1.5476,0 2.83584,0.30186 3.86473,0.9056c0.35714,0.21258 0.53571,0.45492 0.53571,0.72703c0,0.39115 -0.10629,0.82057 -0.31887,1.28824c-0.20408,0.45918 -0.44642,0.68876 -0.72703,0.68876c-0.27211,0 -0.52295,-0.05527 -0.75254,-0.16581c-0.22959,-0.11905 -0.43367,-0.21683 -0.61223,-0.29336c-0.17857,-0.08503 -0.36989,-0.15731 -0.57397,-0.21683c-0.44217,-0.12755 -0.85458,-0.19132 -1.23722,-0.19132c-0.37414,0 -0.67601,0.02551 -0.9056,0.07653c-0.22959,0.05102 -0.43792,0.13605 -0.62499,0.2551c-0.45067,0.27211 -0.67601,0.60798 -0.67601,1.00764c0,0.39965 0.08928,0.70577 0.26785,0.91835c0.18707,0.21258 0.43792,0.40816 0.75254,0.58673c0.32313,0.17007 0.70577,0.34438 1.14794,0.52295l1.42855,0.59948c1.16495,0.50169 1.9515,0.95662 2.35966,1.36477c0.7908,0.81631 1.18621,1.76018 1.18621,2.83159c0,1.35202 -0.45918,2.46169 -1.37753,3.32903c-1.02039,0.94386 -2.4702,1.41579 -4.34942,1.41579c-1.90473,0 -3.33328,-0.36564 -4.28564,-1.09692c-0.46768,-0.35714 -0.70152,-0.67601 -0.70152,-0.95662c0,-0.28911 0.05102,-0.54421 0.15306,-0.76529c0.10204,-0.22959 0.23384,-0.49744 0.3954,-0.80356c0.16156,-0.30612 0.38265,-0.45918 0.66325,-0.45918c0.28061,0 0.57822,0.12755 0.89284,0.38265c0.31462,0.2551 0.74404,0.48469 1.28824,0.68876c0.55271,0.19558 1.10968,0.29336 1.67089,0.29336zM185.02489,89.90929l1.10968,-0.21683c0.30612,0 0.50169,0.20833 0.58673,0.62499l0.17857,0.95662c0.0085,0.04252 0.01275,0.13605 0.01275,0.28061c0,0.14456 -0.05527,0.30186 -0.16581,0.47193c-0.11054,0.17007 -0.2551,0.31462 -0.43367,0.43367c-0.40816,0.2551 -0.92685,0.38265 -1.5561,0.38265c-1.24998,0 -2.29163,-0.60798 -3.12495,-1.82395c-0.15306,-0.20408 -0.32313,-0.46768 -0.5102,-0.7908l-1.82395,-3.2525l-0.80356,1.09692c-1.08842,1.53059 -1.74317,2.75506 -1.96425,3.67341c-0.05952,0.23809 -0.14456,0.44217 -0.2551,0.61223c-0.11054,0.17007 -0.30612,0.2551 -0.58673,0.2551h-1.05866c-0.19558,0 -0.36139,-0.08078 -0.49744,-0.24234c-0.13605,-0.17007 -0.20408,-0.37839 -0.20408,-0.62499v-21.84913c0,-0.23809 0.06803,-0.43792 0.20408,-0.59948c0.13605,-0.16156 0.30186,-0.24234 0.49744,-0.24234h1.8367c0.20408,0 0.36989,0.08078 0.49744,0.24234c0.13605,0.16156 0.20408,0.36139 0.20408,0.59948l0.03826,11.1988c0,0.97787 -0.07653,2.10881 -0.22959,3.3928c-0.15306,1.28399 -0.2551,2.12157 -0.30612,2.51271v0.06377c0,0.06803 0.02126,0.10204 0.06377,0.10204c0.07653,0 0.18282,-0.11479 0.31887,-0.34438c1.76018,-3.19723 3.96677,-6.2499 6.61979,-9.15801c0.2636,-0.27211 0.50594,-0.40816 0.72703,-0.40816c0.33163,0 0.62924,0.1403 0.89284,0.42091l0.59948,0.66325c0.29762,0.35714 0.44642,0.62074 0.44642,0.7908c0.01701,0.29762 -0.09779,0.56122 -0.34438,0.7908l-2.39792,2.35966c-0.81631,0.83332 -1.59011,1.7049 -2.32139,2.61475l0.99488,1.70916c1.25848,2.20234 2.17683,3.30352 2.75506,3.30352zM200.31712,75.13913h-4.79584c-0.22959,0 -0.42516,-0.07228 -0.58673,-0.21683c-0.16156,-0.14456 -0.24234,-0.32313 -0.24234,-0.53571v-1.39028c0,-0.20408 0.08078,-0.37839 0.24234,-0.52295c0.16156,-0.15306 0.35714,-0.22959 0.58673,-0.22959h13.12479c0.23809,0 0.41666,0.07653 0.53571,0.22959c0.11905,0.14456 0.17857,0.32313 0.17857,0.53571v1.39028c0,0.20408 -0.06377,0.37839 -0.19132,0.52295c-0.12755,0.14456 -0.30612,0.21683 -0.53571,0.21683h-4.96165v16.61963c0,0.22959 -0.07228,0.42941 -0.21683,0.59948c-0.14456,0.17007 -0.31887,0.2551 -0.52295,0.2551h-1.87497c-0.20408,0 -0.37839,-0.08503 -0.52295,-0.2551c-0.14456,-0.17007 -0.21683,-0.36989 -0.21683,-0.59948zM214.62138,85.85324l-0.01275,0.2551c0,1.20746 0.38265,2.18109 1.14794,2.92087c0.80781,0.7738 1.90048,1.1607 3.27801,1.1607c1.25848,0 2.42768,-0.37414 3.5076,-1.12243c0.20408,-0.14456 0.3869,-0.21683 0.54846,-0.21683c0.33163,0 0.57822,0.16581 0.73978,0.49744l0.36989,0.73978c0.07653,0.17857 0.11479,0.36989 0.11479,0.57397c0,0.20408 -0.09354,0.41666 -0.28061,0.63774c-0.17857,0.21258 -0.41666,0.40816 -0.71427,0.58673c-0.28911,0.17857 -0.62499,0.33588 -1.00764,0.47193c-0.38265,0.12755 -0.77805,0.23384 -1.18621,0.31887c-0.81631,0.17857 -1.66664,0.26785 -2.55098,0.26785c-0.88434,0 -1.77718,-0.16581 -2.67853,-0.49744c-0.90134,-0.34013 -1.67939,-0.83332 -2.33415,-1.47957c-1.40304,-1.37753 -2.10456,-3.23549 -2.10456,-5.57389c0,-4.09857 1.4413,-6.6453 4.32391,-7.64018c0.90134,-0.31462 1.8282,-0.47193 2.78057,-0.47193c0.95236,0 1.76443,0.10204 2.43618,0.30612c0.67176,0.20408 1.24998,0.50594 1.73467,0.9056c1.02889,0.84182 1.54334,2.01527 1.54334,3.52035c0,1.47957 -0.60373,2.60625 -1.81119,3.38005c-1.0544,0.68876 -2.44469,1.03315 -4.17085,1.03315c-1.06291,0 -2.28738,-0.19132 -3.67341,-0.57397zM221.1519,81.97575c0,-1.26699 -0.85032,-1.90048 -2.55098,-1.90048c-1.62412,0 -2.75931,0.59098 -3.40556,1.77293c-0.22959,0.41666 -0.37839,0.93111 -0.44642,1.54334c0.76529,0.38265 1.73467,0.57397 2.90812,0.57397c2.32989,0 3.49484,-0.66325 3.49484,-1.98976zM232.42209,90.22817c1.70065,0 2.55098,-0.57397 2.55098,-1.72191c0,-0.62924 -0.48469,-1.1607 -1.45406,-1.59436c-0.40816,-0.18707 -0.85458,-0.35714 -1.33926,-0.5102c-0.47618,-0.16156 -0.93961,-0.35288 -1.39028,-0.57397c-0.44217,-0.22109 -0.85458,-0.46343 -1.23722,-0.72703c-0.38265,-0.2636 -0.71427,-0.56122 -0.99488,-0.89284c-0.58673,-0.71427 -0.88009,-1.61562 -0.88009,-2.70404c0,-1.32651 0.55271,-2.38091 1.65814,-3.16321c0.98638,-0.69727 2.19384,-1.0459 3.62239,-1.0459c1.5476,0 2.83584,0.30186 3.86473,0.9056c0.35714,0.21258 0.53571,0.45492 0.53571,0.72703c0,0.39115 -0.10629,0.82057 -0.31887,1.28824c-0.20408,0.45918 -0.44642,0.68876 -0.72703,0.68876c-0.27211,0 -0.52295,-0.05527 -0.75254,-0.16581c-0.22959,-0.11905 -0.43367,-0.21683 -0.61223,-0.29336c-0.17857,-0.08503 -0.36989,-0.15731 -0.57397,-0.21683c-0.44217,-0.12755 -0.85458,-0.19132 -1.23722,-0.19132c-0.37414,0 -0.67601,0.02551 -0.9056,0.07653c-0.22959,0.05102 -0.43792,0.13605 -0.62499,0.2551c-0.45067,0.27211 -0.67601,0.60798 -0.67601,1.00764c0,0.39965 0.08928,0.70577 0.26785,0.91835c0.18707,0.21258 0.43792,0.40816 0.75254,0.58673c0.32313,0.17007 0.70577,0.34438 1.14794,0.52295l1.42855,0.59948c1.16495,0.50169 1.9515,0.95662 2.35966,1.36477c0.7908,0.81631 1.18621,1.76018 1.18621,2.83159c0,1.35202 -0.45918,2.46169 -1.37753,3.32903c-1.02039,0.94386 -2.4702,1.41579 -4.34942,1.41579c-1.90473,0 -3.33328,-0.36564 -4.28564,-1.09692c-0.46768,-0.35714 -0.70152,-0.67601 -0.70152,-0.95662c0,-0.28911 0.05102,-0.54421 0.15306,-0.76529c0.10204,-0.22959 0.23384,-0.49744 0.3954,-0.80356c0.16156,-0.30612 0.38265,-0.45918 0.66325,-0.45918c0.28061,0 0.57822,0.12755 0.89284,0.38265c0.31462,0.2551 0.74404,0.48469 1.28824,0.68876c0.55271,0.19558 1.10968,0.29336 1.67089,0.29336zM249.97919,79.6416c0,0.50169 -0.28061,0.75254 -0.84182,0.75254h-3.73718v8.3417c0,0.90134 0.44642,1.35202 1.33926,1.35202c0.56972,0 1.3095,-0.28486 2.21935,-0.85458c0.17857,-0.11054 0.36989,-0.16581 0.57397,-0.16581c0.21258,0 0.37839,0.14456 0.49744,0.43367l0.30612,0.68876c0.11905,0.27211 0.17857,0.50169 0.17857,0.68876c0,0.17857 -0.1403,0.39115 -0.42091,0.63774c-0.28061,0.2466 -0.63774,0.46768 -1.07141,0.66325c-0.98638,0.44217 -1.87922,0.66325 -2.67853,0.66325c-0.7908,0 -1.42005,-0.08078 -1.88772,-0.24234c-0.45918,-0.17007 -0.85458,-0.41666 -1.18621,-0.73978c-0.70577,-0.69727 -1.05866,-1.6964 -1.05866,-2.9974v-8.46925h-1.12243c-0.55271,0 -0.82907,-0.2551 -0.82907,-0.76529v-0.75254c0,-0.20408 0.05102,-0.36139 0.15306,-0.47193c0.11054,-0.11905 0.31887,-0.20833 0.62499,-0.26785l1.32651,-0.38265l0.5102,-3.12495c0.09354,-0.58673 0.33163,-0.88009 0.71427,-0.88009h1.09692c0.20408,0 0.37414,0.08503 0.5102,0.2551c0.13605,0.16156 0.20408,0.36989 0.20408,0.62499v2.9974h3.73718c0.56122,0 0.84182,0.24234 0.84182,0.72703zM255.40412,85.85324l-0.01275,0.2551c0,1.20746 0.38265,2.18109 1.14794,2.92087c0.80781,0.7738 1.90048,1.1607 3.27801,1.1607c1.25848,0 2.42768,-0.37414 3.5076,-1.12243c0.20408,-0.14456 0.3869,-0.21683 0.54846,-0.21683c0.33163,0 0.57822,0.16581 0.73978,0.49744l0.36989,0.73978c0.07653,0.17857 0.11479,0.36989 0.11479,0.57397c0,0.20408 -0.09354,0.41666 -0.28061,0.63774c-0.17857,0.21258 -0.41666,0.40816 -0.71427,0.58673c-0.28911,0.17857 -0.62499,0.33588 -1.00764,0.47193c-0.38265,0.12755 -0.77805,0.23384 -1.18621,0.31887c-0.81631,0.17857 -1.66664,0.26785 -2.55098,0.26785c-0.88434,0 -1.77718,-0.16581 -2.67853,-0.49744c-0.90134,-0.34013 -1.67939,-0.83332 -2.33415,-1.47957c-1.40304,-1.37753 -2.10456,-3.23549 -2.10456,-5.57389c0,-4.09857 1.4413,-6.6453 4.32391,-7.64018c0.90134,-0.31462 1.8282,-0.47193 2.78057,-0.47193c0.95236,0 1.76443,0.10204 2.43618,0.30612c0.67176,0.20408 1.24998,0.50594 1.73467,0.9056c1.02889,0.84182 1.54334,2.01527 1.54334,3.52035c0,1.47957 -0.60373,2.60625 -1.81119,3.38005c-1.0544,0.68876 -2.44469,1.03315 -4.17085,1.03315c-1.06291,0 -2.28738,-0.19132 -3.67341,-0.57397zM261.93463,81.97575c0,-1.26699 -0.85032,-1.90048 -2.55098,-1.90048c-1.62412,0 -2.75931,0.59098 -3.40556,1.77293c-0.22959,0.41666 -0.37839,0.93111 -0.44642,1.54334c0.76529,0.38265 1.73467,0.57397 2.90812,0.57397c2.32989,0 3.49484,-0.66325 3.49484,-1.98976zM268.7151,78.58295c0,-0.63774 0.27635,-0.95662 0.82907,-0.95662h0.71427c0.49319,0 0.84182,0.21258 1.0459,0.63774c0.28911,0.62074 0.50169,1.47531 0.63774,2.56373c0,0.01701 0.00425,0.02551 0.01275,0.02551c0.01701,0 0.04677,-0.14881 0.08928,-0.44642c0.04252,-0.30612 0.17007,-0.67601 0.38265,-1.10968c0.21258,-0.44217 0.47618,-0.81206 0.7908,-1.10968c0.62924,-0.59523 1.39879,-0.89284 2.30864,-0.89284c1.02039,0 1.73041,0.17007 2.13007,0.5102c0.17857,0.14456 0.25084,0.35288 0.21683,0.62499l-0.20408,1.67089c-0.05952,0.45067 -0.29336,0.67601 -0.70152,0.67601c-0.18707,0 -0.42516,-0.03826 -0.71427,-0.11479c-0.54421,-0.14456 -0.97787,-0.21683 -1.301,-0.21683c-0.31462,0 -0.6505,0.1403 -1.00764,0.42091c-0.35714,0.28061 -0.66325,0.62924 -0.91835,1.0459c-0.5187,0.86733 -0.77805,1.78994 -0.77805,2.76781v7.05346c0,0.2466 -0.07228,0.45492 -0.21683,0.62499c-0.14456,0.17007 -0.34864,0.2551 -0.61223,0.2551h-1.54334c-0.28061,0 -0.49319,-0.08503 -0.63774,-0.2551c-0.14456,-0.17007 -0.21683,-0.37839 -0.21683,-0.62499v-9.14526c0,-1.5646 -0.05102,-2.5935 -0.15306,-3.08668c-0.10204,-0.50169 -0.15306,-0.80781 -0.15306,-0.91835zM286.64459,90.89142c0,-0.44217 0.02976,-0.72278 0.08928,-0.84182c0.08503,-0.18707 0.29762,-0.36564 0.63774,-0.53571c0.34864,-0.17857 0.79506,-0.42941 1.33926,-0.75254c0.54421,-0.32313 1.10117,-0.68451 1.67089,-1.08417c0.57822,-0.39965 1.14794,-0.83757 1.70916,-1.31375c0.56122,-0.48469 1.06291,-0.98638 1.50508,-1.50508c0.97787,-1.14794 1.46681,-2.22785 1.46681,-3.23974c0,-0.86733 -0.31462,-1.52633 -0.94386,-1.97701c-0.50169,-0.34013 -1.00338,-0.5102 -1.50508,-0.5102c-0.50169,0 -0.9141,0.04252 -1.23722,0.12755c-0.31462,0.07653 -0.61223,0.19132 -0.89284,0.34438c-0.63774,0.35714 -1.07566,0.84608 -1.31375,1.46681c-0.20408,0.56122 -0.53571,0.84182 -0.99488,0.84182c-0.10204,0 -0.20833,-0.0085 -0.31887,-0.02551c-0.10204,-0.02551 -0.28486,-0.05952 -0.54846,-0.10204c-0.57822,-0.09354 -0.86733,-0.40816 -0.86733,-0.94386c0,-0.54421 0.08503,-1.01614 0.2551,-1.41579c0.17857,-0.40816 0.41666,-0.7738 0.71427,-1.09692c0.30612,-0.32313 0.65475,-0.60798 1.0459,-0.85458c0.39965,-0.2466 0.82482,-0.45492 1.27549,-0.62499c0.88434,-0.34013 1.66239,-0.5102 2.33415,-0.5102c0.68026,0 1.24573,0.03401 1.6964,0.10204c0.45067,0.06803 0.89284,0.17857 1.32651,0.33163c0.43367,0.15306 0.85032,0.35714 1.24998,0.61223c0.39965,0.2551 0.75254,0.56547 1.05866,0.93111c0.65475,0.80781 0.98213,1.81545 0.98213,3.02291c0,1.84521 -0.83332,3.55011 -2.49996,5.11471c-0.86733,0.83332 -1.70065,1.49658 -2.49996,1.98976l-2.37241,1.46681l7.10448,-0.16581c0.34013,-0.0085 0.55696,0.07653 0.6505,0.2551c0.09354,0.17007 0.1403,0.39115 0.1403,0.66325v1.18621c0,0.29762 -0.07653,0.49744 -0.22959,0.59948c-0.15306,0.10204 -0.38265,0.15306 -0.68876,0.15306h-10.42075c-0.28911,0 -0.51445,-0.05527 -0.67601,-0.16581c-0.16156,-0.11905 -0.24234,-0.33588 -0.24234,-0.6505zM302.21265,84.62877c0,-1.22447 0.16156,-2.3469 0.48469,-3.36729c0.33163,-1.02039 0.81206,-1.89623 1.4413,-2.62751c1.32651,-1.53059 3.16321,-2.29588 5.51011,-2.29588c2.3554,0 4.19211,0.76529 5.51011,2.29588c1.30099,1.47957 1.95149,3.48634 1.95149,6.02031c0,2.48295 -0.68876,4.48547 -2.06628,6.00756c-1.36903,1.52209 -3.19298,2.28313 -5.47185,2.28313c-2.22785,0 -4.02204,-0.77805 -5.38257,-2.33415c-1.31801,-1.52209 -1.97701,-3.5161 -1.97701,-5.98205zM307.72276,89.71797c0.5187,0.34864 1.1607,0.52295 1.92599,0.52295c0.76529,0 1.40304,-0.15306 1.91323,-0.45918c0.5187,-0.31462 0.93536,-0.73128 1.24998,-1.24998c0.60373,-0.96937 0.9056,-2.25336 0.9056,-3.85198c0,-2.57649 -0.73128,-4.3069 -2.19384,-5.19124c-0.5187,-0.30612 -1.15219,-0.45918 -1.90048,-0.45918c-0.74829,0 -1.37753,0.15731 -1.88772,0.47193c-0.5102,0.30612 -0.92261,0.71853 -1.23722,1.23722c-0.58673,0.96937 -0.88009,2.27462 -0.88009,3.91575c0,2.45744 0.70152,4.14534 2.10456,5.06369zM320.3191,84.62877c0,-1.22447 0.16156,-2.3469 0.48469,-3.36729c0.33163,-1.02039 0.81206,-1.89623 1.4413,-2.62751c1.32651,-1.53059 3.16321,-2.29588 5.51011,-2.29588c2.3554,0 4.19211,0.76529 5.51011,2.29588c1.301,1.47957 1.9515,3.48634 1.9515,6.02031c0,2.48295 -0.68876,4.48547 -2.06629,6.00756c-1.36903,1.52209 -3.19298,2.28313 -5.47185,2.28313c-2.22785,0 -4.02204,-0.77805 -5.38257,-2.33415c-1.31801,-1.52209 -1.97701,-3.5161 -1.97701,-5.98205zM325.82921,89.71797c0.5187,0.34864 1.1607,0.52295 1.92599,0.52295c0.76529,0 1.40304,-0.15306 1.91323,-0.45918c0.5187,-0.31462 0.93536,-0.73128 1.24998,-1.24998c0.60373,-0.96937 0.9056,-2.25336 0.9056,-3.85198c0,-2.57649 -0.73128,-4.3069 -2.19384,-5.19124c-0.5187,-0.30612 -1.15219,-0.45918 -1.90048,-0.45918c-0.74829,0 -1.37753,0.15731 -1.88772,0.47193c-0.5102,0.30612 -0.92261,0.71853 -1.23722,1.23722c-0.58673,0.96937 -0.88009,2.27462 -0.88009,3.91575c0,2.45744 0.70152,4.14534 2.10456,5.06369zM338.42558,84.62877c0,-1.22447 0.16156,-2.3469 0.48469,-3.36729c0.33163,-1.02039 0.81206,-1.89623 1.4413,-2.62751c1.32651,-1.53059 3.16321,-2.29588 5.51011,-2.29588c2.3554,0 4.19211,0.76529 5.51011,2.29588c1.301,1.47957 1.9515,3.48634 1.9515,6.02031c0,2.48295 -0.68876,4.48547 -2.06629,6.00756c-1.36903,1.52209 -3.19298,2.28313 -5.47185,2.28313c-2.22785,0 -4.02204,-0.77805 -5.38257,-2.33415c-1.31801,-1.52209 -1.97701,-3.5161 -1.97701,-5.98205zM343.93569,89.71797c0.5187,0.34864 1.1607,0.52295 1.92599,0.52295c0.76529,0 1.40304,-0.15306 1.91323,-0.45918c0.5187,-0.31462 0.93536,-0.73128 1.24998,-1.24998c0.60373,-0.96937 0.9056,-2.25336 0.9056,-3.85198c0,-2.57649 -0.73128,-4.3069 -2.19384,-5.19124c-0.5187,-0.30612 -1.15219,-0.45918 -1.90048,-0.45918c-0.74829,0 -1.37753,0.15731 -1.88772,0.47193c-0.5102,0.30612 -0.92261,0.71853 -1.23722,1.23722c-0.58673,0.96937 -0.88009,2.27462 -0.88009,3.91575c0,2.45744 0.70152,4.14534 2.10456,5.06369z" fill="#000000" stroke="none" stroke-width="1" stroke-linecap="square"/><path d="M120.0353,98.27058v-33.53928h243.15975v33.53928z" fill="#badfbe" stroke="none" stroke-width="0" stroke-linecap="butt"/></g></g></svg>