<svg version="1.1" xmlns="http://www.w3.org/2000/svg" xmlns:xlink="http://www.w3.org/1999/xlink" width="63.07807" height="63.07807" viewBox="0,0,63.07807,63.07807"><defs><radialGradient cx="240.00001" cy="180.00001" r="31.53904" gradientUnits="userSpaceOnUse" id="color-1"><stop offset="0" stop-color="#000000"/><stop offset="1" stop-color="#000000" stop-opacity="0"/></radialGradient><linearGradient x1="239.9078" y1="181.92803" x2="239.9078" y2="201.02226" gradientUnits="userSpaceOnUse" id="color-2"><stop offset="0" stop-color="#9947a6"/><stop offset="1" stop-color="#626fc2"/></linearGradient><linearGradient x1="250.36726" y1="160.99973" x2="250.36726" y2="168.16787" gradientUnits="userSpaceOnUse" id="color-3"><stop offset="0" stop-color="#e4a367"/><stop offset="1" stop-color="#e89c87"/></linearGradient><linearGradient x1="225.51076" y1="180.07613" x2="243.40492" y2="180.07613" gradientUnits="userSpaceOnUse" id="color-4"><stop offset="0" stop-color="#5450c9"/><stop offset="1" stop-color="#c54ac7"/></linearGradient><linearGradient x1="225.6976" y1="171.12758" x2="254.77847" y2="171.12758" gradientUnits="userSpaceOnUse" id="color-5"><stop offset="0" stop-color="#a5a2d7"/><stop offset="1" stop-color="#fabcc4"/></linearGradient><linearGradient x1="225.99" y1="180.07611" x2="243.40493" y2="180.07611" gradientUnits="userSpaceOnUse" id="color-6"><stop offset="0" stop-color="#a5a2d7"/><stop offset="1" stop-color="#d9b2cc"/></linearGradient></defs><g transform="translate(-208.46098,-148.46097)"><g data-paper-data="{&quot;isPaintingLayer&quot;:true}" fill-rule="nonzero" stroke="none" stroke-width="0" stroke-linecap="butt" stroke-linejoin="miter" stroke-miterlimit="10" stroke-dasharray="" stroke-dashoffset="0" style="mix-blend-mode: normal"><path d="M208.46098,180.00001c0,-17.41853 14.12051,-31.53904 31.53904,-31.53904c17.41853,0 31.53903,14.12051 31.53903,31.53904c0,17.41853 -14.12051,31.53903 -31.53903,31.53903c-17.41853,0 -31.53904,-14.1205 -31.53904,-31.53903z" fill="url(#color-1)"/><path d="M214.76879,180.00001c0,-13.93481 11.29641,-25.23124 25.23122,-25.23124c13.93483,0 25.23122,11.29641 25.23122,25.23124c0,13.93483 -11.2964,25.23122 -25.23122,25.23122c-13.93482,0 -25.23122,-11.29641 -25.23122,-25.23122z" fill="#ffffff"/><g><path d="M236.41786,181.92803l6.94731,3.56588c0,0 0.08382,6.05099 0.10446,8.17593c0.00869,0.89463 -0.12839,2.10296 -1.581,3.15268c-0.29783,0.20283 -1.65983,1.23455 -2.95909,2.22454c-0.40239,0.30661 -0.79876,0.60922 -1.15563,0.88196c-0.81787,0.62507 -1.42541,0.33166 -1.42195,-0.58375c0.00134,-0.35243 0.00276,-0.72766 0.00413,-1.09102c0.01201,-3.17451 0.06177,-16.32621 0.06177,-16.32621z" fill="url(#color-2)"/><path d="M254.56582,166.87356c-0.21911,0.28239 -0.70006,0.84732 -1.2505,1.14898c-0.29323,0.1607 -0.67058,0.02121 -0.9422,0.06186c-1.57393,0.23552 -6.25624,-0.10217 -6.25624,-0.10217c0,0 3.06673,-4.81362 3.86071,-5.97356c0.3263,-0.47671 1.14701,-0.66597 1.48995,-0.15056c0.95041,1.42836 2.78195,4.18103 3.07917,4.62771c0.08062,0.12116 0.09986,0.28368 0.0191,0.38774z" fill="url(#color-3)"/><path d="M233.01835,173.30731l8.64431,4.45187c0,0 1.63044,0.71296 1.679,2.53853c-0.02908,1.39184 0.06327,7.50033 0.06327,7.50033c0,0 -0.22456,-1.72438 -2.09088,-2.77423c-3.005,-1.71647 -9.62729,-5.41022 -13.30861,-7.55803c-1.61598,-0.94282 -2.19505,-1.47691 -1.96818,-2.33481c0.0495,-0.18716 0.13735,-0.37981 0.26116,-0.58119c0.04139,-0.06732 0.20104,-0.06799 0.23568,-0.12425c0.59845,-0.97203 0.98399,-0.06077 1.14258,-0.3214c0.16081,-0.26429 0.86426,-0.26471 0.86426,-0.26471c0,0 -0.00636,-1.32076 0.55021,-1.41764c2.11307,-0.36784 3.92718,0.88555 3.92718,0.88555z" fill="url(#color-4)"/><path d="M227.38334,172.82082c0.87983,-1.39903 1.75891,-2.7126 1.77618,-2.73531c1.36806,-2.16578 1.99301,-2.31347 3.61063,-2.36914c2.04657,0.02094 15.64219,-0.02834 20.04819,-0.02392c0.60727,-0.01268 0.9411,-0.18375 1.1724,-0.32205c0.1587,-0.09489 0.37326,-0.3253 0.52696,-0.49033c0.09799,-0.10521 0.11387,-0.08148 -0.0013,0.09785c-0.72296,1.1257 -3.40155,5.28363 -4.10206,6.18802c-0.5237,0.67612 -1.29291,1.67918 -3.16629,1.65757c-3.46558,-0.03999 -16.05459,-0.23919 -19.86486,-0.29773c-0.66795,-0.01026 -1.05254,-0.0162 -1.05254,-0.0162c0,0 0.42618,-0.69255 1.05269,-1.68877z" fill="url(#color-5)"/><path d="M225.99543,175.36362c0,0 0.01328,-0.10763 0.02494,-0.16207c0.0147,-0.06866 0.03467,-0.13803 0.05981,-0.20824c0.05147,-0.14378 0.12456,-0.29115 0.21825,-0.44352c0.04139,-0.06732 0.07926,-0.12888 0.1139,-0.18514c0.59845,-0.97203 0.23302,-0.36523 0.39161,-0.62585c0.16081,-0.26429 0.27566,-0.44737 0.27566,-0.44737c0,0 1.09163,-0.57978 1.74549,-0.79791c0.10101,-0.0337 0.19157,-0.05877 0.26605,-0.07173c0.84502,-0.1471 1.64224,-0.03492 2.29474,0.15267c-0.03908,0.50207 -3.14856,1.95406 -3.14856,1.95406c0,0 -0.90951,-0.10349 -1.55206,0.203c-0.58708,0.31587 -0.68985,0.6321 -0.68985,0.6321z" fill="url(#color-6)"/></g></g></g></svg>