<svg version="1.1" xmlns="http://www.w3.org/2000/svg" xmlns:xlink="http://www.w3.org/1999/xlink" width="55.93946" height="76.81046" viewBox="0,0,55.93946,76.81046"><g transform="translate(-211.9655,-158.72668)"><g data-paper-data="{&quot;isPaintingLayer&quot;:true}" fill-rule="nonzero" stroke-linejoin="miter" stroke-miterlimit="10" stroke-dasharray="" stroke-dashoffset="0" style="mix-blend-mode: normal"><g fill="#000000" stroke="none" stroke-width="1" stroke-linecap="square"><path d="M222.44352,215.72854c-0.05175,1.05231 -0.34718,1.85665 -0.88627,2.413c-0.53479,0.55635 -1.29167,0.83452 -2.27068,0.83452c-0.98332,0 -1.76608,-0.37305 -2.34832,-1.11917c-0.57792,-0.75043 -0.86687,-1.76608 -0.86687,-3.04697v-1.77903c0,-1.27658 0.29759,-2.28362 0.89274,-3.02111c0.59516,-0.7418 1.40812,-1.1127 2.43888,-1.1127c0.94449,0 1.67551,0.28464 2.19305,0.85393c0.52185,0.56498 0.80433,1.37578 0.84746,2.4324h-1.24208c-0.05606,-0.79786 -0.22642,-1.36715 -0.51107,-1.70786c-0.28033,-0.34502 -0.70946,-0.51753 -1.28736,-0.51753c-0.67279,0 -1.18817,0.26307 -1.54612,0.78923c-0.35797,0.52185 -0.53693,1.28736 -0.53693,2.29655v1.79843c0,0.99625 0.16604,1.75961 0.49813,2.29008c0.3364,0.52616 0.82589,0.78923 1.4685,0.78923c0.64261,0 1.10408,-0.15957 1.38441,-0.47871c0.28464,-0.31914 0.46147,-0.89059 0.53046,-1.71433zM227.70417,218.84021c-0.07332,-0.15526 -0.12507,-0.4205 -0.15526,-0.79571c-0.42266,0.62104 -0.96175,0.93155 -1.61729,0.93155c-0.65985,0 -1.17523,-0.18545 -1.54612,-0.55635c-0.37091,-0.37091 -0.55635,-0.89274 -0.55635,-1.56553c0,-0.7418 0.25013,-1.33048 0.75043,-1.76608c0.5046,-0.43559 1.19464,-0.65769 2.07013,-0.66632h0.8798v-0.7763c0,-0.43559 -0.09704,-0.74395 -0.29112,-0.92508c-0.19408,-0.18545 -0.4895,-0.27817 -0.88627,-0.27817c-0.35797,0 -0.64908,0.10782 -0.87333,0.32345c-0.22427,0.21132 -0.3364,0.48087 -0.3364,0.80865h-1.19679c0,-0.3752 0.10997,-0.73101 0.32992,-1.06741c0.22427,-0.34071 0.52185,-0.6081 0.89274,-0.80218c0.37091,-0.19408 0.78708,-0.29112 1.24855,-0.29112c0.74611,0 1.31324,0.18545 1.70139,0.55635c0.38815,0.37091 0.58654,0.91216 0.59516,1.62376v3.67449c0.00431,0.56498 0.07979,1.05231 0.22642,1.46203v0.10997zM226.11275,217.88925c0.28896,0 0.56498,-0.07979 0.82805,-0.23936c0.26739,-0.16389 0.46362,-0.36658 0.5887,-0.6081v-1.7402h-0.67926c-0.56498,0.00863 -1.01134,0.13586 -1.33911,0.38168c-0.32777,0.24583 -0.49165,0.5887 -0.49165,1.0286c0,0.41403 0.08195,0.71376 0.24583,0.89921c0.1682,0.18545 0.45068,0.27817 0.84746,0.27817zM231.84258,218.84021h-1.19033v-10.35065h1.19033zM235.00254,218.84021h-1.19033v-7.29075h1.19033zM235.09957,209.61519c0,0.20271 -0.05606,0.37305 -0.1682,0.51107c-0.11213,0.1337 -0.28249,0.20054 -0.51107,0.20054c-0.22427,0 -0.39246,-0.06685 -0.5046,-0.20054c-0.11213,-0.138 -0.1682,-0.30835 -0.1682,-0.51107c0,-0.20271 0.05606,-0.37305 0.1682,-0.51107c0.11213,-0.138 0.28033,-0.20701 0.5046,-0.20701c0.22427,0 0.39246,0.07116 0.5046,0.21348c0.11644,0.138 0.17467,0.30621 0.17467,0.5046zM242.16045,215.5474c0,1.13426 -0.20485,1.99035 -0.61457,2.56825c-0.40972,0.5736 -1.00272,0.8604 -1.77903,0.8604c-0.772,0 -1.3499,-0.33208 -1.73374,-0.99625l-0.06469,0.8604h-1.08035v-10.35065h1.18386v3.86208c0.38815,-0.62535 0.94881,-0.93802 1.68198,-0.93802c0.80218,0 1.40165,0.28464 1.79843,0.85393c0.40109,0.56498 0.60378,1.41675 0.6081,2.55533zM240.97659,214.86814c0,-0.86256 -0.12076,-1.47713 -0.36228,-1.84371c-0.24152,-0.36658 -0.63183,-0.54988 -1.17092,-0.54988c-0.61241,0 -1.06957,0.33208 -1.37147,0.99625v3.46746c0.29759,0.65554 0.75904,0.98332 1.38441,0.98332c0.53909,0 0.92508,-0.18761 1.15799,-0.56282c0.2372,-0.37952 0.35797,-0.96606 0.36228,-1.75961zM246.69481,212.66864c-0.1682,-0.03018 -0.34718,-0.04528 -0.53693,-0.04528c-0.61241,0 -1.03937,0.33424 -1.28089,1.00272v5.21414h-1.19679v-7.29075h1.16445l0.01941,0.74395c0.31914,-0.58654 0.76983,-0.8798 1.35205,-0.8798c0.18975,0 0.34718,0.03234 0.47225,0.09704zM251.36678,218.84021c-0.07332,-0.15526 -0.12507,-0.4205 -0.15526,-0.79571c-0.42266,0.62104 -0.96175,0.93155 -1.61729,0.93155c-0.65985,0 -1.17523,-0.18545 -1.54612,-0.55635c-0.37091,-0.37091 -0.55635,-0.89274 -0.55635,-1.56553c0,-0.7418 0.25013,-1.33048 0.75043,-1.76608c0.5046,-0.43559 1.19464,-0.65769 2.07013,-0.66632h0.8798v-0.7763c0,-0.43559 -0.09704,-0.74395 -0.29112,-0.92508c-0.19408,-0.18545 -0.4895,-0.27817 -0.88627,-0.27817c-0.35797,0 -0.64908,0.10782 -0.87333,0.32345c-0.22427,0.21132 -0.3364,0.48087 -0.3364,0.80865h-1.19679c0,-0.3752 0.10997,-0.73101 0.32992,-1.06741c0.22427,-0.34071 0.52185,-0.6081 0.89274,-0.80218c0.37091,-0.19408 0.78708,-0.29112 1.24855,-0.29112c0.74611,0 1.31324,0.18545 1.70139,0.55635c0.38815,0.37091 0.58654,0.91216 0.59516,1.62376v3.67449c0.00431,0.56498 0.07979,1.05231 0.22642,1.46203v0.10997zM249.77536,217.88925c0.28896,0 0.56498,-0.07979 0.82805,-0.23936c0.26739,-0.16389 0.46362,-0.36658 0.5887,-0.6081v-1.7402h-0.67926c-0.56498,0.00863 -1.01134,0.13586 -1.33911,0.38168c-0.32777,0.24583 -0.49165,0.5887 -0.49165,1.0286c0,0.41403 0.08195,0.71376 0.24583,0.89921c0.1682,0.18545 0.45068,0.27817 0.84746,0.27817zM255.7834,209.78339v1.76608h1.09975v0.96391h-1.09975v4.52195c0,0.28896 0.04744,0.50675 0.14233,0.65338c0.09488,0.14663 0.2566,0.21995 0.48518,0.21995c0.15526,0 0.31483,-0.02587 0.47871,-0.07762l-0.01294,1.00919c-0.2717,0.09058 -0.54772,0.13586 -0.82805,0.13586c-0.47441,0 -0.83452,-0.1682 -1.08035,-0.5046c-0.24583,-0.3364 -0.36875,-0.81295 -0.36875,-1.42969v-4.52842h-1.1127v-0.96391h1.1127v-1.76608zM260.90768,218.97607c-0.91,0 -1.60866,-0.26955 -2.09601,-0.80865c-0.48304,-0.54341 -0.72886,-1.33911 -0.73748,-2.38711v-0.8798c0,-1.08682 0.2372,-1.93858 0.71162,-2.55533c0.47441,-0.62104 1.13642,-0.93155 1.98604,-0.93155c0.85393,0 1.49007,0.2717 1.9084,0.81512c0.42266,0.54341 0.6383,1.39087 0.64691,2.54238v0.78277h-4.0691v0.1682c0,0.78061 0.14663,1.3499 0.4399,1.70786c0.29759,0.35365 0.72239,0.53046 1.27442,0.53046c0.34934,0 0.65769,-0.06685 0.92508,-0.20054c0.26739,-0.1337 0.51753,-0.34502 0.75043,-0.63398l0.62104,0.7569c-0.51753,0.72886 -1.30462,1.09329 -2.36124,1.09329zM260.77182,212.44222c-0.49597,0 -0.86256,0.17036 -1.09975,0.51107c-0.2372,0.3364 -0.37305,0.8604 -0.40756,1.57201h2.87231v-0.16173c-0.03018,-0.69005 -0.15526,-1.1817 -0.3752,-1.47497c-0.21564,-0.29759 -0.54556,-0.44637 -0.98977,-0.44637z"/><path d="M211.9655,235.40127v-9.80725h2.33537c1.1472,0 2.03563,0.35797 2.6653,1.07388c0.63398,0.71591 0.95097,1.72295 0.95097,3.02111v1.64317c0,1.29815 -0.3213,2.30086 -0.96391,3.00815c-0.64261,0.70729 -1.57416,1.06094 -2.79467,1.06094zM213.19464,226.65496v7.68537h0.98977c0.86687,0 1.50084,-0.24799 1.90193,-0.74395c0.40109,-0.49597 0.60594,-1.2313 0.61457,-2.20599v-1.73374c0,-1.03507 -0.20054,-1.79411 -0.60163,-2.27715c-0.39677,-0.48304 -0.99625,-0.72454 -1.79843,-0.72454zM220.95453,235.40127h-1.19033v-7.29075h1.19033zM221.05156,226.17624c0,0.20271 -0.05606,0.37305 -0.1682,0.51107c-0.11213,0.1337 -0.28249,0.20054 -0.51107,0.20054c-0.22427,0 -0.39246,-0.06685 -0.5046,-0.20054c-0.11213,-0.138 -0.1682,-0.30835 -0.1682,-0.51107c0,-0.20271 0.05606,-0.37305 0.1682,-0.51107c0.11213,-0.138 0.28033,-0.20701 0.5046,-0.20701c0.22427,0 0.39246,0.07116 0.5046,0.21348c0.11644,0.138 0.17467,0.30621 0.17467,0.5046zM226.37223,233.53814c0,-0.25876 -0.09704,-0.47871 -0.29112,-0.65985c-0.18975,-0.18545 -0.56066,-0.40325 -1.1127,-0.65338c-0.64261,-0.26307 -1.09545,-0.48734 -1.35852,-0.67279c-0.26307,-0.18975 -0.46147,-0.4054 -0.59516,-0.64691c-0.12939,-0.24152 -0.19408,-0.52832 -0.19408,-0.8604c0,-0.59084 0.21564,-1.08251 0.64691,-1.47497c0.43559,-0.39677 0.99195,-0.59516 1.66904,-0.59516c0.70729,0 1.27658,0.20701 1.70786,0.62104c0.43129,0.41403 0.64691,0.94449 0.64691,1.59142h-1.18386c0,-0.32777 -0.10997,-0.60594 -0.32992,-0.83452c-0.21995,-0.23289 -0.50028,-0.34934 -0.84099,-0.34934c-0.35365,0 -0.62967,0.09058 -0.82805,0.2717c-0.19838,0.18114 -0.29759,0.42482 -0.29759,0.73101c0,0.24152 0.07116,0.43775 0.21348,0.5887c0.14663,0.14663 0.50028,0.34071 1.06094,0.58221c0.88412,0.34502 1.48574,0.68358 1.8049,1.01566c0.31914,0.32777 0.47871,0.74611 0.47871,1.25502c0,0.63398 -0.2178,1.14073 -0.65338,1.52025c-0.43559,0.37952 -1.01997,0.56929 -1.75314,0.56929c-0.75904,0 -1.37578,-0.2178 -1.85018,-0.65338c-0.4701,-0.43559 -0.70515,-0.98762 -0.70515,-1.65611h1.19679c0.01726,0.40109 0.14233,0.71807 0.3752,0.95097c0.23289,0.22858 0.56066,0.34287 0.98332,0.34287c0.39246,0 0.6922,-0.08842 0.89921,-0.26523c0.20701,-0.18114 0.31051,-0.4205 0.31051,-0.71807zM230.67889,226.34444v1.76608h1.09975v0.96391h-1.09975v4.52195c0,0.28896 0.04744,0.50675 0.14233,0.65338c0.09488,0.14663 0.2566,0.21995 0.48518,0.21995c0.15526,0 0.31483,-0.02587 0.47871,-0.07762l-0.01294,1.00919c-0.2717,0.09058 -0.54772,0.13586 -0.82805,0.13586c-0.47441,0 -0.83452,-0.1682 -1.08035,-0.5046c-0.24583,-0.3364 -0.36875,-0.81295 -0.36875,-1.42969v-4.52842h-1.1127v-0.96391h1.1127v-1.76608zM236.20428,229.22969c-0.1682,-0.03018 -0.34718,-0.04528 -0.53693,-0.04528c-0.61241,0 -1.03937,0.33424 -1.28089,1.00272v5.21414h-1.19679v-7.29075h1.16445l0.01941,0.74395c0.31914,-0.58654 0.76983,-0.8798 1.35205,-0.8798c0.18975,0 0.34718,0.03234 0.47225,0.09704zM238.67457,235.40127h-1.19033v-7.29075h1.19033zM238.77162,226.17624c0,0.20271 -0.05606,0.37305 -0.1682,0.51107c-0.11213,0.1337 -0.28249,0.20054 -0.51107,0.20054c-0.22427,0 -0.39246,-0.06685 -0.5046,-0.20054c-0.11213,-0.138 -0.1682,-0.30835 -0.1682,-0.51107c0,-0.20271 0.05606,-0.37305 0.1682,-0.51107c0.11213,-0.138 0.28033,-0.20701 0.5046,-0.20701c0.22427,0 0.39246,0.07116 0.5046,0.21348c0.11644,0.138 0.17467,0.30621 0.17467,0.5046zM245.83247,232.10847c0,1.13426 -0.20485,1.99035 -0.61457,2.56825c-0.40972,0.5736 -1.00272,0.8604 -1.77903,0.8604c-0.772,0 -1.3499,-0.33208 -1.73374,-0.99625l-0.06469,0.8604h-1.08035v-10.35065h1.18386v3.86208c0.38815,-0.62535 0.94881,-0.93802 1.68198,-0.93802c0.80218,0 1.40165,0.28464 1.79843,0.85393c0.40109,0.56498 0.60378,1.41675 0.6081,2.55533zM244.64861,231.42919c0,-0.86256 -0.12076,-1.47713 -0.36228,-1.84371c-0.24152,-0.36658 -0.63183,-0.54988 -1.17092,-0.54988c-0.61241,0 -1.06957,0.33208 -1.37147,0.99625v3.46746c0.29759,0.65554 0.75904,0.98332 1.38441,0.98332c0.53909,0 0.92508,-0.18761 1.15799,-0.56282c0.2372,-0.37952 0.35797,-0.96606 0.36228,-1.75961zM251.07197,234.76081c-0.39246,0.51753 -0.96822,0.7763 -1.72726,0.7763c-0.65985,0 -1.16013,-0.22858 -1.50084,-0.68573c-0.3364,-0.45715 -0.50675,-1.12132 -0.51107,-1.99251v-4.74835h1.19033v4.66427c0,1.13426 0.34071,1.70139 1.02213,1.70139c0.72454,0 1.22267,-0.32345 1.49437,-0.97038v-5.39528h1.19679v7.29075h-1.1321zM255.58804,226.34444v1.76608h1.09975v0.96391h-1.09975v4.52195c0,0.28896 0.04744,0.50675 0.14233,0.65338c0.09488,0.14663 0.2566,0.21995 0.48518,0.21995c0.15526,0 0.31483,-0.02587 0.47871,-0.07762l-0.01294,1.00919c-0.2717,0.09058 -0.54772,0.13586 -0.82805,0.13586c-0.47441,0 -0.83452,-0.1682 -1.08035,-0.5046c-0.24583,-0.3364 -0.36875,-0.81295 -0.36875,-1.42969v-4.52842h-1.1127v-0.96391h1.1127v-1.76608zM257.71817,231.41626c0,-1.05663 0.2566,-1.8933 0.76983,-2.51003c0.51322,-0.62104 1.19249,-0.93155 2.03779,-0.93155c0.84531,0 1.52457,0.30188 2.03779,0.90569c0.51753,0.59947 0.78277,1.4189 0.79571,2.45828v0.76983c0,1.05231 -0.2566,1.88683 -0.76983,2.50357c-0.51322,0.61673 -1.19679,0.92508 -2.05073,0.92508c-0.84099,0 -1.5181,-0.29759 -2.03132,-0.89274c-0.5089,-0.59947 -0.772,-1.41028 -0.78923,-2.4324zM258.9085,232.10847c0,0.75043 0.14663,1.34127 0.4399,1.77254c0.29759,0.42696 0.69436,0.64045 1.19033,0.64045c1.05231,0 1.59358,-0.75904 1.62376,-2.27715v-0.82805c0,-0.7418 -0.14879,-1.32833 -0.44637,-1.75961c-0.29327,-0.43559 -0.69005,-0.65338 -1.19033,-0.65338c-0.48734,0 -0.8798,0.2178 -1.17739,0.65338c-0.29327,0.43129 -0.4399,1.01566 -0.4399,1.75314zM267.90496,229.22969c-0.1682,-0.03018 -0.34718,-0.04528 -0.53693,-0.04528c-0.61241,0 -1.03937,0.33424 -1.28089,1.00272v5.21414h-1.19679v-7.29075h1.16445l0.01941,0.74395c0.31914,-0.58654 0.76983,-0.8798 1.35205,-0.8798c0.18975,0 0.34718,0.03234 0.47225,0.09704z"/></g><path d="M222.50112,200.72668v-41.25h25.5l9.25,9.5v31.75z" fill="#ffffff" stroke="#63747e" stroke-width="1.5" stroke-linecap="butt"/><path d="M257.49888,169.4788l-12.57165,1.97223l2.29167,-12.17771" fill="#d2d9dc" stroke="none" stroke-width="0" stroke-linecap="butt"/><path d="M256.83222,168.81214h-8.96054v-8.99715" fill="#ffffff" stroke="#63747e" stroke-width="1.5" stroke-linecap="butt"/><path d="M222.50112,200.72668v-41.25h25.5l9.25,9.5v31.75z" fill="none" stroke="#63747e" stroke-width="1.5" stroke-linecap="butt"/><g fill="#96a5b3" stroke="none" stroke-width="0.5" stroke-linecap="butt"><path d="M245.20502,165.31214c0,0.5 -0.5,0.5 -0.5,0.5h-0.16667c-3.79183,0 -7.65339,0.32688 -11.4199,0.32688c-2.4423,0.815 -3.4543,-0.72544 -5.33334,-0.66667c-0.62052,0.01941 -1.10416,1.4282 -2.32685,1.16667c-0.95908,-0.20515 -0.9596,-0.69816 -1.22758,-1.5021c0,0 -0.15811,-0.47434 0.31623,-0.63245c0.47434,-0.15811 0.63245,0.31623 0.63245,0.31623c0.63278,1.89834 1.97607,-0.45505 3.52566,-0.34189c1.62016,0.11832 2.02164,1.41616 4.25324,0.67312c3.82055,0 7.73456,-0.33979 11.58009,-0.33979h0.16667c0,0 0.5,0 0.5,0.5z"/><path d="M251.03835,173.47881c0,0.5 -0.5,0.5 -0.5,0.5c-0.5,0 -1.16666,0 -1.66666,0c-1.87022,0 -5.79416,-0.8343 -7.47532,-0.03806c-1.53829,0.72857 -3.38163,1.4651 -5.22695,0.99532c-2.09682,-1.3837 -7.17216,-0.95726 -9.63106,-0.95726c0,0 -0.5,0 -0.5,-0.5c0,-0.5 0.5,-0.5 0.5,-0.5c2.57189,0 7.86218,-0.42197 10.03561,1.04274c1.58395,0.38483 3.13779,-0.48884 4.43972,-1.00468c2.02662,-0.80297 5.70672,-0.03806 7.85801,-0.03806c0.5,0 1,0 1.5,0h0.16666c0,0 0.5,0 0.5,0.5z"/><path d="M251.70502,180.64548c0,0.5 -0.5,0.5 -0.5,0.5l0.08269,-0.22265c-1.10098,1.53099 -2.87977,1.2235 -4.58974,1.22265c-3.36903,-0.00169 -6.68433,-0.49999 -10.15962,-0.49999c-1.96434,0 -3.65652,-0.39828 -5.56109,-0.67042c-1.64756,-0.23542 -3.59053,0.49966 -5.04959,-0.41356c0,0 -0.41603,-0.27735 -0.13868,-0.69338c0.27735,-0.41603 0.69338,-0.13868 0.69338,-0.13868c0.81576,0.60107 2.54824,0.24936 3.55598,0.24936c2.17516,0 4.27026,0.66667 6.5,0.66667c3.4692,0 6.79776,0.49976 10.15991,0.49999c1.18321,0.00008 3.07265,0.40108 3.7574,-0.77734l0.74936,-0.22265c0,0 0.5,0 0.5,0.5z"/><path d="M250.8919,189.1657c-0.35356,0.35356 -0.70711,0 -0.70711,0l0.02022,-0.18689c-2.31978,0 -4.42356,0.71996 -6.58658,0.99354c-3.06613,0.38781 -5.00935,-0.66021 -7.91342,-0.66021c-3.50986,0 -7.00186,-0.16666 -10.5,-0.16666c0,0 -0.5,0 -0.5,-0.5c0,-0.5 0.5,-0.5 0.5,-0.5c3.50232,0 6.98747,0.16666 10.5,0.16666c2.96768,0 4.70669,0.94873 7.75324,0.67313c2.18492,-0.19766 4.39822,-1.00646 6.74676,-1.00646l0.68688,0.47978c0,0 0.35356,0.35356 0,0.70711z"/><path d="M252.67936,196.97026c-0.15812,0.47434 -0.63245,0.31623 -0.63245,0.31623l-0.56156,-0.19185c-0.53231,-0.38049 -0.81016,-0.28249 -1.44699,-0.28249c-2.14112,0 -5.59662,-0.85747 -7.57211,-0.34235c-0.99277,0.25887 -1.74277,1.03643 -2.78111,1.00863c-1.51927,-0.04068 -2.56441,-0.99961 -3.9801,-0.99961c-2.40528,0 -4.61391,1.18482 -6.89443,0.82959c-1.63227,-0.25425 -2.33424,-1.16292 -4.10557,-1.16292c0,0 -0.5,0 -0.5,-0.5c0,-0.5 0.5,-0.5 0.5,-0.5c1.7396,0 2.69956,0.98073 4.22776,1.17041c1.4872,0.18459 1.98736,-0.54685 3.32403,-0.8237c1.03199,-0.21375 2.3826,-0.01338 3.44821,-0.01338c1.34937,0 3.05257,1.55902 4.36653,1.01815c3.24907,-1.33742 6.42625,-0.68481 9.9668,-0.68481c0.77544,0 1.21492,-0.03953 1.88635,0.38418l0.43844,0.14148c0,0 0.47434,0.15812 0.31623,0.63246z"/></g></g></g></svg>