<svg version="1.1" xmlns="http://www.w3.org/2000/svg" xmlns:xlink="http://www.w3.org/1999/xlink" width="720" height="540" viewBox="0,0,720,540"><defs><clipPath id="clip-1"><rect x="-240" y="-180" transform="scale(0.5,0.5)" width="1440" height="1080" fill="none" fill-rule="nonzero" stroke-width="0.5" stroke-linecap="butt"/></clipPath></defs><g transform="translate(120,90)"><g clip-path="url(#clip-1)" data-paper-data="{&quot;isPaintingLayer&quot;:true}" stroke="none" stroke-linejoin="miter" stroke-miterlimit="10" stroke-dasharray="" stroke-dashoffset="0" style="mix-blend-mode: normal"><path d="M-215.97598,60.24024h960v720h-960z" fill-opacity="0" fill="#000000" fill-rule="evenodd" stroke-width="1" stroke-linecap="square"/><path d="M-208.40117,94.04339h944.85034v100.18898h-944.85034z" fill-opacity="0" fill="#000000" fill-rule="evenodd" stroke-width="1" stroke-linecap="square"/><path d="M220.73786,129.05901c0,-1.1875 -0.32292,-2.09375 -0.96875,-2.71875c-0.63542,-0.63542 -1.79167,-1.25 -3.46875,-1.84375c-1.66667,-0.59375 -2.94271,-1.21875 -3.82812,-1.875c-0.88542,-0.65625 -1.54687,-1.40625 -1.98437,-2.25c-0.4375,-0.84375 -0.65625,-1.80729 -0.65625,-2.89062c0,-1.875 0.625,-3.41667 1.875,-4.625c1.26042,-1.21875 2.90104,-1.82812 4.92188,-1.82812c1.39583,0 2.63542,0.3125 3.71875,0.9375c1.08333,0.625 1.91667,1.48958 2.5,2.59375c0.59375,1.10417 0.89063,2.31771 0.89063,3.64063h-3c0,-1.46875 -0.35417,-2.60417 -1.0625,-3.40625c-0.69792,-0.80208 -1.71354,-1.20312 -3.04687,-1.20312c-1.19792,0 -2.13021,0.33854 -2.79687,1.01563c-0.65625,0.66667 -0.98437,1.60938 -0.98437,2.82813c0,1 0.35417,1.83854 1.0625,2.51563c0.71875,0.66667 1.82813,1.26563 3.32813,1.79688c2.33333,0.77083 4,1.72396 5,2.85937c1.01042,1.125 1.51563,2.59896 1.51563,4.42188c0,1.91667 -0.625,3.45313 -1.875,4.60938c-1.25,1.15625 -2.94792,1.73438 -5.09375,1.73438c-1.375,0 -2.64583,-0.30208 -3.8125,-0.90625c-1.16667,-0.60417 -2.08333,-1.44792 -2.75,-2.53125c-0.66667,-1.09375 -1,-2.34896 -1,-3.76562h2.98438c0,1.46875 0.40625,2.60938 1.21875,3.42188c0.82292,0.8125 1.94271,1.21875 3.35938,1.21875c1.3125,0 2.29688,-0.33333 2.95313,-1c0.66667,-0.67708 1,-1.59375 1,-2.75zM231.01966,113.16839v4.26563h2.65625v2.32813h-2.65625v10.92187c0,0.69792 0.11458,1.22396 0.34375,1.57813c0.22917,0.35417 0.61979,0.53125 1.17188,0.53125c0.375,0 0.76042,-0.0625 1.15625,-0.1875l-0.03125,2.4375c-0.65625,0.21875 -1.32292,0.32813 -2,0.32813c-1.14583,0 -2.01562,-0.40625 -2.60937,-1.21875c-0.59375,-0.8125 -0.89062,-1.96354 -0.89062,-3.45312v-10.9375h-2.6875v-2.32812h2.6875v-4.26562zM246.16203,135.04339c-0.17708,-0.375 -0.30208,-1.01562 -0.375,-1.92187c-1.02083,1.5 -2.32292,2.25 -3.90625,2.25c-1.59375,0 -2.83854,-0.44792 -3.73437,-1.34375c-0.89583,-0.89583 -1.34375,-2.15625 -1.34375,-3.78125c0,-1.79167 0.60417,-3.21354 1.8125,-4.26562c1.21875,-1.05208 2.88542,-1.58854 5,-1.60937h2.125v-1.875c0,-1.05208 -0.23437,-1.79687 -0.70312,-2.23437c-0.46875,-0.44792 -1.18229,-0.67187 -2.14062,-0.67187c-0.86458,0 -1.56771,0.26042 -2.10937,0.78125c-0.54167,0.51042 -0.8125,1.16146 -0.8125,1.95313h-2.89062c0,-0.90625 0.26563,-1.76562 0.79688,-2.57812c0.54167,-0.82292 1.26042,-1.46875 2.15625,-1.9375c0.89583,-0.46875 1.90104,-0.70312 3.01563,-0.70312c1.80208,0 3.17188,0.44792 4.10938,1.34375c0.9375,0.89583 1.41667,2.20313 1.4375,3.92188v8.875c0.01042,1.36458 0.19271,2.54167 0.54688,3.53125v0.26563h-2.98437zM242.31828,132.74651c0.69792,0 1.36458,-0.19271 2,-0.57812c0.64583,-0.39583 1.11979,-0.88542 1.42188,-1.46875v-4.20312h-1.64062c-1.36458,0.02083 -2.44271,0.32813 -3.23437,0.92188c-0.79167,0.59375 -1.1875,1.42188 -1.1875,2.48438c0,1 0.19792,1.72396 0.59375,2.17188c0.40625,0.44792 1.08854,0.67188 2.04688,0.67188zM265.81385,127.09026c0,2.73958 -0.49479,4.80729 -1.48437,6.20313c-0.98958,1.38542 -2.42187,2.07813 -4.29687,2.07813c-1.86458,0 -3.26042,-0.80208 -4.1875,-2.40625l-0.15625,2.07813h-2.60937v-25h2.85938v9.32812c0.9375,-1.51042 2.29167,-2.26562 4.0625,-2.26562c1.9375,0 3.38542,0.6875 4.34375,2.0625c0.96875,1.36458 1.45833,3.42187 1.46875,6.17187zM262.95448,125.44964c0,-2.08333 -0.29167,-3.5677 -0.875,-4.45312c-0.58333,-0.88542 -1.52604,-1.32812 -2.82812,-1.32812c-1.47917,0 -2.58333,0.80208 -3.3125,2.40625v8.375c0.71875,1.58333 1.83333,2.375 3.34375,2.375c1.30208,0 2.23438,-0.45312 2.79688,-1.35937c0.57292,-0.91667 0.86458,-2.33333 0.875,-4.25zM272.59382,135.04339h-2.875v-17.60937h2.875zM272.8282,112.76214c0,0.48958 -0.13542,0.90104 -0.40625,1.23438c-0.27083,0.32292 -0.68229,0.48438 -1.23437,0.48438c-0.54167,0 -0.94792,-0.16146 -1.21875,-0.48437c-0.27083,-0.33333 -0.40625,-0.74479 -0.40625,-1.23437c0,-0.48958 0.13542,-0.90104 0.40625,-1.23437c0.27083,-0.33333 0.67708,-0.5 1.21875,-0.5c0.54167,0 0.94792,0.17188 1.21875,0.51563c0.28125,0.33333 0.42188,0.73958 0.42188,1.21875zM280.22608,135.04339h-2.875v-25h2.875zM287.85838,135.04339h-2.875v-17.60937h2.875zM288.09275,112.76214c0,0.48958 -0.13542,0.90104 -0.40625,1.23438c-0.27083,0.32292 -0.68229,0.48438 -1.23437,0.48438c-0.54167,0 -0.94792,-0.16146 -1.21875,-0.48437c-0.27083,-0.33333 -0.40625,-0.74479 -0.40625,-1.23437c0,-0.48958 0.13542,-0.90104 0.40625,-1.23437c0.27083,-0.33333 0.67708,-0.5 1.21875,-0.5c0.54167,0 0.94792,0.17188 1.21875,0.51563c0.28125,0.33333 0.42188,0.73958 0.42188,1.21875zM295.05317,132.59026h8.50003v2.45313h-11.78128v-2.21875l8.06253,-12.90625h-8.00003v-2.48437h11.39066v2.14063zM313.06327,135.37151c-2.19792,0 -3.88542,-0.65104 -5.0625,-1.95312c-1.16667,-1.3125 -1.76042,-3.23437 -1.78125,-5.76562v-2.125c0,-2.625 0.57292,-4.68229 1.71875,-6.17187c1.14583,-1.5 2.74479,-2.25 4.79688,-2.25c2.0625,0 3.59896,0.65625 4.60938,1.96875c1.02083,1.3125 1.54167,3.35937 1.5625,6.14062v1.89063h-9.82812v0.40625c0,1.88542 0.35417,3.26042 1.0625,4.125c0.71875,0.85417 1.74479,1.28125 3.07813,1.28125c0.84375,0 1.58854,-0.16146 2.23438,-0.48437c0.64583,-0.32292 1.25,-0.83333 1.8125,-1.53125l1.5,1.82813c-1.25,1.76042 -3.15104,2.64063 -5.70312,2.64063zM312.73515,119.59026c-1.19792,0 -2.08333,0.41146 -2.65625,1.23438c-0.57292,0.8125 -0.90104,2.07812 -0.98437,3.79687h6.9375v-0.39062c-0.07292,-1.66667 -0.375,-2.85417 -0.90625,-3.5625c-0.52083,-0.71875 -1.31771,-1.07812 -2.39062,-1.07812z" fill="#000000" fill-rule="nonzero" stroke-width="1" stroke-linecap="square"/><path d="M222.60932,169.05901c0,-1.1875 -0.32292,-2.09375 -0.96875,-2.71875c-0.63542,-0.63542 -1.79167,-1.25 -3.46875,-1.84375c-1.66667,-0.59375 -2.94271,-1.21875 -3.82812,-1.875c-0.88542,-0.65625 -1.54687,-1.40625 -1.98437,-2.25c-0.4375,-0.84375 -0.65625,-1.80729 -0.65625,-2.89062c0,-1.875 0.625,-3.41667 1.875,-4.625c1.26042,-1.21875 2.90104,-1.82812 4.92188,-1.82812c1.39583,0 2.63542,0.3125 3.71875,0.9375c1.08333,0.625 1.91667,1.48958 2.5,2.59375c0.59375,1.10417 0.89063,2.31771 0.89063,3.64063h-3c0,-1.46875 -0.35417,-2.60417 -1.0625,-3.40625c-0.69792,-0.80208 -1.71354,-1.20312 -3.04687,-1.20312c-1.19792,0 -2.13021,0.33854 -2.79687,1.01563c-0.65625,0.66667 -0.98437,1.60938 -0.98437,2.82813c0,1 0.35417,1.83854 1.0625,2.51563c0.71875,0.66667 1.82813,1.26563 3.32813,1.79688c2.33333,0.77083 4,1.72396 5,2.85938c1.01042,1.125 1.51563,2.59896 1.51563,4.42188c0,1.91667 -0.625,3.45313 -1.875,4.60938c-1.25,1.15625 -2.94792,1.73438 -5.09375,1.73438c-1.375,0 -2.64583,-0.30208 -3.8125,-0.90625c-1.16667,-0.60417 -2.08333,-1.44792 -2.75,-2.53125c-0.66667,-1.09375 -1,-2.34896 -1,-3.76562h2.98438c0,1.46875 0.40625,2.60938 1.21875,3.42188c0.82292,0.8125 1.94271,1.21875 3.35938,1.21875c1.3125,0 2.29688,-0.33333 2.95313,-1c0.66667,-0.67708 1,-1.59375 1,-2.75zM232.89112,153.16839v4.26563h2.65625v2.32813h-2.65625v10.92188c0,0.69792 0.11458,1.22396 0.34375,1.57813c0.22917,0.35417 0.61979,0.53125 1.17188,0.53125c0.375,0 0.76042,-0.0625 1.15625,-0.1875l-0.03125,2.4375c-0.65625,0.21875 -1.32292,0.32813 -2,0.32813c-1.14583,0 -2.01562,-0.40625 -2.60937,-1.21875c-0.59375,-0.8125 -0.89062,-1.96354 -0.89062,-3.45312v-10.9375h-2.6875v-2.32812h2.6875v-4.26562zM245.26786,175.37151c-2.19792,0 -3.88542,-0.65104 -5.0625,-1.95312c-1.16667,-1.3125 -1.76042,-3.23437 -1.78125,-5.76562v-2.125c0,-2.625 0.57292,-4.68229 1.71875,-6.17187c1.14583,-1.5 2.74479,-2.25 4.79688,-2.25c2.0625,0 3.59896,0.65625 4.60938,1.96875c1.02083,1.3125 1.54167,3.35938 1.5625,6.14063v1.89063h-9.82812v0.40625c0,1.88542 0.35417,3.26042 1.0625,4.125c0.71875,0.85417 1.74479,1.28125 3.07813,1.28125c0.84375,0 1.58854,-0.16146 2.23438,-0.48437c0.64583,-0.32292 1.25,-0.83333 1.8125,-1.53125l1.5,1.82813c-1.25,1.76042 -3.15104,2.64063 -5.70312,2.64063zM244.93974,159.59026c-1.19792,0 -2.08333,0.41146 -2.65625,1.23438c-0.57292,0.8125 -0.90104,2.07813 -0.98437,3.79688h6.9375v-0.39062c-0.07292,-1.66667 -0.375,-2.85417 -0.90625,-3.5625c-0.52083,-0.71875 -1.31771,-1.07812 -2.39062,-1.07812zM260.87416,175.37151c-2.19792,0 -3.88542,-0.65104 -5.0625,-1.95312c-1.16667,-1.3125 -1.76042,-3.23437 -1.78125,-5.76562v-2.125c0,-2.625 0.57292,-4.68229 1.71875,-6.17187c1.14583,-1.5 2.74479,-2.25 4.79688,-2.25c2.0625,0 3.59896,0.65625 4.60938,1.96875c1.02083,1.3125 1.54167,3.35938 1.5625,6.14063v1.89063h-9.82812v0.40625c0,1.88542 0.35417,3.26042 1.0625,4.125c0.71875,0.85417 1.74479,1.28125 3.07813,1.28125c0.84375,0 1.58854,-0.16146 2.23438,-0.48437c0.64583,-0.32292 1.25,-0.83333 1.8125,-1.53125l1.5,1.82813c-1.25,1.76042 -3.15104,2.64063 -5.70312,2.64063zM260.54603,159.59026c-1.19792,0 -2.08333,0.41146 -2.65625,1.23438c-0.57292,0.8125 -0.90104,2.07813 -0.98437,3.79688h6.9375v-0.39062c-0.07292,-1.66667 -0.375,-2.85417 -0.90625,-3.5625c-0.52083,-0.71875 -1.31771,-1.07812 -2.39062,-1.07812zM277.4492,160.13714c-0.40625,-0.07292 -0.83854,-0.10937 -1.29687,-0.10937c-1.47917,0 -2.51042,0.80729 -3.09375,2.42188v12.59375h-2.89062v-17.60937h2.8125l0.04688,1.79688c0.77083,-1.41667 1.85938,-2.125 3.26563,-2.125c0.45833,0 0.83854,0.07813 1.14063,0.23438zM283.41572,175.04339h-2.875v-17.60937h2.875zM283.6501,152.76214c0,0.48958 -0.13542,0.90104 -0.40625,1.23438c-0.27083,0.32292 -0.68229,0.48438 -1.23437,0.48438c-0.54167,0 -0.94792,-0.16146 -1.21875,-0.48437c-0.27083,-0.33333 -0.40625,-0.74479 -0.40625,-1.23437c0,-0.48958 0.13542,-0.90104 0.40625,-1.23437c0.27083,-0.33333 0.67708,-0.5 1.21875,-0.5c0.54167,0 0.94792,0.17188 1.21875,0.51563c0.28125,0.33333 0.42188,0.73958 0.42188,1.21875zM290.65736,157.43401l0.09375,1.90625c1.11458,-1.48958 2.54167,-2.23437 4.28125,-2.23437c3.10419,0 4.68232,2.07813 4.73441,6.23438v11.70313h-2.875v-11.57812c0,-1.375 -0.22917,-2.34896 -0.6875,-2.92187c-0.45835,-0.58333 -1.15107,-0.875 -2.07816,-0.875c-0.70833,0 -1.34896,0.23958 -1.92187,0.71875c-0.57292,0.46875 -1.03125,1.08854 -1.375,1.85938v12.79688h-2.89062v-17.60937zM303.50321,165.44964c0,-2.75 0.5,-4.82812 1.5,-6.23437c1,-1.40625 2.45833,-2.10937 4.375,-2.10937c1.79167,0 3.15104,0.76563 4.07813,2.29688l0.15625,-1.96875h2.59375v17.76563c0,2.1875 -0.55729,3.86458 -1.67187,5.03125c-1.11458,1.16667 -2.67187,1.75 -4.67187,1.75c-0.86458,0 -1.83854,-0.21875 -2.92187,-0.65625c-1.07292,-0.42708 -1.88021,-0.95312 -2.42187,-1.57812l1.17188,-1.98437c1.1875,1.16667 2.50521,1.75 3.95313,1.75c2.39583,0 3.625,-1.30729 3.6875,-3.92187v-2.28125c-0.92708,1.375 -2.25,2.0625 -3.96875,2.0625c-1.82292,0 -3.24479,-0.6875 -4.26562,-2.0625c-1.02083,-1.375 -1.55208,-3.34896 -1.59375,-5.92187zM306.37821,167.09026c0,1.96875 0.29167,3.41667 0.875,4.34375c0.58333,0.92708 1.53646,1.39063 2.85938,1.39063c1.42708,0 2.5,-0.72917 3.21875,-2.1875v-8.8125c-0.75,-1.4375 -1.8125,-2.15625 -3.1875,-2.15625c-1.32292,0 -2.28125,0.46354 -2.875,1.39063c-0.58333,0.92708 -0.88021,2.34896 -0.89062,4.26563z" fill="#000000" fill-rule="nonzero" stroke-width="1" stroke-linecap="square"/></g></g></svg>