<svg version="1.1" xmlns="http://www.w3.org/2000/svg" xmlns:xlink="http://www.w3.org/1999/xlink" width="40.47651" height="76.76098" viewBox="0,0,40.47651,76.76098"><g transform="translate(-219.36364,-158.72668)"><g data-paper-data="{&quot;isPaintingLayer&quot;:true}" fill-rule="nonzero" stroke-linejoin="miter" stroke-miterlimit="10" stroke-dasharray="" stroke-dashoffset="0" style="mix-blend-mode: normal"><path d="M222.50112,200.72668v-41.25h25.5l9.25,9.5v31.75z" fill="#ffffff" stroke="#63747e" stroke-width="1.5" stroke-linecap="butt"/><path d="M257.49888,169.4788l-12.57165,1.97223l2.29167,-12.17771" fill="#d2d9dc" stroke="none" stroke-width="0" stroke-linecap="butt"/><path d="M256.83222,168.81214h-8.96054v-8.99715" fill="#ffffff" stroke="#63747e" stroke-width="1.5" stroke-linecap="butt"/><path d="M222.50112,200.72668v-41.25h25.5l9.25,9.5v31.75z" fill="none" stroke="#63747e" stroke-width="1.5" stroke-linecap="butt"/><g fill="#96a5b3" stroke="none" stroke-width="0.5" stroke-linecap="butt"><path d="M245.20502,165.31214c0,0.5 -0.5,0.5 -0.5,0.5h-0.16667c-3.79183,0 -7.65339,0.32688 -11.4199,0.32688c-2.4423,0.815 -3.4543,-0.72544 -5.33334,-0.66667c-0.62052,0.01941 -1.10416,1.4282 -2.32685,1.16667c-0.95908,-0.20515 -0.9596,-0.69816 -1.22758,-1.5021c0,0 -0.15811,-0.47434 0.31623,-0.63245c0.47434,-0.15811 0.63245,0.31623 0.63245,0.31623c0.63278,1.89834 1.97607,-0.45505 3.52566,-0.34189c1.62016,0.11832 2.02164,1.41616 4.25324,0.67312c3.82055,0 7.73456,-0.33979 11.58009,-0.33979h0.16667c0,0 0.5,0 0.5,0.5z"/><path d="M251.03835,173.47881c0,0.5 -0.5,0.5 -0.5,0.5c-0.5,0 -1.16666,0 -1.66666,0c-1.87022,0 -5.79416,-0.8343 -7.47532,-0.03806c-1.53829,0.72857 -3.38163,1.4651 -5.22695,0.99532c-2.09682,-1.3837 -7.17216,-0.95726 -9.63106,-0.95726c0,0 -0.5,0 -0.5,-0.5c0,-0.5 0.5,-0.5 0.5,-0.5c2.57189,0 7.86218,-0.42197 10.03561,1.04274c1.58395,0.38483 3.13779,-0.48884 4.43972,-1.00468c2.02662,-0.80297 5.70672,-0.03806 7.85801,-0.03806c0.5,0 1,0 1.5,0h0.16666c0,0 0.5,0 0.5,0.5z"/><path d="M251.70502,180.64548c0,0.5 -0.5,0.5 -0.5,0.5l0.08269,-0.22265c-1.10098,1.53099 -2.87977,1.2235 -4.58974,1.22265c-3.36903,-0.00169 -6.68433,-0.49999 -10.15962,-0.49999c-1.96434,0 -3.65652,-0.39828 -5.56109,-0.67042c-1.64756,-0.23542 -3.59053,0.49966 -5.04959,-0.41356c0,0 -0.41603,-0.27735 -0.13868,-0.69338c0.27735,-0.41603 0.69338,-0.13868 0.69338,-0.13868c0.81576,0.60107 2.54824,0.24936 3.55598,0.24936c2.17516,0 4.27026,0.66667 6.5,0.66667c3.4692,0 6.79776,0.49976 10.15991,0.49999c1.18321,0.00008 3.07265,0.40108 3.7574,-0.77734l0.74936,-0.22265c0,0 0.5,0 0.5,0.5z"/><path d="M250.8919,189.1657c-0.35356,0.35356 -0.70711,0 -0.70711,0l0.02022,-0.18689c-2.31978,0 -4.42356,0.71996 -6.58658,0.99354c-3.06613,0.38781 -5.00935,-0.66021 -7.91342,-0.66021c-3.50986,0 -7.00186,-0.16666 -10.5,-0.16666c0,0 -0.5,0 -0.5,-0.5c0,-0.5 0.5,-0.5 0.5,-0.5c3.50232,0 6.98747,0.16666 10.5,0.16666c2.96768,0 4.70669,0.94873 7.75324,0.67313c2.18492,-0.19766 4.39822,-1.00646 6.74676,-1.00646l0.68688,0.47978c0,0 0.35356,0.35356 0,0.70711z"/><path d="M252.67936,196.97026c-0.15812,0.47434 -0.63245,0.31623 -0.63245,0.31623l-0.56156,-0.19185c-0.53231,-0.38049 -0.81016,-0.28249 -1.44699,-0.28249c-2.14112,0 -5.59662,-0.85747 -7.57211,-0.34235c-0.99277,0.25887 -1.74277,1.03643 -2.78111,1.00863c-1.51927,-0.04068 -2.56441,-0.99961 -3.9801,-0.99961c-2.40528,0 -4.61391,1.18482 -6.89443,0.82959c-1.63227,-0.25425 -2.33424,-1.16292 -4.10557,-1.16292c0,0 -0.5,0 -0.5,-0.5c0,-0.5 0.5,-0.5 0.5,-0.5c1.7396,0 2.69956,0.98073 4.22776,1.17041c1.4872,0.18459 1.98736,-0.54685 3.32403,-0.8237c1.03199,-0.21375 2.3826,-0.01338 3.44821,-0.01338c1.34937,0 3.05257,1.55902 4.36653,1.01815c3.24907,-1.33742 6.42625,-0.68481 9.9668,-0.68481c0.77544,0 1.21492,-0.03953 1.88635,0.38418l0.43844,0.14148c0,0 0.47434,0.15812 0.31623,0.63246z"/></g><g fill="#000000" stroke="none" stroke-width="1" stroke-linecap="square"><path d="M231.34058,216.31304c0,-0.49165 -0.1337,-0.86687 -0.40109,-1.12563c-0.26307,-0.26307 -0.7418,-0.51753 -1.43616,-0.76337c-0.69005,-0.24583 -1.21835,-0.5046 -1.58495,-0.7763c-0.36658,-0.2717 -0.64045,-0.58221 -0.82158,-0.93155c-0.18114,-0.34934 -0.2717,-0.74827 -0.2717,-1.19679c0,-0.7763 0.25876,-1.41459 0.7763,-1.91487c0.52185,-0.5046 1.20111,-0.7569 2.03779,-0.7569c0.57792,0 1.09114,0.12939 1.53966,0.38815c0.44853,0.25876 0.79355,0.61673 1.03507,1.07388c0.24583,0.45715 0.36875,0.95959 0.36875,1.50731h-1.24208c0,-0.6081 -0.14663,-1.07819 -0.4399,-1.41028c-0.28896,-0.33208 -0.70946,-0.49813 -1.26149,-0.49813c-0.49597,0 -0.88196,0.14017 -1.15799,0.4205c-0.2717,0.27602 -0.40756,0.66632 -0.40756,1.17092c0,0.41403 0.14663,0.76121 0.4399,1.04154c0.29759,0.27602 0.7569,0.524 1.37794,0.74395c0.96606,0.31914 1.65611,0.71376 2.07013,1.18386c0.41833,0.46578 0.62751,1.07604 0.62751,1.83078c0,0.79355 -0.25876,1.42969 -0.7763,1.9084c-0.51753,0.47871 -1.22051,0.71807 -2.10895,0.71807c-0.56929,0 -1.09545,-0.12507 -1.57848,-0.3752c-0.48304,-0.25013 -0.86256,-0.59947 -1.13857,-1.048c-0.27602,-0.45284 -0.41403,-0.97253 -0.41403,-1.55906h1.23561c0,0.6081 0.1682,1.08035 0.5046,1.41675c0.34071,0.3364 0.80433,0.5046 1.39087,0.5046c0.54341,0 0.95097,-0.138 1.22267,-0.41403c0.27602,-0.28033 0.41403,-0.65985 0.41403,-1.13857zM235.59753,209.73389v1.76608h1.09975v0.96391h-1.09975v4.52195c0,0.28896 0.04744,0.50675 0.14233,0.65338c0.09488,0.14663 0.2566,0.21995 0.48518,0.21995c0.15526,0 0.31483,-0.02587 0.47871,-0.07762l-0.01294,1.00919c-0.2717,0.09058 -0.54772,0.13586 -0.82805,0.13586c-0.47441,0 -0.83452,-0.1682 -1.08035,-0.5046c-0.24583,-0.3364 -0.36875,-0.81295 -0.36875,-1.42969v-4.52842h-1.1127v-0.96391h1.1127v-1.76608zM241.86686,218.79073c-0.07332,-0.15526 -0.12507,-0.4205 -0.15526,-0.79571c-0.42266,0.62104 -0.96175,0.93155 -1.61729,0.93155c-0.65985,0 -1.17523,-0.18545 -1.54612,-0.55635c-0.37091,-0.37091 -0.55635,-0.89274 -0.55635,-1.56553c0,-0.7418 0.25013,-1.33048 0.75043,-1.76608c0.5046,-0.43559 1.19464,-0.65769 2.07013,-0.66632h0.8798v-0.7763c0,-0.43559 -0.09704,-0.74395 -0.29112,-0.92508c-0.19408,-0.18545 -0.4895,-0.27817 -0.88627,-0.27817c-0.35797,0 -0.64908,0.10782 -0.87333,0.32345c-0.22427,0.21132 -0.3364,0.48087 -0.3364,0.80865h-1.19679c0,-0.3752 0.10997,-0.73101 0.32992,-1.06741c0.22427,-0.34071 0.52185,-0.6081 0.89274,-0.80218c0.37091,-0.19408 0.78708,-0.29112 1.24855,-0.29112c0.74611,0 1.31324,0.18545 1.70139,0.55635c0.38815,0.37091 0.58654,0.91216 0.59516,1.62376v3.67449c0.00431,0.56498 0.07979,1.05231 0.22642,1.46203v0.10997zM240.27545,217.83975c0.28896,0 0.56498,-0.07979 0.82805,-0.23936c0.26739,-0.16389 0.46362,-0.36658 0.5887,-0.6081v-1.7402h-0.67926c-0.56498,0.00863 -1.01134,0.13586 -1.33911,0.38168c-0.32777,0.24583 -0.49165,0.5887 -0.49165,1.0286c0,0.41403 0.08195,0.71376 0.24583,0.89921c0.1682,0.18545 0.45068,0.27817 0.84746,0.27817zM247.73255,212.61914c-0.1682,-0.03018 -0.34718,-0.04528 -0.53693,-0.04528c-0.61241,0 -1.03937,0.33424 -1.28089,1.00272v5.21414h-1.19679v-7.29075h1.16445l0.01941,0.74395c0.31914,-0.58654 0.76983,-0.8798 1.35205,-0.8798c0.18975,0 0.34718,0.03234 0.47225,0.09704zM250.81795,209.73389v1.76608h1.09975v0.96391h-1.09975v4.52195c0,0.28896 0.04744,0.50675 0.14233,0.65338c0.09488,0.14663 0.2566,0.21995 0.48518,0.21995c0.15526,0 0.31483,-0.02587 0.47871,-0.07762l-0.01294,1.00919c-0.2717,0.09058 -0.54772,0.13586 -0.82805,0.13586c-0.47441,0 -0.83452,-0.1682 -1.08035,-0.5046c-0.24583,-0.3364 -0.36875,-0.81295 -0.36875,-1.42969v-4.52842h-1.1127v-0.96391h1.1127v-1.76608z"/><path d="M222.32651,231.38618h-1.72726v3.9656h-1.23561v-9.80725h2.74292c0.96175,0 1.68845,0.25013 2.1801,0.75043c0.49597,0.50028 0.74395,1.23345 0.74395,2.19952c0,0.60378 -0.1337,1.1321 -0.40109,1.58495c-0.26307,0.45284 -0.64045,0.79355 -1.1321,1.02213l1.90193,4.17261v0.07762h-1.32619zM220.59924,230.32523h1.49437c0.51753,0 0.92941,-0.16604 1.23561,-0.49813c0.31051,-0.33208 0.46578,-0.7763 0.46578,-1.33264c0,-1.25933 -0.57145,-1.88899 -1.71433,-1.88899h-1.48144zM229.12634,235.48762c-0.91,0 -1.60866,-0.26955 -2.09601,-0.80865c-0.48304,-0.54341 -0.72886,-1.33911 -0.73748,-2.38711v-0.8798c0,-1.08682 0.2372,-1.93858 0.71162,-2.55533c0.47441,-0.62104 1.13642,-0.93155 1.98604,-0.93155c0.85393,0 1.49007,0.2717 1.9084,0.81512c0.42266,0.54341 0.6383,1.39087 0.64691,2.54238v0.78277h-4.0691v0.1682c0,0.78061 0.14663,1.3499 0.4399,1.70786c0.29759,0.35365 0.72239,0.53046 1.27442,0.53046c0.34934,0 0.65769,-0.06685 0.92508,-0.20054c0.26739,-0.1337 0.51753,-0.34502 0.75043,-0.63398l0.62104,0.7569c-0.51753,0.72886 -1.30462,1.09329 -2.36124,1.09329zM228.99048,228.95377c-0.49597,0 -0.86256,0.17036 -1.09975,0.51107c-0.2372,0.3364 -0.37305,0.8604 -0.40756,1.57201h2.87231v-0.16173c-0.03018,-0.69005 -0.15526,-1.1817 -0.3752,-1.47497c-0.21564,-0.29759 -0.54556,-0.44637 -0.98977,-0.44637zM236.73279,235.35178c-0.07332,-0.15526 -0.12507,-0.4205 -0.15526,-0.79571c-0.42266,0.62104 -0.96175,0.93155 -1.61729,0.93155c-0.65985,0 -1.17523,-0.18545 -1.54612,-0.55635c-0.37091,-0.37091 -0.55635,-0.89274 -0.55635,-1.56553c0,-0.7418 0.25013,-1.33048 0.75043,-1.76608c0.5046,-0.43559 1.19464,-0.65769 2.07013,-0.66632h0.8798v-0.7763c0,-0.43559 -0.09704,-0.74395 -0.29112,-0.92508c-0.19408,-0.18545 -0.4895,-0.27817 -0.88627,-0.27817c-0.35797,0 -0.64908,0.10782 -0.87333,0.32345c-0.22427,0.21132 -0.3364,0.48087 -0.3364,0.80865h-1.19679c0,-0.3752 0.10997,-0.73101 0.32992,-1.06741c0.22427,-0.34071 0.52185,-0.6081 0.89274,-0.80218c0.37091,-0.19408 0.78708,-0.29112 1.24855,-0.29112c0.74611,0 1.31324,0.18545 1.70139,0.55635c0.38815,0.37091 0.58654,0.91216 0.59516,1.62376v3.67449c0.00431,0.56498 0.07979,1.05231 0.22642,1.46203v0.10997zM235.14139,234.4008c0.28896,0 0.56498,-0.07979 0.82805,-0.23936c0.26739,-0.16389 0.46362,-0.36658 0.5887,-0.6081v-1.7402h-0.67926c-0.56498,0.00863 -1.01134,0.13586 -1.33911,0.38168c-0.32777,0.24583 -0.49165,0.5887 -0.49165,1.0286c0,0.41403 0.08195,0.71376 0.24583,0.89921c0.1682,0.18545 0.45068,0.27817 0.84746,0.27817zM242.11977,234.47197c0.39677,0 0.71376,-0.12291 0.95097,-0.36875c0.2372,-0.24583 0.36658,-0.59516 0.38815,-1.048h1.12563c-0.02587,0.69868 -0.27386,1.27873 -0.74395,1.7402c-0.4701,0.46147 -1.0437,0.6922 -1.72079,0.6922c-0.90137,0 -1.58926,-0.28464 -2.06366,-0.85393c-0.47441,-0.56929 -0.71162,-1.41459 -0.71162,-2.53591v-0.80218c0,-1.09975 0.23505,-1.93644 0.70515,-2.51003c0.47441,-0.5736 1.16229,-0.8604 2.06366,-0.8604c0.74611,0 1.33695,0.2372 1.77254,0.71162c0.4399,0.4701 0.67279,1.11485 0.69868,1.93429h-1.12563c-0.02587,-0.53909 -0.15526,-0.94234 -0.38815,-1.20974c-0.22858,-0.2717 -0.54772,-0.40756 -0.95744,-0.40756c-0.53046,0 -0.92508,0.17467 -1.18386,0.524c-0.25446,0.34502 -0.38599,0.91431 -0.39462,1.70786v0.93155c0,0.85824 0.12723,1.46634 0.38168,1.82431c0.25446,0.35365 0.65554,0.53046 1.20327,0.53046zM247.52323,226.29496v1.76608h1.09975v0.96391h-1.09975v4.52195c0,0.28896 0.04744,0.50675 0.14233,0.65338c0.09488,0.14663 0.2566,0.21995 0.48518,0.21995c0.15526,0 0.31483,-0.02587 0.47871,-0.07762l-0.01294,1.00919c-0.2717,0.09058 -0.54772,0.13586 -0.82805,0.13586c-0.47441,0 -0.83452,-0.1682 -1.08035,-0.5046c-0.24583,-0.3364 -0.36875,-0.81295 -0.36875,-1.42969v-4.52842h-1.1127v-0.96391h1.1127v-1.76608zM249.65336,231.36676c0,-1.05663 0.2566,-1.8933 0.76983,-2.51003c0.51322,-0.62104 1.19249,-0.93155 2.03779,-0.93155c0.84531,0 1.52457,0.30188 2.03779,0.90569c0.51753,0.59947 0.78277,1.4189 0.79571,2.45828v0.76983c0,1.05231 -0.2566,1.88683 -0.76983,2.50357c-0.51322,0.61673 -1.19679,0.92508 -2.05073,0.92508c-0.84099,0 -1.5181,-0.29759 -2.03132,-0.89274c-0.5089,-0.59947 -0.772,-1.41028 -0.78923,-2.4324zM250.84369,232.05897c0,0.75043 0.14663,1.34127 0.4399,1.77254c0.29759,0.42696 0.69436,0.64045 1.19033,0.64045c1.05231,0 1.59358,-0.75904 1.62376,-2.27715v-0.82805c0,-0.7418 -0.14879,-1.32833 -0.44637,-1.75961c-0.29327,-0.43559 -0.69005,-0.65338 -1.19033,-0.65338c-0.48734,0 -0.8798,0.2178 -1.17739,0.65338c-0.29327,0.43129 -0.4399,1.01566 -0.4399,1.75314zM259.84015,229.18019c-0.1682,-0.03018 -0.34718,-0.04528 -0.53693,-0.04528c-0.61241,0 -1.03937,0.33424 -1.28089,1.00272v5.21414h-1.19679v-7.29075h1.16445l0.01941,0.74395c0.31914,-0.58654 0.76983,-0.8798 1.35205,-0.8798c0.18975,0 0.34718,0.03234 0.47225,0.09704z"/></g></g></g></svg>