<svg version="1.1" xmlns="http://www.w3.org/2000/svg" xmlns:xlink="http://www.w3.org/1999/xlink" width="521.25001" height="95.64224" viewBox="0,0,521.25001,95.64224"><g transform="translate(13.8991,-42.28565)"><g data-paper-data="{&quot;isPaintingLayer&quot;:true}" fill="none" fill-rule="nonzero" stroke="#40d475" stroke-linejoin="miter" stroke-miterlimit="10" stroke-dasharray="" stroke-dashoffset="0" style="mix-blend-mode: normal"><path d="M-0.1491,124.17789c37.58162,-35.33781 128.49808,-63.80566 243.2699,-68.14224c139.04435,-5.2537 217.15787,24.37581 250.48011,60.04444" stroke-width="27.5" stroke-linecap="butt"/><g stroke-width="18.5" stroke-linecap="round"><path d="M61.50002,86.03564c62.5754,0 337.60255,0 400,0"/><g><path d="M3.12081,124.03565h484"/><path d="M182.1208,60.24718l-29.47706,61.78846"/><path d="M230.25994,60.58489c-3.15308,12.4089 -15.86864,62.45076 -15.86864,62.45076"/><path d="M260.94394,119.03564l0.91803,-56"/><path d="M307.32434,118.03565l-7.83186,-59"/><path d="M334.12081,55.44105l23.56311,65.59459"/><path d="M408.31772,122.49398l-47.19692,-56.36299"/><path d="M136.1208,63.89279l-50.8421,59.14285"/></g></g></g></g></svg>