<svg version="1.1" xmlns="http://www.w3.org/2000/svg" xmlns:xlink="http://www.w3.org/1999/xlink" width="57.1599" height="57.39405" viewBox="0,0,57.1599,57.39405"><g transform="translate(-212.25,-292.71428)"><g stroke-miterlimit="10"><path d="M269.4099,324.70821c0,14.02811 -11.57879,25.40013 -25.86195,25.40013c-14.28316,0 -25.86195,-11.37203 -25.86195,-25.40013c0,-14.02811 11.57879,-25.40013 25.86195,-25.40013c14.28316,0 25.86195,11.37203 25.86195,25.40013z" fill="#430909" stroke="none" stroke-width="0"/><path d="M266,320c0,14.10299 -11.6406,25.53571 -26,25.53571c-14.3594,0 -26,-11.43273 -26,-25.53571c0,-14.10299 11.6406,-25.53571 26,-25.53571c14.3594,0 26,11.43273 26,25.53571z" fill="#711010" stroke="#ff0000" stroke-width="3.5"/><text transform="translate(231,331.54562) scale(0.76237,0.76237)" font-size="40" xml:space="preserve" fill="#ff0000" stroke="none" stroke-width="1" font-family="&quot;VCR_OSD_MONO_1&quot;, Pixel" font-weight="normal" text-anchor="start"><tspan x="0" dy="0">X</tspan></text></g></g></svg>