<svg version="1.1" xmlns="http://www.w3.org/2000/svg" xmlns:xlink="http://www.w3.org/1999/xlink" width="39.12783" height="78.56545" viewBox="0,0,39.12783,78.56545"><g transform="translate(-219.21106,-298.72668)"><g data-paper-data="{&quot;isPaintingLayer&quot;:true}" fill-rule="nonzero" stroke-linejoin="miter" stroke-miterlimit="10" stroke-dasharray="" stroke-dashoffset="0" style="mix-blend-mode: normal"><path d="M222.25112,340.72668v-41.25h25.5l9.25,9.5v31.75z" fill="#ffffff" stroke="#63747e" stroke-width="1.5" stroke-linecap="butt"/><path d="M257.24888,309.4788l-12.57165,1.97223l2.29167,-12.17771" fill="#d2d9dc" stroke="none" stroke-width="0" stroke-linecap="butt"/><path d="M256.58222,308.81214h-8.96054v-8.99715" fill="#ffffff" stroke="#63747e" stroke-width="1.5" stroke-linecap="butt"/><path d="M222.25112,340.72668v-41.25h25.5l9.25,9.5v31.75z" fill="none" stroke="#63747e" stroke-width="1.5" stroke-linecap="butt"/><g fill="#96a5b3" stroke="none" stroke-width="0.5" stroke-linecap="butt"><path d="M244.95502,305.31214c0,0.5 -0.5,0.5 -0.5,0.5h-0.16667c-3.79183,0 -7.65339,0.32688 -11.4199,0.32688c-2.4423,0.815 -3.4543,-0.72545 -5.33334,-0.66667c-0.62052,0.01941 -1.10416,1.4282 -2.32685,1.16667c-0.95908,-0.20515 -0.9596,-0.69816 -1.22758,-1.50211c0,0 -0.15811,-0.47434 0.31623,-0.63245c0.47434,-0.15811 0.63245,0.31623 0.63245,0.31623c0.63278,1.89834 1.97607,-0.45505 3.52566,-0.34189c1.62016,0.11832 2.02164,1.41616 4.25324,0.67312c3.82055,0 7.73456,-0.33979 11.58009,-0.33979h0.16667c0,0 0.5,0 0.5,0.5z"/><path d="M250.78835,313.47881c0,0.5 -0.5,0.5 -0.5,0.5c-0.5,0 -1.16666,0 -1.66666,0c-1.87022,0 -5.79416,-0.8343 -7.47532,-0.03806c-1.53829,0.72857 -3.38163,1.4651 -5.22695,0.99532c-2.09682,-1.3837 -7.17216,-0.95726 -9.63106,-0.95726c0,0 -0.5,0 -0.5,-0.5c0,-0.5 0.5,-0.5 0.5,-0.5c2.57189,0 7.86218,-0.42197 10.03561,1.04274c1.58395,0.38483 3.13779,-0.48884 4.43972,-1.00468c2.02662,-0.80297 5.70672,-0.03806 7.85801,-0.03806c0.5,0 1,0 1.5,0h0.16666c0,0 0.5,0 0.5,0.5z"/><path d="M251.45502,320.64548c0,0.5 -0.5,0.5 -0.5,0.5l0.08269,-0.22265c-1.10098,1.53099 -2.87977,1.2235 -4.58974,1.22265c-3.36903,-0.00169 -6.68433,-0.49999 -10.15962,-0.49999c-1.96434,0 -3.65652,-0.39828 -5.56109,-0.67042c-1.64756,-0.23542 -3.59053,0.49966 -5.04959,-0.41356c0,0 -0.41603,-0.27735 -0.13868,-0.69338c0.27735,-0.41603 0.69338,-0.13868 0.69338,-0.13868c0.81576,0.60107 2.54824,0.24936 3.55598,0.24936c2.17516,0 4.27026,0.66667 6.5,0.66667c3.4692,0 6.79776,0.49976 10.15991,0.49999c1.18321,0.00008 3.07265,0.40108 3.7574,-0.77734l0.74936,-0.22265c0,0 0.5,0 0.5,0.5z"/><path d="M250.6419,329.1657c-0.35356,0.35356 -0.70711,0 -0.70711,0l0.02022,-0.18689c-2.31978,0 -4.42356,0.71996 -6.58658,0.99354c-3.06613,0.38781 -5.00935,-0.66021 -7.91342,-0.66021c-3.50986,0 -7.00186,-0.16666 -10.5,-0.16666c0,0 -0.5,0 -0.5,-0.5c0,-0.5 0.5,-0.5 0.5,-0.5c3.50232,0 6.98747,0.16666 10.5,0.16666c2.96768,0 4.70669,0.94873 7.75324,0.67313c2.18492,-0.19766 4.39822,-1.00646 6.74676,-1.00646l0.68688,0.47978c0,0 0.35356,0.35356 0,0.70711z"/><path d="M252.42936,336.97026c-0.15812,0.47434 -0.63245,0.31623 -0.63245,0.31623l-0.56156,-0.19185c-0.53231,-0.38049 -0.81016,-0.28249 -1.44699,-0.28249c-2.14112,0 -5.59662,-0.85747 -7.57211,-0.34235c-0.99277,0.25887 -1.74277,1.03643 -2.78111,1.00863c-1.51927,-0.04068 -2.56441,-0.99961 -3.9801,-0.99961c-2.40528,0 -4.61391,1.18482 -6.89443,0.82959c-1.63227,-0.25425 -2.33424,-1.16292 -4.10557,-1.16292c0,0 -0.5,0 -0.5,-0.5c0,-0.5 0.5,-0.5 0.5,-0.5c1.7396,0 2.69956,0.98073 4.22776,1.17041c1.4872,0.18459 1.98736,-0.54685 3.32403,-0.8237c1.03199,-0.21375 2.3826,-0.01338 3.44821,-0.01338c1.34937,0 3.05257,1.55902 4.36653,1.01815c3.24907,-1.33742 6.42625,-0.68481 9.9668,-0.68481c0.77544,0 1.21492,-0.03954 1.88635,0.38417l0.43844,0.14148c0,0 0.47434,0.15812 0.31623,0.63246z"/></g><path d="M230.53878,356.3305c-0.05705,1.10843 -0.37084,1.96014 -0.94135,2.5551c-0.57052,0.58682 -1.37332,0.88022 -2.4084,0.88022c-1.03508,0 -1.86233,-0.39529 -2.48175,-1.18586c-0.61127,-0.79057 -0.91691,-1.86641 -0.91691,-3.2275v-1.88271c0,-1.34479 0.31379,-2.4084 0.94136,-3.19082c0.63572,-0.79057 1.49557,-1.18586 2.57955,-1.18586c1.00248,0 1.77676,0.30156 2.32282,0.90468c0.55422,0.60312 0.85578,1.46297 0.90468,2.57955h-1.32034c-0.05705,-0.84762 -0.23636,-1.45075 -0.53791,-1.80936c-0.29341,-0.35861 -0.74983,-0.53791 -1.36925,-0.53791c-0.70907,0 -1.25513,0.27711 -1.63819,0.83133c-0.37491,0.54606 -0.56237,1.35702 -0.56237,2.43285v1.89493c0,1.05138 0.17523,1.85826 0.52569,2.42063c0.35861,0.56236 0.87615,0.84355 1.55262,0.84355c0.68462,0 1.17364,-0.16708 1.46705,-0.50124c0.30156,-0.34231 0.48901,-0.9495 0.56236,-1.82158zM233.38571,352.69957c0.48086,-0.61942 1.09621,-0.92913 1.84603,-0.92913c1.36109,0 2.04978,0.90875 2.06608,2.72626v5.12243h-1.24698v-5.07353c0,-0.60312 -0.10188,-1.03101 -0.30563,-1.28367c-0.20376,-0.25266 -0.50531,-0.37899 -0.90467,-0.37899c-0.31786,0 -0.60313,0.10595 -0.85578,0.31786c-0.24451,0.20376 -0.44419,0.47679 -0.59904,0.8191v5.59922h-1.25921v-10.95393h1.25921zM243.14884,359.61913c-0.0815,-0.163 -0.13856,-0.44419 -0.17116,-0.84355c-0.44826,0.66017 -1.01878,0.99025 -1.71155,0.99025c-0.69277,0 -1.23884,-0.19561 -1.6382,-0.58682c-0.39121,-0.39936 -0.58682,-0.95358 -0.58682,-1.66265c0,-0.78242 0.26489,-1.40184 0.79465,-1.85826c0.53791,-0.46456 1.27143,-0.70092 2.20056,-0.70907h0.92912v-0.8191c0,-0.46456 -0.10594,-0.79465 -0.31785,-0.99025c-0.20376,-0.19561 -0.51347,-0.29341 -0.92913,-0.29341c-0.38306,0 -0.69277,0.1141 -0.92913,0.34231c-0.23636,0.22821 -0.35453,0.51347 -0.35453,0.85578h-1.25921c0,-0.39121 0.11411,-0.76613 0.34231,-1.12474c0.23636,-0.35861 0.55014,-0.63979 0.94135,-0.84355c0.39936,-0.20376 0.83947,-0.30563 1.32034,-0.30563c0.79057,0 1.38962,0.19561 1.79713,0.58682c0.41566,0.39121 0.62757,0.96173 0.63572,1.71155v3.88767c0.00815,0.59497 0.08965,1.1125 0.24451,1.55262v0.11003zM241.46174,358.61665c0.30971,0 0.60312,-0.08558 0.88023,-0.25673c0.28526,-0.17115 0.49309,-0.38714 0.62349,-0.64794v-1.83381h-0.72129c-0.59497,0.00815 -1.06768,0.14263 -1.41814,0.40344c-0.34231,0.26081 -0.51347,0.6235 -0.51347,1.08806c0,0.43196 0.08558,0.74982 0.25674,0.95358c0.1793,0.19561 0.47679,0.29341 0.89245,0.29341zM249.35849,353.09078c-0.1793,-0.0326 -0.37084,-0.0489 -0.57459,-0.0489c-0.64387,0 -1.0962,0.35453 -1.35701,1.0636v5.51364h-1.25922v-7.71421h1.22254l0.02445,0.78242c0.33416,-0.61127 0.81095,-0.9169 1.43036,-0.9169c0.20376,0 0.37083,0.0326 0.50124,0.0978zM252.61507,350.03444v1.87048h1.16141v1.02693h-1.16141v4.78012c0,0.30156 0.0489,0.53384 0.1467,0.69684c0.10595,0.15485 0.27711,0.23228 0.51347,0.23228c0.17115,0 0.34231,-0.02853 0.51346,-0.08558l-0.01223,1.06361c-0.28526,0.0978 -0.57867,0.1467 -0.88023,0.1467c-0.49716,0 -0.87615,-0.1793 -1.13696,-0.53791c-0.26081,-0.35861 -0.39121,-0.86392 -0.39121,-1.51594v-4.78012h-1.18586v-1.02693h1.18586v-1.87048z" fill="#000000" stroke="none" stroke-width="1" stroke-linecap="square"/><path d="M225.95947,373.85679c-0.05705,1.10843 -0.37084,1.96014 -0.94136,2.5551c-0.57052,0.58682 -1.37331,0.88023 -2.40839,0.88023c-1.03508,0 -1.86234,-0.39529 -2.48175,-1.18587c-0.61127,-0.79057 -0.91691,-1.86641 -0.91691,-3.2275v-1.8827c0,-1.34479 0.31379,-2.4084 0.94136,-3.19082c0.63572,-0.79057 1.49557,-1.18586 2.57955,-1.18586c1.00248,0 1.77676,0.30156 2.32282,0.90468c0.55422,0.60312 0.85578,1.46296 0.90468,2.57955h-1.32034c-0.05705,-0.84762 -0.23636,-1.45074 -0.53792,-1.80935c-0.29341,-0.35861 -0.74983,-0.53791 -1.36924,-0.53791c-0.70907,0 -1.25513,0.27711 -1.6382,0.83132c-0.37491,0.54606 -0.56236,1.35702 -0.56236,2.43285v1.89493c0,1.05138 0.17523,1.85826 0.52569,2.42063c0.35861,0.56236 0.87616,0.84355 1.55263,0.84355c0.68462,0 1.17363,-0.16708 1.46704,-0.50124c0.30156,-0.34231 0.48902,-0.9495 0.56237,-1.82158zM227.27823,372.92765c0,-1.11658 0.27303,-2.00088 0.8191,-2.6529c0.54606,-0.65202 1.26329,-0.97803 2.15167,-0.97803c0.89653,0 1.61782,0.31786 2.16389,0.95358c0.54606,0.63572 0.82318,1.49964 0.83133,2.59178v0.8191c0,1.11658 -0.27304,2.00089 -0.8191,2.65291c-0.53791,0.65202 -1.25513,0.97803 -2.15166,0.97803c-0.89653,0 -1.61375,-0.31378 -2.15167,-0.94135c-0.53791,-0.63572 -0.8191,-1.49558 -0.84355,-2.57955zM228.54967,373.66118c0,0.79057 0.15486,1.41406 0.46457,1.87048c0.30971,0.45641 0.72944,0.68462 1.25921,0.68462c1.10843,0 1.67896,-0.8028 1.71156,-2.4084v-0.88023c0,-0.78242 -0.15893,-1.40184 -0.47679,-1.85825c-0.30971,-0.46456 -0.72537,-0.69684 -1.24699,-0.69684c-0.52161,0 -0.93727,0.23228 -1.24698,0.69684c-0.30971,0.45641 -0.46457,1.07583 -0.46457,1.85825zM238.81082,376.47302c-0.42381,0.54606 -1.03508,0.8191 -1.8338,0.8191c-0.70092,0 -1.23069,-0.24043 -1.5893,-0.7213c-0.35046,-0.48901 -0.52976,-1.19401 -0.53791,-2.11499v-5.02463h1.25922v4.93905c0,1.19808 0.35861,1.79713 1.07583,1.79713c0.76612,0 1.29589,-0.34231 1.5893,-1.02693v-5.70925h1.25921v7.71421h-1.19809zM245.1213,370.61706c-0.1793,-0.0326 -0.37083,-0.0489 -0.57459,-0.0489c-0.64387,0 -1.09621,0.35453 -1.35702,1.0636v5.51364h-1.25921v-7.71421h1.22254l0.02445,0.78243c0.33416,-0.61127 0.81095,-0.91691 1.43037,-0.91691c0.20376,0 0.37083,0.0326 0.50124,0.0978zM250.12408,375.17713c0,-0.27711 -0.10595,-0.51346 -0.31786,-0.70907c-0.20376,-0.19561 -0.59497,-0.42381 -1.17363,-0.68462c-0.68462,-0.27711 -1.16548,-0.51347 -1.44259,-0.70907c-0.27711,-0.20376 -0.48494,-0.43196 -0.6235,-0.68462c-0.13855,-0.25266 -0.20783,-0.55421 -0.20783,-0.90467c0,-0.62757 0.22821,-1.14919 0.68462,-1.56485c0.46456,-0.41566 1.05138,-0.62349 1.76045,-0.62349c0.74982,0 1.35294,0.22006 1.80935,0.66017c0.45641,0.43196 0.68462,0.99026 0.68462,1.67488h-1.24699c0,-0.35046 -0.11818,-0.64794 -0.35453,-0.89245c-0.22821,-0.24451 -0.52569,-0.36676 -0.89245,-0.36676c-0.36676,0 -0.65609,0.0978 -0.868,0.29341c-0.21191,0.18745 -0.31786,0.44419 -0.31786,0.7702c0,0.25266 0.07743,0.46049 0.23228,0.62349c0.15485,0.15485 0.52569,0.35862 1.1125,0.61127c0.93727,0.36676 1.573,0.72537 1.90716,1.07583c0.34231,0.35046 0.51346,0.79465 0.51346,1.33256c0,0.66832 -0.23228,1.20624 -0.69684,1.61375c-0.45641,0.39936 -1.07176,0.59904 -1.84603,0.59904c-0.80687,0 -1.4589,-0.22821 -1.95606,-0.68463c-0.49716,-0.46456 -0.74575,-1.05138 -0.74575,-1.76045h1.25922c0.0163,0.42381 0.1467,0.75797 0.39121,1.00248c0.25266,0.24451 0.60312,0.36676 1.05138,0.36676c0.41566,0 0.73352,-0.09373 0.95358,-0.28119c0.22006,-0.18745 0.33008,-0.44011 0.33008,-0.75797zM255.78378,377.29212c-0.96173,0 -1.69933,-0.28527 -2.21279,-0.85578c-0.51346,-0.57867 -0.77427,-1.42222 -0.78242,-2.53065v-0.92912c0,-1.14918 0.24858,-2.04979 0.74575,-2.70181c0.50531,-0.65202 1.20623,-0.97803 2.10276,-0.97803c0.90467,0 1.57708,0.28934 2.01719,0.86801c0.44826,0.57052 0.67647,1.46296 0.68462,2.67736v0.8191h-4.30333v0.18338c0,0.83132 0.15486,1.43445 0.46457,1.80936c0.31786,0.37491 0.76612,0.56236 1.34479,0.56236c0.37491,0 0.70092,-0.06928 0.97803,-0.20783c0.28526,-0.1467 0.55421,-0.37084 0.80687,-0.6724l0.64794,0.79465c-0.54606,0.77427 -1.37739,1.16141 -2.49397,1.16141zM255.63708,370.37256c-0.52161,0 -0.90876,0.1793 -1.16141,0.53791c-0.25266,0.35861 -0.39529,0.9169 -0.42789,1.67487h3.03189v-0.17115c-0.0326,-0.73352 -0.163,-1.25513 -0.39121,-1.56484c-0.22821,-0.31786 -0.57867,-0.47679 -1.05138,-0.47679z" fill="#000000" stroke="none" stroke-width="1" stroke-linecap="square"/></g></g></svg>