<svg version="1.1" xmlns="http://www.w3.org/2000/svg" xmlns:xlink="http://www.w3.org/1999/xlink" width="97.38964" height="295.00656" viewBox="0,0,97.38964,295.00656"><g transform="translate(-138.05379,-56.31796)"><g data-paper-data="{&quot;isPaintingLayer&quot;:true}" fill="#000000" fill-rule="nonzero" stroke="none" stroke-width="1" stroke-linecap="square" stroke-linejoin="miter" stroke-miterlimit="10" stroke-dasharray="" stroke-dashoffset="0" style="mix-blend-mode: normal"><path d="M152.57667,56.86136v6.97376c-0.01294,0.92725 -0.28464,1.65395 -0.81512,2.1801c-0.52616,0.52616 -1.26365,0.78923 -2.21246,0.78923c-0.97038,0 -1.71218,-0.2566 -2.22538,-0.76983c-0.51322,-0.51753 -0.77414,-1.25071 -0.78277,-2.19952v-6.97376h1.22914v6.922c0,0.65985 0.14017,1.15366 0.4205,1.48144c0.28033,0.32345 0.73317,0.48518 1.35852,0.48518c0.62967,0 1.08466,-0.16173 1.365,-0.48518c0.28033,-0.32777 0.4205,-0.82158 0.4205,-1.48144v-6.922zM155.42782,59.37787l0.03881,0.78923c0.46147,-0.61673 1.05231,-0.92508 1.77254,-0.92508c1.2852,0 1.93858,0.8604 1.96015,2.58119v4.8454h-1.19033v-4.79364c0,-0.56929 -0.09488,-0.97253 -0.28464,-1.20974c-0.18975,-0.24152 -0.47657,-0.36228 -0.8604,-0.36228c-0.29327,0 -0.5585,0.09919 -0.79571,0.29759c-0.2372,0.19408 -0.42696,0.45068 -0.56929,0.76983v5.29824h-1.19679v-7.29075zM162.26659,66.66861h-1.19033v-10.35065h1.19033zM163.89335,62.68361c0,-1.05662 0.2566,-1.8933 0.76983,-2.51003c0.51322,-0.62104 1.19249,-0.93155 2.03779,-0.93155c0.84531,0 1.52457,0.30188 2.03779,0.90569c0.51753,0.59947 0.78277,1.4189 0.79571,2.45828v0.76983c0,1.05231 -0.2566,1.88683 -0.76983,2.50357c-0.51322,0.61673 -1.19679,0.92508 -2.05073,0.92508c-0.84099,0 -1.5181,-0.29759 -2.03132,-0.89274c-0.5089,-0.59947 -0.772,-1.41028 -0.78923,-2.4324zM165.08367,63.37581c0,0.75043 0.14663,1.34127 0.4399,1.77254c0.29759,0.42696 0.69436,0.64045 1.19033,0.64045c1.05231,0 1.59358,-0.75904 1.62376,-2.27715v-0.82805c0,-0.7418 -0.14879,-1.32833 -0.44637,-1.75961c-0.29327,-0.43559 -0.69005,-0.65338 -1.19033,-0.65338c-0.48734,0 -0.8798,0.2178 -1.17739,0.65338c-0.29327,0.43129 -0.4399,1.01566 -0.4399,1.75314zM173.6014,65.78881c0.39677,0 0.71376,-0.12291 0.95097,-0.36875c0.2372,-0.24583 0.36658,-0.59516 0.38815,-1.048h1.12563c-0.02587,0.69868 -0.27386,1.27873 -0.74395,1.7402c-0.4701,0.46147 -1.0437,0.6922 -1.72079,0.6922c-0.90137,0 -1.58926,-0.28464 -2.06366,-0.85393c-0.47441,-0.56929 -0.71162,-1.41459 -0.71162,-2.53591v-0.80218c0,-1.09975 0.23505,-1.93644 0.70515,-2.51003c0.47441,-0.5736 1.16229,-0.8604 2.06366,-0.8604c0.74611,0 1.33695,0.2372 1.77254,0.71162c0.4399,0.4701 0.67279,1.11485 0.69868,1.93429h-1.12563c-0.02587,-0.53909 -0.15526,-0.94234 -0.38815,-1.20974c-0.22858,-0.2717 -0.54772,-0.40756 -0.95744,-0.40756c-0.53046,0 -0.92508,0.17467 -1.18386,0.524c-0.25446,0.34502 -0.38599,0.91431 -0.39462,1.70786v0.93155c0,0.85824 0.12723,1.46634 0.38168,1.82431c0.25446,0.35365 0.65554,0.53046 1.20327,0.53046zM179.27657,63.33052l-0.63398,0.73101v2.60708h-1.19034v-10.35065h1.19034v6.19098l2.27068,-3.13107h1.42969l-2.32243,3.04697l2.62647,4.24377h-1.39087z"/><path d="M139.63875,73.42241l2.56178,8.00236l2.56178,-8.00236h1.59142v9.80725h-1.23561v-3.82327l0.11644,-3.82327l-2.56825,7.64655h-0.94449l-2.55533,-7.62067l0.11644,3.7974v3.82327h-1.22914v-9.80725zM152.06089,83.22968c-0.07332,-0.15526 -0.12507,-0.4205 -0.15526,-0.79571c-0.42266,0.62104 -0.96175,0.93155 -1.61729,0.93155c-0.65985,0 -1.17523,-0.18545 -1.54612,-0.55635c-0.37091,-0.37091 -0.55635,-0.89274 -0.55635,-1.56553c0,-0.7418 0.25013,-1.33048 0.75043,-1.76608c0.5046,-0.43559 1.19464,-0.65769 2.07013,-0.66632h0.8798v-0.7763c0,-0.43559 -0.09704,-0.74395 -0.29112,-0.92508c-0.19408,-0.18545 -0.4895,-0.27817 -0.88627,-0.27817c-0.35797,0 -0.64908,0.10782 -0.87333,0.32345c-0.22427,0.21132 -0.3364,0.48087 -0.3364,0.80865h-1.19679c0,-0.3752 0.10997,-0.73101 0.32992,-1.06741c0.22427,-0.34071 0.52185,-0.6081 0.89274,-0.80218c0.37091,-0.19408 0.78708,-0.29112 1.24855,-0.29112c0.74611,0 1.31324,0.18545 1.70139,0.55635c0.38815,0.37091 0.58654,0.91216 0.59516,1.62376v3.67449c0.00431,0.56498 0.07979,1.05231 0.22642,1.46203v0.10997zM150.46947,82.2787c0.28896,0 0.56498,-0.07979 0.82805,-0.23936c0.26739,-0.16389 0.46362,-0.36658 0.5887,-0.6081v-1.7402h-0.67926c-0.56498,0.00863 -1.01134,0.13586 -1.33911,0.38168c-0.32777,0.24583 -0.49165,0.5887 -0.49165,1.0286c0,0.41403 0.08195,0.71376 0.24583,0.89921c0.1682,0.18545 0.45068,0.27817 0.84746,0.27817zM156.03759,75.93893l0.03881,0.78923c0.46147,-0.61673 1.05231,-0.92508 1.77254,-0.92508c1.2852,0 1.93858,0.8604 1.96015,2.58119v4.8454h-1.19033v-4.79365c0,-0.56929 -0.09488,-0.97253 -0.28464,-1.20974c-0.18975,-0.24152 -0.47657,-0.36228 -0.8604,-0.36228c-0.29327,0 -0.5585,0.09919 -0.79571,0.29759c-0.2372,0.19408 -0.42696,0.45068 -0.56929,0.76983v5.29824h-1.19679v-7.29075zM162.87633,83.22968h-1.19033v-7.29075h1.19033zM162.97337,74.00464c0,0.20271 -0.05606,0.37305 -0.1682,0.51107c-0.11213,0.1337 -0.28249,0.20054 -0.51107,0.20054c-0.22427,0 -0.39246,-0.06685 -0.5046,-0.20054c-0.11213,-0.138 -0.1682,-0.30835 -0.1682,-0.51107c0,-0.20271 0.05606,-0.37305 0.1682,-0.51107c0.11213,-0.138 0.28033,-0.20701 0.5046,-0.20701c0.22427,0 0.39246,0.07116 0.5046,0.21348c0.11644,0.138 0.17467,0.30621 0.17467,0.5046zM165.27941,83.22968v-6.32684h-0.95097v-0.96391h0.95097v-0.84099c0.01294,-0.7418 0.20054,-1.31972 0.56282,-1.73374c0.36228,-0.41833 0.87333,-0.62751 1.5332,-0.62751c0.2372,0 0.47657,0.03881 0.71807,0.11644l-0.05822,1.00919c-0.17251,-0.03881 -0.35581,-0.05822 -0.54988,-0.05822c-0.67711,0 -1.01566,0.48304 -1.01566,1.44909v0.68573h1.24855v0.96391h-1.24855v6.32684zM168.86911,79.24466c0,-1.05663 0.2566,-1.8933 0.76983,-2.51003c0.51322,-0.62104 1.19249,-0.93155 2.03779,-0.93155c0.84531,0 1.52457,0.30188 2.03779,0.90569c0.51753,0.59947 0.78277,1.4189 0.79571,2.45828v0.76983c0,1.05231 -0.2566,1.88683 -0.76983,2.50357c-0.51322,0.61673 -1.19679,0.92508 -2.05073,0.92508c-0.84099,0 -1.5181,-0.29759 -2.03132,-0.89274c-0.5089,-0.59947 -0.772,-1.41028 -0.78923,-2.4324zM170.05944,79.93687c0,0.75043 0.14663,1.34127 0.4399,1.77254c0.29759,0.42696 0.69436,0.64045 1.19033,0.64045c1.05231,0 1.59358,-0.75904 1.62376,-2.27715v-0.82805c0,-0.7418 -0.14879,-1.32833 -0.44637,-1.75961c-0.29327,-0.43559 -0.69005,-0.65338 -1.19033,-0.65338c-0.48734,0 -0.8798,0.2178 -1.17739,0.65338c-0.29327,0.43129 -0.4399,1.01566 -0.4399,1.75314zM177.32861,83.22968h-1.19033v-10.35065h1.19033zM178.95539,79.2576c0,-1.12563 0.20917,-1.98172 0.62751,-2.56825c0.42266,-0.59084 1.02644,-0.88627 1.81136,-0.88627c0.69436,0 1.23777,0.28249 1.63023,0.84746v-3.77152h1.19033v10.35065h-1.08682l-0.06469,-0.78277c-0.38815,0.61241 -0.94665,0.91863 -1.67551,0.91863c-0.75474,0 -1.34774,-0.29327 -1.77903,-0.8798c-0.42696,-0.58654 -0.64475,-1.41459 -0.65338,-2.48416zM180.14572,79.93687c0,0.81512 0.12076,1.41459 0.36228,1.79843c0.24583,0.38383 0.64261,0.57576 1.19033,0.57576c0.59084,0 1.03291,-0.29759 1.32619,-0.89274v-3.68096c-0.30621,-0.58221 -0.74611,-0.87333 -1.31972,-0.87333c-0.54772,0 -0.94449,0.19192 -1.19033,0.57576c-0.24152,0.38383 -0.36444,0.97253 -0.36875,1.76608zM189.59178,81.36654c0,-0.25876 -0.09704,-0.47871 -0.29112,-0.65985c-0.18975,-0.18545 -0.56066,-0.40325 -1.1127,-0.65338c-0.64261,-0.26307 -1.09545,-0.48734 -1.35852,-0.67279c-0.26307,-0.18975 -0.46147,-0.4054 -0.59516,-0.64691c-0.12939,-0.24152 -0.19408,-0.52832 -0.19408,-0.8604c0,-0.59084 0.21564,-1.08251 0.64691,-1.47497c0.43559,-0.39677 0.99195,-0.59516 1.66904,-0.59516c0.70729,0 1.27658,0.20701 1.70786,0.62104c0.43129,0.41403 0.64691,0.94449 0.64691,1.59142h-1.18386c0,-0.32777 -0.10997,-0.60594 -0.32992,-0.83452c-0.21995,-0.23289 -0.50028,-0.34934 -0.84099,-0.34934c-0.35365,0 -0.62967,0.09058 -0.82805,0.2717c-0.19838,0.18114 -0.29759,0.42482 -0.29759,0.73101c0,0.24152 0.07116,0.43775 0.21348,0.5887c0.14663,0.14663 0.50028,0.34071 1.06094,0.58221c0.88412,0.34502 1.48574,0.68358 1.8049,1.01566c0.31914,0.32777 0.47871,0.74611 0.47871,1.25502c0,0.63398 -0.2178,1.14073 -0.65338,1.52025c-0.43559,0.37952 -1.01997,0.56929 -1.75314,0.56929c-0.75904,0 -1.37578,-0.2178 -1.85018,-0.65338c-0.4701,-0.43559 -0.70515,-0.98762 -0.70515,-1.65611h1.19679c0.01726,0.40109 0.14233,0.71807 0.3752,0.95097c0.23289,0.22858 0.56066,0.34287 0.98332,0.34287c0.39246,0 0.6922,-0.08842 0.89921,-0.26523c0.20701,-0.18114 0.31051,-0.4205 0.31051,-0.71807z"/><path d="M156.34058,97.31304c0,-0.49165 -0.1337,-0.86687 -0.40109,-1.12563c-0.26307,-0.26307 -0.7418,-0.51753 -1.43616,-0.76337c-0.69005,-0.24583 -1.21835,-0.5046 -1.58495,-0.7763c-0.36658,-0.2717 -0.64045,-0.58221 -0.82158,-0.93155c-0.18114,-0.34934 -0.2717,-0.74827 -0.2717,-1.19679c0,-0.7763 0.25876,-1.41459 0.7763,-1.91487c0.52185,-0.5046 1.20111,-0.7569 2.03779,-0.7569c0.57792,0 1.09114,0.12939 1.53966,0.38815c0.44853,0.25876 0.79355,0.61673 1.03507,1.07388c0.24583,0.45715 0.36875,0.95959 0.36875,1.50731h-1.24208c0,-0.6081 -0.14663,-1.07819 -0.4399,-1.41028c-0.28896,-0.33208 -0.70946,-0.49813 -1.26149,-0.49813c-0.49597,0 -0.88196,0.14017 -1.15799,0.4205c-0.2717,0.27602 -0.40756,0.66632 -0.40756,1.17092c0,0.41403 0.14663,0.76121 0.4399,1.04154c0.29759,0.27602 0.7569,0.524 1.37794,0.74395c0.96606,0.31914 1.65611,0.71376 2.07013,1.18386c0.41833,0.46578 0.62751,1.07604 0.62751,1.83078c0,0.79355 -0.25876,1.42969 -0.7763,1.9084c-0.51753,0.47871 -1.22051,0.71807 -2.10895,0.71807c-0.56929,0 -1.09545,-0.12507 -1.57848,-0.3752c-0.48304,-0.25013 -0.86256,-0.59947 -1.13857,-1.048c-0.27602,-0.45284 -0.41403,-0.97253 -0.41403,-1.55906h1.23561c0,0.6081 0.1682,1.08035 0.5046,1.41675c0.34071,0.3364 0.80433,0.5046 1.39087,0.5046c0.54341,0 0.95097,-0.138 1.22267,-0.41403c0.27602,-0.28033 0.41403,-0.65985 0.41403,-1.13857zM160.59753,90.73389v1.76608h1.09975v0.96391h-1.09975v4.52195c0,0.28896 0.04744,0.50675 0.14233,0.65338c0.09488,0.14663 0.2566,0.21995 0.48518,0.21995c0.15526,0 0.31483,-0.02587 0.47871,-0.07762l-0.01294,1.00919c-0.2717,0.09058 -0.54772,0.13586 -0.82805,0.13586c-0.47441,0 -0.83452,-0.1682 -1.08035,-0.5046c-0.24583,-0.3364 -0.36875,-0.81295 -0.36875,-1.42969v-4.52842h-1.1127v-0.96391h1.1127v-1.76608zM166.86686,99.79073c-0.07332,-0.15526 -0.12507,-0.4205 -0.15526,-0.79571c-0.42266,0.62104 -0.96175,0.93155 -1.61729,0.93155c-0.65985,0 -1.17523,-0.18545 -1.54612,-0.55635c-0.37091,-0.37091 -0.55635,-0.89274 -0.55635,-1.56553c0,-0.7418 0.25013,-1.33048 0.75043,-1.76608c0.5046,-0.43559 1.19464,-0.65769 2.07013,-0.66632h0.8798v-0.7763c0,-0.43559 -0.09704,-0.74395 -0.29112,-0.92508c-0.19408,-0.18545 -0.4895,-0.27817 -0.88627,-0.27817c-0.35797,0 -0.64908,0.10782 -0.87333,0.32345c-0.22427,0.21132 -0.3364,0.48087 -0.3364,0.80865h-1.19679c0,-0.3752 0.10997,-0.73101 0.32992,-1.06741c0.22427,-0.34071 0.52185,-0.6081 0.89274,-0.80218c0.37091,-0.19408 0.78708,-0.29112 1.24855,-0.29112c0.74611,0 1.31324,0.18545 1.70139,0.55635c0.38815,0.37091 0.58654,0.91216 0.59516,1.62376v3.67449c0.00431,0.56498 0.07979,1.05231 0.22642,1.46203v0.10997zM165.27545,98.83975c0.28896,0 0.56498,-0.07979 0.82805,-0.23936c0.26739,-0.16389 0.46362,-0.36658 0.5887,-0.6081v-1.7402h-0.67926c-0.56498,0.00863 -1.01134,0.13586 -1.33911,0.38168c-0.32777,0.24583 -0.49165,0.5887 -0.49165,1.0286c0,0.41403 0.08195,0.71376 0.24583,0.89921c0.1682,0.18545 0.45068,0.27817 0.84746,0.27817zM172.73255,93.61914c-0.1682,-0.03018 -0.34718,-0.04528 -0.53693,-0.04528c-0.61241,0 -1.03937,0.33424 -1.28089,1.00272v5.21414h-1.19679v-7.29075h1.16445l0.01941,0.74395c0.31914,-0.58654 0.76983,-0.8798 1.35205,-0.8798c0.18975,0 0.34718,0.03234 0.47225,0.09704zM175.81795,90.73389v1.76608h1.09975v0.96391h-1.09975v4.52195c0,0.28896 0.04744,0.50675 0.14233,0.65338c0.09488,0.14663 0.2566,0.21995 0.48518,0.21995c0.15526,0 0.31483,-0.02587 0.47871,-0.07762l-0.01294,1.00919c-0.2717,0.09058 -0.54772,0.13586 -0.82805,0.13586c-0.47441,0 -0.83452,-0.1682 -1.08035,-0.5046c-0.24583,-0.3364 -0.36875,-0.81295 -0.36875,-1.42969v-4.52842h-1.1127v-0.96391h1.1127v-1.76608z"/><path d="M147.32651,112.38618h-1.72726v3.9656h-1.23561v-9.80725h2.74292c0.96175,0 1.68845,0.25013 2.1801,0.75043c0.49597,0.50028 0.74395,1.23345 0.74395,2.19952c0,0.60378 -0.1337,1.1321 -0.40109,1.58495c-0.26307,0.45284 -0.64045,0.79355 -1.1321,1.02213l1.90193,4.17261v0.07762h-1.32619zM145.59924,111.32523h1.49437c0.51753,0 0.92941,-0.16604 1.23561,-0.49813c0.31051,-0.33208 0.46578,-0.7763 0.46578,-1.33264c0,-1.25933 -0.57145,-1.88899 -1.71433,-1.88899h-1.48144zM154.12634,116.48762c-0.91,0 -1.60866,-0.26955 -2.09601,-0.80865c-0.48304,-0.54341 -0.72886,-1.33911 -0.73748,-2.38711v-0.8798c0,-1.08682 0.2372,-1.93858 0.71162,-2.55533c0.47441,-0.62104 1.13642,-0.93155 1.98604,-0.93155c0.85393,0 1.49007,0.2717 1.9084,0.81512c0.42266,0.54341 0.6383,1.39087 0.64691,2.54238v0.78277h-4.0691v0.1682c0,0.78061 0.14663,1.3499 0.4399,1.70786c0.29759,0.35365 0.72239,0.53046 1.27442,0.53046c0.34934,0 0.65769,-0.06685 0.92508,-0.20054c0.26739,-0.1337 0.51753,-0.34502 0.75043,-0.63398l0.62104,0.7569c-0.51753,0.72886 -1.30462,1.09329 -2.36124,1.09329zM153.99048,109.95377c-0.49597,0 -0.86256,0.17036 -1.09975,0.51107c-0.2372,0.3364 -0.37305,0.8604 -0.40756,1.57201h2.87231v-0.16173c-0.03018,-0.69005 -0.15526,-1.1817 -0.3752,-1.47497c-0.21564,-0.29759 -0.54556,-0.44637 -0.98977,-0.44637zM161.73279,116.35178c-0.07332,-0.15526 -0.12507,-0.4205 -0.15526,-0.79571c-0.42266,0.62104 -0.96175,0.93155 -1.61729,0.93155c-0.65985,0 -1.17523,-0.18545 -1.54612,-0.55635c-0.37091,-0.37091 -0.55635,-0.89274 -0.55635,-1.56553c0,-0.7418 0.25013,-1.33048 0.75043,-1.76608c0.5046,-0.43559 1.19464,-0.65769 2.07013,-0.66632h0.8798v-0.7763c0,-0.43559 -0.09704,-0.74395 -0.29112,-0.92508c-0.19408,-0.18545 -0.4895,-0.27817 -0.88627,-0.27817c-0.35797,0 -0.64908,0.10782 -0.87333,0.32345c-0.22427,0.21132 -0.3364,0.48087 -0.3364,0.80865h-1.19679c0,-0.3752 0.10997,-0.73101 0.32992,-1.06741c0.22427,-0.34071 0.52185,-0.6081 0.89274,-0.80218c0.37091,-0.19408 0.78708,-0.29112 1.24855,-0.29112c0.74611,0 1.31324,0.18545 1.70139,0.55635c0.38815,0.37091 0.58654,0.91216 0.59516,1.62376v3.67449c0.00431,0.56498 0.07979,1.05231 0.22642,1.46203v0.10997zM160.14139,115.4008c0.28896,0 0.56498,-0.07979 0.82805,-0.23936c0.26739,-0.16389 0.46362,-0.36658 0.5887,-0.6081v-1.7402h-0.67926c-0.56498,0.00863 -1.01134,0.13586 -1.33911,0.38168c-0.32777,0.24583 -0.49165,0.5887 -0.49165,1.0286c0,0.41403 0.08195,0.71376 0.24583,0.89921c0.1682,0.18545 0.45068,0.27817 0.84746,0.27817zM167.11977,115.47197c0.39677,0 0.71376,-0.12291 0.95097,-0.36875c0.2372,-0.24583 0.36658,-0.59516 0.38815,-1.048h1.12563c-0.02587,0.69868 -0.27386,1.27873 -0.74395,1.7402c-0.4701,0.46147 -1.0437,0.6922 -1.72079,0.6922c-0.90137,0 -1.58926,-0.28464 -2.06366,-0.85393c-0.47441,-0.56929 -0.71162,-1.41459 -0.71162,-2.53591v-0.80218c0,-1.09975 0.23505,-1.93644 0.70515,-2.51003c0.47441,-0.5736 1.16229,-0.8604 2.06366,-0.8604c0.74611,0 1.33695,0.2372 1.77254,0.71162c0.4399,0.4701 0.67279,1.11485 0.69868,1.93429h-1.12563c-0.02587,-0.53909 -0.15526,-0.94234 -0.38815,-1.20974c-0.22858,-0.2717 -0.54772,-0.40756 -0.95744,-0.40756c-0.53046,0 -0.92508,0.17467 -1.18386,0.524c-0.25446,0.34502 -0.38599,0.91431 -0.39462,1.70786v0.93155c0,0.85824 0.12723,1.46634 0.38168,1.82431c0.25446,0.35365 0.65554,0.53046 1.20327,0.53046zM172.52323,107.29496v1.76608h1.09975v0.96391h-1.09975v4.52195c0,0.28896 0.04744,0.50675 0.14233,0.65338c0.09488,0.14663 0.2566,0.21995 0.48518,0.21995c0.15526,0 0.31483,-0.02587 0.47871,-0.07762l-0.01294,1.00919c-0.2717,0.09058 -0.54772,0.13586 -0.82805,0.13586c-0.47441,0 -0.83452,-0.1682 -1.08035,-0.5046c-0.24583,-0.3364 -0.36875,-0.81295 -0.36875,-1.42969v-4.52842h-1.1127v-0.96391h1.1127v-1.76608zM174.65336,112.36676c0,-1.05663 0.2566,-1.8933 0.76983,-2.51003c0.51322,-0.62104 1.19249,-0.93155 2.03779,-0.93155c0.84531,0 1.52457,0.30188 2.03779,0.90569c0.51753,0.59947 0.78277,1.4189 0.79571,2.45828v0.76983c0,1.05231 -0.2566,1.88683 -0.76983,2.50357c-0.51322,0.61673 -1.19679,0.92508 -2.05073,0.92508c-0.84099,0 -1.5181,-0.29759 -2.03132,-0.89274c-0.5089,-0.59947 -0.772,-1.41028 -0.78923,-2.4324zM175.84369,113.05897c0,0.75043 0.14663,1.34127 0.4399,1.77254c0.29759,0.42696 0.69436,0.64045 1.19033,0.64045c1.05231,0 1.59358,-0.75904 1.62376,-2.27715v-0.82805c0,-0.7418 -0.14879,-1.32833 -0.44637,-1.75961c-0.29327,-0.43559 -0.69005,-0.65338 -1.19033,-0.65338c-0.48734,0 -0.8798,0.2178 -1.17739,0.65338c-0.29327,0.43129 -0.4399,1.01566 -0.4399,1.75314zM184.84015,110.18019c-0.1682,-0.03018 -0.34718,-0.04528 -0.53693,-0.04528c-0.61241,0 -1.03937,0.33424 -1.28089,1.00272v5.21414h-1.19679v-7.29075h1.16445l0.01941,0.74395c0.31914,-0.58654 0.76983,-0.8798 1.35205,-0.8798c0.18975,0 0.34718,0.03234 0.47225,0.09704z"/><path d="M146.49684,132.91283h-1.22914v-9.80725h1.22914zM149.61659,125.62208l0.03881,0.78923c0.46147,-0.61673 1.05231,-0.92508 1.77254,-0.92508c1.2852,0 1.93858,0.8604 1.96015,2.58119v4.8454h-1.19033v-4.79365c0,-0.56929 -0.09488,-0.97253 -0.28464,-1.20974c-0.18975,-0.24152 -0.47657,-0.36228 -0.8604,-0.36228c-0.29327,0 -0.5585,0.09919 -0.79571,0.29759c-0.2372,0.19408 -0.42696,0.45068 -0.56929,0.76983v5.29824h-1.19679v-7.29075zM158.71308,131.04971c0,-0.25876 -0.09704,-0.47871 -0.29112,-0.65985c-0.18975,-0.18545 -0.56066,-0.40325 -1.1127,-0.65338c-0.64261,-0.26307 -1.09545,-0.48734 -1.35852,-0.67279c-0.26307,-0.18975 -0.46147,-0.4054 -0.59516,-0.64691c-0.12939,-0.24152 -0.19408,-0.52832 -0.19408,-0.8604c0,-0.59084 0.21564,-1.08251 0.64691,-1.47497c0.43559,-0.39677 0.99195,-0.59516 1.66904,-0.59516c0.70729,0 1.27658,0.20701 1.70786,0.62104c0.43129,0.41403 0.64691,0.94449 0.64691,1.59142h-1.18386c0,-0.32777 -0.10997,-0.60594 -0.32992,-0.83452c-0.21995,-0.23289 -0.50028,-0.34934 -0.84099,-0.34934c-0.35365,0 -0.62967,0.09058 -0.82805,0.2717c-0.19838,0.18114 -0.29759,0.42482 -0.29759,0.73101c0,0.24152 0.07116,0.43775 0.21348,0.5887c0.14663,0.14663 0.50028,0.34071 1.06094,0.58221c0.88412,0.34502 1.48574,0.68358 1.8049,1.01566c0.31914,0.32777 0.47871,0.74611 0.47871,1.25502c0,0.63398 -0.2178,1.14073 -0.65338,1.52025c-0.43559,0.37952 -1.01997,0.56929 -1.75314,0.56929c-0.75904,0 -1.37578,-0.2178 -1.85018,-0.65338c-0.4701,-0.43559 -0.70515,-0.98762 -0.70515,-1.65611h1.19679c0.01726,0.40109 0.14233,0.71807 0.3752,0.95097c0.23289,0.22858 0.56066,0.34287 0.98332,0.34287c0.39246,0 0.6922,-0.08842 0.89921,-0.26523c0.20701,-0.18114 0.31051,-0.4205 0.31051,-0.71807zM166.72659,129.62002c0,1.1515 -0.20917,2.0119 -0.62751,2.58119c-0.41403,0.56498 -1.00056,0.84746 -1.75961,0.84746c-0.73317,0 -1.29599,-0.27602 -1.68845,-0.82805v3.49335h-1.18386v-10.09189h1.07388l0.06469,0.80865c0.39677,-0.62967 0.96822,-0.94449 1.71433,-0.94449c0.80218,0 1.3995,0.28033 1.79196,0.84099c0.39677,0.55635 0.60163,1.38871 0.61457,2.4971zM165.54274,128.94076c0,-0.81942 -0.12723,-1.42322 -0.38168,-1.81136c-0.25013,-0.38815 -0.65338,-0.58221 -1.20974,-0.58221c-0.56929,0 -1.00272,0.28464 -1.3003,0.85393v3.79093c0.29327,0.56066 0.73101,0.84099 1.31324,0.84099c0.53909,0 0.93587,-0.19408 1.19033,-0.58221c0.25446,-0.39246 0.38383,-0.98762 0.38815,-1.78549zM170.87278,133.04868c-0.91,0 -1.60866,-0.26955 -2.09601,-0.80865c-0.48304,-0.54341 -0.72886,-1.33911 -0.73748,-2.38711v-0.8798c0,-1.08682 0.2372,-1.93858 0.71162,-2.55533c0.47441,-0.62104 1.13642,-0.93155 1.98604,-0.93155c0.85393,0 1.49007,0.2717 1.9084,0.81512c0.42266,0.54341 0.6383,1.39087 0.64691,2.54238v0.78277h-4.0691v0.1682c0,0.78061 0.14663,1.3499 0.4399,1.70786c0.29759,0.35365 0.72239,0.53046 1.27442,0.53046c0.34934,0 0.65769,-0.06685 0.92508,-0.20054c0.26739,-0.1337 0.51753,-0.34502 0.75043,-0.63398l0.62104,0.7569c-0.51753,0.72886 -1.30462,1.09329 -2.36124,1.09329zM170.73694,126.51483c-0.49597,0 -0.86256,0.17036 -1.09975,0.51107c-0.2372,0.3364 -0.37305,0.8604 -0.40756,1.57201h2.87231v-0.16173c-0.03018,-0.69005 -0.15526,-1.1817 -0.3752,-1.47497c-0.21564,-0.29759 -0.54556,-0.44637 -0.98977,-0.44637zM177.25658,132.03302c0.39677,0 0.71376,-0.12291 0.95097,-0.36875c0.2372,-0.24583 0.36658,-0.59516 0.38815,-1.048h1.12563c-0.02587,0.69868 -0.27386,1.27873 -0.74395,1.7402c-0.4701,0.46147 -1.0437,0.6922 -1.72079,0.6922c-0.90137,0 -1.58926,-0.28464 -2.06366,-0.85393c-0.47441,-0.56929 -0.71162,-1.41459 -0.71162,-2.53591v-0.80218c0,-1.09975 0.23505,-1.93644 0.70515,-2.51003c0.47441,-0.5736 1.16229,-0.8604 2.06366,-0.8604c0.74611,0 1.33695,0.2372 1.77254,0.71162c0.4399,0.4701 0.67279,1.11485 0.69868,1.93429h-1.12563c-0.02587,-0.53909 -0.15526,-0.94234 -0.38815,-1.20974c-0.22858,-0.2717 -0.54772,-0.40756 -0.95744,-0.40756c-0.53046,0 -0.92508,0.17467 -1.18386,0.524c-0.25446,0.34502 -0.38599,0.91431 -0.39462,1.70786v0.93155c0,0.85824 0.12723,1.46634 0.38168,1.82431c0.25446,0.35365 0.65554,0.53046 1.20327,0.53046zM182.66005,123.85601v1.76608h1.09975v0.96391h-1.09975v4.52195c0,0.28896 0.04744,0.50675 0.14233,0.65338c0.09488,0.14663 0.2566,0.21995 0.48518,0.21995c0.15526,0 0.31483,-0.02587 0.47871,-0.07762l-0.01294,1.00919c-0.2717,0.09058 -0.54772,0.13586 -0.82805,0.13586c-0.47441,0 -0.83452,-0.1682 -1.08035,-0.5046c-0.24583,-0.3364 -0.36875,-0.81295 -0.36875,-1.42969v-4.52842h-1.1127v-0.96391h1.1127v-1.76608z"/><path d="M149.27954,146.9962c0,-0.49165 -0.1337,-0.86687 -0.40109,-1.12563c-0.26307,-0.26307 -0.7418,-0.51753 -1.43616,-0.76337c-0.69005,-0.24583 -1.21835,-0.5046 -1.58495,-0.7763c-0.36658,-0.2717 -0.64045,-0.58221 -0.82158,-0.93155c-0.18114,-0.34934 -0.2717,-0.74827 -0.2717,-1.19679c0,-0.7763 0.25876,-1.4146 0.7763,-1.91488c0.52185,-0.5046 1.20111,-0.7569 2.03779,-0.7569c0.57792,0 1.09114,0.12939 1.53966,0.38815c0.44853,0.25876 0.79355,0.61673 1.03507,1.07388c0.24583,0.45715 0.36875,0.95959 0.36875,1.50733h-1.24208c0,-0.60812 -0.14663,-1.0782 -0.4399,-1.41028c-0.28896,-0.33208 -0.70946,-0.49813 -1.26149,-0.49813c-0.49597,0 -0.88196,0.14017 -1.15799,0.4205c-0.2717,0.27602 -0.40756,0.66632 -0.40756,1.17092c0,0.41403 0.14663,0.76121 0.4399,1.04154c0.29759,0.27602 0.7569,0.524 1.37794,0.74395c0.96606,0.31914 1.65611,0.71376 2.07013,1.18386c0.41833,0.46578 0.62751,1.07604 0.62751,1.83078c0,0.79355 -0.25876,1.42969 -0.7763,1.9084c-0.51753,0.47871 -1.22051,0.71807 -2.10895,0.71807c-0.56929,0 -1.09545,-0.12507 -1.57848,-0.3752c-0.48304,-0.25013 -0.86256,-0.59947 -1.13857,-1.048c-0.27602,-0.45284 -0.41403,-0.97253 -0.41403,-1.55906h1.23561c0,0.6081 0.1682,1.08035 0.5046,1.41675c0.34071,0.3364 0.80433,0.5046 1.39087,0.5046c0.54341,0 0.95097,-0.138 1.22267,-0.41403c0.27602,-0.28033 0.41403,-0.65985 0.41403,-1.13857zM155.72954,149.47389c-0.07332,-0.15526 -0.12507,-0.4205 -0.15526,-0.79571c-0.42266,0.62104 -0.96175,0.93155 -1.61729,0.93155c-0.65985,0 -1.17523,-0.18545 -1.54612,-0.55635c-0.37091,-0.37091 -0.55635,-0.89274 -0.55635,-1.56553c0,-0.7418 0.25013,-1.33048 0.75043,-1.76608c0.5046,-0.43559 1.19464,-0.65769 2.07013,-0.66632h0.8798v-0.7763c0,-0.43559 -0.09704,-0.74395 -0.29112,-0.92508c-0.19408,-0.18545 -0.4895,-0.27817 -0.88627,-0.27817c-0.35797,0 -0.64908,0.10782 -0.87333,0.32345c-0.22427,0.21132 -0.3364,0.48087 -0.3364,0.80865h-1.19679c0,-0.3752 0.10997,-0.73101 0.32992,-1.06741c0.22427,-0.34071 0.52185,-0.6081 0.89274,-0.80218c0.37091,-0.19408 0.78708,-0.29112 1.24855,-0.29112c0.74611,0 1.31324,0.18545 1.70139,0.55635c0.38815,0.37091 0.58654,0.91216 0.59516,1.62376v3.67449c0.00431,0.56498 0.07979,1.05231 0.22642,1.46203v0.10997zM154.13814,148.52292c0.28896,0 0.56498,-0.07979 0.82805,-0.23936c0.26739,-0.16389 0.46362,-0.36658 0.5887,-0.6081v-1.7402h-0.67926c-0.56498,0.00863 -1.01134,0.13586 -1.33911,0.38168c-0.32777,0.24583 -0.49165,0.5887 -0.49165,1.0286c0,0.41403 0.08195,0.71376 0.24583,0.89921c0.1682,0.18545 0.45068,0.27817 0.84746,0.27817zM159.70624,142.18314l0.03234,0.67279c0.44421,-0.53909 1.0286,-0.80865 1.75314,-0.80865c0.81512,0 1.38441,0.35365 1.70786,1.06094c0.45715,-0.70729 1.09545,-1.06094 1.91487,-1.06094c1.34127,0 2.027,0.83884 2.0572,2.5165v4.91009h-1.18386v-4.80012c0,-0.52616 -0.09488,-0.91863 -0.28464,-1.17739c-0.18545,-0.25876 -0.5046,-0.38815 -0.95744,-0.38815c-0.35797,0 -0.64908,0.14017 -0.87333,0.4205c-0.22427,0.27602 -0.35365,0.62967 -0.38815,1.06094v4.88421h-1.20327v-4.85187c-0.01294,-1.00919 -0.42266,-1.51378 -1.22914,-1.51378c-0.60378,0 -1.0286,0.29974 -1.27442,0.89921v5.46644h-1.18386v-7.29075zM174.2357,146.1811c0,1.1515 -0.20917,2.0119 -0.62751,2.58119c-0.41403,0.56498 -1.00056,0.84746 -1.75961,0.84746c-0.73317,0 -1.29599,-0.27602 -1.68845,-0.82805v3.49335h-1.18386v-10.09189h1.07388l0.06469,0.80865c0.39677,-0.62967 0.96822,-0.94449 1.71433,-0.94449c0.80218,0 1.3995,0.28033 1.79196,0.84099c0.39677,0.55635 0.60163,1.38871 0.61457,2.4971zM173.05184,145.50183c0,-0.81942 -0.12723,-1.42322 -0.38168,-1.81136c-0.25013,-0.38815 -0.65338,-0.58221 -1.20974,-0.58221c-0.56929,0 -1.00272,0.28464 -1.3003,0.85393v3.79093c0.29327,0.56066 0.73101,0.84099 1.31324,0.84099c0.53909,0 0.93587,-0.19408 1.19033,-0.58221c0.25446,-0.39246 0.38383,-0.98762 0.38815,-1.78549zM177.05572,149.47389h-1.19033v-10.35066h1.19033zM181.54189,149.60974c-0.91,0 -1.60866,-0.26955 -2.09601,-0.80865c-0.48304,-0.54341 -0.72886,-1.33911 -0.73748,-2.38711v-0.8798c0,-1.08682 0.2372,-1.93858 0.71162,-2.55533c0.47441,-0.62104 1.13642,-0.93155 1.98604,-0.93155c0.85393,0 1.49007,0.2717 1.9084,0.81512c0.42266,0.54341 0.6383,1.39087 0.64691,2.54238v0.78277h-4.0691v0.1682c0,0.78061 0.14663,1.3499 0.4399,1.70786c0.29759,0.35365 0.72239,0.53046 1.27442,0.53046c0.34934,0 0.65769,-0.06685 0.92508,-0.20054c0.26739,-0.1337 0.51753,-0.34502 0.75043,-0.63398l0.62104,0.7569c-0.51753,0.72886 -1.30462,1.09329 -2.36124,1.09329zM181.40604,143.07589c-0.49597,0 -0.86256,0.17036 -1.09975,0.51107c-0.2372,0.3364 -0.37305,0.8604 -0.40756,1.57201h2.87231v-0.16173c-0.03018,-0.69005 -0.15526,-1.1817 -0.3752,-1.47497c-0.21564,-0.29759 -0.54556,-0.44637 -0.98977,-0.44637z"/><path d="M143.07325,161.7006h-3.31868v4.33433h-1.22914v-9.80725h5.10416v1.06094h-3.87502v3.35749h3.31868zM146.26799,166.03493h-1.19033v-7.29075h1.19033zM146.36503,156.80992c0,0.20271 -0.05606,0.37305 -0.1682,0.51107c-0.11213,0.1337 -0.28249,0.20054 -0.51107,0.20054c-0.22427,0 -0.39246,-0.06685 -0.5046,-0.20054c-0.11213,-0.138 -0.1682,-0.30835 -0.1682,-0.51107c0,-0.20271 0.05606,-0.37305 0.1682,-0.51107c0.11213,-0.138 0.28033,-0.20701 0.5046,-0.20701c0.22427,0 0.39246,0.07116 0.5046,0.21348c0.11644,0.138 0.17467,0.30621 0.17467,0.5046zM150.24952,161.40301l1.24855,-2.65883h1.38441l-1.98604,3.60332l2.03132,3.68743h-1.365l-1.28736,-2.72999l-1.29383,2.72999h-1.37794l2.03132,-3.68743l-1.97956,-3.60332h1.37147zM159.40196,162.94268l0.12939,1.09975l0.19408,-0.97038l1.57201,-6.84438h1.0286l1.52025,6.84438l0.20054,0.99625l0.14233,-1.1321l1.19679,-6.70852h1.23561l-1.96015,9.80725h-1.10622l-1.6367,-7.14842l-0.1035,-0.58221l-0.1035,0.58221l-1.69492,7.14842h-1.11917l-1.94721,-9.80725h1.23561zM169.15581,166.03493h-1.19033v-7.29075h1.19033zM169.25286,156.80992c0,0.20271 -0.05606,0.37305 -0.1682,0.51107c-0.11213,0.1337 -0.28249,0.20054 -0.51107,0.20054c-0.22427,0 -0.39246,-0.06685 -0.5046,-0.20054c-0.11213,-0.138 -0.1682,-0.30835 -0.1682,-0.51107c0,-0.20271 0.05606,-0.37305 0.1682,-0.51107c0.11213,-0.138 0.28033,-0.20701 0.5046,-0.20701c0.22427,0 0.39246,0.07116 0.5046,0.21348c0.11644,0.138 0.17467,0.30621 0.17467,0.5046zM174.04306,159.86336c-0.1682,-0.03018 -0.34718,-0.04528 -0.53693,-0.04528c-0.61241,0 -1.03937,0.33424 -1.28089,1.00272v5.21414h-1.19679v-7.29075h1.16445l0.01941,0.74395c0.31914,-0.58654 0.76983,-0.8798 1.35205,-0.8798c0.18975,0 0.34718,0.03234 0.47225,0.09704zM176.51334,166.03493h-1.19033v-7.29075h1.19033zM176.61037,156.80992c0,0.20271 -0.05606,0.37305 -0.1682,0.51107c-0.11213,0.1337 -0.28249,0.20054 -0.51107,0.20054c-0.22427,0 -0.39246,-0.06685 -0.5046,-0.20054c-0.11213,-0.138 -0.1682,-0.30835 -0.1682,-0.51107c0,-0.20271 0.05606,-0.37305 0.1682,-0.51107c0.11213,-0.138 0.28033,-0.20701 0.5046,-0.20701c0.22427,0 0.39246,0.07116 0.5046,0.21348c0.11644,0.138 0.17467,0.30621 0.17467,0.5046zM179.51158,158.74418l0.03881,0.78923c0.46147,-0.61673 1.05231,-0.92508 1.77254,-0.92508c1.2852,0 1.93858,0.8604 1.96015,2.58119v4.8454h-1.19033v-4.79365c0,-0.56929 -0.09488,-0.97253 -0.28464,-1.20974c-0.18975,-0.24152 -0.47657,-0.36228 -0.8604,-0.36228c-0.29327,0 -0.5585,0.09919 -0.79571,0.29759c-0.2372,0.19408 -0.42696,0.45068 -0.56929,0.76983v5.29824h-1.19679v-7.29075zM184.8301,162.06288c0,-1.13857 0.20701,-1.99898 0.62104,-2.58119c0.41403,-0.58221 1.01781,-0.87333 1.81136,-0.87333c0.7418,0 1.30462,0.31698 1.68845,0.95097l0.06469,-0.81512h1.07388v7.35543c0,0.90569 -0.23074,1.60005 -0.6922,2.08307c-0.46147,0.48304 -1.10622,0.72454 -1.93429,0.72454c-0.35797,0 -0.76121,-0.09058 -1.20974,-0.2717c-0.44421,-0.17682 -0.77846,-0.39462 -1.00272,-0.65338l0.48518,-0.82158c0.49165,0.48304 1.03723,0.72454 1.6367,0.72454c0.99195,0 1.50084,-0.54125 1.52673,-1.62376v-0.94449c-0.38383,0.56929 -0.93155,0.85393 -1.64317,0.85393c-0.75474,0 -1.34343,-0.28464 -1.76608,-0.85393c-0.42266,-0.56929 -0.64261,-1.38657 -0.65985,-2.45182zM186.02043,162.74214c0,0.81512 0.12076,1.41459 0.36228,1.79843c0.24152,0.38383 0.63614,0.57576 1.18386,0.57576c0.59084,0 1.03507,-0.30188 1.33264,-0.90569v-3.6486c-0.31051,-0.59516 -0.75043,-0.89274 -1.31972,-0.89274c-0.54772,0 -0.94449,0.19192 -1.19033,0.57576c-0.24152,0.38383 -0.36444,0.97253 -0.36875,1.76608z"/><path d="M188.58537,228.75332v3.84269h-1.22914v-9.80725h3.12461c0.91,0 1.62591,0.27386 2.14777,0.82158c0.52185,0.54341 0.78277,1.26795 0.78277,2.17363c0,0.94449 -0.24799,1.6712 -0.74395,2.1801c-0.49597,0.5089 -1.19679,0.772 -2.10248,0.78923zM188.58537,227.69883h1.89546c0.54772,0 0.96606,-0.16389 1.25502,-0.49165c0.29327,-0.32777 0.4399,-0.79786 0.4399,-1.41028c0,-0.58654 -0.15096,-1.05663 -0.45284,-1.41028c-0.29759,-0.35797 -0.70946,-0.53693 -1.23561,-0.53693h-1.90193zM197.84344,226.42441c-0.1682,-0.03018 -0.34718,-0.04528 -0.53693,-0.04528c-0.61241,0 -1.03937,0.33424 -1.28089,1.00272v5.21414h-1.19679v-7.29075h1.16445l0.01941,0.74395c0.31914,-0.58654 0.76983,-0.8798 1.35205,-0.8798c0.18975,0 0.34718,0.03234 0.47225,0.09704zM200.31373,232.59598h-1.19033v-7.29075h1.19033zM200.41078,223.37097c0,0.20271 -0.05606,0.37305 -0.1682,0.51107c-0.11213,0.1337 -0.28249,0.20054 -0.51107,0.20054c-0.22427,0 -0.39246,-0.06685 -0.5046,-0.20054c-0.11213,-0.138 -0.1682,-0.30835 -0.1682,-0.51107c0,-0.20271 0.05606,-0.37305 0.1682,-0.51107c0.11213,-0.138 0.28033,-0.20701 0.5046,-0.20701c0.22427,0 0.39246,0.07116 0.5046,0.21348c0.11644,0.138 0.17467,0.30621 0.17467,0.5046zM203.31196,225.30525l0.03234,0.67279c0.44421,-0.53909 1.0286,-0.80865 1.75314,-0.80865c0.81512,0 1.38441,0.35365 1.70786,1.06094c0.45715,-0.70729 1.09545,-1.06094 1.91487,-1.06094c1.34127,0 2.027,0.83884 2.0572,2.5165v4.91009h-1.18386v-4.80012c0,-0.52616 -0.09488,-0.91863 -0.28464,-1.17739c-0.18545,-0.25876 -0.5046,-0.38815 -0.95744,-0.38815c-0.35797,0 -0.64908,0.14017 -0.87333,0.4205c-0.22427,0.27602 -0.35365,0.62967 -0.38815,1.06094v4.88421h-1.20327v-4.85187c-0.01294,-1.00919 -0.42266,-1.51378 -1.22914,-1.51378c-0.60378,0 -1.0286,0.29974 -1.27442,0.89921v5.46644h-1.18386v-7.29075zM215.1826,232.73184c-0.91,0 -1.60866,-0.26955 -2.09601,-0.80865c-0.48304,-0.54341 -0.72886,-1.33911 -0.73748,-2.38711v-0.8798c0,-1.08682 0.2372,-1.93858 0.71162,-2.55533c0.47441,-0.62104 1.13642,-0.93155 1.98604,-0.93155c0.85393,0 1.49007,0.2717 1.9084,0.81512c0.42266,0.54341 0.6383,1.39087 0.64691,2.54238v0.78277h-4.0691v0.1682c0,0.78061 0.14663,1.3499 0.4399,1.70786c0.29759,0.35365 0.72239,0.53046 1.27442,0.53046c0.34934,0 0.65769,-0.06685 0.92508,-0.20054c0.26739,-0.1337 0.51753,-0.34502 0.75043,-0.63398l0.62104,0.7569c-0.51753,0.72886 -1.30462,1.09329 -2.36124,1.09329zM215.04676,226.19799c-0.49597,0 -0.86256,0.17036 -1.09975,0.51107c-0.2372,0.3364 -0.37305,0.8604 -0.40756,1.57201h2.87231v-0.16173c-0.03018,-0.69005 -0.15526,-1.1817 -0.3752,-1.47497c-0.21564,-0.29759 -0.54556,-0.44637 -0.98977,-0.44637z"/><path d="M187.70066,246.67937c0,-0.49165 -0.1337,-0.86687 -0.40109,-1.12563c-0.26307,-0.26307 -0.7418,-0.51753 -1.43616,-0.76337c-0.69005,-0.24583 -1.21835,-0.5046 -1.58495,-0.7763c-0.36658,-0.2717 -0.64045,-0.58221 -0.82158,-0.93155c-0.18114,-0.34934 -0.2717,-0.74827 -0.2717,-1.19679c0,-0.7763 0.25876,-1.41459 0.7763,-1.91487c0.52185,-0.5046 1.20111,-0.7569 2.03779,-0.7569c0.57792,0 1.09114,0.12939 1.53966,0.38815c0.44853,0.25876 0.79355,0.61673 1.03507,1.07388c0.24583,0.45715 0.36875,0.95959 0.36875,1.50731h-1.24208c0,-0.6081 -0.14663,-1.07819 -0.4399,-1.41028c-0.28896,-0.33208 -0.70946,-0.49813 -1.26149,-0.49813c-0.49597,0 -0.88196,0.14017 -1.15799,0.4205c-0.2717,0.27602 -0.40756,0.66632 -0.40756,1.17092c0,0.41403 0.14663,0.76121 0.4399,1.04154c0.29759,0.27602 0.7569,0.524 1.37794,0.74395c0.96606,0.31914 1.65611,0.71376 2.07013,1.18386c0.41833,0.46578 0.62751,1.07604 0.62751,1.83078c0,0.79355 -0.25876,1.42969 -0.7763,1.9084c-0.51753,0.47871 -1.22051,0.71807 -2.10895,0.71807c-0.56929,0 -1.09545,-0.12507 -1.57848,-0.3752c-0.48304,-0.25013 -0.86256,-0.59947 -1.13857,-1.048c-0.27602,-0.45284 -0.41403,-0.97253 -0.41403,-1.55906h1.23561c0,0.6081 0.1682,1.08035 0.5046,1.41675c0.34071,0.3364 0.80433,0.5046 1.39087,0.5046c0.54341,0 0.95097,-0.138 1.22267,-0.41403c0.27602,-0.28033 0.41403,-0.65985 0.41403,-1.13857zM191.58886,242.61674c0.45284,-0.59084 1.03291,-0.88627 1.7402,-0.88627c1.2852,0 1.93858,0.8604 1.96015,2.58119v4.8454h-1.19033v-4.79365c0,-0.56929 -0.09488,-0.97253 -0.28464,-1.20974c-0.18975,-0.24152 -0.47657,-0.36228 -0.8604,-0.36228c-0.29327,0 -0.5585,0.09919 -0.79571,0.29759c-0.2372,0.19408 -0.42696,0.45068 -0.56929,0.76983v5.29824h-1.19679v-10.35065h1.19679zM198.34297,249.15706h-1.19033v-7.29075h1.19033zM198.44001,239.93203c0,0.20271 -0.05606,0.37305 -0.1682,0.51107c-0.11213,0.1337 -0.28249,0.20054 -0.51107,0.20054c-0.22427,0 -0.39246,-0.06685 -0.5046,-0.20054c-0.11213,-0.138 -0.1682,-0.30835 -0.1682,-0.51107c0,-0.20271 0.05606,-0.37305 0.1682,-0.51107c0.11213,-0.138 0.28033,-0.20701 0.5046,-0.20701c0.22427,0 0.39246,0.07116 0.5046,0.21348c0.11644,0.138 0.17467,0.30621 0.17467,0.5046zM202.8291,249.29291c-0.91,0 -1.60866,-0.26955 -2.09601,-0.80865c-0.48304,-0.54341 -0.72886,-1.33911 -0.73748,-2.38711v-0.8798c0,-1.08682 0.2372,-1.93858 0.71162,-2.55533c0.47441,-0.62104 1.13642,-0.93155 1.98604,-0.93155c0.85393,0 1.49007,0.2717 1.9084,0.81512c0.42266,0.54341 0.6383,1.39087 0.64691,2.54238v0.78277h-4.0691v0.1682c0,0.78061 0.14663,1.3499 0.4399,1.70786c0.29759,0.35365 0.72239,0.53046 1.27442,0.53046c0.34934,0 0.65769,-0.06685 0.92508,-0.20054c0.26739,-0.1337 0.51753,-0.34502 0.75043,-0.63398l0.62104,0.7569c-0.51753,0.72886 -1.30462,1.09329 -2.36124,1.09329zM202.69325,242.75905c-0.49597,0 -0.86256,0.17036 -1.09975,0.51107c-0.2372,0.3364 -0.37305,0.8604 -0.40756,1.57201h2.87231v-0.16173c-0.03018,-0.69005 -0.15526,-1.1817 -0.3752,-1.47497c-0.21564,-0.29759 -0.54556,-0.44637 -0.98977,-0.44637zM207.96435,249.15706h-1.19033v-10.35065h1.19033zM209.59112,245.18499c0,-1.12563 0.20917,-1.98172 0.62751,-2.56825c0.42266,-0.59084 1.02644,-0.88627 1.81136,-0.88627c0.69436,0 1.23777,0.28249 1.63023,0.84746v-3.77152h1.19033v10.35065h-1.08682l-0.06469,-0.78277c-0.38815,0.61241 -0.94665,0.91863 -1.67551,0.91863c-0.75474,0 -1.34774,-0.29327 -1.77903,-0.8798c-0.42696,-0.58654 -0.64475,-1.41459 -0.65338,-2.48416zM210.78144,245.86425c0,0.81512 0.12076,1.41459 0.36228,1.79843c0.24583,0.38383 0.64261,0.57576 1.19033,0.57576c0.59084,0 1.03291,-0.29759 1.32619,-0.89274v-3.68096c-0.30621,-0.58221 -0.74611,-0.87333 -1.31972,-0.87333c-0.54772,0 -0.94449,0.19192 -1.19033,0.57576c-0.24152,0.38383 -0.36444,0.97253 -0.36875,1.76608zM220.22751,247.29394c0,-0.25876 -0.09704,-0.47871 -0.29112,-0.65985c-0.18975,-0.18545 -0.56066,-0.40325 -1.1127,-0.65338c-0.64261,-0.26307 -1.09545,-0.48734 -1.35852,-0.67279c-0.26307,-0.18975 -0.46147,-0.4054 -0.59516,-0.64691c-0.12939,-0.24152 -0.19408,-0.52832 -0.19408,-0.8604c0,-0.59084 0.21564,-1.08251 0.64691,-1.47497c0.43559,-0.39677 0.99195,-0.59516 1.66904,-0.59516c0.70729,0 1.27658,0.20701 1.70786,0.62104c0.43129,0.41403 0.64691,0.94449 0.64691,1.59142h-1.18386c0,-0.32777 -0.10997,-0.60594 -0.32992,-0.83452c-0.21995,-0.23289 -0.50028,-0.34934 -0.84099,-0.34934c-0.35365,0 -0.62967,0.09058 -0.82805,0.2717c-0.19838,0.18114 -0.29759,0.42482 -0.29759,0.73101c0,0.24152 0.07116,0.43775 0.21348,0.5887c0.14663,0.14663 0.50028,0.34071 1.06094,0.58221c0.88412,0.34502 1.48574,0.68358 1.8049,1.01566c0.31914,0.32777 0.47871,0.74611 0.47871,1.25502c0,0.63398 -0.2178,1.14073 -0.65338,1.52025c-0.43559,0.37952 -1.01997,0.56929 -1.75314,0.56929c-0.75904,0 -1.37578,-0.2178 -1.85018,-0.65338c-0.4701,-0.43559 -0.70515,-0.98762 -0.70515,-1.65611h1.19679c0.01726,0.40109 0.14233,0.71807 0.3752,0.95097c0.23289,0.22858 0.56066,0.34287 0.98332,0.34287c0.39246,0 0.6922,-0.08842 0.89921,-0.26523c0.20701,-0.18114 0.31051,-0.4205 0.31051,-0.71807z"/><path d="M196.44188,261.38375h-3.31868v4.33433h-1.22914v-9.80725h5.10416v1.06094h-3.87502v3.35749h3.31868zM201.92076,265.07765c-0.39246,0.51753 -0.96822,0.7763 -1.72726,0.7763c-0.65985,0 -1.16013,-0.22858 -1.50084,-0.68573c-0.3364,-0.45715 -0.50675,-1.12132 -0.51107,-1.99251v-4.74835h1.19033v4.66427c0,1.13426 0.34071,1.70139 1.02213,1.70139c0.72454,0 1.22267,-0.32345 1.49437,-0.97038v-5.39528h1.19679v7.29075h-1.1321zM207.48482,265.85395c-0.91,0 -1.60866,-0.26955 -2.09601,-0.80865c-0.48304,-0.54341 -0.72886,-1.33911 -0.73748,-2.38711v-0.8798c0,-1.08682 0.2372,-1.93858 0.71162,-2.55533c0.47441,-0.62104 1.13642,-0.93155 1.98604,-0.93155c0.85393,0 1.49007,0.2717 1.9084,0.81512c0.42266,0.54341 0.6383,1.39087 0.64691,2.54238v0.78277h-4.0691v0.1682c0,0.78061 0.14663,1.3499 0.4399,1.70786c0.29759,0.35365 0.72239,0.53046 1.27442,0.53046c0.34934,0 0.65769,-0.06685 0.92508,-0.20054c0.26739,-0.1337 0.51753,-0.34502 0.75043,-0.63398l0.62104,0.7569c-0.51753,0.72886 -1.30462,1.09329 -2.36124,1.09329zM207.34896,259.3201c-0.49597,0 -0.86256,0.17036 -1.09975,0.51107c-0.2372,0.3364 -0.37305,0.8604 -0.40756,1.57201h2.87231v-0.16173c-0.03018,-0.69005 -0.15526,-1.1817 -0.3752,-1.47497c-0.21564,-0.29759 -0.54556,-0.44637 -0.98977,-0.44637zM212.62005,265.71809h-1.19033v-10.35065h1.19033z"/><path d="M186.52122,277.74427h-3.46746v3.47394h4.04323v1.06094h-5.27236v-9.80725h5.20768v1.06094h-3.97853v3.15695h3.46746zM189.62779,274.98841l0.03881,0.78923c0.46147,-0.61673 1.05231,-0.92508 1.77254,-0.92508c1.2852,0 1.93858,0.8604 1.96015,2.58119v4.8454h-1.19033v-4.79365c0,-0.56929 -0.09488,-0.97253 -0.28464,-1.20974c-0.18975,-0.24152 -0.47657,-0.36228 -0.8604,-0.36228c-0.29327,0 -0.5585,0.09919 -0.79571,0.29759c-0.2372,0.19408 -0.42696,0.45068 -0.56929,0.76983v5.29824h-1.19679v-7.29075zM194.94628,278.30709c0,-1.13857 0.20701,-1.99898 0.62104,-2.58119c0.41403,-0.58221 1.01781,-0.87333 1.81136,-0.87333c0.7418,0 1.30462,0.31698 1.68845,0.95097l0.06469,-0.81512h1.07388v7.35543c0,0.90569 -0.23074,1.60005 -0.6922,2.08307c-0.46147,0.48304 -1.10622,0.72454 -1.93429,0.72454c-0.35797,0 -0.76121,-0.09058 -1.20974,-0.2717c-0.44421,-0.17682 -0.77846,-0.39462 -1.00272,-0.65338l0.48518,-0.82158c0.49165,0.48304 1.03723,0.72454 1.6367,0.72454c0.99195,0 1.50084,-0.54125 1.52673,-1.62376v-0.94449c-0.38383,0.56929 -0.93155,0.85393 -1.64317,0.85393c-0.75474,0 -1.34343,-0.28464 -1.76608,-0.85393c-0.42266,-0.56929 -0.64261,-1.38657 -0.65985,-2.45182zM196.1366,278.98635c0,0.81512 0.12076,1.41459 0.36228,1.79843c0.24152,0.38383 0.63614,0.57576 1.18386,0.57576c0.59084,0 1.03507,-0.30188 1.33264,-0.90569v-3.6486c-0.31051,-0.59516 -0.75043,-0.89274 -1.31972,-0.89274c-0.54772,0 -0.94449,0.19192 -1.19033,0.57576c-0.24152,0.38383 -0.36444,0.97253 -0.36875,1.76608zM203.26484,282.27916h-1.19033v-7.29075h1.19033zM203.36187,273.05414c0,0.20271 -0.05606,0.37305 -0.1682,0.51107c-0.11213,0.1337 -0.28249,0.20054 -0.51107,0.20054c-0.22427,0 -0.39246,-0.06685 -0.5046,-0.20054c-0.11213,-0.138 -0.1682,-0.30835 -0.1682,-0.51107c0,-0.20271 0.05606,-0.37305 0.1682,-0.51107c0.11213,-0.138 0.28033,-0.20701 0.5046,-0.20701c0.22427,0 0.39246,0.07116 0.5046,0.21348c0.11644,0.138 0.17467,0.30621 0.17467,0.5046zM206.26306,274.98841l0.03881,0.78923c0.46147,-0.61673 1.05231,-0.92508 1.77254,-0.92508c1.2852,0 1.93858,0.8604 1.96015,2.58119v4.8454h-1.19033v-4.79365c0,-0.56929 -0.09488,-0.97253 -0.28464,-1.20974c-0.18975,-0.24152 -0.47657,-0.36228 -0.8604,-0.36228c-0.29327,0 -0.5585,0.09919 -0.79571,0.29759c-0.2372,0.19408 -0.42696,0.45068 -0.56929,0.76983v5.29824h-1.19679v-7.29075zM214.428,282.41501c-0.91,0 -1.60866,-0.26955 -2.09601,-0.80865c-0.48304,-0.54341 -0.72886,-1.33911 -0.73748,-2.38711v-0.8798c0,-1.08682 0.2372,-1.93858 0.71162,-2.55533c0.47441,-0.62104 1.13642,-0.93155 1.98604,-0.93155c0.85393,0 1.49008,0.2717 1.90841,0.81512c0.42266,0.54341 0.6383,1.39087 0.64691,2.54238v0.78277h-4.06912v0.1682c0,0.78061 0.14663,1.3499 0.4399,1.70786c0.29759,0.35365 0.72239,0.53046 1.27442,0.53046c0.34934,0 0.65769,-0.06685 0.92508,-0.20054c0.26741,-0.1337 0.51755,-0.34502 0.75043,-0.63398l0.62104,0.7569c-0.51753,0.72886 -1.30462,1.09329 -2.36125,1.09329zM214.29216,275.88115c-0.49597,0 -0.86256,0.17036 -1.09975,0.51107c-0.2372,0.3364 -0.37305,0.8604 -0.40756,1.57201h2.87231v-0.16173c-0.03018,-0.69005 -0.15526,-1.1817 -0.37523,-1.47497c-0.21564,-0.29759 -0.54556,-0.44637 -0.98977,-0.44637zM221.82099,280.41604c0,-0.25876 -0.09704,-0.47871 -0.29112,-0.65985c-0.18975,-0.18545 -0.56066,-0.40325 -1.1127,-0.65338c-0.64261,-0.26307 -1.09545,-0.48734 -1.35852,-0.67279c-0.26307,-0.18975 -0.46147,-0.4054 -0.59516,-0.64691c-0.12939,-0.24152 -0.19408,-0.52832 -0.19408,-0.8604c0,-0.59084 0.21564,-1.08251 0.64691,-1.47497c0.43559,-0.39677 0.99195,-0.59516 1.66904,-0.59516c0.70729,0 1.27658,0.20701 1.70786,0.62104c0.43129,0.41403 0.64691,0.94449 0.64691,1.59142h-1.18386c0,-0.32777 -0.10997,-0.60594 -0.32992,-0.83452c-0.21995,-0.23289 -0.50028,-0.34934 -0.84099,-0.34934c-0.35365,0 -0.62967,0.09058 -0.82805,0.2717c-0.19838,0.18114 -0.29759,0.42482 -0.29759,0.73101c0,0.24152 0.07116,0.43775 0.21348,0.5887c0.14663,0.14663 0.50028,0.34071 1.06094,0.58221c0.88412,0.34502 1.48574,0.68358 1.8049,1.01566c0.31914,0.32777 0.47871,0.74611 0.47871,1.25502c0,0.63398 -0.2178,1.14073 -0.65338,1.52025c-0.43559,0.37952 -1.01997,0.56929 -1.75314,0.56929c-0.75904,0 -1.37578,-0.2178 -1.85018,-0.65338c-0.4701,-0.43559 -0.70515,-0.98762 -0.70515,-1.65611h1.19679c0.01726,0.40109 0.14233,0.71807 0.3752,0.95097c0.23289,0.22858 0.56066,0.34287 0.98332,0.34287c0.39246,0 0.6922,-0.08842 0.89921,-0.26523c0.20701,-0.18114 0.31051,-0.4205 0.31051,-0.71807z"/><g><path d="M185.11019,295.72854c-0.05175,1.05231 -0.34718,1.85665 -0.88627,2.413c-0.53479,0.55635 -1.29167,0.83452 -2.27068,0.83452c-0.98332,0 -1.76608,-0.37305 -2.34832,-1.11917c-0.57792,-0.75043 -0.86687,-1.76608 -0.86687,-3.04697v-1.77903c0,-1.27658 0.29759,-2.28362 0.89274,-3.02111c0.59516,-0.7418 1.40812,-1.1127 2.43888,-1.1127c0.94449,0 1.67551,0.28464 2.19305,0.85393c0.52185,0.56498 0.80433,1.37578 0.84746,2.4324h-1.24208c-0.05606,-0.79786 -0.22642,-1.36715 -0.51107,-1.70786c-0.28033,-0.34502 -0.70946,-0.51753 -1.28736,-0.51753c-0.67279,0 -1.18817,0.26307 -1.54612,0.78923c-0.35797,0.52185 -0.53693,1.28736 -0.53693,2.29655v1.79843c0,0.99625 0.16604,1.75961 0.49813,2.29008c0.3364,0.52616 0.82589,0.78923 1.4685,0.78923c0.64261,0 1.10408,-0.15957 1.38441,-0.47871c0.28464,-0.31914 0.46147,-0.89059 0.53046,-1.71433zM190.37084,298.84021c-0.07332,-0.15526 -0.12507,-0.4205 -0.15526,-0.79571c-0.42266,0.62104 -0.96175,0.93155 -1.61729,0.93155c-0.65985,0 -1.17523,-0.18545 -1.54612,-0.55635c-0.37091,-0.37091 -0.55635,-0.89274 -0.55635,-1.56553c0,-0.7418 0.25013,-1.33048 0.75043,-1.76608c0.5046,-0.43559 1.19464,-0.65769 2.07013,-0.66632h0.8798v-0.7763c0,-0.43559 -0.09704,-0.74395 -0.29112,-0.92508c-0.19408,-0.18545 -0.4895,-0.27817 -0.88627,-0.27817c-0.35797,0 -0.64908,0.10782 -0.87333,0.32345c-0.22427,0.21132 -0.3364,0.48087 -0.3364,0.80865h-1.19679c0,-0.3752 0.10997,-0.73101 0.32992,-1.06741c0.22427,-0.34071 0.52185,-0.6081 0.89274,-0.80218c0.37091,-0.19408 0.78708,-0.29112 1.24855,-0.29112c0.74611,0 1.31324,0.18545 1.70139,0.55635c0.38815,0.37091 0.58654,0.91216 0.59516,1.62376v3.67449c0.00431,0.56498 0.07979,1.05231 0.22642,1.46203v0.10997zM188.77942,297.88925c0.28896,0 0.56498,-0.07979 0.82805,-0.23936c0.26739,-0.16389 0.46362,-0.36658 0.5887,-0.6081v-1.7402h-0.67926c-0.56498,0.00863 -1.01134,0.13586 -1.33911,0.38168c-0.32777,0.24583 -0.49165,0.5887 -0.49165,1.0286c0,0.41403 0.08195,0.71376 0.24583,0.89921c0.1682,0.18545 0.45068,0.27817 0.84746,0.27817zM194.50925,298.84021h-1.19033v-10.35065h1.19033zM197.66921,298.84021h-1.19033v-7.29075h1.19033zM197.76624,289.61519c0,0.20271 -0.05606,0.37305 -0.1682,0.51107c-0.11213,0.1337 -0.28249,0.20054 -0.51107,0.20054c-0.22427,0 -0.39246,-0.06685 -0.5046,-0.20054c-0.11213,-0.138 -0.1682,-0.30835 -0.1682,-0.51107c0,-0.20271 0.05606,-0.37305 0.1682,-0.51107c0.11213,-0.138 0.28033,-0.20701 0.5046,-0.20701c0.22427,0 0.39246,0.07116 0.5046,0.21348c0.11644,0.138 0.17467,0.30621 0.17467,0.5046zM204.82712,295.5474c0,1.13426 -0.20485,1.99035 -0.61457,2.56825c-0.40972,0.5736 -1.00272,0.8604 -1.77903,0.8604c-0.772,0 -1.3499,-0.33208 -1.73374,-0.99625l-0.06469,0.8604h-1.08035v-10.35065h1.18386v3.86208c0.38815,-0.62535 0.94881,-0.93802 1.68198,-0.93802c0.80218,0 1.40165,0.28464 1.79843,0.85393c0.40109,0.56498 0.60378,1.41675 0.6081,2.55533zM203.64326,294.86814c0,-0.86256 -0.12076,-1.47713 -0.36228,-1.84371c-0.24152,-0.36658 -0.63183,-0.54988 -1.17092,-0.54988c-0.61241,0 -1.06957,0.33208 -1.37147,0.99625v3.46746c0.29759,0.65554 0.75904,0.98332 1.38441,0.98332c0.53909,0 0.92508,-0.18761 1.15799,-0.56282c0.2372,-0.37952 0.35797,-0.96606 0.36228,-1.75961zM209.36148,292.66864c-0.1682,-0.03018 -0.34718,-0.04528 -0.53693,-0.04528c-0.61241,0 -1.03937,0.33424 -1.28089,1.00272v5.21414h-1.19679v-7.29075h1.16445l0.01941,0.74395c0.31914,-0.58654 0.76983,-0.8798 1.35205,-0.8798c0.18975,0 0.34718,0.03234 0.47225,0.09704zM214.03345,298.84021c-0.07332,-0.15526 -0.12507,-0.4205 -0.15526,-0.79571c-0.42266,0.62104 -0.96175,0.93155 -1.61729,0.93155c-0.65985,0 -1.17523,-0.18545 -1.54612,-0.55635c-0.37091,-0.37091 -0.55635,-0.89274 -0.55635,-1.56553c0,-0.7418 0.25013,-1.33048 0.75043,-1.76608c0.5046,-0.43559 1.19464,-0.65769 2.07013,-0.66632h0.8798v-0.7763c0,-0.43559 -0.09704,-0.74395 -0.29112,-0.92508c-0.19408,-0.18545 -0.4895,-0.27817 -0.88627,-0.27817c-0.35797,0 -0.64908,0.10782 -0.87333,0.32345c-0.22427,0.21132 -0.3364,0.48087 -0.3364,0.80865h-1.19679c0,-0.3752 0.10997,-0.73101 0.32992,-1.06741c0.22427,-0.34071 0.52185,-0.6081 0.89274,-0.80218c0.37091,-0.19408 0.78708,-0.29112 1.24855,-0.29112c0.74611,0 1.31324,0.18545 1.70139,0.55635c0.38815,0.37091 0.58654,0.91216 0.59516,1.62376v3.67449c0.00431,0.56498 0.07979,1.05231 0.22642,1.46203v0.10997zM212.44203,297.88925c0.28896,0 0.56498,-0.07979 0.82805,-0.23936c0.26739,-0.16389 0.46362,-0.36658 0.5887,-0.6081v-1.7402h-0.67926c-0.56498,0.00863 -1.01134,0.13586 -1.33911,0.38168c-0.32777,0.24583 -0.49165,0.5887 -0.49165,1.0286c0,0.41403 0.08195,0.71376 0.24583,0.89921c0.1682,0.18545 0.45068,0.27817 0.84746,0.27817zM218.45007,289.78339v1.76608h1.09975v0.96391h-1.09975v4.52195c0,0.28896 0.04744,0.50675 0.14233,0.65338c0.09488,0.14663 0.2566,0.21995 0.48518,0.21995c0.15526,0 0.31483,-0.02587 0.47871,-0.07762l-0.01294,1.00919c-0.2717,0.09058 -0.54772,0.13586 -0.82805,0.13586c-0.47441,0 -0.83452,-0.1682 -1.08035,-0.5046c-0.24583,-0.3364 -0.36875,-0.81295 -0.36875,-1.42969v-4.52842h-1.1127v-0.96391h1.1127v-1.76608zM223.57435,298.97607c-0.91,0 -1.60866,-0.26955 -2.09601,-0.80865c-0.48304,-0.54341 -0.72886,-1.33911 -0.73748,-2.38711v-0.8798c0,-1.08682 0.2372,-1.93858 0.71162,-2.55533c0.47441,-0.62104 1.13642,-0.93155 1.98604,-0.93155c0.85393,0 1.49007,0.2717 1.9084,0.81512c0.42266,0.54341 0.6383,1.39087 0.64691,2.54238v0.78277h-4.0691v0.1682c0,0.78061 0.14663,1.3499 0.4399,1.70786c0.29759,0.35365 0.72239,0.53046 1.27442,0.53046c0.34934,0 0.65769,-0.06685 0.92508,-0.20054c0.26739,-0.1337 0.51753,-0.34502 0.75043,-0.63398l0.62104,0.7569c-0.51753,0.72886 -1.30462,1.09329 -2.36124,1.09329zM223.43849,292.44222c-0.49597,0 -0.86256,0.17036 -1.09975,0.51107c-0.2372,0.3364 -0.37305,0.8604 -0.40756,1.57201h2.87231v-0.16173c-0.03018,-0.69005 -0.15526,-1.1817 -0.3752,-1.47497c-0.21564,-0.29759 -0.54556,-0.44637 -0.98977,-0.44637z"/><path d="M174.63217,315.40127v-9.80725h2.33537c1.1472,0 2.03563,0.35797 2.6653,1.07388c0.63398,0.71591 0.95097,1.72295 0.95097,3.02111v1.64317c0,1.29815 -0.3213,2.30086 -0.96391,3.00815c-0.64261,0.70729 -1.57416,1.06094 -2.79467,1.06094zM175.86131,306.65496v7.68537h0.98977c0.86687,0 1.50084,-0.24799 1.90193,-0.74395c0.40109,-0.49597 0.60594,-1.2313 0.61457,-2.20599v-1.73374c0,-1.03507 -0.20054,-1.79411 -0.60163,-2.27715c-0.39677,-0.48304 -0.99625,-0.72454 -1.79843,-0.72454zM183.6212,315.40127h-1.19033v-7.29075h1.19033zM183.71823,306.17624c0,0.20271 -0.05606,0.37305 -0.1682,0.51107c-0.11213,0.1337 -0.28249,0.20054 -0.51107,0.20054c-0.22427,0 -0.39246,-0.06685 -0.5046,-0.20054c-0.11213,-0.138 -0.1682,-0.30835 -0.1682,-0.51107c0,-0.20271 0.05606,-0.37305 0.1682,-0.51107c0.11213,-0.138 0.28033,-0.20701 0.5046,-0.20701c0.22427,0 0.39246,0.07116 0.5046,0.21348c0.11644,0.138 0.17467,0.30621 0.17467,0.5046zM189.0389,313.53814c0,-0.25876 -0.09704,-0.47871 -0.29112,-0.65985c-0.18975,-0.18545 -0.56066,-0.40325 -1.1127,-0.65338c-0.64261,-0.26307 -1.09545,-0.48734 -1.35852,-0.67279c-0.26307,-0.18975 -0.46147,-0.4054 -0.59516,-0.64691c-0.12939,-0.24152 -0.19408,-0.52832 -0.19408,-0.8604c0,-0.59084 0.21564,-1.08251 0.64691,-1.47497c0.43559,-0.39677 0.99195,-0.59516 1.66904,-0.59516c0.70729,0 1.27658,0.20701 1.70786,0.62104c0.43129,0.41403 0.64691,0.94449 0.64691,1.59142h-1.18386c0,-0.32777 -0.10997,-0.60594 -0.32992,-0.83452c-0.21995,-0.23289 -0.50028,-0.34934 -0.84099,-0.34934c-0.35365,0 -0.62967,0.09058 -0.82805,0.2717c-0.19838,0.18114 -0.29759,0.42482 -0.29759,0.73101c0,0.24152 0.07116,0.43775 0.21348,0.5887c0.14663,0.14663 0.50028,0.34071 1.06094,0.58221c0.88412,0.34502 1.48574,0.68358 1.8049,1.01566c0.31914,0.32777 0.47871,0.74611 0.47871,1.25502c0,0.63398 -0.2178,1.14073 -0.65338,1.52025c-0.43559,0.37952 -1.01997,0.56929 -1.75314,0.56929c-0.75904,0 -1.37578,-0.2178 -1.85018,-0.65338c-0.4701,-0.43559 -0.70515,-0.98762 -0.70515,-1.65611h1.19679c0.01726,0.40109 0.14233,0.71807 0.3752,0.95097c0.23289,0.22858 0.56066,0.34287 0.98332,0.34287c0.39246,0 0.6922,-0.08842 0.89921,-0.26523c0.20701,-0.18114 0.31051,-0.4205 0.31051,-0.71807zM193.34556,306.34444v1.76608h1.09975v0.96391h-1.09975v4.52195c0,0.28896 0.04744,0.50675 0.14233,0.65338c0.09488,0.14663 0.2566,0.21995 0.48518,0.21995c0.15526,0 0.31483,-0.02587 0.47871,-0.07762l-0.01294,1.00919c-0.2717,0.09058 -0.54772,0.13586 -0.82805,0.13586c-0.47441,0 -0.83452,-0.1682 -1.08035,-0.5046c-0.24583,-0.3364 -0.36875,-0.81295 -0.36875,-1.42969v-4.52842h-1.1127v-0.96391h1.1127v-1.76608zM198.87095,309.22969c-0.1682,-0.03018 -0.34718,-0.04528 -0.53693,-0.04528c-0.61241,0 -1.03937,0.33424 -1.28089,1.00272v5.21414h-1.19679v-7.29075h1.16445l0.01941,0.74395c0.31914,-0.58654 0.76983,-0.8798 1.35205,-0.8798c0.18975,0 0.34718,0.03234 0.47225,0.09704zM201.34124,315.40127h-1.19033v-7.29075h1.19033zM201.43829,306.17624c0,0.20271 -0.05606,0.37305 -0.1682,0.51107c-0.11213,0.1337 -0.28249,0.20054 -0.51107,0.20054c-0.22427,0 -0.39246,-0.06685 -0.5046,-0.20054c-0.11213,-0.138 -0.1682,-0.30835 -0.1682,-0.51107c0,-0.20271 0.05606,-0.37305 0.1682,-0.51107c0.11213,-0.138 0.28033,-0.20701 0.5046,-0.20701c0.22427,0 0.39246,0.07116 0.5046,0.21348c0.11644,0.138 0.17467,0.30621 0.17467,0.5046zM208.49914,312.10847c0,1.13426 -0.20485,1.99035 -0.61457,2.56825c-0.40972,0.5736 -1.00272,0.8604 -1.77903,0.8604c-0.772,0 -1.3499,-0.33208 -1.73374,-0.99625l-0.06469,0.8604h-1.08035v-10.35065h1.18386v3.86208c0.38815,-0.62535 0.94881,-0.93802 1.68198,-0.93802c0.80218,0 1.40165,0.28464 1.79843,0.85393c0.40109,0.56498 0.60378,1.41675 0.6081,2.55533zM207.31528,311.42919c0,-0.86256 -0.12076,-1.47713 -0.36228,-1.84371c-0.24152,-0.36658 -0.63183,-0.54988 -1.17092,-0.54988c-0.61241,0 -1.06957,0.33208 -1.37147,0.99625v3.46746c0.29759,0.65554 0.75904,0.98332 1.38441,0.98332c0.53909,0 0.92508,-0.18761 1.15799,-0.56282c0.2372,-0.37952 0.35797,-0.96606 0.36228,-1.75961zM213.73864,314.76081c-0.39246,0.51753 -0.96822,0.7763 -1.72726,0.7763c-0.65985,0 -1.16013,-0.22858 -1.50084,-0.68573c-0.3364,-0.45715 -0.50675,-1.12132 -0.51107,-1.99251v-4.74835h1.19033v4.66427c0,1.13426 0.34071,1.70139 1.02213,1.70139c0.72454,0 1.22267,-0.32345 1.49437,-0.97038v-5.39528h1.19679v7.29075h-1.1321zM218.25471,306.34444v1.76608h1.09975v0.96391h-1.09975v4.52195c0,0.28896 0.04744,0.50675 0.14233,0.65338c0.09488,0.14663 0.2566,0.21995 0.48518,0.21995c0.15526,0 0.31483,-0.02587 0.47871,-0.07762l-0.01294,1.00919c-0.2717,0.09058 -0.54772,0.13586 -0.82805,0.13586c-0.47441,0 -0.83452,-0.1682 -1.08035,-0.5046c-0.24583,-0.3364 -0.36875,-0.81295 -0.36875,-1.42969v-4.52842h-1.1127v-0.96391h1.1127v-1.76608zM220.38484,311.41626c0,-1.05663 0.2566,-1.8933 0.76983,-2.51003c0.51322,-0.62104 1.19249,-0.93155 2.03779,-0.93155c0.84531,0 1.52457,0.30188 2.03779,0.90569c0.51753,0.59947 0.78277,1.4189 0.79571,2.45828v0.76983c0,1.05231 -0.2566,1.88683 -0.76983,2.50357c-0.51322,0.61673 -1.19679,0.92508 -2.05073,0.92508c-0.84099,0 -1.5181,-0.29759 -2.03132,-0.89274c-0.5089,-0.59947 -0.772,-1.41028 -0.78923,-2.4324zM221.57517,312.10847c0,0.75043 0.14663,1.34127 0.4399,1.77254c0.29759,0.42696 0.69436,0.64045 1.19033,0.64045c1.05231,0 1.59358,-0.75904 1.62376,-2.27715v-0.82805c0,-0.7418 -0.14879,-1.32833 -0.44637,-1.75961c-0.29327,-0.43559 -0.69005,-0.65338 -1.19033,-0.65338c-0.48734,0 -0.8798,0.2178 -1.17739,0.65338c-0.29327,0.43129 -0.4399,1.01566 -0.4399,1.75314zM230.57163,309.22969c-0.1682,-0.03018 -0.34718,-0.04528 -0.53693,-0.04528c-0.61241,0 -1.03937,0.33424 -1.28089,1.00272v5.21414h-1.19679v-7.29075h1.16445l0.01941,0.74395c0.31914,-0.58654 0.76983,-0.8798 1.35205,-0.8798c0.18975,0 0.34718,0.03234 0.47225,0.09704z"/></g><g><path d="M174.0886,329.40052h-3.31868l-0.7569,2.56178h-1.26795l3.15695,-9.80725h1.06094l3.16342,9.80725h-1.26795zM171.09339,328.33958h2.67824l-1.34558,-4.46373zM178.57805,331.96232h-1.19033v-10.35065h1.19033zM181.73799,331.96232h-1.19033v-7.29075h1.19033zM181.83503,322.73729c0,0.20271 -0.05606,0.37305 -0.1682,0.51107c-0.11213,0.1337 -0.28249,0.20054 -0.51107,0.20054c-0.22427,0 -0.39246,-0.06685 -0.5046,-0.20054c-0.11213,-0.138 -0.1682,-0.30835 -0.1682,-0.51107c0,-0.20271 0.05606,-0.37305 0.1682,-0.51107c0.11213,-0.138 0.28033,-0.20701 0.5046,-0.20701c0.22427,0 0.39246,0.07116 0.5046,0.21348c0.11644,0.138 0.17467,0.30621 0.17467,0.5046zM183.37771,327.99026c0,-1.13857 0.20701,-1.99898 0.62104,-2.58119c0.41403,-0.58221 1.01781,-0.87333 1.81136,-0.87333c0.7418,0 1.30462,0.31698 1.68845,0.95097l0.06469,-0.81512h1.07388v7.35543c0,0.90569 -0.23074,1.60005 -0.6922,2.08307c-0.46147,0.48304 -1.10622,0.72454 -1.93429,0.72454c-0.35797,0 -0.76121,-0.09058 -1.20974,-0.2717c-0.44421,-0.17682 -0.77846,-0.39462 -1.00272,-0.65338l0.48518,-0.82158c0.49165,0.48304 1.03723,0.72454 1.6367,0.72454c0.99195,0 1.50084,-0.54125 1.52673,-1.62376v-0.94449c-0.38383,0.56929 -0.93155,0.85393 -1.64317,0.85393c-0.75474,0 -1.34343,-0.28464 -1.76608,-0.85393c-0.42266,-0.56929 -0.64261,-1.38657 -0.65985,-2.45182zM184.56804,328.66952c0,0.81512 0.12076,1.41459 0.36228,1.79843c0.24152,0.38383 0.63614,0.57576 1.18386,0.57576c0.59084,0 1.03507,-0.30188 1.33264,-0.90569v-3.6486c-0.31051,-0.59516 -0.75043,-0.89274 -1.31972,-0.89274c-0.54772,0 -0.94449,0.19192 -1.19033,0.57576c-0.24152,0.38383 -0.36444,0.97253 -0.36875,1.76608zM191.53453,324.67158l0.03881,0.78923c0.46147,-0.61673 1.05231,-0.92508 1.77254,-0.92508c1.2852,0 1.93858,0.8604 1.96015,2.58119v4.8454h-1.19033v-4.79365c0,-0.56929 -0.09488,-0.97253 -0.28464,-1.20974c-0.18975,-0.24152 -0.47657,-0.36228 -0.8604,-0.36228c-0.29327,0 -0.5585,0.09919 -0.79571,0.29759c-0.2372,0.19408 -0.42696,0.45068 -0.56929,0.76983v5.29824h-1.19679v-7.29075zM205.11717,327.42744h-3.46746v3.47394h4.04323v1.06094h-5.27236v-9.80725h5.20768v1.06094h-3.97853v3.15695h3.46746zM208.22372,324.67158l0.03881,0.78923c0.46147,-0.61673 1.05231,-0.92508 1.77254,-0.92508c1.2852,0 1.93858,0.8604 1.96015,2.58119v4.8454h-1.19033v-4.79365c0,-0.56929 -0.09488,-0.97253 -0.28464,-1.20974c-0.18975,-0.24152 -0.47657,-0.36228 -0.8604,-0.36228c-0.29327,0 -0.5585,0.09919 -0.79571,0.29759c-0.2372,0.19408 -0.42696,0.45068 -0.56929,0.76983v5.29824h-1.19679v-7.29075zM213.54221,327.99026c0,-1.13857 0.20701,-1.99898 0.62104,-2.58119c0.41403,-0.58221 1.01782,-0.87333 1.81138,-0.87333c0.7418,0 1.30462,0.31698 1.68845,0.95097l0.06469,-0.81512h1.07388v7.35543c0,0.90569 -0.23074,1.60005 -0.6922,2.08307c-0.46147,0.48304 -1.10622,0.72454 -1.93429,0.72454c-0.35797,0 -0.76121,-0.09058 -1.20975,-0.2717c-0.44421,-0.17682 -0.77846,-0.39462 -1.00272,-0.65338l0.48518,-0.82158c0.49165,0.48304 1.03723,0.72454 1.63671,0.72454c0.99195,0 1.50084,-0.54125 1.52673,-1.62376v-0.94449c-0.38383,0.56929 -0.93155,0.85393 -1.64317,0.85393c-0.75475,0 -1.34345,-0.28464 -1.76609,-0.85393c-0.42266,-0.56929 -0.64261,-1.38657 -0.65985,-2.45182zM214.73254,328.66952c0,0.81512 0.12076,1.41459 0.36228,1.79843c0.24152,0.38383 0.63614,0.57576 1.18387,0.57576c0.59084,0 1.03507,-0.30188 1.33264,-0.90569v-3.6486c-0.31051,-0.59516 -0.75043,-0.89274 -1.31972,-0.89274c-0.54772,0 -0.9445,0.19192 -1.19034,0.57576c-0.24152,0.38383 -0.36444,0.97253 -0.36875,1.76608zM221.86078,331.96232h-1.19033v-7.29075h1.19033zM221.95782,322.73729c0,0.20271 -0.05606,0.37305 -0.1682,0.51107c-0.11213,0.1337 -0.28249,0.20054 -0.51107,0.20054c-0.22427,0 -0.39246,-0.06685 -0.5046,-0.20054c-0.11213,-0.138 -0.1682,-0.30835 -0.1682,-0.51107c0,-0.20271 0.05606,-0.37305 0.1682,-0.51107c0.11213,-0.138 0.28033,-0.20701 0.5046,-0.20701c0.22427,0 0.39246,0.07116 0.5046,0.21348c0.11644,0.138 0.17467,0.30621 0.17467,0.5046zM224.85901,324.67158l0.03881,0.78923c0.46147,-0.61673 1.05231,-0.92508 1.77254,-0.92508c1.2852,0 1.93858,0.8604 1.96015,2.58119v4.8454h-1.19033v-4.79365c0,-0.56929 -0.09488,-0.97253 -0.28464,-1.20974c-0.18975,-0.24152 -0.47657,-0.36228 -0.8604,-0.36228c-0.29327,0 -0.5585,0.09919 -0.79571,0.29759c-0.2372,0.19408 -0.42696,0.45068 -0.56929,0.76983v5.29824h-1.19679v-7.29075zM233.02395,332.09817c-0.91,0 -1.60866,-0.26955 -2.09601,-0.80865c-0.48304,-0.54341 -0.72886,-1.33911 -0.73748,-2.38711v-0.8798c0,-1.08682 0.2372,-1.93858 0.71162,-2.55533c0.47441,-0.62104 1.13642,-0.93155 1.98604,-0.93155c0.85393,0 1.49007,0.2717 1.9084,0.81512c0.42266,0.54341 0.6383,1.39087 0.64691,2.54238v0.78277h-4.0691v0.1682c0,0.78061 0.14663,1.3499 0.4399,1.70786c0.29759,0.35365 0.72239,0.53046 1.27442,0.53046c0.34934,0 0.65769,-0.06685 0.92508,-0.20054c0.26739,-0.1337 0.51753,-0.34502 0.75043,-0.63398l0.62104,0.7569c-0.51753,0.72886 -1.30462,1.09329 -2.36124,1.09329zM232.88811,325.56432c-0.49597,0 -0.86256,0.17036 -1.09975,0.51107c-0.2372,0.3364 -0.37305,0.8604 -0.40756,1.57201h2.87231v-0.16173c-0.03018,-0.69005 -0.15526,-1.1817 -0.3752,-1.47497c-0.21564,-0.29759 -0.54556,-0.44637 -0.98977,-0.44637z"/><path d="M191.36654,344.48014c0,1.33695 -0.2868,2.36771 -0.8604,3.09226c-0.56929,0.72454 -1.37794,1.08682 -2.42593,1.08682c-1.0135,0 -1.81352,-0.35149 -2.40007,-1.05447c-0.58654,-0.70299 -0.89059,-1.69708 -0.91216,-2.98228v-1.84371c0,-1.3154 0.28896,-2.34399 0.86687,-3.08579c0.58221,-0.7418 1.39087,-1.1127 2.42593,-1.1127c1.03507,0 1.84155,0.35581 2.41947,1.06741c0.57792,0.71162 0.87333,1.72726 0.88627,3.04697zM190.13093,342.76583c0,-1.03937 -0.17036,-1.81136 -0.51107,-2.31596c-0.3364,-0.5046 -0.85609,-0.7569 -1.55906,-0.7569c-0.67711,0 -1.19033,0.2566 -1.53966,0.76983c-0.34502,0.5089 -0.51969,1.26149 -0.524,2.25774v1.75961c0,1.00056 0.17251,1.76393 0.51753,2.29008c0.34934,0.52616 0.86903,0.78923 1.55906,0.78923c0.69436,0 1.20758,-0.24152 1.53966,-0.72454c0.33208,-0.48734 0.5046,-1.2313 0.51753,-2.23185zM196.82037,347.88293c-0.39246,0.51753 -0.96822,0.7763 -1.72726,0.7763c-0.65985,0 -1.16013,-0.22858 -1.50084,-0.68573c-0.3364,-0.45715 -0.50675,-1.12132 -0.51107,-1.99251v-4.74835h1.19033v4.66427c0,1.13426 0.34071,1.70139 1.02213,1.70139c0.72454,0 1.22267,-0.32345 1.49437,-0.97038v-5.39528h1.19679v7.29075h-1.1321zM201.33641,339.46655v1.76608h1.09975v0.96391h-1.09975v4.52195c0,0.28896 0.04744,0.50675 0.14233,0.65338c0.09488,0.14663 0.2566,0.21995 0.48518,0.21995c0.15526,0 0.31483,-0.02587 0.47871,-0.07762l-0.01294,1.00919c-0.2717,0.09058 -0.54772,0.13586 -0.82805,0.13586c-0.47441,0 -0.83452,-0.1682 -1.08035,-0.5046c-0.24583,-0.3364 -0.36875,-0.81295 -0.36875,-1.42969v-4.52842h-1.1127v-0.96391h1.1127v-1.76608zM209.11952,345.23057c0,1.1515 -0.20917,2.0119 -0.62751,2.58119c-0.41403,0.56498 -1.00056,0.84746 -1.75961,0.84746c-0.73317,0 -1.29599,-0.27602 -1.68845,-0.82805v3.49335h-1.18386v-10.09189h1.07388l0.06469,0.80865c0.39677,-0.62967 0.96822,-0.94449 1.71433,-0.94449c0.80218,0 1.3995,0.28033 1.79196,0.84099c0.39677,0.55635 0.60163,1.38871 0.61457,2.4971zM207.93567,344.55131c0,-0.81942 -0.12723,-1.42322 -0.38168,-1.81136c-0.25013,-0.38815 -0.65338,-0.58221 -1.20974,-0.58221c-0.56929,0 -1.00272,0.28464 -1.3003,0.85393v3.79093c0.29327,0.56066 0.73101,0.84099 1.31324,0.84099c0.53909,0 0.93587,-0.19408 1.19033,-0.58221c0.25446,-0.39246 0.38383,-0.98762 0.38815,-1.78549zM214.37197,347.88293c-0.39246,0.51753 -0.96822,0.7763 -1.72726,0.7763c-0.65985,0 -1.16013,-0.22858 -1.50084,-0.68573c-0.3364,-0.45715 -0.50675,-1.12132 -0.51107,-1.99251v-4.74835h1.19033v4.66427c0,1.13426 0.34071,1.70139 1.02213,1.70139c0.72454,0 1.22267,-0.32345 1.49437,-0.97038v-5.39528h1.19679v7.29075h-1.1321zM218.88803,339.46655v1.76608h1.09975v0.96391h-1.09975v4.52195c0,0.28896 0.04744,0.50675 0.14233,0.65338c0.09488,0.14663 0.2566,0.21995 0.48518,0.21995c0.15526,0 0.31483,-0.02587 0.47871,-0.07762l-0.01294,1.00919c-0.2717,0.09058 -0.54772,0.13586 -0.82805,0.13586c-0.47441,0 -0.83452,-0.1682 -1.08035,-0.5046c-0.24583,-0.3364 -0.36875,-0.81295 -0.36875,-1.42969v-4.52842h-1.1127v-0.96391h1.1127v-1.76608z"/></g></g></g></svg>