<svg version="1.1" xmlns="http://www.w3.org/2000/svg" xmlns:xlink="http://www.w3.org/1999/xlink" width="67.35156" height="63.33334" viewBox="0,0,67.35156,63.33334"><g transform="translate(-206.82422,-148.33333)"><g data-paper-data="{&quot;isPaintingLayer&quot;:true}" fill-rule="nonzero" stroke-linejoin="miter" stroke-miterlimit="10" stroke-dasharray="" stroke-dashoffset="0" style="mix-blend-mode: normal"><path d="M209.32422,180c0,-16.10831 13.05836,-29.16667 29.16667,-29.16667c16.10831,0 29.16667,13.05836 29.16667,29.16667c0,16.10831 -13.05836,29.16667 -29.16667,29.16667c-16.10831,0 -29.16667,-13.05836 -29.16667,-29.16667z" fill="#dbadad" stroke="#2b1919" stroke-width="5" stroke-linecap="butt"/><path d="M270.67578,159.12209c0,0 -7.8076,4.39457 -19.01769,16.94956c-6.58972,7.38031 -9.5425,13.95215 -10.68925,17.09412c-0.45597,1.24929 -0.93955,1.33177 -1.60554,0.2984c-1.17148,-1.8177 -3.43467,-4.9003 -7.00559,-8.0736c-7.22384,-6.41948 -11.68193,-8.6018 -11.68193,-8.6018" fill="none" stroke="#871212" stroke-width="7" stroke-linecap="round"/></g></g></svg>