<svg version="1.1" xmlns="http://www.w3.org/2000/svg" xmlns:xlink="http://www.w3.org/1999/xlink" width="42.68482" height="77.25421" viewBox="0,0,42.68482,77.25421"><g transform="translate(-219.2222,-298.72668)"><g data-paper-data="{&quot;isPaintingLayer&quot;:true}" fill-rule="nonzero" stroke-linejoin="miter" stroke-miterlimit="10" stroke-dasharray="" stroke-dashoffset="0" style="mix-blend-mode: normal"><path d="M222.50112,340.72668v-41.25h25.5l9.25,9.5v31.75z" fill="#ffffff" stroke="#63747e" stroke-width="1.5" stroke-linecap="butt"/><path d="M257.49888,309.4788l-12.57165,1.97223l2.29167,-12.17771" fill="#d2d9dc" stroke="none" stroke-width="0" stroke-linecap="butt"/><path d="M256.83222,308.81214h-8.96054v-8.99715" fill="#ffffff" stroke="#63747e" stroke-width="1.5" stroke-linecap="butt"/><path d="M222.50112,340.72668v-41.25h25.5l9.25,9.5v31.75z" fill="none" stroke="#63747e" stroke-width="1.5" stroke-linecap="butt"/><g fill="#96a5b3" stroke="none" stroke-width="0.5" stroke-linecap="butt"><path d="M245.20502,305.31214c0,0.5 -0.5,0.5 -0.5,0.5h-0.16667c-3.79183,0 -7.65339,0.32688 -11.4199,0.32688c-2.4423,0.815 -3.4543,-0.72544 -5.33334,-0.66667c-0.62052,0.01941 -1.10416,1.4282 -2.32685,1.16667c-0.95908,-0.20515 -0.9596,-0.69816 -1.22758,-1.5021c0,0 -0.15811,-0.47434 0.31623,-0.63245c0.47434,-0.15811 0.63245,0.31623 0.63245,0.31623c0.63278,1.89834 1.97607,-0.45505 3.52566,-0.34189c1.62016,0.11832 2.02164,1.41616 4.25324,0.67312c3.82055,0 7.73456,-0.33979 11.58009,-0.33979h0.16667c0,0 0.5,0 0.5,0.5z"/><path d="M251.03835,313.47881c0,0.5 -0.5,0.5 -0.5,0.5c-0.5,0 -1.16666,0 -1.66666,0c-1.87022,0 -5.79416,-0.8343 -7.47532,-0.03806c-1.53829,0.72857 -3.38163,1.4651 -5.22695,0.99532c-2.09682,-1.3837 -7.17216,-0.95726 -9.63106,-0.95726c0,0 -0.5,0 -0.5,-0.5c0,-0.5 0.5,-0.5 0.5,-0.5c2.57189,0 7.86218,-0.42197 10.03561,1.04274c1.58395,0.38483 3.13779,-0.48884 4.43972,-1.00468c2.02662,-0.80297 5.70672,-0.03806 7.85801,-0.03806c0.5,0 1,0 1.5,0h0.16666c0,0 0.5,0 0.5,0.5z"/><path d="M251.70502,320.64547c0,0.5 -0.5,0.5 -0.5,0.5l0.08269,-0.22264c-1.10098,1.53099 -2.87977,1.2235 -4.58974,1.22265c-3.36903,-0.00169 -6.68433,-0.49998 -10.15962,-0.49998c-1.96434,0 -3.65652,-0.39828 -5.56109,-0.67042c-1.64756,-0.23542 -3.59053,0.49966 -5.04959,-0.41356c0,0 -0.41603,-0.27735 -0.13868,-0.69338c0.27735,-0.41603 0.69338,-0.13868 0.69338,-0.13868c0.81576,0.60107 2.54824,0.24936 3.55598,0.24936c2.17516,0 4.27026,0.66667 6.5,0.66667c3.4692,0 6.79776,0.49976 10.15991,0.49999c1.18321,0.00008 3.07265,0.40108 3.7574,-0.77734l0.74936,-0.22265c0,0 0.5,-0.00001 0.5,0.49999z"/><path d="M250.8919,329.1657c-0.35356,0.35356 -0.70711,0 -0.70711,0l0.02022,-0.18689c-2.31978,0 -4.42356,0.71996 -6.58658,0.99354c-3.06613,0.38781 -5.00935,-0.66021 -7.91342,-0.66021c-3.50986,0 -7.00186,-0.16666 -10.5,-0.16666c0,0 -0.5,0 -0.5,-0.5c0,-0.5 0.5,-0.5 0.5,-0.5c3.50232,0 6.98747,0.16666 10.5,0.16666c2.96768,0 4.70669,0.94873 7.75324,0.67313c2.18492,-0.19766 4.39822,-1.00646 6.74676,-1.00646l0.68688,0.47978c0,0 0.35356,0.35356 0,0.70711z"/><path d="M252.67936,336.97026c-0.15812,0.47434 -0.63245,0.31623 -0.63245,0.31623l-0.56156,-0.19185c-0.53231,-0.38049 -0.81016,-0.28249 -1.44699,-0.28249c-2.14112,0 -5.59662,-0.85747 -7.57211,-0.34235c-0.99277,0.25887 -1.74277,1.03643 -2.78111,1.00863c-1.51927,-0.04068 -2.56441,-0.99961 -3.9801,-0.99961c-2.40528,0 -4.61391,1.18482 -6.89443,0.82959c-1.63227,-0.25425 -2.33424,-1.16292 -4.10557,-1.16292c0,0 -0.5,0 -0.5,-0.5c0,-0.5 0.5,-0.5 0.5,-0.5c1.7396,0 2.69956,0.98073 4.22776,1.17041c1.4872,0.18459 1.98736,-0.54685 3.32403,-0.82371c1.03199,-0.21375 2.3826,-0.01337 3.44821,-0.01337c1.34937,0 3.05257,1.55902 4.36653,1.01815c3.24907,-1.33742 6.42625,-0.68481 9.9668,-0.68481c0.77544,0 1.21492,-0.03953 1.88635,0.38418l0.43844,0.14148c0,0 0.47434,0.15812 0.31623,0.63245z"/></g><path d="M223.70364,355.38588c0,-0.46213 -0.12567,-0.8148 -0.377,-1.05803c-0.24728,-0.24728 -0.69724,-0.48645 -1.34989,-0.71751c-0.6486,-0.23106 -1.14518,-0.47429 -1.48975,-0.72967c-0.34457,-0.25539 -0.60198,-0.54725 -0.77224,-0.87561c-0.17026,-0.32835 -0.25539,-0.70332 -0.25539,-1.12491c0,-0.72967 0.24322,-1.32962 0.72967,-1.79986c0.4905,-0.47429 1.12896,-0.71143 1.91539,-0.71143c0.5432,0 1.02559,0.12161 1.44718,0.36484c0.42159,0.24322 0.74589,0.57968 0.9729,1.00939c0.23106,0.4297 0.34659,0.90195 0.34659,1.41677h-1.16748c0,-0.57158 -0.13783,-1.01343 -0.41348,-1.32557c-0.2716,-0.31214 -0.66684,-0.46821 -1.18572,-0.46821c-0.46618,0 -0.82899,0.13175 -1.08843,0.39524c-0.25539,0.25944 -0.38308,0.62631 -0.38308,1.10059c0,0.38916 0.13783,0.71548 0.41348,0.97898c0.27971,0.25944 0.71143,0.49253 1.29517,0.69927c0.90804,0.29998 1.55663,0.67089 1.94579,1.11275c0.39321,0.4378 0.58982,1.01141 0.58982,1.72081c0,0.74589 -0.24322,1.34381 -0.72967,1.79378c-0.48645,0.44996 -1.14721,0.67495 -1.98228,0.67495c-0.53509,0 -1.02965,-0.11756 -1.48367,-0.35268c-0.45402,-0.23512 -0.81075,-0.56347 -1.07019,-0.98506c-0.25944,-0.42564 -0.38916,-0.91412 -0.38916,-1.46543h1.1614c0,0.57158 0.1581,1.01546 0.47429,1.33165c0.32024,0.31619 0.75602,0.47429 1.30733,0.47429c0.51077,0 0.89385,-0.12972 1.14923,-0.38916c0.25944,-0.26349 0.38916,-0.62022 0.38916,-1.07019zM227.7049,349.20191v1.66h1.0337v0.90601h-1.0337v4.25034c0,0.2716 0.04459,0.47631 0.13377,0.61414c0.08918,0.13783 0.2412,0.20674 0.45605,0.20674c0.14593,0 0.29592,-0.02432 0.44996,-0.07297l-0.01216,0.94857c-0.25539,0.08513 -0.51482,0.12769 -0.77832,0.12769c-0.44591,0 -0.7844,-0.1581 -1.01546,-0.47429c-0.23106,-0.31619 -0.34659,-0.76413 -0.34659,-1.34381v-4.25642h-1.04586v-0.90601h1.04586v-1.66zM233.59768,357.71475c-0.06891,-0.14593 -0.11756,-0.39524 -0.14593,-0.74791c-0.39727,0.58374 -0.90398,0.87561 -1.52015,0.87561c-0.62022,0 -1.10464,-0.17431 -1.45326,-0.52293c-0.34862,-0.34862 -0.52293,-0.83912 -0.52293,-1.47151c0,-0.69724 0.23512,-1.25058 0.70535,-1.66c0.47429,-0.40943 1.12288,-0.61819 1.94579,-0.6263h0.82696v-0.72967c0,-0.40943 -0.09121,-0.69927 -0.27363,-0.86953c-0.18242,-0.17431 -0.4601,-0.26147 -0.83304,-0.26147c-0.33646,0 -0.61009,0.10134 -0.82088,0.30403c-0.21079,0.19863 -0.31619,0.45199 -0.31619,0.76008h-1.12491c0,-0.35268 0.10337,-0.68711 0.31011,-1.0033c0.21079,-0.32024 0.4905,-0.57158 0.83912,-0.75399c0.34862,-0.18242 0.73981,-0.27363 1.17356,-0.27363c0.7013,0 1.23436,0.17431 1.5992,0.52293c0.36484,0.34862 0.55131,0.85737 0.55942,1.52623v3.45378c0.00405,0.53104 0.07499,0.98911 0.21282,1.37422v0.10337h-1.1614zM232.10185,356.8209c0.2716,0 0.53104,-0.07499 0.77832,-0.22498c0.25133,-0.15404 0.43578,-0.34457 0.55333,-0.57158v-1.63568h-0.63846c-0.53104,0.00811 -0.9506,0.12769 -1.25868,0.35876c-0.30808,0.23106 -0.46213,0.55333 -0.46213,0.96682c0,0.38916 0.07702,0.67089 0.23106,0.8452c0.1581,0.17431 0.42361,0.26147 0.79656,0.26147zM241.24536,354.61972c0,1.06613 -0.19255,1.8708 -0.57766,2.414c-0.38511,0.53915 -0.94249,0.80872 -1.67217,0.80872c-0.72562,0 -1.26882,-0.31214 -1.6296,-0.93641l-0.06081,0.80872h-1.01546v-9.72896h1.11275v3.63012c0.36484,-0.58779 0.89182,-0.88169 1.58096,-0.88169c0.75399,0 1.31746,0.26755 1.69041,0.80264c0.377,0.53104 0.56752,1.33165 0.57158,2.40184zM240.13261,353.98126c0,-0.81075 -0.1135,-1.3884 -0.34051,-1.73297c-0.22701,-0.34457 -0.59387,-0.51685 -1.10059,-0.51685c-0.57563,0 -1.00533,0.31214 -1.28909,0.93641v3.2592c0.27971,0.61617 0.71346,0.92425 1.30125,0.92425c0.50672,0 0.86953,-0.17634 1.08843,-0.52901c0.22295,-0.35673 0.33646,-0.90804 0.34051,-1.65392zM243.88384,357.71475h-1.11883v-6.85284h1.11883zM243.97505,349.04381c0,0.19053 -0.0527,0.35065 -0.1581,0.48037c-0.1054,0.12567 -0.26552,0.1885 -0.48037,0.1885c-0.21079,0 -0.36889,-0.06283 -0.47429,-0.1885c-0.1054,-0.12972 -0.1581,-0.28984 -0.1581,-0.48037c0,-0.19053 0.0527,-0.35065 0.1581,-0.48037c0.1054,-0.12972 0.26349,-0.19458 0.47429,-0.19458c0.21079,0 0.36889,0.06689 0.47429,0.20066c0.10945,0.12972 0.16418,0.28782 0.16418,0.47429zM246.854,357.71475h-1.11883v-9.72896h1.11883zM249.82417,357.71475h-1.11883v-6.85284h1.11883zM249.91538,349.04381c0,0.19053 -0.0527,0.35065 -0.1581,0.48037c-0.1054,0.12567 -0.26552,0.1885 -0.48037,0.1885c-0.21079,0 -0.36889,-0.06283 -0.47429,-0.1885c-0.1054,-0.12972 -0.1581,-0.28984 -0.1581,-0.48037c0,-0.19053 0.0527,-0.35065 0.1581,-0.48037c0.1054,-0.12972 0.26349,-0.19458 0.47429,-0.19458c0.21079,0 0.36889,0.06689 0.47429,0.20066c0.10945,0.12972 0.16418,0.28782 0.16418,0.47429zM252.62409,356.7601h3.30786v0.95465h-4.58479v-0.86345l3.1376,-5.02258h-3.11328v-0.96682h4.43277v0.83304zM259.63287,357.84244c-0.85534,0 -1.51204,-0.25336 -1.97012,-0.76008c-0.45402,-0.51077 -0.68508,-1.25868 -0.69319,-2.24374v-0.82696c0,-1.02154 0.22295,-1.82215 0.66887,-2.40184c0.44591,-0.58374 1.06816,-0.87561 1.86675,-0.87561c0.80264,0 1.40057,0.25539 1.79378,0.76616c0.39727,0.51077 0.59995,1.30733 0.60806,2.38968v0.73575h-3.8247v0.1581c0,0.73373 0.13783,1.26882 0.41348,1.60528c0.27971,0.33241 0.679,0.49861 1.19788,0.49861c0.32835,0 0.61819,-0.06283 0.86953,-0.1885c0.25133,-0.12567 0.48645,-0.3243 0.70535,-0.5959l0.58374,0.71143c-0.48645,0.68508 -1.22625,1.02762 -2.21942,1.02762zM259.50518,351.70104c-0.46618,0 -0.81075,0.16012 -1.0337,0.48037c-0.22295,0.31619 -0.35065,0.80872 -0.38308,1.47758h2.69979v-0.15201c-0.02838,-0.6486 -0.14593,-1.11072 -0.35268,-1.38638c-0.20269,-0.27971 -0.5128,-0.41956 -0.93033,-0.41956z" fill="#ffffff" stroke="none" stroke-width="1" stroke-linecap="square"/><path d="M224.43194,370.95223c0,-0.46213 -0.12567,-0.8148 -0.377,-1.05803c-0.24728,-0.24728 -0.69724,-0.48645 -1.34989,-0.71751c-0.6486,-0.23106 -1.14518,-0.47429 -1.48975,-0.72967c-0.34457,-0.25539 -0.60198,-0.54725 -0.77224,-0.87561c-0.17026,-0.32835 -0.25539,-0.70332 -0.25539,-1.12491c0,-0.72967 0.24322,-1.32962 0.72967,-1.79986c0.4905,-0.47429 1.12896,-0.71143 1.91539,-0.71143c0.5432,0 1.02559,0.12161 1.44718,0.36484c0.42159,0.24322 0.74589,0.57968 0.9729,1.00938c0.23106,0.4297 0.34659,0.90196 0.34659,1.41678h-1.16748c0,-0.57158 -0.13783,-1.01343 -0.41348,-1.32557c-0.2716,-0.31214 -0.66684,-0.46821 -1.18572,-0.46821c-0.46618,0 -0.82899,0.13175 -1.08843,0.39524c-0.25539,0.25944 -0.38308,0.62631 -0.38308,1.10059c0,0.38916 0.13783,0.71547 0.41348,0.97897c0.27971,0.25944 0.71143,0.49253 1.29517,0.69928c0.90804,0.29998 1.55663,0.67089 1.94579,1.11275c0.39321,0.4378 0.58982,1.01141 0.58982,1.72081c0,0.74589 -0.24322,1.34381 -0.72967,1.79378c-0.48645,0.44996 -1.14721,0.67495 -1.98228,0.67495c-0.53509,0 -1.02965,-0.11756 -1.48367,-0.35268c-0.45402,-0.23512 -0.81075,-0.56347 -1.07019,-0.98506c-0.25944,-0.42564 -0.38916,-0.91412 -0.38916,-1.46543h1.1614c0,0.57158 0.1581,1.01546 0.47429,1.33165c0.32024,0.31619 0.75602,0.47429 1.30733,0.47429c0.51077,0 0.89385,-0.12972 1.14923,-0.38916c0.25944,-0.26349 0.38916,-0.62022 0.38916,-1.07019zM228.43319,364.76825v1.66h1.0337v0.90601h-1.0337v4.25034c0,0.2716 0.04459,0.47631 0.13377,0.61414c0.08918,0.13783 0.2412,0.20674 0.45605,0.20674c0.14593,0 0.29592,-0.02432 0.44996,-0.07297l-0.01216,0.94857c-0.25539,0.08513 -0.51482,0.12769 -0.77832,0.12769c-0.44591,0 -0.7844,-0.1581 -1.01546,-0.47429c-0.23106,-0.31619 -0.34659,-0.76413 -0.34659,-1.34381v-4.25642h-1.04586v-0.90601h1.04586v-1.66zM233.24971,373.40879c-0.85534,0 -1.51204,-0.25336 -1.97012,-0.76008c-0.45402,-0.51077 -0.68508,-1.25868 -0.69319,-2.24374v-0.82696c0,-1.02154 0.22295,-1.82215 0.66887,-2.40184c0.44591,-0.58374 1.06816,-0.87561 1.86675,-0.87561c0.80264,0 1.40057,0.25539 1.79378,0.76616c0.39727,0.51077 0.59995,1.30733 0.60806,2.38968v0.73575h-3.8247v0.1581c0,0.73373 0.13783,1.26882 0.41348,1.60528c0.27971,0.33241 0.679,0.49861 1.19788,0.49861c0.32835,0 0.61819,-0.06283 0.86953,-0.1885c0.25133,-0.12567 0.48645,-0.3243 0.70535,-0.5959l0.58374,0.71143c-0.48645,0.68508 -1.22625,1.02762 -2.21942,1.02762zM233.12201,367.26738c-0.46618,0 -0.81075,0.16012 -1.0337,0.48037c-0.22295,0.31619 -0.35065,0.80872 -0.38308,1.47759h2.69979v-0.15202c-0.02838,-0.6486 -0.14593,-1.11072 -0.35268,-1.38638c-0.20269,-0.27971 -0.5128,-0.41956 -0.93033,-0.41956zM239.32303,373.40879c-0.85534,0 -1.51204,-0.25336 -1.97012,-0.76008c-0.45402,-0.51077 -0.68508,-1.25868 -0.69319,-2.24374v-0.82696c0,-1.02154 0.22295,-1.82215 0.66887,-2.40184c0.44591,-0.58374 1.06816,-0.87561 1.86675,-0.87561c0.80264,0 1.40057,0.25539 1.79378,0.76616c0.39727,0.51077 0.59995,1.30733 0.60806,2.38968v0.73575h-3.8247v0.1581c0,0.73373 0.13783,1.26882 0.41348,1.60528c0.27971,0.33241 0.679,0.49861 1.19788,0.49861c0.32835,0 0.61819,-0.06283 0.86953,-0.1885c0.25133,-0.12567 0.48645,-0.3243 0.70535,-0.5959l0.58374,0.71143c-0.48645,0.68508 -1.22625,1.02762 -2.21942,1.02762zM239.19534,367.26738c-0.46618,0 -0.81075,0.16012 -1.0337,0.48037c-0.22295,0.31619 -0.35065,0.80872 -0.38308,1.47759h2.69979v-0.15202c-0.02838,-0.6486 -0.14593,-1.11072 -0.35268,-1.38638c-0.20269,-0.27971 -0.5128,-0.41956 -0.93033,-0.41956zM245.77335,367.4802c-0.1581,-0.02838 -0.32633,-0.04256 -0.50469,-0.04256c-0.57563,0 -0.97695,0.31416 -1.20396,0.94249v4.90097h-1.12491v-6.85284h1.09451l0.01824,0.69927c0.29998,-0.55131 0.72359,-0.82696 1.27085,-0.82696c0.17837,0 0.32633,0.0304 0.44388,0.09121zM248.09527,373.2811h-1.11883v-6.85284h1.11883zM248.18648,364.61016c0,0.19053 -0.0527,0.35065 -0.1581,0.48037c-0.1054,0.12567 -0.26552,0.1885 -0.48037,0.1885c-0.21079,0 -0.36889,-0.06283 -0.47429,-0.1885c-0.1054,-0.12972 -0.1581,-0.28984 -0.1581,-0.48037c0,-0.19053 0.0527,-0.35065 0.1581,-0.48037c0.1054,-0.12972 0.26349,-0.19458 0.47429,-0.19458c0.21079,0 0.36889,0.06689 0.47429,0.20066c0.10945,0.12972 0.16418,0.28782 0.16418,0.47429zM250.91342,366.42826l0.03648,0.74183c0.43375,-0.57968 0.98911,-0.86953 1.66609,-0.86953c1.20802,0 1.82217,0.80872 1.84243,2.42616v4.55437h-1.11883v-4.50573c0,-0.53509 -0.08918,-0.91412 -0.26755,-1.13707c-0.17837,-0.22701 -0.44795,-0.34051 -0.80873,-0.34051c-0.27565,0 -0.52496,0.09324 -0.74791,0.27971c-0.22295,0.18242 -0.40132,0.42361 -0.53509,0.72359v4.98001h-1.12491v-6.85284zM255.9125,369.54761c0,-1.07019 0.19458,-1.87891 0.58374,-2.42616c0.38916,-0.54725 0.95668,-0.82088 1.70257,-0.82088c0.69724,0 1.22625,0.29795 1.58704,0.89385l0.06081,-0.76616h1.00938v6.91364c0,0.85128 -0.21687,1.50395 -0.65062,1.95796c-0.43375,0.45402 -1.03978,0.68103 -1.8181,0.68103c-0.33646,0 -0.71548,-0.08513 -1.13707,-0.25539c-0.41753,-0.1662 -0.7317,-0.37092 -0.94249,-0.61414l0.45605,-0.77224c0.46213,0.45402 0.97492,0.68103 1.53839,0.68103c0.93236,0 1.4107,-0.50874 1.43502,-1.52623v-0.88777c-0.36078,0.53509 -0.87561,0.80264 -1.54447,0.80264c-0.7094,0 -1.26274,-0.26754 -1.66,-0.80264c-0.39727,-0.53509 -0.60401,-1.30329 -0.62022,-2.30455zM257.03133,370.18607c0,0.76616 0.1135,1.32962 0.34051,1.69041c0.22701,0.36078 0.59793,0.54117 1.11275,0.54117c0.55536,0 0.9729,-0.28376 1.2526,-0.85128v-3.42946c-0.29187,-0.55942 -0.70535,-0.83912 -1.24044,-0.83912c-0.51482,0 -0.88777,0.18039 -1.11883,0.54117c-0.22701,0.36078 -0.34254,0.91412 -0.34659,1.66z" fill="#ffffff" stroke="none" stroke-width="1" stroke-linecap="square"/></g></g></svg>