<svg version="1.1" xmlns="http://www.w3.org/2000/svg" xmlns:xlink="http://www.w3.org/1999/xlink" width="252.75" height="336.5" viewBox="0,0,252.75,336.5"><g transform="translate(-123.69519,-10.86723)"><g data-paper-data="{&quot;isPaintingLayer&quot;:true}" fill="none" fill-rule="nonzero" stroke-linecap="round" stroke-linejoin="miter" stroke-miterlimit="10" stroke-dasharray="" stroke-dashoffset="0" style="mix-blend-mode: normal"><g><path d="M246.1952,285.11723c0,0 -6.62306,-18.39613 -12.80183,-61.00816c-1.82171,-12.56346 -3.57816,-45.45051 -3.69914,-68.02131c-0.34584,-64.52024 5.50098,-137.97053 5.50098,-137.97053" stroke="#41d375" stroke-width="8.5"/><path d="M279.19521,156.11721c0,0 -0.35583,51.24964 -8.09981,76.43056c-5.30161,17.2391 -23.90019,41.56944 -23.90019,41.56944" stroke="#41d375" stroke-width="8.5"/><path d="M313.19521,162.11721c0,0 -0.95798,46.44059 -5.89622,66.01717c-4.30909,17.08246 -22.10378,44.98283 -22.10378,44.98283" stroke="#41d375" stroke-width="8.5"/><path d="M340.19521,150.11721c0,0 1.56966,65.84798 -7.30317,88.88322c-8.43871,21.90821 -44.69683,40.11678 -44.69683,40.11678" stroke="#41d375" stroke-width="8.5"/><path d="M304.19521,276.11723c0,0 0.5715,18.39237 -0.71007,27.04295c-1.37808,9.30207 -7.28993,26.95705 -7.28993,26.95705" stroke="#41d375" stroke-width="8.5"/><path d="M171.19521,261.11723c0,0 48.75266,15.42914 92.01969,13.5342c46.21849,-2.0242 83.98031,-12.5342 83.98031,-12.5342l-33,77" stroke="#41d375" stroke-width="8.5"/><path d="M215.19521,339.11723c0,0 -16.12064,-14.71005 -13.65536,-148.93295c2.04901,-111.55889 18.65536,-175.06705 18.65536,-175.06705" stroke="#41d375" stroke-width="8.5"/><path d="M175.19521,266.11723c0,0 12.78512,29.91125 16.17961,42.95325c2.83907,10.908 2.82039,30.04675 2.82039,30.04675" stroke="#41d375" stroke-width="8.5"/><path d="M231.19521,343.11723c0,0 -0.65714,-25.43807 -0.11051,-37.8284c0.41907,-9.49888 3.11051,-30.1716 3.11051,-30.1716" stroke="#41d375" stroke-width="8.5"/><path d="M249.19521,307.11723c0,0 -21.27578,4 -32,4c-13.35897,0 -44,-7 -44,-7" stroke="#41d375" stroke-width="8.5"/><path d="M345.19521,301.11723c0,0 -22.3118,4.66704 -31.97415,4.50045c-9.67097,-0.16675 -26.02585,-3.50045 -26.02585,-3.50045" stroke="#41d375" stroke-width="8.5"/><path d="M349.19521,240.84662c0,0 -35.86239,10.37665 -89.02245,8.13924c-52.82099,-2.22314 -84.97755,-12.80591 -84.97755,-12.80591" stroke="#41d375" stroke-width="8.5"/><path d="M349.19521,193.84661c0,0 -35.86239,10.37665 -89.02245,8.13924c-52.82099,-2.22314 -84.97755,-12.80591 -84.97755,-12.80591" stroke="#41d375" stroke-width="8.5"/><path d="M349.19521,156.84661c0,0 -35.86239,10.37665 -89.02245,8.13924c-52.82099,-2.22314 -84.97755,-12.80591 -84.97755,-12.80591" stroke="#41d375" stroke-width="8.5"/><path d="M372.19519,116.6248c0,0 -40.80893,14.33058 -101.30141,11.24063c-12.73058,-0.65028 -24.40632,-1.81846 -34.90295,-3.25598c-2.64025,-0.36158 1.81713,-8.32756 -0.69496,-8.13192c-33.3368,2.59632 -61.10067,-6.2976 -61.10067,-6.2976" stroke="#41d375" stroke-width="8.5"/><path d="M367.1952,91.11721c0,0 -40.78321,7.13236 -62.03641,7.75289c-24.06355,0.70259 -74.96359,-3.75289 -74.96359,-3.75289" stroke="#41d375" stroke-width="8.5"/><path d="M233.1952,78.11721c0,0 -17.70339,-0.29008 -25.64301,-1.44794c-8.05861,-1.17521 -22.35699,-5.55206 -22.35699,-5.55206" stroke="#41d375" stroke-width="8.5"/><path d="M320.1952,41.11721c0,0 -51.18766,7.25762 -72.88747,6.02267c-18.9171,-1.07659 -53.11253,-5.02267 -53.11253,-5.02267" stroke="#41d375" stroke-width="8.5"/><path d="M256.1952,72.11721c0,0 12.02237,14.67097 15.77968,34.19379c7.91648,41.13378 -4.77968,47.80621 -4.77968,47.80621" stroke="#41d375" stroke-width="8.5"/><path d="M291.1952,66.11721c0,0 13.8224,19.1837 18.20175,36.17636c8.02678,31.14534 0.79825,49.82364 0.79825,49.82364" stroke="#41d375" stroke-width="8.5"/><path d="M320.1952,65.11721c0,0 18.64262,29.41967 21.8869,42.75724c2.62238,10.78088 -3.8869,31.24276 -3.8869,31.24276" stroke="#41d375" stroke-width="8.5"/><path d="M153.1952,272.11721c0,0 -14.24444,-42.37291 -9.79719,-82.90069c2.04958,-18.67784 18.79719,-26.09931 18.79719,-26.09931" stroke="#41d375" stroke-width="7"/><path d="M137.1952,267.11721c0,0 -17.54664,-72.66951 -6.0554,-110.44643c7.64319,-25.12663 37.0554,-28.55357 37.0554,-28.55357" stroke="#41d375" stroke-width="7"/><path d="M171.1952,163.11721c0,0 -18.95164,0.83137 -26.90769,-1.33846c-6.34103,-1.72937 -17.09231,-4.66154 -17.09231,-4.66154" stroke="#41d375" stroke-width="7"/><path d="M171.1952,189.11721c0,0 -18.95164,0.83137 -26.90769,-1.33846c-6.34103,-1.72937 -17.09231,-4.66154 -17.09231,-4.66154" stroke="#41d375" stroke-width="7"/><path d="M171.1952,216.11721c0,0 -18.95164,0.83137 -26.90769,-1.33846c-6.34103,-1.72937 -17.09231,-4.66154 -17.09231,-4.66154" stroke="#41d375" stroke-width="7"/><path d="M171.1952,249.11721c0,0 -18.95164,0.83137 -26.90769,-1.33846c-6.34103,-1.72937 -17.09231,-4.66154 -17.09231,-4.66154" stroke="#41d375" stroke-width="7"/></g></g></g></svg>