<svg version="1.1" xmlns="http://www.w3.org/2000/svg" xmlns:xlink="http://www.w3.org/1999/xlink" width="63.19886" height="67.66897" viewBox="0,0,63.19886,67.66897"><g transform="translate(-208.40057,-158.72668)"><g data-paper-data="{&quot;isPaintingLayer&quot;:true}" fill-rule="nonzero" stroke-linejoin="miter" stroke-miterlimit="10" stroke-dasharray="" stroke-dashoffset="0" style="mix-blend-mode: normal"><path d="M213.2585,221.61187h-3.54765v4.63543h-1.31028v-10.49462h5.45127v1.13723h-4.14099v3.5971h3.54765zM216.67858,226.2473h-1.2732v-7.79989h1.2732zM216.77747,216.3831c0,0.21426 -0.06181,0.39556 -0.18542,0.54389c-0.11537,0.14009 -0.29255,0.21014 -0.53153,0.21014c-0.24722,0 -0.43264,-0.07005 -0.55625,-0.21014c-0.11537,-0.14833 -0.17306,-0.32963 -0.17306,-0.54389c0,-0.21426 0.05768,-0.39556 0.17306,-0.54389c0.12361,-0.15657 0.30491,-0.23486 0.54389,-0.23486c0.24722,0 0.42852,0.07829 0.54389,0.23486c0.12361,0.14833 0.18542,0.32963 0.18542,0.54389zM220.93614,221.29048l1.335,-2.84307h1.48334l-2.12612,3.85668l2.17556,3.94321h-1.45862l-1.38445,-2.91723l-1.38445,2.91723h-1.47098l2.17556,-3.94321l-2.11376,-3.85668h1.45862zM235.30666,222.92215c-0.05768,1.12074 -0.37496,1.98191 -0.95181,2.58348c-0.57685,0.59334 -1.38857,0.89 -2.43515,0.89c-1.04658,0 -1.88302,-0.39968 -2.50931,-1.19903c-0.61806,-0.79935 -0.92709,-1.88714 -0.92709,-3.26334v-1.90362c0,-1.35973 0.31727,-2.43515 0.95181,-3.22626c0.64278,-0.79935 1.51218,-1.19903 2.6082,-1.19903c1.01361,0 1.79649,0.30491 2.34862,0.91473c0.56037,0.60982 0.86528,1.47922 0.91473,2.6082h-1.335c-0.05768,-0.85704 -0.23898,-1.46686 -0.54389,-1.82945c-0.29667,-0.3626 -0.75815,-0.54389 -1.38445,-0.54389c-0.71695,0 -1.26908,0.28018 -1.65639,0.84056c-0.37907,0.55213 -0.56861,1.37209 -0.56861,2.45987v1.91598c0,1.06306 0.17718,1.8789 0.53153,2.44751c0.3626,0.56861 0.88588,0.85292 1.56987,0.85292c0.69222,0 1.18667,-0.16893 1.48334,-0.50681c0.30491,-0.34611 0.49445,-0.96005 0.56861,-1.84181zM236.64008,221.98271c0,-1.12899 0.27607,-2.02311 0.8282,-2.68237c0.55213,-0.65926 1.27732,-0.98889 2.17556,-0.98889c0.90649,0 1.63579,0.32139 2.18792,0.96417c0.55213,0.64278 0.83232,1.5163 0.84056,2.62056v0.8282c0,1.12899 -0.27607,2.02311 -0.8282,2.68237c-0.54389,0.65926 -1.26908,0.98889 -2.17556,0.98889c-0.90649,0 -1.63167,-0.31727 -2.17556,-0.95181c-0.54389,-0.64278 -0.8282,-1.51218 -0.85292,-2.6082zM237.92564,222.72438c0,0.79935 0.15657,1.42977 0.46972,1.89126c0.31315,0.46148 0.73755,0.69222 1.2732,0.69222c1.12074,0 1.6976,-0.81171 1.73056,-2.43515v-0.89c0,-0.79111 -0.1607,-1.41741 -0.48209,-1.8789c-0.31315,-0.46972 -0.73343,-0.70459 -1.26084,-0.70459c-0.52741,0 -0.94769,0.23486 -1.26084,0.70459c-0.31315,0.46148 -0.46972,1.08778 -0.46972,1.8789zM245.5195,218.44742l0.03708,0.71695c0.46972,-0.56861 1.09602,-0.85292 1.8789,-0.85292c0.86528,0 1.47098,0.37496 1.81709,1.12487c0.49445,-0.74991 1.17843,-1.12487 2.05195,-1.12487c1.43389,0 2.16732,0.89412 2.20029,2.68237v5.25349h-1.26084v-5.12988c0,-0.56861 -0.10301,-0.98889 -0.30903,-1.26084c-0.19778,-0.28018 -0.53977,-0.42028 -1.02598,-0.42028c-0.37907,0 -0.69222,0.14833 -0.93945,0.445c-0.23898,0.29667 -0.37496,0.67574 -0.40792,1.13723v5.22877h-1.28556v-5.19169c-0.01648,-1.07954 -0.45736,-1.61931 -1.32264,-1.61931c-0.64278,0 -1.09602,0.32139 -1.35973,0.96417v5.84683h-1.26084v-7.79989zM256.62494,218.44742l0.03708,0.71695c0.46972,-0.56861 1.09602,-0.85292 1.8789,-0.85292c0.86528,0 1.47098,0.37496 1.81709,1.12487c0.49445,-0.74991 1.17843,-1.12487 2.05195,-1.12487c1.43389,0 2.16732,0.89412 2.20029,2.68237v5.25349h-1.26084v-5.12988c0,-0.56861 -0.10301,-0.98889 -0.30903,-1.26084c-0.19778,-0.28018 -0.53977,-0.42028 -1.02598,-0.42028c-0.37907,0 -0.69222,0.14833 -0.93945,0.445c-0.23898,0.29667 -0.37496,0.67574 -0.40792,1.13723v5.22877h-1.28556v-5.19169c-0.01648,-1.07954 -0.45736,-1.61931 -1.32264,-1.61931c-0.64278,0 -1.09602,0.32139 -1.35973,0.96417v5.84683h-1.26084v-7.79989zM270.32623,224.25716c0,-0.28018 -0.10713,-0.51917 -0.32139,-0.71695c-0.20602,-0.19778 -0.60157,-0.42852 -1.18667,-0.69222c-0.69222,-0.28018 -1.17843,-0.51917 -1.45862,-0.71695c-0.28018,-0.20602 -0.49032,-0.43676 -0.63042,-0.69222c-0.14009,-0.25546 -0.21014,-0.56037 -0.21014,-0.91473c0,-0.63454 0.23074,-1.16195 0.69222,-1.58223c0.46972,-0.42028 1.06306,-0.63042 1.78001,-0.63042c0.75815,0 1.36797,0.2225 1.82945,0.6675c0.46148,0.43676 0.69222,1.00125 0.69222,1.69348h-1.26084c0,-0.35435 -0.11949,-0.65514 -0.35847,-0.90236c-0.23074,-0.24722 -0.53153,-0.37083 -0.90236,-0.37083c-0.37083,0 -0.66338,0.09889 -0.87764,0.29667c-0.21426,0.18954 -0.32139,0.44912 -0.32139,0.77875c0,0.25546 0.07829,0.4656 0.23486,0.63042c0.15657,0.15657 0.53153,0.3626 1.12487,0.61806c0.94769,0.37083 1.59047,0.73343 1.92834,1.08778c0.34611,0.35435 0.51917,0.80348 0.51917,1.34737c0,0.67574 -0.23486,1.21963 -0.70459,1.63167c-0.46148,0.4038 -1.08366,0.6057 -1.86653,0.6057c-0.81584,0 -1.4751,-0.23074 -1.97778,-0.69222c-0.50269,-0.46972 -0.75403,-1.06306 -0.75403,-1.78001h1.2732c0.01648,0.42852 0.14833,0.76639 0.39556,1.01361c0.25546,0.24722 0.60982,0.37083 1.06306,0.37083c0.42028,0 0.74167,-0.09477 0.96417,-0.28431c0.2225,-0.18954 0.33375,-0.445 0.33375,-0.76639z" fill="#7d0000" stroke="none" stroke-width="1" stroke-linecap="square"/><path d="M222.50115,200.72668v-41.25h25.5l9.25,9.5v31.75z" fill="#ffd8d8" stroke="#7d6363" stroke-width="1.5" stroke-linecap="butt"/><path d="M222.50115,200.72668v-41.25h25.5l9.25,9.5v31.75z" fill="none" stroke="#7d0000" stroke-width="1.5" stroke-linecap="butt"/><g fill="#96a5b3" stroke="none" stroke-width="0.5" stroke-linecap="butt"><path d="M245.20505,165.31214c0,0.5 -0.5,0.5 -0.5,0.5h-0.16667c-3.79183,0 -7.65339,0.32688 -11.4199,0.32688c-2.4423,0.815 -3.4543,-0.72545 -5.33334,-0.66667c-0.62052,0.01941 -1.10416,1.4282 -2.32685,1.16667c-0.95908,-0.20515 -0.9596,-0.69816 -1.22758,-1.50211c0,0 -0.15811,-0.47434 0.31623,-0.63245c0.47434,-0.15811 0.63245,0.31623 0.63245,0.31623c0.63278,1.89834 1.97607,-0.45505 3.52566,-0.34189c1.62016,0.11832 2.02164,1.41616 4.25324,0.67312c3.82055,0 7.73456,-0.33979 11.58009,-0.33979h0.16667c0,0 0.5,0 0.5,0.5z"/><path d="M251.03838,173.47881c0,0.5 -0.5,0.5 -0.5,0.5c-0.5,0 -1.16666,0 -1.66666,0c-1.87022,0 -5.79416,-0.8343 -7.47532,-0.03806c-1.53829,0.72857 -3.38163,1.4651 -5.22695,0.99532c-2.09682,-1.3837 -7.17216,-0.95726 -9.63106,-0.95726c0,0 -0.5,0 -0.5,-0.5c0,-0.5 0.5,-0.5 0.5,-0.5c2.57189,0 7.86218,-0.42197 10.03561,1.04274c1.58395,0.38483 3.13779,-0.48884 4.43972,-1.00468c2.02662,-0.80297 5.70672,-0.03806 7.85801,-0.03806c0.5,0 1,0 1.5,0h0.16666c0,0 0.5,0 0.5,0.5z"/><path d="M251.70505,180.64548c0,0.5 -0.5,0.5 -0.5,0.5l0.08269,-0.22265c-1.10098,1.53099 -2.87977,1.2235 -4.58974,1.22265c-3.36903,-0.00169 -6.68433,-0.49999 -10.15962,-0.49999c-1.96434,0 -3.65652,-0.39828 -5.56109,-0.67042c-1.64756,-0.23542 -3.59053,0.49966 -5.04959,-0.41356c0,0 -0.41603,-0.27735 -0.13868,-0.69338c0.27735,-0.41603 0.69338,-0.13868 0.69338,-0.13868c0.81576,0.60107 2.54824,0.24936 3.55598,0.24936c2.17516,0 4.27026,0.66667 6.5,0.66667c3.4692,0 6.79776,0.49976 10.15991,0.49999c1.18321,0.00008 3.07265,0.40108 3.7574,-0.77734l0.74936,-0.22265c0,0 0.5,0 0.5,0.5z"/><path d="M250.89193,189.1657c-0.35356,0.35356 -0.70711,0 -0.70711,0l0.02022,-0.18689c-2.31978,0 -4.42356,0.71996 -6.58658,0.99354c-3.06613,0.38781 -5.00935,-0.66021 -7.91342,-0.66021c-3.50986,0 -7.00186,-0.16666 -10.5,-0.16666c0,0 -0.5,0 -0.5,-0.5c0,-0.5 0.5,-0.5 0.5,-0.5c3.50232,0 6.98747,0.16666 10.5,0.16666c2.96768,0 4.70669,0.94873 7.75324,0.67313c2.18492,-0.19766 4.39822,-1.00646 6.74676,-1.00646l0.68688,0.47978c0,0 0.35356,0.35356 0,0.70711z"/><path d="M252.67939,196.97026c-0.15812,0.47434 -0.63245,0.31623 -0.63245,0.31623l-0.56156,-0.19185c-0.53231,-0.38049 -0.81016,-0.28249 -1.44699,-0.28249c-2.14112,0 -5.59662,-0.85747 -7.57211,-0.34235c-0.99277,0.25887 -1.74277,1.03643 -2.78111,1.00863c-1.51927,-0.04068 -2.56441,-0.99961 -3.9801,-0.99961c-2.40528,0 -4.61391,1.18482 -6.89443,0.82959c-1.63227,-0.25425 -2.33424,-1.16292 -4.10557,-1.16292c0,0 -0.5,0 -0.5,-0.5c0,-0.5 0.5,-0.5 0.5,-0.5c1.7396,0 2.69956,0.98073 4.22776,1.17041c1.4872,0.18459 1.98736,-0.54685 3.32403,-0.8237c1.03199,-0.21375 2.3826,-0.01338 3.44821,-0.01338c1.34937,0 3.05257,1.55902 4.36653,1.01815c3.24907,-1.33742 6.42625,-0.68481 9.9668,-0.68481c0.77544,0 1.21492,-0.03954 1.88635,0.38417l0.43844,0.14148c0,0 0.47434,0.15812 0.31623,0.63246z"/></g></g></g></svg>