<svg version="1.1" xmlns="http://www.w3.org/2000/svg" xmlns:xlink="http://www.w3.org/1999/xlink" width="458.95345" height="291.2257" viewBox="0,0,458.95345,291.2257"><defs><linearGradient x1="240.77665" y1="69.75062" x2="240.77665" y2="114.25062" gradientUnits="userSpaceOnUse" id="color-1"><stop offset="0" stop-color="#29312a"/><stop offset="1" stop-color="#29312a" stop-opacity="0"/></linearGradient></defs><g transform="translate(-10.52328,-62.69547)"><g data-paper-data="{&quot;isPaintingLayer&quot;:true}" fill-rule="nonzero" stroke-linejoin="miter" stroke-miterlimit="10" stroke-dasharray="" stroke-dashoffset="0" style="mix-blend-mode: normal"><path d="M13.27329,351.17117v-285.7257h453.45345v285.7257z" fill="#badfbe" stroke="#273737" stroke-width="5.5" stroke-linecap="butt"/><path d="M16.02662,114.25062v-44.5h449.5v44.5z" fill="url(#color-1)" stroke="none" stroke-width="0" stroke-linecap="butt"/><path d="M14.75003,101.43452v-35h450.5v35z" fill="#ffffff" stroke="#273737" stroke-width="2" stroke-linecap="butt"/><path d="M14.75003,101.43452v-35h37v35z" fill="#ececec" stroke="#273737" stroke-width="2" stroke-linecap="butt"/><path d="M51.75002,101.43452v-35h37v35z" fill="#ececec" stroke="#273737" stroke-width="2" stroke-linecap="butt"/><path d="M23.8577,84.88773l16.1,-9.85224v19.22388z" fill="#696969" stroke="#292929" stroke-width="1.6" stroke-linecap="butt"/><path d="M61.96687,94.3427v-12.36428h17.64566v12.36428z" fill="#5c5c5c" stroke="#292929" stroke-width="1.3" stroke-linecap="butt"/><path d="M61.40152,81.75059c1.25561,-1.13409 9.46345,-8.54764 9.46345,-8.54764c0,0 7.53415,6.9166 8.97807,8.24217c0.45908,0.42145 0.53031,0.83317 0.06723,0.83317c-1.86624,0 -14.22524,0 -18,0c-0.68985,0 -0.82073,-0.24592 -0.50876,-0.5277z" fill="#696969" stroke="#292929" stroke-width="1.6" stroke-linecap="butt"/><path d="M109.13696,92.35881h-2.01535l-6.37145,-12.27056v12.27056h-2.00486v-15.91288h2.00486l6.39245,12.31254v-12.31254h1.99436zM118.42256,92.35881c-0.11896,-0.25192 -0.20294,-0.68228 -0.25192,-1.29108c-0.68578,1.00768 -1.5605,1.51151 -2.62416,1.51151c-1.07066,0 -1.90689,-0.3009 -2.50869,-0.90271c-0.60181,-0.60181 -0.90271,-1.44853 -0.90271,-2.54018c0,-1.20361 0.40587,-2.1588 1.21761,-2.86558c0.81874,-0.70677 1.93838,-1.06716 3.35892,-1.08115h1.42754v-1.2596c0,-0.70677 -0.15745,-1.20711 -0.47235,-1.50102c-0.3149,-0.3009 -0.79424,-0.45135 -1.43804,-0.45135c-0.58081,0 -1.05316,0.17494 -1.41704,0.52483c-0.36388,0.34289 -0.54582,0.78025 -0.54582,1.31208h-1.94188c0,-0.6088 0.17844,-1.18612 0.53533,-1.73194c0.36388,-0.55282 0.84673,-0.98668 1.44853,-1.30158c0.60181,-0.3149 1.27709,-0.47235 2.02585,-0.47235c1.21061,0 2.13082,0.3009 2.76061,0.90271c0.6298,0.60181 0.95169,1.48002 0.96569,2.63465v5.96208c0.007,0.91671 0.12946,1.70745 0.36738,2.37224v0.17844zM115.84039,90.81581c0.46885,0 0.91671,-0.12946 1.34357,-0.38838c0.43386,-0.26592 0.75226,-0.59481 0.95519,-0.98668v-2.82359h-1.10215c-0.91671,0.014 -1.64097,0.22043 -2.1728,0.6193c-0.53183,0.39887 -0.79774,0.95519 -0.79774,1.66896c0,0.67178 0.13296,1.15813 0.39887,1.45903c0.27291,0.3009 0.73126,0.45135 1.37506,0.45135zM126.2435,89.41976l2.24628,-8.89064h1.96287l-3.50587,11.8297h-1.44853l-3.54786,-11.8297h1.96287l2.33025,8.89064zM131.57951,76.44593h1.82641l5.57371,17.27745h-1.81592z" fill="#000000" stroke="none" stroke-width="1" stroke-linecap="square"/></g></g></svg>